M48
T01C3.175
T02C1.002
T03C0.35
T04C0.5
T05C0.9
T06C1.
T07C1.2
T08C1.4
T09C1.8
T10C1.9
T11C2.
T12C2.2
T13C4.2
T14C0.1
%
T01
X217148Y-004
X2425Y-004
X2435Y30451
X2425Y59
X217148Y59
X-217148Y59
X-2425Y59
X-245913Y423
X-2435Y288
X-245913Y168
X-2425Y-004
X-217148Y-004
X244801Y139174
T02
X-241001Y585
X-2385Y587501
X02532Y59
X02782Y59
X03032Y59
X2365Y587501
X241001Y585
X-241001Y001
X-2385Y-001501
X-200583Y-00333
X-19967Y-00459
X-199512Y-002122
X-198133Y-002867
X-197161Y-00416
X-195795Y-004906
X-195795Y-003259
X-195795Y-001699
X-191857Y-003314
X-190965Y-004597
X-190504Y-003314
X-189244Y-003314
X-18796Y-003314
X-186639Y-004838
X-186639Y-003314
X-186639Y-00179
X-182403Y-00442
X-180981Y-00442
X-182403Y-00301
X-181201Y-001806
X-179397Y-001806
X-178195Y-00301
X-179574Y-00442
X-178195Y-00442
X-174077Y-00179
X-174077Y-003314
X-174077Y-004838
X-172224Y-003314
X-17058Y-003314
X-168859Y-004838
X-168859Y-003314
X-168859Y-00179
X-165187Y-003314
X-164295Y-004597
X-163834Y-003314
X-162574Y-003314
X-16129Y-003314
X-159969Y-004838
X-159969Y-003314
X-159969Y-00179
X-155848Y-003999
X-154607Y-004697
X-155824Y-002518
X-154447Y-002014
X-153644Y-003668
X-153029Y-002386
X-151997Y-003414
X-151594Y-004809
X-147407Y-003314
X-146515Y-004597
X-146054Y-003314
X-144794Y-003314
X-14351Y-003314
X-142189Y-00179
X-142189Y-003314
X-142189Y-004838
X-138449Y-003378
X-137248Y-00471
X-135608Y-00471
X-133644Y-00471
X-135608Y-003378
X-137248Y-001985
X-135608Y-001985
X-133644Y-001985
X-12855Y-00459
X-129463Y-00333
X-128392Y-002122
X-127013Y-002867
X-126041Y-00416
X-124675Y-004906
X-124675Y-003259
X-124675Y-001699
X2385Y-001501
X241001Y001
X244801Y141663
T03
X1638Y11655
X16345Y12595
X1503Y12595
X1505Y11655
X15345Y10645
X13905Y11655
X13555Y11265
X1318Y11265
X12835Y11655
X12525Y1226
X1297Y12595
X1318Y1226
X13915Y12595
X1162Y1547
X112Y1578
X11755Y16035
X1242Y1578
X12245Y1629
X1266Y1702
X1251Y1692
X12375Y1706
X1228Y17065
X1217Y17075
X12035Y1731
X12965Y18125
X1297Y1829
X12915Y1845
X12175Y1847
X11575Y18395
X11675Y19075
X1166Y19335
X11805Y1977
X12175Y19455
X1278Y1946
X1373Y1957
X13725Y1941
X13725Y1925
X13725Y1909
X13725Y1893
X1373Y18775
X13725Y18615
X13725Y1845
X13725Y18295
X13725Y1814
X13725Y1797
X13725Y1781
X13725Y17645
X13725Y175
X13725Y17335
X13725Y1717
X13725Y1701
X13715Y16845
X13715Y1669
X1371Y1653
X1641Y19335
X16425Y19075
X16925Y1847
X16325Y18395
X16785Y1731
X1692Y17075
X1703Y17065
X17125Y1706
X1726Y1692
X1741Y1702
X16995Y1629
X16505Y16035
X1595Y1578
X1637Y1547
X1717Y1578
X1846Y1653
X18465Y1669
X18465Y16845
X18475Y1701
X18475Y1717
X18475Y17335
X18475Y175
X18475Y17645
X18475Y1781
X18475Y1797
X18475Y1814
X18475Y18295
X18475Y1845
X17715Y18125
X1772Y1829
X17665Y1845
X18475Y18615
X1848Y18775
X18475Y1893
X18475Y1909
X18475Y1925
X18475Y1941
X1848Y1957
X1753Y1946
X16925Y19455
X16555Y1977
X15335Y2142
X1559Y21615
X15855Y21615
X15985Y2143
X1677Y21875
X16325Y2225
X1522Y2225
X1426Y2234
X14185Y2244
X14105Y22585
X1402Y2269
X1347Y2293
X136Y2269
X136Y2257
X13605Y2244
X13595Y22335
X13315Y222111
X1358Y22037
X136Y2149
X13175Y21875
X12915Y21955
X1202Y21875
X11575Y2225
X11105Y21615
X11235Y2143
X1084Y21615
X10585Y2142
X1047Y2225
X0951Y2234
X09435Y2244
X09355Y22585
X0927Y2269
X0872Y2293
X0885Y2269
X0885Y2257
X08855Y2244
X08845Y22335
X08565Y222111
X0883Y22037
X0885Y2149
X08425Y21875
X08165Y21955
X0764Y2309
X06825Y2225
X0727Y21875
X06485Y2143
X06355Y21615
X0572Y2225
X0609Y21615
X05835Y2142
X0803Y1946
X07425Y19455
X07055Y1977
X0691Y19335
X06925Y19075
X06825Y18395
X07425Y1847
X08215Y18125
X0822Y1829
X08165Y1845
X0898Y1957
X08975Y1941
X08975Y1925
X08975Y1909
X08975Y1893
X0898Y18775
X08975Y18615
X08975Y1845
X08975Y18295
X08975Y1814
X08975Y1797
X08975Y1781
X08975Y17645
X08975Y175
X08975Y17335
X08975Y1717
X08975Y1701
X08965Y16845
X08965Y1669
X0896Y1653
X0791Y1702
X07625Y1706
X0753Y17065
X0742Y17075
X07285Y1731
X0776Y1692
X07495Y1629
X0767Y1578
X07005Y16035
X0645Y1578
X0421Y1653
X04215Y1669
X04215Y16845
X04225Y1701
X04225Y1717
X04225Y17335
X04225Y175
X04225Y17645
X04225Y1781
X04225Y1797
X04225Y1814
X04225Y18295
X04225Y1845
X04225Y18615
X0423Y18775
X04225Y1893
X04225Y1909
X04225Y1925
X04225Y1941
X0423Y1957
X0328Y1946
X02675Y19455
X0216Y19335
X02175Y19075
X02075Y18395
X02675Y1847
X03415Y1845
X0347Y1829
X03465Y18125
X02535Y1731
X0267Y17075
X0278Y17065
X02875Y1706
X0301Y1692
X0316Y1702
X02745Y1629
X0292Y1578
X02255Y16035
X017Y1578
X0212Y1547
X0687Y1547
X09165Y12595
X09155Y11655
X08805Y11265
X0843Y11265
X08085Y11655
X0843Y1226
X0822Y12595
X07775Y1226
X06845Y12595
X0688Y11655
X05845Y10645
X05875Y09595
X07365Y10635
X0733Y09595
X0784Y09595
X0889Y09595
X10625Y09595
X10595Y10645
X103Y11655
X1028Y12595
X11595Y12595
X1163Y11655
X12115Y10635
X1208Y09595
X1259Y09595
X1364Y09595
X1239Y0839
X11575Y0755
X07055Y0507
X0691Y04635
X06925Y04375
X07425Y04755
X0803Y0476
X08165Y0375
X0822Y0359
X08215Y03425
X07425Y0377
X06825Y03695
X04225Y03915
X04225Y0375
X04225Y03595
X04225Y0344
X04225Y0327
X04225Y0311
X04225Y02945
X04225Y028
X04225Y02635
X04225Y0247
X04225Y0231
X04215Y02145
X04215Y0199
X0421Y0183
X0292Y0108
X0212Y0077
X017Y0108
X02255Y01335
X02745Y0159
X0316Y0232
X0301Y0222
X02875Y0236
X0278Y02365
X0267Y02375
X02535Y0261
X03465Y03425
X0347Y0359
X03415Y0375
X02675Y0377
X02075Y03695
X-0092Y0487
X-00925Y0471
X-00925Y0455
X-00925Y0439
X-00925Y0423
X-0092Y04075
X-00925Y03915
X-00925Y0375
X-00925Y03595
X-00925Y0344
X-00925Y0327
X-00925Y0311
X-00925Y02945
X-00925Y028
X-00925Y02635
X-00925Y0247
X-00925Y0231
X-00935Y02145
X-00935Y0199
X-0094Y0183
X-0223Y0108
X-02405Y0159
X-0303Y0077
X-0345Y0108
X-02895Y01335
X-0199Y0232
X-0214Y0222
X-02275Y0236
X-0237Y02365
X-0248Y02375
X-02615Y0261
X-01685Y03425
X-0168Y0359
X-01735Y0375
X-0187Y0476
X-02475Y04755
X-02845Y0507
X-0299Y04635
X-02975Y04375
X-02475Y0377
X-03075Y03695
X-0567Y0487
X-05675Y0471
X-05675Y0455
X-05675Y0439
X-05675Y0423
X-0567Y04075
X-05675Y03915
X-05675Y0375
X-05675Y03595
X-05675Y0344
X-05675Y0327
X-05675Y0311
X-05675Y02945
X-05675Y028
X-05675Y02635
X-05675Y0247
X-05675Y0231
X-05685Y02145
X-05685Y0199
X-0569Y0183
X-0698Y0108
X-0778Y0077
X-082Y0108
X-07645Y01335
X-07155Y0159
X-0674Y0232
X-0689Y0222
X-07025Y0236
X-0712Y02365
X-0723Y02375
X-07365Y0261
X-06435Y03425
X-0643Y0359
X-06485Y0375
X-07225Y0377
X-07825Y03695
X-07725Y04375
X-0774Y04635
X-07595Y0507
X-07225Y04755
X-0662Y0476
X-08165Y0673
X-08295Y06915
X-0893Y0755
X-08815Y0672
X-0856Y06915
X-07825Y0755
X-0738Y07175
X-06485Y07255
X-06225Y07175
X-058Y0679
X-0582Y07337
X-06085Y075111
X-05805Y07635
X-05795Y0774
X-058Y0787
X-058Y0799
X-0593Y0823
X-0538Y0799
X-05295Y07885
X-05215Y0774
X-0514Y0764
X-0418Y0755
X-04065Y0672
X-0381Y06915
X-03415Y0673
X-03545Y06915
X-03075Y0755
X-0263Y07175
X-01735Y07255
X-01475Y07175
X-0105Y0679
X-0107Y07337
X-01335Y075111
X-0226Y0839
X-04025Y09595
X-0576Y09595
X-0701Y0839
X-0681Y09595
X-0732Y09595
X-07285Y10635
X-06565Y11655
X-0622Y11265
X-05845Y11265
X-05495Y11655
X-0622Y1226
X-0643Y12595
X-06875Y1226
X-0777Y11655
X-07805Y12595
X-0912Y12595
X-10235Y12595
X-1097Y1226
X-1118Y12595
X-11625Y1226
X-11315Y11655
X-1097Y11265
X-10595Y11265
X-10245Y11655
X-091Y11655
X-08805Y10645
X-08775Y09595
X-0989Y0764
X-09965Y0774
X-10045Y07885
X-1013Y0799
X-1057Y07337
X-10975Y07175
X-1055Y0679
X-1042Y0487
X-10425Y0471
X-10425Y0455
X-10425Y0439
X-10425Y0423
X-1042Y04075
X-10425Y03915
X-10425Y0375
X-10425Y03595
X-10425Y0344
X-10425Y0327
X-10425Y0311
X-10425Y02945
X-10425Y028
X-10425Y02635
X-10425Y0247
X-10425Y0231
X-10435Y02145
X-10435Y0199
X-1044Y0183
X-1173Y0108
X-1253Y0077
X-1295Y0108
X-12395Y01335
X-11905Y0159
X-1149Y0232
X-1164Y0222
X-11775Y0236
X-1187Y02365
X-1198Y02375
X-12115Y0261
X-11185Y03425
X-1118Y0359
X-11235Y0375
X-11975Y0377
X-12575Y03695
X-12475Y04375
X-1249Y04635
X-12345Y0507
X-11975Y04755
X-1137Y0476
X-12915Y0673
X-13045Y06915
X-1368Y0755
X-13565Y0672
X-1331Y06915
X-12575Y0755
X-1213Y07175
X-11235Y07255
X-10835Y075111
X-10555Y07635
X-10545Y0774
X-1055Y0787
X-1055Y0799
X-1068Y0823
X-1176Y0839
X-1051Y09595
X-1156Y09595
X-1207Y09595
X-12035Y10635
X-1252Y11655
X-13555Y10645
X-13525Y09595
X-1488Y0799
X-14795Y07885
X-14715Y0774
X-1464Y0764
X-1543Y0823
X-153Y0799
X-153Y0787
X-15295Y0774
X-15305Y07635
X-15585Y075111
X-1532Y07337
X-153Y0679
X-15725Y07175
X-15985Y07255
X-1688Y07175
X-17325Y0755
X-17665Y0673
X-1517Y0487
X-15175Y0471
X-15175Y0455
X-15175Y0439
X-15175Y0423
X-1517Y04075
X-15175Y03915
X-15175Y0375
X-15175Y03595
X-15175Y0344
X-15175Y0327
X-15175Y0311
X-15175Y02945
X-15175Y028
X-15175Y02635
X-15175Y0247
X-15175Y0231
X-15185Y02145
X-15185Y0199
X-1519Y0183
X-15935Y03425
X-1593Y0359
X-15985Y0375
X-1612Y0476
X-16725Y04755
X-17095Y0507
X-1724Y04635
X-17225Y04375
X-16725Y0377
X-17325Y03695
X-16865Y0261
X-1673Y02375
X-1662Y02365
X-16525Y0236
X-1639Y0222
X-1624Y0232
X-16655Y0159
X-1648Y0108
X-17145Y01335
X-1728Y0077
X-177Y0108
X-1994Y0183
X-19935Y0199
X-19935Y02145
X-19925Y0231
X-19925Y0247
X-19925Y02635
X-19925Y028
X-19925Y02945
X-19925Y0311
X-19925Y0327
X-19925Y0344
X-19925Y03595
X-19925Y0375
X-19925Y03915
X-1992Y04075
X-19925Y0423
X-19925Y0439
X-19925Y0455
X-20735Y0375
X-2068Y0359
X-20685Y03425
X-2099Y0232
X-2114Y0222
X-21405Y0159
X-2123Y0108
X-2203Y0077
X-2245Y0108
X-21895Y01335
X-21275Y0236
X-2137Y02365
X-2148Y02375
X-21615Y0261
X-22075Y03695
X-21475Y0377
X-21975Y04375
X-2199Y04635
X-21845Y0507
X-21475Y04755
X-2087Y0476
X-19925Y0471
X-1992Y0487
X-18315Y0672
X-1806Y06915
X-17795Y06915
X-1843Y0755
X-1939Y0764
X-19465Y0774
X-19545Y07885
X-1963Y0799
X-2018Y0823
X-2005Y0799
X-2005Y0787
X-20045Y0774
X-20055Y07635
X-20335Y075111
X-2007Y07337
X-2005Y0679
X-20475Y07175
X-20735Y07255
X-2163Y07175
X-22415Y0673
X-22545Y06915
X-2281Y06915
X-23065Y0672
X-2318Y0755
X-22075Y0755
X-2126Y0839
X-2001Y09595
X-2106Y09595
X-2157Y09595
X-21535Y10635
X-23025Y09595
X-23055Y10645
X-2335Y11655
X-2337Y12595
X-22055Y12595
X-2202Y11655
X-21125Y1226
X-2068Y12595
X-2047Y1226
X-20815Y11655
X-2047Y11265
X-20095Y11265
X-19745Y11655
X-19735Y12595
X-1862Y12595
X-186Y11655
X-18305Y10645
X-18275Y09595
X-1651Y0839
X-1526Y09595
X-1631Y09595
X-1682Y09595
X-16785Y10635
X-16065Y11655
X-1572Y11265
X-15345Y11265
X-14995Y11655
X-1385Y11655
X-12555Y12595
X-1387Y12595
X-14985Y12595
X-1572Y1226
X-1593Y12595
X-16375Y1226
X-1727Y11655
X-17305Y12595
X-1728Y1547
X-1648Y1578
X-1519Y1653
X-15185Y1669
X-15185Y16845
X-15175Y1701
X-15175Y1717
X-15175Y17335
X-15175Y175
X-15175Y17645
X-15175Y1781
X-15175Y1797
X-15175Y1814
X-15175Y18295
X-15175Y1845
X-15175Y18615
X-1517Y18775
X-15175Y1893
X-15175Y1909
X-15175Y1925
X-15175Y1941
X-1517Y1957
X-1612Y1946
X-16725Y19455
X-17095Y1977
X-1724Y19335
X-17225Y19075
X-17325Y18395
X-16725Y1847
X-15985Y1845
X-1593Y1829
X-15935Y18125
X-1624Y1702
X-1639Y1692
X-16525Y1706
X-1673Y17075
X-16865Y1731
X-1662Y17065
X-16655Y1629
X-17145Y16035
X-177Y1578
X-19925Y17335
X-19925Y1717
X-19925Y1701
X-19935Y16845
X-19935Y1669
X-1994Y1653
X-2123Y1578
X-2203Y1547
X-2245Y1578
X-21895Y16035
X-21405Y1629
X-2099Y1702
X-2114Y1692
X-21275Y1706
X-2137Y17065
X-2148Y17075
X-21615Y1731
X-22075Y18395
X-21475Y1847
X-20735Y1845
X-2068Y1829
X-20685Y18125
X-19925Y175
X-19925Y17645
X-19925Y1781
X-19925Y1797
X-19925Y1814
X-19925Y18295
X-19925Y1845
X-19925Y18615
X-1992Y18775
X-19925Y1893
X-19925Y1909
X-19925Y1925
X-19925Y1941
X-1992Y1957
X-2087Y1946
X-21475Y19455
X-21975Y19075
X-2199Y19335
X-21845Y1977
X-23065Y2142
X-2281Y21615
X-2318Y2225
X-22545Y21615
X-22415Y2143
X-2163Y21875
X-22075Y2225
X-2126Y2309
X-20335Y222111
X-20735Y21955
X-20475Y21875
X-2005Y2149
X-2007Y22037
X-20055Y22335
X-20045Y2244
X-2005Y2257
X-2005Y2269
X-2018Y2293
X-1963Y2269
X-19545Y22585
X-19465Y2244
X-1939Y2234
X-1843Y2225
X-18315Y2142
X-1806Y21615
X-17665Y2143
X-17795Y21615
X-17325Y2225
X-1688Y21875
X-15985Y21955
X-15725Y21875
X-153Y2149
X-12575Y18395
X-12115Y1731
X-1198Y17075
X-1187Y17065
X-11775Y1706
X-1149Y1702
X-1164Y1692
X-1295Y1578
X-1253Y1547
X-12395Y16035
X-11905Y1629
X-1173Y1578
X-1044Y1653
X-10435Y1669
X-10435Y16845
X-07725Y19075
X-0774Y19335
X-07595Y1977
X-07225Y19455
X-0662Y1946
X-0567Y1957
X-05675Y1941
X-05675Y1925
X-05675Y1909
X-05675Y1893
X-0567Y18775
X-05675Y18615
X-0723Y17075
X-0712Y17065
X-07025Y1706
X-0689Y1692
X-0674Y1702
X-07155Y1629
X-07645Y16035
X-082Y1578
X-0778Y1547
X-0698Y1578
X-0569Y1653
X-05685Y1669
X-05685Y16845
X-05675Y1701
X-05675Y1717
X-05675Y17335
X-05675Y175
X-05675Y17645
X-05675Y1781
X-05675Y1797
X-05675Y1814
X-05675Y18295
X-05675Y1845
X-0118Y2293
X-0105Y2269
X-0105Y2257
X-0063Y2269
X-00545Y22585
X-00465Y2244
X-0039Y2234
X-01045Y2244
X-01055Y22335
X-01335Y222111
X-0107Y22037
X-0105Y2149
X-01475Y21875
X-01735Y21955
X-0263Y21875
X-06485Y1845
X-07225Y1847
X-0643Y1829
X-06435Y18125
X-07365Y1731
X-07825Y18395
X-10425Y1701
X-10425Y1717
X-10425Y17335
X-10425Y175
X-10425Y17645
X-10425Y1781
X-10425Y1797
X-10425Y1814
X-10425Y18295
X-10425Y1845
X-10425Y18615
X-1042Y18775
X-10425Y1893
X-10425Y1909
X-10425Y1925
X-10425Y1941
X-1042Y1957
X-1137Y1946
X-11235Y1845
X-1118Y1829
X-11185Y18125
X-11975Y1847
X-12475Y19075
X-1249Y19335
X-11975Y19455
X-12345Y1977
X-13565Y2142
X-1331Y21615
X-12915Y2143
X-13045Y21615
X-1368Y2225
X-1464Y2234
X-14715Y2244
X-14795Y22585
X-1488Y2269
X-1543Y2293
X-153Y2269
X-153Y2257
X-15295Y2244
X-15305Y22335
X-1532Y22037
X-15585Y222111
X-1651Y2309
X-1526Y24295
X-1631Y24295
X-1682Y24295
X-16785Y25335
X-1727Y26355
X-18305Y25345
X-18275Y24295
X-2001Y24295
X-2106Y24295
X-2157Y24295
X-23025Y24295
X-23055Y25345
X-2335Y26355
X-2337Y27295
X-22055Y27295
X-2202Y26355
X-21535Y25335
X-2047Y25965
X-20095Y25965
X-19745Y26355
X-20815Y26355
X-21125Y2696
X-2068Y27295
X-2047Y2696
X-19735Y27295
X-1862Y27295
X-186Y26355
X-17305Y27295
X-16375Y2696
X-1593Y27295
X-1572Y2696
X-16065Y26355
X-1572Y25965
X-15345Y25965
X-14995Y26355
X-14985Y27295
X-1387Y27295
X-1385Y26355
X-12555Y27295
X-11625Y2696
X-1118Y27295
X-1097Y2696
X-10235Y27295
X-0912Y27295
X-091Y26355
X-10245Y26355
X-10595Y25965
X-1097Y25965
X-11315Y26355
X-12035Y25335
X-1252Y26355
X-13555Y25345
X-13525Y24295
X-1207Y24295
X-1156Y24295
X-1051Y24295
X-1176Y2309
X-12575Y2225
X-1213Y21875
X-11235Y21955
X-10975Y21875
X-1055Y2149
X-1057Y22037
X-10835Y222111
X-10555Y22335
X-10545Y2244
X-1055Y2257
X-1055Y2269
X-1068Y2293
X-1013Y2269
X-10045Y22585
X-09965Y2244
X-0989Y2234
X-0893Y2225
X-08815Y2142
X-0856Y21615
X-08165Y2143
X-08295Y21615
X-07825Y2225
X-0738Y21875
X-06485Y21955
X-06225Y21875
X-058Y2149
X-0582Y22037
X-06085Y222111
X-05805Y22335
X-05795Y2244
X-058Y2257
X-058Y2269
X-0593Y2293
X-0701Y2309
X-0576Y24295
X-0681Y24295
X-0732Y24295
X-07285Y25335
X-08775Y24295
X-08805Y25345
X-0777Y26355
X-07805Y27295
X-06875Y2696
X-0643Y27295
X-0622Y2696
X-06565Y26355
X-0622Y25965
X-05845Y25965
X-05495Y26355
X-05485Y27295
X-0437Y27295
X-0435Y26355
X-04055Y25345
X-04025Y24295
X-0538Y2269
X-05295Y22585
X-05215Y2244
X-0514Y2234
X-0418Y2225
X-04065Y2142
X-0381Y21615
X-03415Y2143
X-03545Y21615
X-03075Y2225
X-0226Y2309
X-0257Y24295
X-0206Y24295
X-0101Y24295
X-02535Y25335
X-0302Y26355
X-03055Y27295
X-02125Y2696
X-0168Y27295
X-0147Y2696
X-01815Y26355
X-0147Y25965
X-01095Y25965
X-00745Y26355
X-00735Y27295
X0078Y27295
X008Y26355
X02095Y27295
X0437Y31305
X03055Y31305
X0302Y32245
X02125Y3164
X0168Y31305
X0147Y3164
X01815Y32245
X02535Y33265
X0147Y32635
X01095Y32635
X00745Y32245
X00735Y31305
X-0078Y31305
X-008Y32245
X-02095Y31305
X-0213Y32245
X-02615Y33265
X-0258Y34305
X-0309Y34305
X-0414Y34305
X-04055Y32635
X-04405Y32245
X-0368Y32635
X-03335Y32245
X-03025Y3164
X-0347Y31305
X-0368Y3164
X-04415Y31305
X-0553Y31305
X-0555Y32245
X-05845Y33255
X-05875Y34305
X-0397Y3567
X-041Y3591
X-041Y3603
X-04105Y3616
X-04095Y36265
X-03815Y363889
X-0408Y36563
X-04605Y36015
X-0452Y3591
X-04685Y3616
X-0476Y3626
X-0572Y3635
X-05835Y3718
X-0609Y36985
X-06355Y36985
X-06485Y3717
X-0803Y3914
X-07425Y39145
X-07055Y3883
X-0691Y39265
X-06925Y39525
X-06825Y40205
X-07425Y4013
X-08165Y4015
X-0822Y4031
X-08215Y40475
X-07285Y4129
X-0742Y41525
X-0753Y41535
X-07625Y4154
X-0776Y4168
X-0791Y4158
X-07495Y4231
X-07005Y42565
X-0767Y4282
X-0896Y4207
X-08965Y4191
X-08965Y41755
X-08975Y4159
X-08975Y4143
X-08975Y41265
X-08975Y411
X-08975Y40955
X-08975Y4079
X-08975Y4063
X-08975Y4046
X-08975Y40305
X-08975Y4015
X-08975Y39985
X-0898Y39825
X-08975Y3967
X-08975Y3951
X-08975Y3935
X-08975Y3919
X-0898Y3903
X-0885Y3711
X-08425Y36725
X-08565Y363889
X-0883Y36563
X-08845Y36265
X-08855Y3616
X-0885Y3603
X-0885Y3591
X-0872Y3567
X-08165Y36645
X-0727Y36725
X-06825Y3635
X-0764Y3551
X-0889Y34305
X-0784Y34305
X-0733Y34305
X-07365Y33265
X-0688Y32245
X-06845Y31305
X-07775Y3164
X-0822Y31305
X-0843Y3164
X-08085Y32245
X-0843Y32635
X-08805Y32635
X-09155Y32245
X-09165Y31305
X-1028Y31305
X-103Y32245
X-10595Y33255
X-10625Y34305
X-0927Y3591
X-09355Y36015
X-09435Y3616
X-0951Y3626
X-1047Y3635
X-10585Y3718
X-1084Y36985
X-11235Y3717
X-11105Y36985
X-11575Y3635
X-1202Y36725
X-12915Y36645
X-13175Y36725
X-136Y3711
X-1358Y36563
X-13315Y363889
X-1239Y3551
X-1259Y34305
X-1208Y34305
X-12115Y33265
X-1163Y32245
X-11595Y31305
X-12525Y3164
X-1297Y31305
X-1318Y3164
X-12835Y32245
X-1318Y32635
X-13555Y32635
X-13905Y32245
X-13915Y31305
X-1503Y31305
X-1505Y32245
X-15345Y33255
X-15375Y34305
X-1364Y34305
X-1347Y3567
X-13595Y36265
X-13605Y3616
X-136Y3603
X-136Y3591
X-1402Y3591
X-14105Y36015
X-14185Y3616
X-1426Y3626
X-1522Y3635
X-15335Y3718
X-1559Y36985
X-15855Y36985
X-15985Y3717
X-1677Y36725
X-16325Y3635
X-1714Y3551
X-1683Y34305
X-1734Y34305
X-1839Y34305
X-20125Y34305
X-18655Y32245
X-18305Y32635
X-1793Y32635
X-17585Y32245
X-16865Y33265
X-1638Y32245
X-16345Y31305
X-17275Y3164
X-1772Y31305
X-1793Y3164
X-18665Y31305
X-1978Y31305
X-198Y32245
X-20095Y33255
X-2113Y32245
X-21095Y31305
X-22025Y3164
X-2247Y31305
X-2268Y3164
X-23415Y31305
X-23405Y32245
X-23055Y32635
X-2268Y32635
X-22335Y32245
X-21615Y33265
X-2158Y34305
X-2209Y34305
X-2314Y34305
X-2189Y3551
X-2297Y3567
X-231Y3591
X-231Y3603
X-23105Y3616
X-2352Y3591
X-23605Y36015
X-23685Y3616
X-2376Y3626
X-23095Y36265
X-22815Y363889
X-2308Y36563
X-231Y3711
X-22675Y36725
X-22415Y36645
X-2152Y36725
X-21075Y3635
X-20605Y36985
X-20735Y3717
X-2034Y36985
X-20085Y3718
X-1997Y3635
X-1901Y3626
X-18935Y3616
X-18855Y36015
X-1877Y3591
X-1822Y3567
X-1835Y3591
X-1835Y3603
X-17665Y36645
X-17925Y36725
X-1835Y3711
X-1833Y36563
X-18065Y363889
X-18345Y36265
X-18355Y3616
X-21305Y3883
X-2116Y39265
X-21175Y39525
X-21675Y39145
X-2228Y3914
X-2323Y3903
X-23225Y3919
X-23225Y3935
X-23225Y3951
X-23225Y3967
X-2323Y39825
X-23225Y39985
X-23225Y4015
X-23225Y40305
X-23225Y4046
X-23225Y4063
X-23225Y4079
X-23225Y40955
X-23225Y411
X-23225Y41265
X-23225Y4143
X-23215Y4191
X-2321Y4207
X-23215Y41755
X-23225Y4159
X-22465Y40475
X-2247Y4031
X-22415Y4015
X-21675Y4013
X-21075Y40205
X-21535Y4129
X-2167Y41525
X-2178Y41535
X-21875Y4154
X-2201Y4168
X-2216Y4158
X-21745Y4231
X-2192Y4282
X-21255Y42565
X-2112Y4313
X-207Y4282
X-1846Y4207
X-18465Y4191
X-18465Y41755
X-18475Y4159
X-18475Y4143
X-18475Y41265
X-18475Y411
X-18475Y40955
X-18475Y4079
X-18475Y4063
X-18475Y4046
X-18475Y40305
X-18475Y4015
X-18475Y39985
X-1848Y39825
X-18475Y3967
X-18475Y3951
X-18475Y3935
X-18475Y3919
X-1848Y3903
X-1753Y3914
X-16925Y39145
X-16555Y3883
X-1641Y39265
X-16425Y39525
X-16325Y40205
X-16925Y4013
X-17665Y4015
X-1772Y4031
X-17715Y40475
X-16785Y4129
X-1692Y41525
X-1703Y41535
X-17125Y4154
X-1726Y4168
X-1741Y4158
X-16995Y4231
X-1717Y4282
X-16505Y42565
X-1637Y4313
X-1595Y4282
X-1371Y4207
X-13715Y4191
X-13715Y41755
X-13725Y4159
X-13725Y4143
X-13725Y41265
X-13725Y411
X-13725Y40955
X-13725Y4079
X-13725Y4063
X-13725Y4046
X-13725Y40305
X-13725Y4015
X-13725Y39985
X-1373Y39825
X-13725Y3967
X-13725Y3951
X-13725Y3935
X-13725Y3919
X-1373Y3903
X-1278Y3914
X-12175Y39145
X-11805Y3883
X-1166Y39265
X-11675Y39525
X-11575Y40205
X-12175Y4013
X-12915Y4015
X-1297Y4031
X-12965Y40475
X-12035Y4129
X-1217Y41525
X-1228Y41535
X-12375Y4154
X-1251Y4168
X-1266Y4158
X-12245Y4231
X-1242Y4282
X-11755Y42565
X-112Y4282
X-1162Y4313
X-1028Y46005
X-11595Y46005
X-1163Y46945
X-12525Y4634
X-1297Y46005
X-1318Y4634
X-12835Y46945
X-1318Y47335
X-13555Y47335
X-13905Y46945
X-13915Y46005
X-1503Y46005
X-1505Y46945
X-16865Y47965
X-1683Y49005
X-1734Y49005
X-1839Y49005
X-20125Y49005
X-21075Y5105
X-2152Y51425
X-20735Y5187
X-20605Y51685
X-2034Y51685
X-20085Y5188
X-1997Y5105
X-1901Y5096
X-18935Y5086
X-18855Y50715
X-1877Y5061
X-1822Y5037
X-1714Y5021
X-1835Y5061
X-1835Y5073
X-18355Y5086
X-18345Y50965
X-1833Y51263
X-18065Y510889
X-17665Y51345
X-17925Y51425
X-1835Y5181
X-2116Y53965
X-21175Y54225
X-21075Y54905
X-21675Y5483
X-22415Y5485
X-2247Y5501
X-22465Y55175
X-21535Y5599
X-2167Y56225
X-2178Y56235
X-21875Y5624
X-2201Y5638
X-2216Y5628
X-21745Y5701
X-21255Y57265
X-207Y5752
X-2112Y5783
X-2192Y5752
X-2321Y5677
X-23215Y5661
X-23215Y56455
X-23225Y5629
X-23225Y5613
X-23225Y55965
X-23225Y558
X-23225Y55655
X-23225Y5549
X-23225Y5533
X-23225Y5516
X-23225Y55005
X-23225Y5485
X-23225Y54685
X-2323Y54525
X-23225Y5437
X-23225Y5421
X-23225Y5405
X-23225Y5389
X-2323Y5373
X-2228Y5384
X-21675Y53845
X-21305Y5353
X-231Y5181
X-2376Y5096
X-23685Y5086
X-23605Y50715
X-2352Y5061
X-2297Y5037
X-231Y5061
X-231Y5073
X-23105Y5086
X-23095Y50965
X-2308Y51263
X-22815Y510889
X-22675Y51425
X-22415Y51345
X-2189Y5021
X-2314Y49005
X-2209Y49005
X-2158Y49005
X-21615Y47965
X-22335Y46945
X-2268Y47335
X-23055Y47335
X-23405Y46945
X-23415Y46005
X-2268Y4634
X-2247Y46005
X-22025Y4634
X-21095Y46005
X-2113Y46945
X-20095Y47955
X-198Y46945
X-1978Y46005
X-18665Y46005
X-18655Y46945
X-18305Y47335
X-1793Y47335
X-17585Y46945
X-1793Y4634
X-1772Y46005
X-17275Y4634
X-16345Y46005
X-1638Y46945
X-15345Y47955
X-15375Y49005
X-1364Y49005
X-16325Y5105
X-1677Y51425
X-15985Y5187
X-1559Y51685
X-15335Y5188
X-15855Y51685
X-1522Y5105
X-1426Y5096
X-14185Y5086
X-14105Y50715
X-1402Y5061
X-1347Y5037
X-136Y5061
X-136Y5073
X-13605Y5086
X-13595Y50965
X-1358Y51263
X-13315Y510889
X-12915Y51345
X-13175Y51425
X-136Y5181
X-1373Y5373
X-13725Y5389
X-13725Y5405
X-13725Y5421
X-13725Y5437
X-1373Y54525
X-16555Y5353
X-1641Y53965
X-16425Y54225
X-16925Y53845
X-1753Y5384
X-1848Y5373
X-18475Y5389
X-18475Y5405
X-18475Y5421
X-18475Y5437
X-1848Y54525
X-18475Y54685
X-18475Y5485
X-18475Y55005
X-18475Y5516
X-18475Y5533
X-18475Y5549
X-18475Y55655
X-18475Y558
X-18475Y55965
X-18475Y5613
X-18475Y5629
X-18465Y56455
X-1846Y5677
X-18465Y5661
X-17715Y55175
X-1772Y5501
X-17665Y5485
X-16925Y5483
X-16325Y54905
X-16785Y5599
X-1692Y56225
X-1703Y56235
X-17125Y5624
X-1726Y5638
X-1741Y5628
X-16995Y5701
X-1717Y5752
X-16505Y57265
X-1637Y5783
X-1595Y5752
X-13715Y5661
X-1371Y5677
X-1266Y5628
X-1251Y5638
X-12375Y5624
X-1228Y56235
X-12035Y5599
X-1217Y56225
X-12245Y5701
X-11755Y57265
X-112Y5752
X-1162Y5783
X-1242Y5752
X-13715Y56455
X-13725Y5629
X-13725Y5613
X-13725Y55965
X-13725Y558
X-13725Y55655
X-13725Y5549
X-13725Y5533
X-13725Y5516
X-13725Y55005
X-13725Y5485
X-13725Y54685
X-12965Y55175
X-1297Y5501
X-12915Y5485
X-12175Y5483
X-11575Y54905
X-11675Y54225
X-12175Y53845
X-1278Y5384
X-11805Y5353
X-1166Y53965
X-0896Y5677
X-08965Y5661
X-08965Y56455
X-08975Y5629
X-08975Y5613
X-08975Y55965
X-08975Y558
X-08975Y55655
X-08975Y5549
X-08975Y5533
X-08975Y5516
X-08975Y55005
X-08975Y5485
X-08975Y54685
X-0898Y54525
X-08975Y5437
X-08975Y5421
X-08975Y5405
X-08975Y5389
X-0898Y5373
X-0803Y5384
X-07425Y53845
X-07055Y5353
X-0691Y53965
X-06925Y54225
X-06825Y54905
X-07425Y5483
X-08165Y5485
X-0822Y5501
X-08215Y55175
X-07285Y5599
X-0742Y56225
X-0753Y56235
X-07625Y5624
X-0776Y5638
X-0791Y5628
X-07495Y5701
X-0767Y5752
X-07005Y57265
X-0687Y5783
X-0645Y5752
X-0421Y5677
X-04215Y5661
X-04215Y56455
X-04225Y5629
X-04225Y5613
X-04225Y55965
X-04225Y558
X-04225Y55655
X-03465Y55175
X-0347Y5501
X-03415Y5485
X-0328Y5384
X-02675Y53845
X-02305Y5353
X-0216Y53965
X-02175Y54225
X-02675Y5483
X-02075Y54905
X-02535Y5599
X-02875Y5624
X-0278Y56235
X-0267Y56225
X-0301Y5638
X-02255Y57265
X-017Y5752
X-0212Y5783
X-0292Y5752
X-02745Y5701
X-0316Y5628
X-04225Y5549
X-04225Y5533
X-04225Y5516
X-04225Y55005
X-04225Y5485
X-04225Y54685
X-0423Y54525
X-04225Y5437
X-04225Y5421
X-04225Y5405
X-04225Y5389
X-0423Y5373
X-0252Y51425
X-03415Y51345
X-03675Y51425
X-041Y5181
X-0408Y51263
X-03815Y510889
X-04095Y50965
X-04105Y5086
X-041Y5073
X-041Y5061
X-0397Y5037
X-0452Y5061
X-04605Y50715
X-04685Y5086
X-0476Y5096
X-0572Y5105
X-05835Y5188
X-0609Y51685
X-06355Y51685
X-06485Y5187
X-0727Y51425
X-06825Y5105
X-0764Y5021
X-08565Y510889
X-08165Y51345
X-08425Y51425
X-0885Y5181
X-0883Y51263
X-08845Y50965
X-08855Y5086
X-0885Y5073
X-0885Y5061
X-0872Y5037
X-0927Y5061
X-09355Y50715
X-09435Y5086
X-0951Y5096
X-1047Y5105
X-10585Y5188
X-1084Y51685
X-11105Y51685
X-11235Y5187
X-1202Y51425
X-11575Y5105
X-1239Y5021
X-1208Y49005
X-1259Y49005
X-12115Y47965
X-10625Y49005
X-10595Y47955
X-103Y46945
X-09165Y46005
X-0843Y4634
X-0822Y46005
X-07775Y4634
X-08085Y46945
X-0843Y47335
X-09155Y46945
X-08805Y47335
X-0889Y49005
X-0784Y49005
X-0733Y49005
X-07365Y47965
X-05875Y49005
X-0414Y49005
X-0309Y49005
X-0258Y49005
X-0289Y5021
X-02075Y5105
X-01605Y51685
X-01735Y5187
X-0097Y5105
X-0134Y51685
X-01085Y5188
X0039Y5096
X00465Y5086
X00545Y50715
X0063Y5061
X01055Y50965
X01335Y510889
X0107Y51263
X0105Y5181
X01475Y51425
X01735Y51345
X01045Y5086
X0105Y5073
X0105Y5061
X0118Y5037
X0226Y5021
X03075Y5105
X0263Y51425
X03415Y5187
X03545Y51685
X0381Y51685
X04065Y5188
X0418Y5105
X0514Y5096
X05215Y5086
X05295Y50715
X0538Y5061
X058Y5061
X058Y5073
X05795Y5086
X05805Y50965
X06085Y510889
X0582Y51263
X058Y5181
X06225Y51425
X06485Y51345
X0738Y51425
X07825Y5105
X0701Y5021
X0732Y49005
X08775Y49005
X08805Y47955
X091Y46945
X0912Y46005
X10235Y46005
X10245Y46945
X10595Y47335
X1097Y47335
X11315Y46945
X1097Y4634
X1118Y46005
X11625Y4634
X12555Y46005
X1385Y46945
X1387Y46005
X14985Y46005
X14995Y46945
X15345Y47335
X1572Y47335
X16785Y47965
X1526Y49005
X13525Y49005
X13555Y47955
X1252Y46945
X12035Y47965
X1207Y49005
X1156Y49005
X1051Y49005
X1176Y5021
X1331Y51685
X1368Y5105
X13045Y51685
X12915Y5187
X12575Y5105
X1213Y51425
X11235Y51345
X10975Y51425
X1055Y5181
X1057Y51263
X10835Y510889
X10555Y50965
X10545Y5086
X1055Y5073
X1055Y5061
X1068Y5037
X1013Y5061
X10045Y50715
X09965Y5086
X0989Y5096
X0893Y5105
X08815Y5188
X0856Y51685
X08295Y51685
X08165Y5187
X0662Y5384
X07225Y53845
X07595Y5353
X0774Y53965
X07725Y54225
X07825Y54905
X07225Y5483
X06435Y55175
X0643Y5501
X06485Y5485
X0567Y5373
X05675Y5389
X05675Y5405
X05675Y5421
X05675Y5437
X0567Y54525
X05675Y54685
X05675Y5485
X05675Y55005
X05675Y5516
X05675Y5533
X05675Y5549
X0345Y5752
X0303Y5783
X0227Y59
X0202Y59
X0177Y59
X0223Y5752
X02895Y57265
X02405Y5701
X0237Y56235
X0248Y56225
X02615Y5599
X02275Y5624
X0214Y5638
X0199Y5628
X0094Y5677
X00935Y5661
X00935Y56455
X00925Y5629
X00925Y5613
X00925Y55965
X00925Y558
X00925Y55655
X00925Y5549
X00925Y5533
X00925Y5516
X00925Y55005
X01685Y55175
X0168Y5501
X01735Y5485
X00925Y5485
X00925Y54685
X0092Y54525
X00925Y5437
X00925Y5421
X00925Y5405
X00925Y5389
X0092Y5373
X0187Y5384
X02475Y53845
X02845Y5353
X0299Y53965
X02975Y54225
X02475Y5483
X03075Y54905
X05675Y55655
X05675Y558
X05675Y55965
X05675Y5613
X05675Y5629
X05685Y56455
X05685Y5661
X0569Y5677
X0698Y5752
X07155Y5701
X07645Y57265
X0778Y5783
X082Y5752
X0689Y5638
X0674Y5628
X07025Y5624
X0712Y56235
X0723Y56225
X07365Y5599
X1042Y5373
X10425Y5389
X10425Y5405
X10425Y5421
X10425Y5437
X1042Y54525
X10425Y54685
X1137Y5384
X11975Y53845
X12345Y5353
X1249Y53965
X12475Y54225
X12575Y54905
X11975Y5483
X11235Y5485
X1118Y5501
X11185Y55175
X10425Y5485
X10425Y55005
X10425Y5516
X10425Y5533
X10425Y5549
X10425Y55655
X10425Y558
X10425Y55965
X10425Y5613
X10425Y5629
X10435Y56455
X10435Y5661
X1044Y5677
X1149Y5628
X1164Y5638
X11775Y5624
X1187Y56235
X12115Y5599
X1198Y56225
X11905Y5701
X1173Y5752
X12395Y57265
X1253Y5783
X1295Y5752
X15175Y5549
X15175Y5533
X15175Y5516
X15175Y55005
X15175Y5485
X15175Y54685
X1517Y54525
X15175Y5437
X15175Y5421
X15175Y5405
X15175Y5389
X1517Y5373
X1612Y5384
X16725Y53845
X17095Y5353
X1724Y53965
X17225Y54225
X17325Y54905
X16725Y5483
X15985Y5485
X1593Y5501
X15935Y55175
X15175Y55655
X15175Y558
X15175Y55965
X15175Y5613
X15175Y5629
X15185Y56455
X15185Y5661
X1519Y5677
X1648Y5752
X1728Y5783
X177Y5752
X17145Y57265
X16655Y5701
X1624Y5628
X1639Y5638
X16525Y5624
X1662Y56235
X1673Y56225
X16865Y5599
X1992Y5373
X19925Y5389
X19925Y5405
X19925Y5421
X19925Y5437
X1992Y54525
X19925Y54685
X19925Y5485
X19925Y55005
X19925Y5516
X19925Y5533
X19925Y5549
X19925Y55655
X19925Y558
X19925Y55965
X19925Y5613
X19925Y5629
X19935Y56455
X19935Y5661
X1994Y5677
X2123Y5752
X2203Y5783
X2245Y5752
X21895Y57265
X21405Y5701
X2099Y5628
X2114Y5638
X21275Y5624
X2137Y56235
X2148Y56225
X21615Y5599
X20685Y55175
X2068Y5501
X20735Y5485
X21475Y5483
X22075Y54905
X21975Y54225
X2199Y53965
X21845Y5353
X21475Y53845
X2087Y5384
X23065Y5188
X2281Y51685
X2318Y5105
X22545Y51685
X22415Y5187
X2163Y51425
X22075Y5105
X2126Y5021
X20735Y51345
X20475Y51425
X2005Y5181
X2007Y51263
X20335Y510889
X20055Y50965
X20045Y5086
X2005Y5073
X2005Y5061
X2018Y5037
X1963Y5061
X19545Y50715
X19465Y5086
X1939Y5096
X1843Y5105
X18315Y5188
X1806Y51685
X17665Y5187
X17795Y51685
X17325Y5105
X1688Y51425
X15985Y51345
X15725Y51425
X153Y5181
X13565Y5188
X1464Y5096
X14715Y5086
X14795Y50715
X1488Y5061
X15295Y5086
X15305Y50965
X1532Y51263
X15585Y510889
X153Y5073
X153Y5061
X1543Y5037
X1651Y5021
X1631Y49005
X1682Y49005
X18275Y49005
X2001Y49005
X2106Y49005
X2157Y49005
X23025Y49005
X23055Y47955
X2335Y46945
X2337Y46005
X22055Y46005
X2202Y46945
X21535Y47965
X2047Y47335
X19745Y46945
X20095Y47335
X20815Y46945
X21125Y4634
X2068Y46005
X2047Y4634
X19735Y46005
X186Y46945
X18305Y47955
X1727Y46945
X1862Y46005
X17305Y46005
X16375Y4634
X1593Y46005
X1572Y4634
X16065Y46945
X1253Y4313
X1295Y4282
X12395Y42565
X1173Y4282
X11905Y4231
X1198Y41525
X1187Y41535
X1164Y4168
X11775Y4154
X12115Y4129
X1517Y3903
X15175Y3919
X15175Y3935
X15175Y3951
X1612Y3914
X16725Y39145
X17095Y3883
X1724Y39265
X17225Y39525
X16725Y4013
X17325Y40205
X16865Y4129
X1593Y4031
X15985Y4015
X15175Y3967
X1517Y39825
X15175Y39985
X15935Y40475
X15175Y4015
X15175Y40305
X15175Y4046
X15175Y4063
X15175Y4079
X15175Y40955
X15175Y411
X15175Y41265
X15175Y4143
X15175Y4159
X15185Y41755
X15185Y4191
X1519Y4207
X1624Y4158
X1639Y4168
X16525Y4154
X1662Y41535
X1673Y41525
X16655Y4231
X1648Y4282
X17145Y42565
X1728Y4313
X177Y4282
X19935Y4191
X1994Y4207
X2099Y4158
X2114Y4168
X21275Y4154
X2137Y41535
X21615Y4129
X2148Y41525
X2245Y4282
X2203Y4313
X21895Y42565
X21405Y4231
X2123Y4282
X19935Y41755
X19925Y4159
X19925Y4143
X19925Y41265
X19925Y411
X19925Y40955
X19925Y4079
X19925Y4063
X19925Y4046
X19925Y40305
X19925Y4015
X19925Y39985
X1992Y39825
X19925Y3967
X19925Y3951
X19925Y3935
X1992Y3903
X19925Y3919
X20735Y4015
X2068Y4031
X20685Y40475
X21475Y4013
X22075Y40205
X21975Y39525
X2199Y39265
X21845Y3883
X21475Y39145
X2087Y3914
X23065Y3718
X2281Y36985
X2318Y3635
X22545Y36985
X22415Y3717
X2163Y36725
X22075Y3635
X2126Y3551
X20735Y36645
X20475Y36725
X2005Y3711
X2007Y36563
X20335Y363889
X20055Y36265
X20045Y3616
X2005Y3603
X2005Y3591
X2018Y3567
X1963Y3591
X19545Y36015
X19465Y3616
X1939Y3626
X1843Y3635
X18315Y3718
X1806Y36985
X17795Y36985
X17665Y3717
X1688Y36725
X17325Y3635
X1651Y3551
X1631Y34305
X1682Y34305
X18275Y34305
X18305Y33255
X186Y32245
X19745Y32245
X20095Y32635
X2001Y34305
X2106Y34305
X2157Y34305
X23025Y34305
X23055Y33255
X2335Y32245
X2337Y31305
X22055Y31305
X2202Y32245
X21535Y33265
X2047Y32635
X20815Y32245
X21125Y3164
X2068Y31305
X2047Y3164
X19735Y31305
X1862Y31305
X17305Y31305
X1727Y32245
X16785Y33265
X16065Y32245
X1572Y32635
X15345Y32635
X14995Y32245
X1572Y3164
X16375Y3164
X1593Y31305
X14985Y31305
X1387Y31305
X1385Y32245
X12555Y31305
X1252Y32245
X12035Y33265
X1207Y34305
X1156Y34305
X1051Y34305
X1176Y3551
X12575Y3635
X13525Y34305
X13555Y33255
X1526Y34305
X1368Y3635
X13045Y36985
X12915Y3717
X1331Y36985
X13565Y3718
X1464Y3626
X14715Y3616
X14795Y36015
X1488Y3591
X153Y3603
X1543Y3567
X153Y3591
X15295Y3616
X15305Y36265
X1532Y36563
X15585Y363889
X15985Y36645
X15725Y36725
X153Y3711
X12345Y3883
X11975Y39145
X1249Y39265
X12475Y39525
X12575Y40205
X11975Y4013
X11235Y4015
X1118Y4031
X11185Y40475
X10425Y4015
X10425Y40305
X10425Y4046
X10425Y4063
X10425Y4079
X07645Y42565
X07155Y4231
X0674Y4158
X0689Y4168
X07025Y4154
X0712Y41535
X0723Y41525
X07365Y4129
X06435Y40475
X0643Y4031
X06485Y4015
X07225Y4013
X07825Y40205
X07725Y39525
X0774Y39265
X07595Y3883
X07225Y39145
X0662Y3914
X0567Y3903
X05675Y3919
X05675Y3935
X05675Y3951
X05675Y3967
X0567Y39825
X05675Y39985
X05675Y4015
X05675Y40305
X05675Y4046
X05675Y4063
X05675Y4079
X05675Y40955
X05675Y411
X05675Y41265
X05675Y4143
X05675Y4159
X05685Y41755
X05685Y4191
X0569Y4207
X0698Y4282
X0778Y4313
X082Y4282
X10425Y40955
X10425Y411
X10425Y41265
X10425Y4143
X10425Y4159
X10435Y41755
X10435Y4191
X1044Y4207
X1149Y4158
X07805Y46005
X0777Y46945
X06875Y4634
X0643Y46005
X0622Y4634
X06565Y46945
X05845Y47335
X0622Y47335
X07285Y47965
X0681Y49005
X0576Y49005
X0593Y5037
X04025Y49005
X04055Y47955
X0435Y46945
X05495Y46945
X05485Y46005
X0437Y46005
X03055Y46005
X0302Y46945
X02535Y47965
X0257Y49005
X0206Y49005
X0101Y49005
X01095Y47335
X00745Y46945
X0147Y47335
X01815Y46945
X02125Y4634
X0168Y46005
X0147Y4634
X00735Y46005
X-0078Y46005
X-008Y46945
X-02095Y46005
X-0213Y46945
X-01095Y47955
X-01125Y49005
X-02615Y47965
X-03335Y46945
X-0368Y47335
X-04055Y47335
X-04405Y46945
X-0368Y4634
X-03025Y4634
X-0347Y46005
X-04415Y46005
X-0553Y46005
X-0555Y46945
X-05845Y47955
X-0688Y46945
X-06845Y46005
X-0687Y4313
X-0645Y4282
X-04225Y4079
X-04225Y4063
X-04225Y4046
X-04225Y40305
X-04225Y4015
X-03415Y4015
X-0347Y4031
X-03465Y40475
X-04225Y40955
X-04225Y411
X-04225Y41265
X-04225Y4143
X-04225Y4159
X-04215Y41755
X-04215Y4191
X-0421Y4207
X-0292Y4282
X-0212Y4313
X-017Y4282
X-02255Y42565
X-02745Y4231
X-0316Y4158
X-0301Y4168
X-02875Y4154
X-0278Y41535
X-0267Y41525
X-02535Y4129
X-02075Y40205
X-02675Y4013
X-02175Y39525
X-0216Y39265
X-02305Y3883
X-02675Y39145
X-0328Y3914
X-04225Y39985
X-0423Y39825
X-04225Y3967
X-04225Y3951
X-04225Y3935
X-04225Y3919
X-0423Y3903
X-041Y3711
X-03675Y36725
X-03415Y36645
X-0252Y36725
X-01735Y3717
X-0134Y36985
X-0097Y3635
X-01605Y36985
X-02075Y3635
X-0289Y3551
X-01125Y34305
X-01095Y33255
X0101Y34305
X-01085Y3718
X0092Y3903
X00925Y3919
X00925Y3935
X00925Y3951
X00925Y3967
X0092Y39825
X00925Y39985
X00925Y4015
X00925Y40305
X00925Y4046
X00925Y4063
X00925Y4079
X00925Y40955
X00925Y411
X00925Y41265
X00925Y4143
X00925Y4159
X00935Y41755
X00935Y4191
X0094Y4207
X0223Y4282
X0303Y4313
X0345Y4282
X02895Y42565
X02405Y4231
X0199Y4158
X0214Y4168
X02275Y4154
X0237Y41535
X0248Y41525
X02615Y4129
X01685Y40475
X0168Y4031
X01735Y4015
X02475Y4013
X03075Y40205
X02975Y39525
X0299Y39265
X02845Y3883
X02475Y39145
X0187Y3914
X0105Y3711
X0039Y3626
X0063Y3591
X00545Y36015
X00465Y3616
X0107Y36563
X01475Y36725
X01735Y36645
X01335Y363889
X01055Y36265
X01045Y3616
X0105Y3603
X0105Y3591
X0118Y3567
X0206Y34305
X0257Y34305
X0226Y3551
X03075Y3635
X0263Y36725
X03415Y3717
X03545Y36985
X0381Y36985
X04065Y3718
X0418Y3635
X0514Y3626
X05215Y3616
X05295Y36015
X0538Y3591
X0593Y3567
X058Y3591
X058Y3603
X05795Y3616
X05805Y36265
X06085Y363889
X0582Y36563
X058Y3711
X06225Y36725
X06485Y36645
X0701Y3551
X07825Y3635
X0738Y36725
X08165Y3717
X08295Y36985
X0856Y36985
X08815Y3718
X0893Y3635
X0989Y3626
X09965Y3616
X10045Y36015
X1013Y3591
X1057Y36563
X1055Y3711
X1137Y3914
X10425Y39985
X1042Y39825
X10425Y3967
X10425Y3951
X10425Y3935
X10425Y3919
X1042Y3903
X1213Y36725
X11235Y36645
X10975Y36725
X10835Y363889
X10555Y36265
X10545Y3616
X1055Y3603
X1055Y3591
X1068Y3567
X08775Y34305
X07285Y33265
X0732Y34305
X0681Y34305
X0576Y34305
X04025Y34305
X04055Y33255
X0435Y32245
X05485Y31305
X05495Y32245
X05845Y32635
X0622Y32635
X06565Y32245
X0622Y3164
X0643Y31305
X06875Y3164
X07805Y31305
X0777Y32245
X08805Y33255
X091Y32245
X0912Y31305
X10245Y32245
X10595Y32635
X1097Y32635
X11315Y32245
X11625Y3164
X1118Y31305
X1097Y3164
X10235Y31305
X09165Y27295
X1028Y27295
X103Y26355
X10595Y25345
X1163Y26355
X11595Y27295
X12525Y2696
X1297Y27295
X1318Y2696
X13915Y27295
X13905Y26355
X13555Y25965
X1318Y25965
X12835Y26355
X12115Y25335
X1208Y24295
X1259Y24295
X1364Y24295
X15375Y24295
X1683Y24295
X1734Y24295
X1839Y24295
X1714Y2309
X1822Y2293
X1835Y2269
X1835Y2257
X17665Y21955
X17925Y21875
X1835Y2149
X1833Y22037
X18065Y222111
X18345Y22335
X18355Y2244
X1877Y2269
X18855Y22585
X18935Y2244
X1901Y2234
X1997Y2225
X20085Y2142
X2034Y21615
X20735Y2143
X20605Y21615
X21075Y2225
X2152Y21875
X22415Y21955
X22675Y21875
X231Y2149
X22815Y222111
X2308Y22037
X2376Y2234
X23685Y2244
X23605Y22585
X2352Y2269
X23095Y22335
X23105Y2244
X231Y2257
X231Y2269
X2297Y2293
X2189Y2309
X2314Y24295
X2209Y24295
X2158Y24295
X20125Y24295
X20095Y25345
X2113Y26355
X21615Y25335
X22335Y26355
X2268Y25965
X23055Y25965
X23405Y26355
X23415Y27295
X2268Y2696
X2247Y27295
X22025Y2696
X21095Y27295
X198Y26355
X1978Y27295
X18665Y27295
X1793Y2696
X1772Y27295
X17275Y2696
X17585Y26355
X18305Y25965
X18655Y26355
X1793Y25965
X16865Y25335
X1638Y26355
X16345Y27295
X1503Y27295
X1505Y26355
X15345Y25345
X1239Y2309
X10625Y24295
X0889Y24295
X0784Y24295
X0733Y24295
X05875Y24295
X05845Y25345
X0688Y26355
X07365Y25335
X08085Y26355
X0843Y25965
X08805Y25965
X09155Y26355
X0843Y2696
X0822Y27295
X07775Y2696
X06845Y27295
X0555Y26355
X0553Y27295
X04415Y27295
X04405Y26355
X04055Y25965
X0368Y25965
X03335Y26355
X0368Y2696
X0347Y27295
X03025Y2696
X0213Y26355
X01095Y25345
X01125Y24295
X02615Y25335
X0258Y24295
X0309Y24295
X0414Y24295
X0289Y2309
X0397Y2293
X041Y2269
X041Y2257
X0476Y2234
X04685Y2244
X04605Y22585
X0452Y2269
X04105Y2244
X04095Y22335
X03815Y222111
X0408Y22037
X041Y2149
X03675Y21875
X03415Y21955
X0252Y21875
X02075Y2225
X0097Y2225
X01605Y21615
X01735Y2143
X0134Y21615
X01085Y2142
X02305Y1977
X-0094Y1653
X-00935Y1669
X-00935Y16845
X-00925Y1701
X-00925Y1717
X-00925Y17335
X-00925Y175
X-00925Y17645
X-00925Y1781
X-00925Y1797
X-00925Y1814
X-00925Y18295
X-00925Y1845
X-00925Y18615
X-0092Y18775
X-00925Y1893
X-00925Y1909
X-00925Y1925
X-00925Y1941
X-0092Y1957
X-0187Y1946
X-02475Y19455
X-02845Y1977
X-0299Y19335
X-02975Y19075
X-03075Y18395
X-02475Y1847
X-01735Y1845
X-0168Y1829
X-01685Y18125
X-02615Y1731
X-0248Y17075
X-0237Y17065
X-02275Y1706
X-0214Y1692
X-0199Y1702
X-02405Y1629
X-0223Y1578
X-02895Y16035
X-0345Y1578
X-0303Y1547
X-05485Y12595
X-0437Y12595
X-0435Y11655
X-04055Y10645
X-0302Y11655
X-03055Y12595
X-02125Y1226
X-0168Y12595
X-0147Y1226
X-00735Y12595
X-00745Y11655
X-01095Y11265
X-0147Y11265
X-01815Y11655
X-02535Y10635
X-0257Y09595
X-0206Y09595
X-0101Y09595
X008Y11655
X0078Y12595
X02095Y12595
X0213Y11655
X03025Y1226
X0347Y12595
X0368Y1226
X04415Y12595
X0555Y11655
X0553Y12595
X04405Y11655
X04055Y11265
X0368Y11265
X03335Y11655
X02615Y10635
X0309Y09595
X0414Y09595
X0289Y0839
X0258Y09595
X01095Y10645
X01125Y09595
X-00465Y0774
X-00545Y07885
X-0063Y0799
X-01055Y07635
X-01045Y0774
X-0105Y0787
X-0105Y0799
X-0118Y0823
X-0039Y0764
X0097Y0755
X01085Y0672
X0134Y06915
X01735Y0673
X01605Y06915
X02075Y0755
X0252Y07175
X03415Y07255
X03675Y07175
X03815Y075111
X0408Y07337
X04095Y07635
X04105Y0774
X041Y0787
X041Y0799
X0397Y0823
X0452Y0799
X04605Y07885
X04685Y0774
X0476Y0764
X041Y0679
X0328Y0476
X02675Y04755
X02305Y0507
X0216Y04635
X02175Y04375
X0423Y04075
X04225Y0423
X04225Y0439
X04225Y0455
X04225Y0471
X0423Y0487
X05835Y0672
X0609Y06915
X0572Y0755
X06485Y0673
X06355Y06915
X06825Y0755
X0727Y07175
X08165Y07255
X08425Y07175
X0885Y0679
X0764Y0839
X0872Y0823
X0885Y0799
X0885Y0787
X08565Y075111
X0883Y07337
X08845Y07635
X08855Y0774
X0927Y0799
X09355Y07885
X09435Y0774
X0951Y0764
X1047Y0755
X11105Y06915
X11235Y0673
X1202Y07175
X1347Y0823
X136Y0799
X136Y0787
X13605Y0774
X13595Y07635
X1358Y07337
X13315Y075111
X12915Y07255
X13175Y07175
X136Y0679
X1373Y0487
X13725Y0471
X13725Y0455
X13725Y0439
X13725Y0423
X1373Y04075
X13725Y03915
X13725Y0375
X13725Y03595
X13725Y0344
X13725Y0327
X13725Y0311
X13725Y02945
X13725Y028
X13725Y02635
X13725Y0247
X13725Y0231
X13715Y02145
X1266Y0232
X1251Y0222
X12375Y0236
X1228Y02365
X1217Y02375
X12035Y0261
X12965Y03425
X1297Y0359
X12915Y0375
X12175Y0377
X11575Y03695
X11675Y04375
X1166Y04635
X11805Y0507
X12175Y04755
X1278Y0476
X1084Y06915
X10585Y0672
X0898Y0487
X08975Y0471
X08975Y0455
X08975Y0439
X08975Y0423
X0898Y04075
X08975Y03915
X08975Y0375
X08975Y03595
X08975Y0344
X08975Y0327
X08975Y0311
X08975Y02945
X08975Y028
X08975Y02635
X08975Y0247
X07285Y0261
X0742Y02375
X0753Y02365
X07625Y0236
X0776Y0222
X0791Y0232
X07495Y0159
X07005Y01335
X0645Y0108
X0687Y0077
X0767Y0108
X0896Y0183
X08965Y0199
X08965Y02145
X08975Y0231
X12245Y0159
X11755Y01335
X112Y0108
X1162Y0077
X1242Y0108
X1371Y0183
X13715Y0199
X1595Y0108
X1637Y0077
X16505Y01335
X1717Y0108
X16995Y0159
X1741Y0232
X1726Y0222
X17125Y0236
X1703Y02365
X1692Y02375
X16785Y0261
X17715Y03425
X1772Y0359
X17665Y0375
X16925Y0377
X16325Y03695
X16425Y04375
X1641Y04635
X16555Y0507
X15335Y0672
X1559Y06915
X15985Y0673
X15855Y06915
X1522Y0755
X1426Y0764
X14185Y0774
X14105Y07885
X1402Y0799
X15375Y09595
X16865Y10635
X17585Y11655
X17275Y1226
X1772Y12595
X1793Y1226
X18665Y12595
X1978Y12595
X18655Y11655
X18305Y11265
X1793Y11265
X1683Y09595
X16325Y0755
X1677Y07175
X17665Y07255
X17925Y07175
X1835Y0679
X16925Y04755
X1753Y0476
X1848Y0487
X18475Y0471
X18475Y0455
X18475Y0439
X18475Y0423
X1848Y04075
X18475Y03915
X18475Y0375
X18475Y03595
X18475Y0344
X18475Y0327
X18475Y0311
X18475Y02945
X18475Y028
X18475Y02635
X18475Y0247
X18475Y0231
X18465Y02145
X18465Y0199
X1846Y0183
X207Y0108
X2112Y0077
X21255Y01335
X2192Y0108
X21745Y0159
X2167Y02375
X21535Y0261
X2178Y02365
X21875Y0236
X2201Y0222
X2216Y0232
X2321Y0183
X23215Y0199
X23215Y02145
X23225Y0231
X23225Y0247
X23225Y02635
X23225Y028
X23225Y02945
X23225Y0311
X23225Y0327
X23225Y0344
X23225Y03595
X23225Y0375
X23225Y03915
X2323Y04075
X23225Y0423
X23225Y0439
X23225Y0455
X23225Y0471
X2323Y0487
X2247Y0359
X22465Y03425
X22415Y0375
X21675Y0377
X21075Y03695
X21175Y04375
X2116Y04635
X21305Y0507
X21675Y04755
X2228Y0476
X231Y0679
X22415Y07255
X22675Y07175
X2308Y07337
X2376Y0764
X23685Y0774
X23605Y07885
X2352Y0799
X2297Y0823
X231Y0799
X231Y0787
X23105Y0774
X23095Y07635
X22815Y075111
X2189Y0839
X21075Y0755
X2152Y07175
X20735Y0673
X20605Y06915
X2034Y06915
X20085Y0672
X1997Y0755
X1901Y0764
X18935Y0774
X18855Y07885
X1877Y0799
X18355Y0774
X18345Y07635
X1833Y07337
X18065Y075111
X1835Y0787
X1835Y0799
X1822Y0823
X1714Y0839
X1734Y09595
X1839Y09595
X20125Y09595
X20095Y10645
X198Y11655
X21095Y12595
X2113Y11655
X22025Y1226
X2247Y12595
X2268Y1226
X22335Y11655
X21615Y10635
X2158Y09595
X2209Y09595
X2314Y09595
X2268Y11265
X23055Y11265
X23405Y11655
X23415Y12595
X2112Y1547
X207Y1578
X21255Y16035
X2192Y1578
X21745Y1629
X2201Y1692
X2216Y1702
X2321Y1653
X23215Y1669
X23215Y16845
X23225Y1701
X23225Y1717
X23225Y17335
X23225Y175
X23225Y17645
X23225Y1781
X23225Y1797
X23225Y1814
X23225Y18295
X23225Y1845
X23225Y18615
X2323Y18775
X23225Y1893
X23225Y1909
X23225Y1925
X23225Y1941
X2323Y1957
X2228Y1946
X21675Y19455
X21305Y1977
X2116Y19335
X21175Y19075
X21075Y18395
X21675Y1847
X22415Y1845
X2247Y1829
X22465Y18125
X21535Y1731
X2167Y17075
X2178Y17065
X21875Y1706
X244801Y142739
T04
X235719Y004233
X195799Y00425
X191996Y005461
X188202Y004249
X148299Y004249
X144505Y005448
X140703Y004246
X100795Y004248
X096995Y005409
X093203Y004245
X053302Y004252
X049509Y005362
X045703Y004246
X00579Y004248
X-005781Y004233
X-045701Y00425
X-049504Y005461
X-053298Y004249
X-093201Y004249
X-096995Y005448
X-100797Y004246
X-140705Y004248
X-144505Y005409
X-148297Y004245
X-188198Y004252
X-191991Y005362
X-195797Y004246
X-23571Y004248
X-1888Y091203
X-188803Y094094
X-195197Y094097
X-195197Y091203
X-236308Y091205
X-236306Y094095
X-23571Y151248
X-195797Y151246
X-191991Y152362
X-188198Y151252
X-191998Y139043
X-144502Y139052
X-148297Y151245
X-144505Y152409
X-140705Y151248
X-100797Y151246
X-096995Y152448
X-093201Y151249
X-096997Y139046
X-141311Y094098
X-147689Y094095
X-147698Y091202
X-141309Y091211
X-100194Y094095
X-100198Y091205
X-093811Y094101
X-093804Y091205
X-052693Y094097
X-05269Y091208
X-04632Y091211
X-046307Y094094
X-049491Y139053
X-053298Y151249
X-049504Y152461
X-045701Y15125
X-005781Y151233
X00579Y151248
X-04632Y238211
X-046307Y241094
X-05269Y238208
X-052693Y241097
X-093804Y238205
X-100194Y241095
X-100198Y238205
X-093811Y241101
X-049491Y286053
X-049502Y299957
X-096998Y299948
X-096997Y286046
X-141311Y241098
X-141309Y238211
X-147689Y241095
X-147698Y238202
X-1888Y238203
X-188803Y241094
X-195197Y241097
X-195197Y238203
X-236308Y238205
X-236306Y241095
X-191998Y286043
X-192009Y299947
X-144502Y286052
X-144503Y299954
X-188807Y344903
X-19518Y347789
X-195193Y344906
X-18881Y347792
X-147696Y347795
X-147689Y344899
X-141306Y344905
X-141302Y347795
X-100191Y347789
X-100189Y344902
X-093811Y344905
X-093802Y347798
X-0527Y347797
X-052697Y344906
X-046303Y347797
X-046303Y344903
X-005194Y344905
X-005192Y347795
X-053302Y434748
X-049509Y433638
X-045703Y434754
X-049502Y446957
X-00579Y434752
X005781Y434767
X045701Y43475
X049504Y433539
X053298Y434751
X049491Y446947
X052693Y491903
X05269Y494792
X04632Y494789
X046307Y491906
X-005192Y494795
X-005194Y491905
X-046303Y491903
X-046303Y494797
X-052697Y491906
X-0527Y494797
X-093802Y494798
X-093811Y491905
X-100189Y491902
X-100191Y494789
X-141302Y494795
X-147696Y494795
X-147689Y491899
X-141306Y491905
X-096998Y446948
X-093203Y434755
X-096995Y433591
X-100795Y434752
X-140703Y434754
X-144505Y433552
X-148299Y434751
X-144503Y446954
X-188202Y434751
X-191996Y433539
X-195799Y43475
X-192009Y446947
X-235719Y434767
X-195193Y491906
X-19518Y494789
X-188807Y491903
X-18881Y494792
X-235719Y581767
X-195799Y58175
X-191996Y580539
X-188202Y581751
X-148299Y581751
X-144505Y580552
X-140703Y581754
X-100795Y581752
X-096995Y580591
X-093203Y581755
X-053302Y581748
X-049509Y580638
X-045703Y581754
X-00579Y581752
X005781Y581767
X045701Y58175
X049504Y580539
X053298Y581751
X093201Y581751
X096995Y580552
X100797Y581754
X140705Y581752
X144505Y580591
X148297Y581755
X188198Y581748
X191991Y580638
X195797Y581754
X23571Y581752
X236308Y494795
X236306Y491905
X195197Y494797
X195197Y491903
X188803Y491906
X1888Y494797
X147698Y494798
X147689Y491905
X141311Y491902
X141309Y494789
X100198Y494795
X100194Y491905
X093804Y494795
X093811Y491899
X096997Y446954
X093201Y434751
X096995Y433552
X100797Y434754
X140705Y434752
X144505Y433591
X148297Y434755
X144502Y446948
X191998Y446957
X188198Y434748
X191991Y433638
X195797Y434754
X23571Y434752
X236308Y347795
X236306Y344905
X195197Y347797
X195197Y344903
X188803Y344906
X1888Y347797
X147698Y347798
X147689Y344905
X141311Y344902
X141309Y347789
X100198Y347795
X100194Y344905
X093811Y344899
X093804Y347795
X052693Y344903
X05269Y347792
X04632Y347789
X046307Y344906
X049491Y299947
X049502Y286043
X096997Y299954
X096998Y286052
X144502Y299948
X144503Y286046
X191998Y299957
X192009Y286053
X195193Y241094
X19518Y238211
X18881Y238208
X188807Y241097
X147696Y238205
X147689Y241101
X141306Y241095
X141302Y238205
X100191Y238211
X100189Y241098
X093811Y241095
X093802Y238202
X0527Y238203
X052697Y241094
X046303Y238203
X046303Y241097
X005194Y241095
X005192Y238205
X053302Y151252
X049509Y152362
X045703Y151246
X049502Y139043
X005194Y094095
X005192Y091205
X046303Y091203
X046303Y094097
X052697Y094094
X0527Y091203
X093802Y091202
X093811Y094095
X100191Y091211
X100189Y094098
X096998Y139052
X093203Y151245
X096995Y152409
X100795Y151248
X140703Y151246
X144505Y152448
X148299Y151249
X144503Y139046
X141306Y094095
X141302Y091205
X147696Y091205
X147689Y094101
X192009Y139053
X188202Y151249
X191996Y152461
X195799Y15125
X235719Y151233
X188807Y094097
X18881Y091208
X195193Y094094
X19518Y091211
X244801Y143564
T05
X-05975Y434
X-06875Y434
X-05535Y4452
X-04365Y4452
X-02125Y434
X-01225Y434
X-00785Y4452
X00785Y4452
X03025Y434
X03925Y434
X04365Y4452
X05535Y4452
X07775Y434
X08675Y434
X09115Y4452
X10285Y4452
X12525Y434
X13425Y434
X13865Y4452
X15035Y4452
X17275Y434
X18175Y434
X18615Y4452
X19785Y4452
X22025Y434
X22925Y434
X23365Y4452
X22925Y581
X22025Y581
X18175Y581
X17275Y581
X13425Y581
X12525Y581
X08675Y581
X07775Y581
X03925Y581
X03025Y581
X-01225Y581
X-02125Y581
X-05975Y581
X-06875Y581
X-10725Y581
X-11625Y581
X-15475Y581
X-16375Y581
X-20225Y581
X-21125Y581
X-23365Y4452
X-21125Y434
X-20225Y434
X-19785Y4452
X-18615Y4452
X-16375Y434
X-15475Y434
X-15035Y4452
X-13865Y4452
X-11625Y434
X-10285Y4452
X-09115Y4452
X-10725Y434
X-23365Y2982
X-23365Y2878
X-19785Y2878
X-19785Y2982
X-18615Y2878
X-18615Y2982
X-15035Y2878
X-15035Y2982
X-13865Y2878
X-13865Y2982
X-10285Y2878
X-10285Y2982
X-09115Y2878
X-09115Y2982
X-05535Y2878
X-05535Y2982
X-04365Y2878
X-04365Y2982
X-00785Y2878
X-00785Y2982
X00785Y2878
X00785Y2982
X04365Y2878
X04365Y2982
X05535Y2982
X05535Y2878
X11625Y152
X10725Y152
X10285Y1408
X09115Y1408
X06875Y152
X05975Y152
X05535Y1408
X04365Y1408
X02125Y152
X01225Y152
X00785Y1408
X-00785Y1408
X-03025Y152
X-03925Y152
X-04365Y1408
X-05535Y1408
X-07775Y152
X-08675Y152
X-09115Y1408
X-10285Y1408
X-12525Y152
X-13425Y152
X-13865Y1408
X-15035Y1408
X-17275Y152
X-18175Y152
X-18615Y1408
X-19785Y1408
X-22025Y152
X-22925Y152
X-23365Y1408
X-22925Y005
X-22025Y005
X-18175Y005
X-17275Y005
X-13425Y005
X-12525Y005
X-08675Y005
X-07775Y005
X-03925Y005
X-03025Y005
X01225Y005
X02125Y005
X05975Y005
X06875Y005
X10725Y005
X11625Y005
X15475Y005
X16375Y005
X20225Y005
X21125Y005
X23365Y1408
X21125Y152
X20225Y152
X19785Y1408
X18615Y1408
X16375Y152
X15475Y152
X15035Y1408
X13865Y1408
X23365Y2878
X23365Y2982
X19785Y2982
X19785Y2878
X18615Y2982
X18615Y2878
X15035Y2982
X15035Y2878
X13865Y2982
X13865Y2878
X10285Y2982
X10285Y2878
X09115Y2982
X09115Y2878
X244801Y144664
T06
X-06875Y41675
X-06625Y41675
X-06375Y41675
X-02125Y41675
X-01875Y41675
X-01625Y41675
X03025Y41675
X03275Y41675
X03525Y41675
X07775Y41675
X08025Y41675
X08275Y41675
X12525Y41675
X12775Y41675
X13025Y41675
X17275Y41675
X17525Y41675
X17775Y41675
X22025Y41675
X22275Y41675
X22525Y41675
X22525Y56375
X22275Y56375
X22025Y56375
X17775Y56375
X17525Y56375
X17275Y56375
X13025Y56375
X12775Y56375
X12525Y56375
X08275Y56375
X08025Y56375
X07775Y56375
X03525Y56375
X03275Y56375
X03025Y56375
X-01625Y56375
X-01875Y56375
X-02125Y56375
X-06375Y56375
X-06625Y56375
X-06875Y56375
X-11125Y56375
X-11375Y56375
X-11625Y56375
X-15875Y56375
X-16125Y56375
X-16375Y56375
X-20625Y56375
X-20875Y56375
X-21125Y56375
X-21125Y41675
X-20875Y41675
X-20625Y41675
X-16375Y41675
X-16125Y41675
X-15875Y41675
X-11625Y41675
X-11375Y41675
X-11125Y41675
X-22525Y16925
X-22275Y16925
X-22025Y16925
X-17775Y16925
X-17525Y16925
X-17275Y16925
X-13025Y16925
X-12775Y16925
X-12525Y16925
X-22525Y02225
X-22275Y02225
X-22025Y02225
X-17775Y02225
X-17525Y02225
X-17275Y02225
X-13025Y02225
X-12775Y02225
X-12525Y02225
X-08275Y02225
X-08025Y02225
X-07775Y02225
X-03525Y02225
X-03275Y02225
X-03025Y02225
X01625Y02225
X01875Y02225
X02125Y02225
X06375Y02225
X06625Y02225
X06875Y02225
X11125Y02225
X11375Y02225
X11625Y02225
X15875Y02225
X16125Y02225
X16375Y02225
X20625Y02225
X20875Y02225
X21125Y02225
X21125Y16925
X20875Y16925
X20625Y16925
X16375Y16925
X16125Y16925
X15875Y16925
X11625Y16925
X11375Y16925
X11125Y16925
X06875Y16925
X06625Y16925
X06375Y16925
X02125Y16925
X01875Y16925
X01625Y16925
X-03025Y16925
X-03275Y16925
X-03525Y16925
X-07775Y16925
X-08025Y16925
X-08275Y16925
X244801Y146014
T07
X-07352Y152
X-07098Y152
X-06477Y152
X-06223Y152
X-02602Y152
X-02348Y152
X-01727Y152
X-01473Y152
X02548Y152
X02802Y152
X03423Y152
X03677Y152
X07298Y152
X07552Y152
X08173Y152
X08427Y152
X12048Y152
X12302Y152
X12923Y152
X13177Y152
X16798Y152
X17052Y152
X17673Y152
X17927Y152
X21548Y152
X21802Y152
X22423Y152
X22677Y152
X22677Y005
X22423Y005
X21802Y005
X21548Y005
X17927Y005
X17673Y005
X17052Y005
X16798Y005
X13177Y005
X12923Y005
X12302Y005
X12048Y005
X08427Y005
X08173Y005
X07552Y005
X07298Y005
X03677Y005
X03423Y005
X02802Y005
X02548Y005
X-01473Y005
X-01727Y005
X-02348Y005
X-02602Y005
X-06223Y005
X-06477Y005
X-07098Y005
X-07352Y005
X-10973Y005
X-11227Y005
X-11848Y005
X-12102Y005
X-15723Y005
X-15977Y005
X-16598Y005
X-16852Y005
X-20473Y005
X-20727Y005
X-21348Y005
X-21602Y005
X-10973Y152
X-11227Y152
X-11848Y152
X-12102Y152
X-15723Y152
X-15977Y152
X-16598Y152
X-16852Y152
X-20473Y152
X-20727Y152
X-21348Y152
X-21602Y152
X-12048Y434
X-12302Y434
X-12923Y434
X-13177Y434
X-16798Y434
X-17052Y434
X-17673Y434
X-17927Y434
X-21548Y434
X-21802Y434
X-22423Y434
X-22677Y434
X-22677Y581
X-22423Y581
X-21802Y581
X-21548Y581
X-17927Y581
X-17673Y581
X-17052Y581
X-16798Y581
X-13177Y581
X-12923Y581
X-12302Y581
X-12048Y581
X-08427Y581
X-08173Y581
X-07552Y581
X-07298Y581
X-03677Y581
X-03423Y581
X-02802Y581
X-02548Y581
X01473Y581
X01727Y581
X02348Y581
X02602Y581
X06223Y581
X06477Y581
X07098Y581
X07352Y581
X10973Y581
X11227Y581
X11848Y581
X12102Y581
X15723Y581
X15977Y581
X16598Y581
X16852Y581
X20473Y581
X20727Y581
X21348Y581
X21602Y581
X21602Y434
X21348Y434
X20727Y434
X20473Y434
X16852Y434
X16598Y434
X15977Y434
X15723Y434
X12102Y434
X11848Y434
X11227Y434
X10973Y434
X07352Y434
X07098Y434
X06477Y434
X06223Y434
X02602Y434
X02348Y434
X01727Y434
X01473Y434
X-02548Y434
X-02802Y434
X-03423Y434
X-03677Y434
X-07298Y434
X-07552Y434
X-08173Y434
X-08427Y434
X244801Y147514
T08
X-192001Y004661
X-144501Y004661
X-097001Y004661
X-049501Y004661
X049499Y004661
X096999Y004661
X144499Y004661
X191999Y004661
X19474Y09167
X14724Y09167
X09974Y09167
X05224Y09167
X049499Y151661
X096999Y151661
X144499Y151661
X191999Y151661
X19474Y23867
X14724Y23867
X09974Y23867
X05224Y23867
X04676Y34733
X09426Y34733
X14176Y34733
X18926Y34733
X192001Y434339
X144501Y434339
X097001Y434339
X049501Y434339
X04676Y49433
X09426Y49433
X14176Y49433
X18926Y49433
X192001Y581339
X144501Y581339
X097001Y581339
X049501Y581339
X-049499Y581339
X-096999Y581339
X-144499Y581339
X-191999Y581339
X-19474Y49433
X-14724Y49433
X-191999Y434339
X-144499Y434339
X-096999Y434339
X-05224Y49433
X-09974Y49433
X-049499Y434339
X-05224Y34733
X-09974Y34733
X-14724Y34733
X-19474Y34733
X-18926Y23867
X-14176Y23867
X-09426Y23867
X-04676Y23867
X-049501Y151661
X-097001Y151661
X-144501Y151661
X-192001Y151661
X-18926Y09167
X-14176Y09167
X-09426Y09167
X-04676Y09167
X244801Y149214
T09
X021Y3789
X0305Y3789
X0685Y3789
X078Y3789
X116Y3789
X1255Y3789
X1635Y3789
X173Y3789
X211Y3789
X2205Y3789
X2205Y5259
X211Y5259
X173Y5259
X1635Y5259
X1255Y5259
X116Y5259
X078Y5259
X0685Y5259
X0305Y5259
X021Y5259
X-021Y5259
X-0305Y5259
X-0685Y5259
X-078Y5259
X-116Y5259
X-1255Y5259
X-1635Y5259
X-173Y5259
X-211Y5259
X-2205Y5259
X-2205Y3789
X-211Y3789
X-173Y3789
X-1635Y3789
X-1255Y3789
X-116Y3789
X-078Y3789
X-0685Y3789
X-0305Y3789
X-021Y3789
X021Y2071
X0305Y2071
X0685Y2071
X078Y2071
X116Y2071
X1255Y2071
X1635Y2071
X173Y2071
X211Y2071
X2205Y2071
X2205Y0601
X211Y0601
X173Y0601
X1635Y0601
X1255Y0601
X116Y0601
X078Y0601
X0685Y0601
X0305Y0601
X021Y0601
X-021Y0601
X-0305Y0601
X-0685Y0601
X-078Y0601
X-116Y0601
X-1255Y0601
X-1635Y0601
X-173Y0601
X-211Y0601
X-2205Y0601
X-2205Y2071
X-211Y2071
X-173Y2071
X-1635Y2071
X-1255Y2071
X-116Y2071
X-078Y2071
X-0685Y2071
X-0305Y2071
X-021Y2071
X244801Y151214
T10
X-0453Y42875
X-0537Y42875
X-0928Y42875
X-1012Y42875
X-1403Y42875
X-1487Y42875
X-1878Y42875
X-1962Y42875
X-2353Y42875
X-2353Y57575
X-1962Y57575
X-1878Y57575
X-1487Y57575
X-1403Y57575
X-1012Y57575
X-0928Y57575
X-0537Y57575
X-0453Y57575
X-0062Y57575
X0062Y57575
X0453Y57575
X0537Y57575
X0928Y57575
X1012Y57575
X1403Y57575
X1487Y57575
X1878Y57575
X1962Y57575
X2353Y57575
X2353Y42875
X1962Y42875
X1878Y42875
X1487Y42875
X1403Y42875
X1012Y42875
X0928Y42875
X0537Y42875
X0453Y42875
X0062Y42875
X-0062Y42875
X-0537Y15725
X-0453Y15725
X-0062Y15725
X0062Y15725
X0453Y15725
X0537Y15725
X0928Y15725
X1012Y15725
X1403Y15725
X1487Y15725
X1878Y15725
X1962Y15725
X2353Y15725
X2353Y01025
X1962Y01025
X1878Y01025
X1487Y01025
X1403Y01025
X1012Y01025
X0928Y01025
X0537Y01025
X0453Y01025
X0062Y01025
X-0062Y01025
X-0453Y01025
X-0537Y01025
X-0928Y01025
X-1012Y01025
X-1403Y01025
X-1487Y01025
X-1878Y01025
X-1962Y01025
X-2353Y01025
X-0928Y15725
X-1012Y15725
X-1403Y15725
X-1487Y15725
X-1878Y15725
X-1962Y15725
X-2353Y15725
X244801Y153464
T11
X23696Y593226
X226961Y593226
X-227214Y593226
X-237213Y593226
X-237214Y-007226
X-227214Y-007226
X227215Y-007226
X237214Y-007226
X244801Y155814
T12
X18555Y3771
X19845Y3771
X23305Y3771
X23305Y4342
X19845Y4342
X18555Y4342
X15095Y4342
X13805Y4342
X10345Y4342
X09055Y4342
X05595Y4342
X04305Y4342
X00845Y4342
X-00845Y4342
X-04305Y4342
X-05595Y4342
X-09055Y4342
X-10345Y4342
X-18555Y5241
X-19845Y5241
X-23305Y5241
X-23305Y5812
X-19845Y5812
X-18555Y5812
X-15095Y5812
X-13805Y5812
X-10345Y5812
X-09055Y5812
X-05595Y5812
X-04305Y5812
X-00845Y5812
X00845Y5812
X04305Y5812
X05595Y5812
X09055Y5812
X10345Y5812
X13805Y5812
X15095Y5812
X18555Y5812
X19845Y5812
X23305Y5812
X23305Y5241
X19845Y5241
X18555Y5241
X15095Y5241
X13805Y5241
X10345Y5241
X09055Y5241
X05595Y5241
X04305Y5241
X00845Y5241
X-00845Y5241
X-04305Y5241
X-05595Y5241
X-09055Y5241
X-10345Y5241
X-13805Y5241
X-15095Y5241
X-13805Y4342
X-15095Y4342
X-18555Y4342
X-19845Y4342
X-23305Y4342
X-23305Y3771
X-19845Y3771
X-18555Y3771
X-15095Y3771
X-13805Y3771
X-10345Y3771
X-09055Y3771
X-05595Y3771
X-04305Y3771
X-00845Y3771
X00845Y3771
X04305Y3771
X05595Y3771
X09055Y3771
X10345Y3771
X13805Y3771
X15095Y3771
X05595Y2089
X04305Y2089
X00845Y2089
X-00845Y2089
X-04305Y2089
X-05595Y2089
X-09055Y2089
X-10345Y2089
X-13805Y2089
X-15095Y2089
X-18555Y2089
X-19845Y2089
X-23305Y2089
X-23305Y1518
X-19845Y1518
X-18555Y1518
X-15095Y1518
X-13805Y1518
X-10345Y1518
X-09055Y1518
X-05595Y1518
X-04305Y1518
X-00845Y1518
X00845Y1518
X04305Y1518
X05595Y1518
X09055Y1518
X10345Y1518
X13805Y1518
X15095Y1518
X18555Y1518
X19845Y1518
X18555Y0619
X19845Y0619
X23305Y0619
X23305Y0048
X19845Y0048
X18555Y0048
X15095Y0048
X13805Y0048
X10345Y0048
X09055Y0048
X05595Y0048
X04305Y0048
X00845Y0048
X-00845Y0048
X-04305Y0048
X-05595Y0048
X-09055Y0048
X-10345Y0048
X-13805Y0048
X-15095Y0048
X-18555Y0048
X-19845Y0048
X-23305Y0048
X-23305Y0619
X-19845Y0619
X-18555Y0619
X-15095Y0619
X-13805Y0619
X-10345Y0619
X-09055Y0619
X-05595Y0619
X-04305Y0619
X-00845Y0619
X00845Y0619
X04305Y0619
X05595Y0619
X09055Y0619
X10345Y0619
X13805Y0619
X15095Y0619
X23305Y1518
X23305Y2089
X19845Y2089
X18555Y2089
X15095Y2089
X13805Y2089
X10345Y2089
X09055Y2089
X244801Y158313
T13
X02575Y09265
X07325Y09265
X12075Y09265
X16825Y09265
X21575Y09265
X21575Y23965
X16825Y23965
X12075Y23965
X07325Y23965
X02575Y34635
X07325Y34635
X12075Y34635
X16825Y34635
X21575Y34635
X21575Y49335
X16825Y49335
X12075Y49335
X07325Y49335
X02575Y49335
X-02575Y49335
X-07325Y49335
X-12075Y49335
X-16825Y49335
X-21575Y49335
X-21575Y34635
X-16825Y34635
X-12075Y34635
X-07325Y34635
X-02575Y34635
X-02575Y23965
X-07325Y23965
X-12075Y23965
X-16825Y23965
X-21575Y23965
X-21575Y09265
X-16825Y09265
X-12075Y09265
X-07325Y09265
X-02575Y09265
X02575Y23965
X244801Y161913
T14
X244791Y175713
X244801Y170813
M30
