*
*
G04 PowerPCB (Build Number [351.51 ]) generated Gerber (RS-274-X) file*
G04 PC Version=2.1*
*
%IN "previewascworking.pcb"*%
*
%MOIN*%
*
%FSLAX24Y24*%
*
*
*
*
G04 PC Standard Apertures*
*
*
G04 Thermal Relief Aperture macro.*
%AMTER*
1,1,$1,0,0*
1,0,$1-$2,0,0*
21,0,$3,$4,0,0,45*
21,0,$3,$4,0,0,135*
%
*
*
G04 Annular Aperture macro.*
%AMANN*
1,1,$1,0,0*
1,0,$2,0,0*
%
*
*
G04 Odd Aperture macro.*
%AMODD*
1,1,$1,0,0*
1,0,$1-0.005,0,0*
%
*
*
G04 PC Custom Aperture Macros*
*
*
*
*
*
*
G04 PC Aperture Table*
*
%ADD010C,0.01*%
%ADD016C,0.09*%
%ADD020C,0.035*%
%ADD021C,0.055*%
%ADD024C,0.015*%
*
*
*
*
G04 PC Copper Outlines (0)*
G04 Layer Name previewascworking.pcb - dark (0)*
%LPD*%
*
*
G04 PC Area=ANP000000*
G75*
G36*
G01*
X36100Y11279D02*
X37834Y11279D01*
G03*
X29999Y18840I-7834J-279D01*
G01*
X2416Y18840D01*
X2160Y18583D01*
X2160Y3416D01*
X2416Y3160D01*
X17477Y3160D01*
X17477Y4886D01*
X17151Y5212D01*
X9706Y5212D01*
G02*
X9459Y5314I0J350D01*
G01*
X9010Y5763D01*
G02*
X8908Y6010I248J247D01*
G01*
X8908Y7012D01*
G02*
X8812Y7351I192J238D01*
X9002Y7821I-62J299D01*
G01*
X9010Y7830D01*
X9431Y8251D01*
G02*
X9679Y8353I248J-247D01*
G01*
X9763Y8353D01*
G02*
X10336Y8353I287J-103D01*
G01*
X10793Y8353D01*
X11072Y8633D01*
X11072Y10504D01*
X10735Y10841D01*
G02*
X10293Y11283I-283J159D01*
G01*
X10221Y11355D01*
G02*
X10005Y11571I79J295D01*
G01*
X9856Y11720D01*
G02*
X9753Y11967I247J247D01*
G01*
X9753Y13537D01*
G02*
X9856Y13784I350J0D01*
G01*
X10790Y14718D01*
G02*
X11037Y14820I247J-247D01*
G01*
X16109Y14820D01*
G02*
X16390Y14820I141J-270D01*
G01*
X16453Y14820D01*
G02*
X17043Y14668I297J-70D01*
G01*
X17278Y14433D01*
G02*
X17535Y14236I-28J-302D01*
G01*
X19092Y14236D01*
X19317Y14460D01*
X19317Y15280D01*
X19316Y15281D01*
X18963Y15281D01*
G02*
X18716Y15384I0J350D01*
G01*
X18415Y15684D01*
G02*
X18313Y15931I248J247D01*
G01*
X18313Y16825D01*
G02*
X18415Y17072I350J0D01*
G01*
X18788Y17444D01*
G02*
X19157Y17551I112J306D01*
G01*
X20460Y17551D01*
X20462Y17551D01*
G02*
X20943Y17213I288J-101D01*
G01*
X21380Y16776D01*
G02*
X21482Y16529I-247J-246D01*
G01*
X21482Y15047D01*
G02*
X21563Y14445I68J-297D01*
X21482Y14059I-268J-145D01*
G01*
X21482Y13798D01*
G02*
X21380Y13550I-349J0D01*
G01*
X20983Y13154D01*
G02*
X20695Y12866I17J-304D01*
G01*
X20035Y12206D01*
X20035Y11412D01*
X20538Y10909D01*
G02*
X20641Y10661I-246J-247D01*
G01*
X20641Y9335D01*
G02*
X20538Y9088I-349J0D01*
G01*
X20308Y8857D01*
G02*
X20060Y8755I-247J248D01*
G01*
X18275Y8755D01*
X18024Y8505D01*
X18024Y7991D01*
X19855Y6160D01*
G02*
X19957Y5913I-247J-246D01*
G01*
X19957Y5484D01*
X20208Y5234D01*
X20471Y5234D01*
G02*
X20628Y5234I79J316D01*
G01*
X23799Y5234D01*
X23799Y17000D01*
G02*
X25200Y17000I701J0D01*
G01*
X25200Y16002D01*
G02*
X25200Y15997I800J-2D01*
G01*
X25200Y10198D01*
X29612Y10198D01*
X29768Y10354D01*
X29768Y13496D01*
G02*
X29871Y13743I350J0D01*
G01*
X30336Y14208D01*
G02*
X30584Y14311I248J-246D01*
G01*
X32924Y14311D01*
G02*
X33171Y14208I0J-349D01*
G01*
X36100Y11279D01*
G37*
G74*
*
*
G04 PC Area=ANP000075*
G75*
G36*
G01*
X36416Y6497D02*
G03*
X37835Y10739I-6419J4506D01*
G01*
X36022Y10739D01*
G02*
X35774Y10842I0J350D01*
G01*
X32845Y13771D01*
X30662Y13771D01*
X30308Y13417D01*
X30308Y10276D01*
G02*
X30206Y10028I-349J0D01*
G01*
X29939Y9761D01*
G02*
X29691Y9658I-247J247D01*
G01*
X25200Y9658D01*
X25200Y6002D01*
G02*
X25200Y5997I800J-2D01*
G01*
X25200Y5000D01*
G02*
X23870Y4694I-700J0D01*
G01*
X20129Y4694D01*
G02*
X19881Y4797I0J350D01*
G01*
X19520Y5158D01*
G02*
X19417Y5406I247J248D01*
G01*
X19417Y5834D01*
X17587Y7664D01*
G02*
X17484Y7912I247J248D01*
G01*
X17484Y8583D01*
G02*
X17587Y8831I350J0D01*
G01*
X17949Y9192D01*
G02*
X18196Y9295I247J-246D01*
G01*
X19982Y9295D01*
X20101Y9414D01*
X20101Y10433D01*
G02*
X19947Y10736I149J267D01*
G01*
X19930Y10753D01*
G02*
X19521Y11201I-180J247D01*
X19495Y11333I324J132D01*
G01*
X19495Y12285D01*
G02*
X19598Y12532I350J0D01*
G01*
X20942Y13877D01*
X20942Y16450D01*
X20381Y17011D01*
X19118Y17011D01*
X18853Y16746D01*
X18853Y16010D01*
X19042Y15821D01*
X19395Y15821D01*
G02*
X19642Y15718I0J-349D01*
G01*
X19754Y15606D01*
G02*
X19857Y15359I-246J-246D01*
G01*
X19857Y15172D01*
G02*
X19857Y14627I178J-272D01*
G01*
X19857Y14382D01*
G02*
X19754Y14134I-349J0D01*
G01*
X19418Y13798D01*
G02*
X19171Y13696I-246J248D01*
G01*
X17396Y13696D01*
G02*
X17149Y13798I0J350D01*
G01*
X16667Y14280D01*
X16393Y14280D01*
G02*
X16106Y14280I-143J270D01*
G01*
X13553Y14280D01*
G02*
X12946Y14280I-303J-30D01*
G01*
X11116Y14280D01*
X10450Y13615D01*
G02*
X10293Y13045I-150J-265D01*
G01*
X10293Y12046D01*
X10403Y11936D01*
G02*
X10586Y11753I-103J-286D01*
G01*
X10591Y11749D01*
G02*
X11049Y11291I209J-249D01*
G01*
X11510Y10830D01*
G02*
X11612Y10582I-247J-247D01*
G01*
X11612Y9817D01*
G02*
X11612Y9167I-4J-324D01*
G01*
X11612Y8554D01*
G02*
X11510Y8306I-349J0D01*
G01*
X11119Y7916D01*
G02*
X10872Y7813I-246J247D01*
G01*
X9757Y7813D01*
X9448Y7504D01*
X9448Y6089D01*
X9785Y5752D01*
X17230Y5752D01*
G02*
X17477Y5649I0J-349D01*
G01*
X17915Y5212D01*
G02*
X18017Y4965I-247J-246D01*
G01*
X18017Y3160D01*
X29996Y3160D01*
G03*
X36080Y6053I0J7843D01*
G02*
X36416Y6497I70J297D01*
G37*
G74*
*
*
G04 PC Void Outlines (0)*
G04 Layer Name previewascworking.pcb - clear (0)*
%LPC*%
*
*
G04 PC Area=ANP000000*
G75*
G36*
G01*
X36250Y11774D02*
G03*
X36250Y11774I0J326D01*
G37*
G74*
*
G75*
G36*
G01*
X35353Y15206D02*
G03*
X35353Y15206I0J440D01*
G37*
G74*
*
G75*
G36*
G01*
X34646Y15893D02*
G03*
X34646Y15893I0J460D01*
G37*
G74*
*
G75*
G36*
G01*
X29000Y11399D02*
G03*
X29000Y11399I0J601D01*
G37*
G74*
*
G75*
G36*
G01*
X30000Y14819D02*
G03*
X30000Y14819I0J981D01*
G37*
G74*
*
G75*
G36*
G01*
X22300Y5874D02*
G03*
X22300Y5874I0J326D01*
G37*
G74*
*
G75*
G36*
G01*
X21550Y5944D02*
G03*
X21550Y5944I0J306D01*
G37*
G74*
*
G75*
G36*
G01*
X21732Y7647D02*
G02*
X21767Y7302I268J-147D01*
X21732Y7647I-267J148D01*
G37*
G74*
*
G75*
G36*
G01*
X22250Y10994D02*
G03*
X22250Y10994I0J306D01*
G37*
G74*
*
G75*
G36*
G01*
X21978Y12651D02*
G02*
X22052Y12489I322J49D01*
X21978Y12651I-302J-39D01*
G37*
G74*
*
G75*
G36*
G01*
X22250Y13944D02*
G03*
X22250Y13944I0J306D01*
G37*
G74*
*
G75*
G36*
G01*
X20550Y5944D02*
G03*
X20550Y5944I0J306D01*
G37*
G74*
*
G75*
G36*
G01*
X20546Y7884D02*
G02*
X20453Y7731I204J-226D01*
X19989Y8117I-203J226D01*
X20416Y8213I161J283D01*
X20546Y7884I-166J-255D01*
G37*
G74*
*
G75*
G36*
G01*
X21000Y9344D02*
G03*
X21000Y9344I0J306D01*
G37*
G74*
*
G75*
G36*
G01*
X18800Y8074D02*
G03*
X18800Y8074I0J326D01*
G37*
G74*
*
G75*
G36*
G01*
X20559Y11724D02*
G03*
X20559Y11724I0J326D01*
G37*
G74*
*
G75*
G36*
G01*
X22000Y15844D02*
G03*
X22000Y15844I0J306D01*
G37*
G74*
*
G75*
G36*
G01*
X21300Y17724D02*
G03*
X21300Y17724I0J326D01*
G37*
G74*
*
G75*
G36*
G01*
X18574Y15133D02*
G02*
X18501Y14771I226J-233D01*
X18574Y15133I-201J229D01*
G37*
G74*
*
G75*
G36*
G01*
X18050Y15344D02*
G03*
X18050Y15344I0J306D01*
G37*
G74*
*
G75*
G36*
G01*
X16416Y4416D02*
G02*
X16083Y4083I84J-416D01*
X15895Y4088I-83J417D01*
X15110Y4110I-395J-88D01*
X14889Y4110I-110J390D01*
X14110Y4110I-389J-110D01*
X13889Y4110I-110J390D01*
X13110Y4110I-389J-110D01*
X12889Y4110I-110J390D01*
X12110Y4110I-389J-110D01*
X11889Y4110I-110J390D01*
X11110Y4110I-389J-110D01*
X10889Y4110I-110J390D01*
X10110Y4110I-389J-110D01*
X9889Y4110I-110J390D01*
X9110Y4110I-389J-110D01*
X8889Y4110I-110J390D01*
X8110Y4110I-389J-110D01*
X7889Y4110I-110J390D01*
X7110Y4110I-389J-110D01*
X6889Y4110I-110J390D01*
X6110Y4110I-389J-110D01*
X5889Y4110I-110J390D01*
X5110Y4110I-389J-110D01*
X4889Y4110I-110J390D01*
X4104Y4088I-389J-110D01*
X4411Y4395I-104J412D01*
X4610Y4389I89J-395D01*
X5389Y4389I390J111D01*
X5610Y4389I111J-389D01*
X6389Y4389I390J111D01*
X6610Y4389I111J-389D01*
X7389Y4389I390J111D01*
X7610Y4389I111J-389D01*
X8389Y4389I390J111D01*
X8610Y4389I111J-389D01*
X9389Y4389I390J111D01*
X9610Y4389I111J-389D01*
X10389Y4389I390J111D01*
X10610Y4389I111J-389D01*
X11389Y4389I390J111D01*
X11610Y4389I111J-389D01*
X12389Y4389I390J111D01*
X12610Y4389I111J-389D01*
X13389Y4389I390J111D01*
X13610Y4389I111J-389D01*
X14389Y4389I390J111D01*
X14610Y4389I111J-389D01*
X15389Y4389I390J111D01*
X15588Y4395I111J-389D01*
X16416Y4416I412J105D01*
G37*
G74*
*
G75*
G36*
G01*
X8750Y5074D02*
G03*
X8750Y5074I0J326D01*
G37*
G74*
*
G75*
G36*
G01*
X16250Y15644D02*
G03*
X16250Y15644I0J306D01*
G37*
G74*
*
G75*
G36*
G01*
X15750Y17194D02*
G03*
X15750Y17194I0J306D01*
G37*
G74*
*
G75*
G36*
G01*
X11500Y15774D02*
G03*
X11500Y15774I0J326D01*
G37*
G74*
*
G75*
G36*
G01*
X11750Y17544D02*
G03*
X11750Y17544I0J306D01*
G37*
G74*
*
G75*
G36*
G01*
X10200Y15924D02*
G03*
X10200Y15924I0J326D01*
G37*
G74*
*
G75*
G36*
G01*
X10750Y17174D02*
G03*
X10750Y17174I0J326D01*
G37*
G74*
*
G75*
G36*
G01*
X9350Y8994D02*
G03*
X9350Y8994I0J306D01*
G37*
G74*
*
G75*
G36*
G01*
X9000Y10374D02*
G03*
X9000Y10374I0J326D01*
G37*
G74*
*
G75*
G36*
G01*
X7500Y8594D02*
G03*
X7500Y8594I0J306D01*
G37*
G74*
*
G75*
G36*
G01*
X7971Y12854D02*
G02*
X8216Y12335I29J-303D01*
X7783Y12335I-216J-214D01*
X7696Y12578I217J215D01*
X7971Y12854I-46J322D01*
G37*
G74*
*
G75*
G36*
G01*
X8500Y12594D02*
G03*
X8500Y12594I0J306D01*
G37*
G74*
*
G75*
G36*
G01*
X8737Y15791D02*
G02*
X8737Y15408I263J-191D01*
X8737Y15791I-237J192D01*
G37*
G74*
*
G75*
G36*
G01*
X7038Y12452D02*
G02*
X6711Y12247I-38J-302D01*
X7038Y12452I39J303D01*
G37*
G74*
*
G75*
G36*
G01*
X7221Y13866D02*
G03*
X7221Y13866I0J305D01*
G37*
G74*
*
G75*
G36*
G01*
X7650Y16074D02*
G03*
X7650Y16074I0J326D01*
G37*
G74*
*
G75*
G36*
G01*
X6750Y17544D02*
G03*
X6750Y17544I0J306D01*
G37*
G74*
*
G75*
G36*
G01*
X5687Y7344D02*
G03*
X5687Y7344I0J306D01*
G37*
G74*
*
G75*
G36*
G01*
X6050Y8994D02*
G03*
X6050Y8994I0J306D01*
G37*
G74*
*
G75*
G36*
G01*
X6000Y11794D02*
G03*
X6000Y11794I0J306D01*
G37*
G74*
*
G75*
G36*
G01*
X6000Y12574D02*
G03*
X6000Y12574I0J326D01*
G37*
G74*
*
G75*
G36*
G01*
X6000Y15294D02*
G03*
X6000Y15294I0J306D01*
G37*
G74*
*
G75*
G36*
G01*
X6000Y16074D02*
G03*
X6000Y16074I0J326D01*
G37*
G74*
*
G75*
G36*
G01*
X5250Y8594D02*
G03*
X5250Y8594I0J306D01*
G37*
G74*
*
G75*
G36*
G01*
X5000Y10174D02*
G03*
X5000Y10174I0J326D01*
G37*
G74*
*
G75*
G36*
G01*
X5300Y14924D02*
G03*
X5300Y14924I0J326D01*
G37*
G74*
*
G75*
G36*
G01*
X4250Y5094D02*
G03*
X4250Y5094I0J306D01*
G37*
G74*
*
G75*
G36*
G01*
X4250Y8874D02*
G03*
X4250Y8874I0J326D01*
G37*
G74*
*
G75*
G36*
G01*
X4450Y11374D02*
G03*
X4450Y11374I0J326D01*
G37*
G74*
*
G75*
G36*
G01*
X3100Y5044D02*
G03*
X3100Y5044I0J306D01*
G37*
G74*
*
G75*
G36*
G01*
X3700Y9724D02*
G03*
X3700Y9724I0J326D01*
G37*
G74*
*
G75*
G36*
G01*
X3500Y15974D02*
G03*
X3500Y15974I0J326D01*
G37*
G74*
*
G75*
G36*
G01*
X4050Y16424D02*
G03*
X4050Y16424I0J326D01*
G37*
G74*
*
G75*
G36*
G01*
X2700Y14924D02*
G03*
X2700Y14924I0J326D01*
G37*
G74*
*
G75*
G36*
G01*
X10200Y9724D02*
G03*
X10200Y9724I0J326D01*
G37*
G74*
*
*
G04 PC Area=ANP000075*
G75*
G36*
G01*
X36250Y9624D02*
G03*
X36250Y9624I0J326D01*
G37*
G74*
*
G75*
G36*
G01*
X34646Y5206D02*
G03*
X34646Y5206I0J440D01*
G37*
G74*
*
G75*
G36*
G01*
X35353Y5893D02*
G03*
X35353Y5893I0J460D01*
G37*
G74*
*
G75*
G36*
G01*
X30000Y5199D02*
G03*
X30000Y5199I0J1001D01*
G37*
G74*
*
G75*
G36*
G01*
X31000Y11399D02*
G03*
X31000Y11399I0J601D01*
G37*
G74*
*
G75*
G36*
G01*
X21300Y3724D02*
G03*
X21300Y3724I0J326D01*
G37*
G74*
*
G75*
G36*
G01*
X20529Y13665D02*
G03*
X20529Y13665I0J305D01*
G37*
G74*
*
G75*
G36*
G01*
X16711Y6952D02*
G02*
X17038Y6747I289J98D01*
X16569Y6404I-288J-97D01*
X16500Y6825I-248J175D01*
X16711Y6952I250J-175D01*
G37*
G74*
*
G75*
G36*
G01*
X17061Y11504D02*
G02*
X17354Y11176I325J-4D01*
X17061Y11504I-304J24D01*
G37*
G74*
*
G75*
G36*
G01*
X17750Y12144D02*
G03*
X17750Y12144I0J306D01*
G37*
G74*
*
G75*
G36*
G01*
X16050Y7655D02*
G02*
X15745Y7356I0J-305D01*
X16050Y7655I0J305D01*
G37*
G74*
*
G75*
G36*
G01*
X16250Y9144D02*
G03*
X16250Y9144I0J306D01*
G37*
G74*
*
G75*
G36*
G01*
X15750Y12694D02*
G03*
X15750Y12694I0J306D01*
G37*
G74*
*
G75*
G36*
G01*
X15050Y7652D02*
G03*
X15050Y7652I0J305D01*
G37*
G74*
*
G75*
G36*
G01*
X14695Y11304D02*
G02*
X14996Y10995I305J-4D01*
X14695Y11304I-304J5D01*
G37*
G74*
*
G75*
G36*
G01*
X15194Y13650D02*
G02*
X15305Y13650I56J300D01*
X15194Y13650I-55J-300D01*
G37*
G74*
*
G75*
G36*
G01*
X14050Y6644D02*
G03*
X14050Y6644I0J306D01*
G37*
G74*
*
G75*
G36*
G01*
X13250Y7944D02*
G03*
X13250Y7944I0J306D01*
G37*
G74*
*
G75*
G36*
G01*
X13750Y10694D02*
G03*
X13750Y10694I0J306D01*
G37*
G74*
*
G75*
G36*
G01*
X14310Y11194D02*
G03*
X14310Y11194I0J306D01*
G37*
G74*
*
G75*
G36*
G01*
X13750Y12694D02*
G03*
X13750Y12694I0J306D01*
G37*
G74*
*
G75*
G36*
G01*
X12604Y7444D02*
G03*
X12604Y7444I0J306D01*
G37*
G74*
*
G75*
G36*
G01*
X11700Y6194D02*
G03*
X11700Y6194I0J306D01*
G37*
G74*
*
G75*
G36*
G01*
X11726Y7546D02*
G02*
X11573Y7453I74J-296D01*
X11726Y7546I-73J297D01*
G37*
G74*
*
G75*
G36*
G01*
X10606Y6785D02*
G02*
X10492Y6680I156J-285D01*
X10606Y6785I-142J270D01*
G37*
G74*
*
G75*
G36*
G01*
X18900Y3724D02*
G03*
X18900Y3724I0J326D01*
G37*
G74*
*
G75*
G36*
G01*
X19250Y9474D02*
G03*
X19250Y9474I0J326D01*
G37*
G74*
*
G75*
G36*
G01*
X19250Y15974D02*
G03*
X19250Y15974I0J326D01*
G37*
G74*
*
*
G04 PC Custom Flashes*
G04 Layer Name previewascworking.pcb - flashes*
%LPD*%
*
*
G04 PC Circuitry*
G04 Layer Name previewascworking.pcb - circuitry*
%LPD*%
*
G54D10*
G01X2000Y18650D02*
X2350Y19000D01*
X30000Y19000*
X30000Y3000D02*
G75*
G03X30000Y19000I0J8000D01*
G01X30000Y3000D02*
X2350Y3000D01*
X2000Y3350*
X2000Y18650*
X25000Y17000D02*
G03X24000Y17000I-500J0D01*
G01X25000Y17000D02*
X25000Y5000D01*
X24000Y5000D02*
G03X25000Y5000I500J0D01*
G01X24000Y5000D02*
X24000Y17000D01*
X36100Y11279D02*
X37834Y11279D01*
X37834Y11279D02*
G03X29999Y18839I-7834J-279D01*
G01X29999Y18840D02*
X2416Y18840D01*
X2160Y18583*
X2160Y18583D02*
X2160Y3416D01*
X2416Y3160*
X17477Y3160*
X17477Y3160D02*
X17477Y4886D01*
X17477Y4886D02*
X17151Y5212D01*
X17151Y5212D02*
X9706Y5212D01*
X9459Y5314D02*
G03X9706Y5212I247J248D01*
G01X9459Y5314D02*
X9010Y5763D01*
X8908Y6010D02*
G03X9010Y5763I350J0D01*
G01X8908Y6010D02*
X8908Y7012D01*
X8812Y7351D02*
G03X8908Y7012I288J-101D01*
G01X9002Y7821D02*
G03X8812Y7351I-252J-171D01*
G01X9010Y7830D02*
G03X9002Y7821I248J-246D01*
G01X9010Y7830D02*
X9431Y8251D01*
X9679Y8353D02*
G03X9431Y8251I0J-349D01*
G01X9679Y8353D02*
X9763Y8353D01*
X10336Y8353D02*
G03X9763Y8353I-286J-103D01*
G01X10336Y8353D02*
X10793Y8353D01*
X10793Y8353D02*
X11072Y8633D01*
X11072Y8633D02*
X11072Y10504D01*
X11072Y10504D02*
X10735Y10841D01*
X10293Y11283D02*
G03X10735Y10841I158J-283D01*
G01X10293Y11283D02*
X10221Y11355D01*
X10005Y11571D02*
G03X10221Y11355I295J79D01*
G01X10005Y11571D02*
X9856Y11720D01*
X9753Y11967D02*
G03X9856Y11720I350J0D01*
G01X9753Y11967D02*
X9753Y13537D01*
X9856Y13784D02*
G03X9753Y13537I247J-246D01*
G01X9856Y13784D02*
X10790Y14718D01*
X11037Y14820D02*
G03X10790Y14718I0J-349D01*
G01X11037Y14820D02*
X16109Y14820D01*
X16390Y14820D02*
G03X16109Y14820I-140J-270D01*
G01X16390Y14820D02*
X16453Y14820D01*
X17043Y14668D02*
G03X16453Y14820I-293J82D01*
G01X17043Y14668D02*
X17278Y14433D01*
X17535Y14236D02*
G03X17278Y14433I-285J-105D01*
G01X17535Y14236D02*
X19092Y14236D01*
X19092Y14236D02*
X19317Y14460D01*
X19317Y14460D02*
X19317Y15280D01*
X19317Y15280D02*
X19316Y15281D01*
X19316Y15281D02*
X18963Y15281D01*
X18716Y15384D02*
G03X18963Y15281I247J247D01*
G01X18716Y15384D02*
X18415Y15684D01*
X18313Y15931D02*
G03X18415Y15684I350J0D01*
G01X18313Y15931D02*
X18313Y16825D01*
X18415Y17072D02*
G03X18313Y16825I248J-246D01*
G01X18415Y17072D02*
X18788Y17444D01*
X19157Y17551D02*
G03X18788Y17444I-257J199D01*
G01X19157Y17551D02*
X20460Y17551D01*
X20462Y17551D02*
G03X20460Y17551I-1J-349D01*
G01X20943Y17213D02*
G03X20462Y17551I-193J237D01*
G01X20943Y17213D02*
X21380Y16776D01*
X21482Y16529D02*
G03X21380Y16776I-349J0D01*
G01X21482Y16529D02*
X21482Y15047D01*
X21563Y14445D02*
G03X21482Y15047I-13J305D01*
G01X21482Y14059D02*
G03X21563Y14445I-187J241D01*
G01X21482Y14059D02*
X21482Y13798D01*
X21380Y13550D02*
G03X21482Y13798I-247J248D01*
G01X21380Y13550D02*
X20983Y13154D01*
X20695Y12866D02*
G03X20983Y13154I305J-16D01*
G01X20695Y12866D02*
X20035Y12206D01*
X20035Y12206D02*
X20035Y11412D01*
X20035Y11412D02*
X20538Y10909D01*
X20641Y10661D02*
G03X20538Y10909I-349J0D01*
G01X20641Y10661D02*
X20641Y9335D01*
X20538Y9088D02*
G03X20641Y9335I-246J247D01*
G01X20538Y9088D02*
X20308Y8857D01*
X20060Y8755D02*
G03X20308Y8857I0J350D01*
G01X20060Y8755D02*
X18275Y8755D01*
X18024Y8505*
X18024Y8505D02*
X18024Y7991D01*
X18024Y7991D02*
X19855Y6160D01*
X19957Y5913D02*
G03X19855Y6160I-349J0D01*
G01X19957Y5913D02*
X19957Y5484D01*
X19957Y5484D02*
X20208Y5234D01*
X20208Y5234D02*
X20471Y5234D01*
X20628Y5234D02*
G03X20471Y5234I-78J316D01*
G01X20628Y5234D02*
X23799Y5234D01*
X23799Y5234D02*
X23799Y17000D01*
X25200Y17000D02*
G03X23799Y17000I-700J0D01*
G01X25200Y17000D02*
X25200Y16002D01*
X25200Y15997D02*
G03X25200Y16002I800J3D01*
G01X25200Y15997D02*
X25200Y10198D01*
X25200Y10198D02*
X29612Y10198D01*
X29612Y10198D02*
X29768Y10354D01*
X29768Y10354D02*
X29768Y13496D01*
X29871Y13743D02*
G03X29768Y13496I247J-246D01*
G01X29871Y13743D02*
X30336Y14208D01*
X30584Y14311D02*
G03X30336Y14208I0J-349D01*
G01X30584Y14311D02*
X32924Y14311D01*
X33171Y14208D02*
G03X32924Y14311I-246J-246D01*
G01X33171Y14208D02*
X36100Y11279D01*
X36416Y6497D02*
G03X37835Y10739I-6419J4506D01*
G01X37835Y10739D02*
X36022Y10739D01*
X35774Y10842D02*
G03X36022Y10739I248J247D01*
G01X35774Y10842D02*
X32845Y13771D01*
X32845Y13771D02*
X30662Y13771D01*
X30662Y13771D02*
X30308Y13417D01*
X30308Y13417D02*
X30308Y10276D01*
X30206Y10028D02*
G03X30308Y10276I-247J248D01*
G01X30206Y10028D02*
X29939Y9761D01*
X29691Y9658D02*
G03X29939Y9761I0J350D01*
G01X29691Y9658D02*
X25200Y9658D01*
X25200Y9658D02*
X25200Y6002D01*
X25200Y5997D02*
G03X25200Y6002I800J3D01*
G01X25200Y5997D02*
X25200Y5000D01*
X23870Y4694D02*
G03X25200Y5000I630J306D01*
G01X23870Y4694D02*
X20129Y4694D01*
X19881Y4797D02*
G03X20129Y4694I248J247D01*
G01X19881Y4797D02*
X19520Y5158D01*
X19417Y5406D02*
G03X19520Y5158I350J0D01*
G01X19417Y5406D02*
X19417Y5834D01*
X19417Y5834D02*
X17587Y7664D01*
X17484Y7912D02*
G03X17587Y7664I350J0D01*
G01X17484Y7912D02*
X17484Y8583D01*
X17587Y8831D02*
G03X17484Y8583I247J-247D01*
G01X17587Y8831D02*
X17949Y9192D01*
X18196Y9295D02*
G03X17949Y9192I0J-349D01*
G01X18196Y9295D02*
X19982Y9295D01*
X20101Y9414*
X20101Y10433*
X19947Y10736D02*
G03X20101Y10433I303J-36D01*
G01X19947Y10736D02*
X19930Y10753D01*
X19521Y11201D02*
G03X19930Y10753I229J-201D01*
G01X19495Y11333D02*
G03X19521Y11201I350J0D01*
G01X19495Y11333D02*
X19495Y12285D01*
X19598Y12532D02*
G03X19495Y12285I247J-246D01*
G01X19598Y12532D02*
X20942Y13877D01*
X20942Y13877D02*
X20942Y16450D01*
X20942Y16450D02*
X20381Y17011D01*
X20381Y17011D02*
X19118Y17011D01*
X19118Y17011D02*
X18853Y16746D01*
X18853Y16746D02*
X18853Y16010D01*
X18853Y16010D02*
X19042Y15821D01*
X19042Y15821D02*
X19395Y15821D01*
X19642Y15718D02*
G03X19395Y15821I-246J-246D01*
G01X19642Y15718D02*
X19754Y15606D01*
X19857Y15359D02*
G03X19754Y15606I-349J0D01*
G01X19857Y15359D02*
X19857Y15172D01*
X19857Y14627D02*
G03X19857Y15172I178J273D01*
G01X19857Y14627D02*
X19857Y14382D01*
X19754Y14134D02*
G03X19857Y14382I-246J248D01*
G01X19754Y14134D02*
X19418Y13798D01*
X19171Y13696D02*
G03X19418Y13798I0J350D01*
G01X19171Y13696D02*
X17396Y13696D01*
X17149Y13798D02*
G03X17396Y13696I247J248D01*
G01X17149Y13798D02*
X16667Y14280D01*
X16667Y14280D02*
X16393Y14280D01*
X16106Y14280D02*
G03X16393Y14280I144J270D01*
G01X16106Y14280D02*
X13553Y14280D01*
X12946Y14280D02*
G03X13553Y14280I304J-30D01*
G01X12946Y14280D02*
X11116Y14280D01*
X11116Y14280D02*
X10450Y13615D01*
X10293Y13045D02*
G03X10450Y13615I7J305D01*
G01X10293Y13045D02*
X10293Y12046D01*
X10293Y12046D02*
X10403Y11936D01*
X10586Y11753D02*
G03X10403Y11936I-286J-103D01*
G01X10586Y11753D02*
X10591Y11749D01*
X11049Y11291D02*
G03X10591Y11749I-249J209D01*
G01X11049Y11291D02*
X11510Y10830D01*
X11612Y10582D02*
G03X11510Y10830I-349J0D01*
G01X11612Y10582D02*
X11612Y9817D01*
X11612Y9167D02*
G03X11612Y9817I-4J325D01*
G01X11612Y9167D02*
X11612Y8554D01*
X11510Y8306D02*
G03X11612Y8554I-247J248D01*
G01X11510Y8306D02*
X11119Y7916D01*
X10872Y7813D02*
G03X11119Y7916I0J350D01*
G01X10872Y7813D02*
X9757Y7813D01*
X9757Y7813D02*
X9448Y7504D01*
X9448Y7504D02*
X9448Y6089D01*
X9785Y5752*
X17230Y5752*
X17477Y5649D02*
G03X17230Y5752I-246J-246D01*
G01X17477Y5649D02*
X17915Y5212D01*
X18017Y4965D02*
G03X17915Y5212I-349J0D01*
G01X18017Y4965D02*
X18017Y3160D01*
X18017Y3160D02*
X29996Y3160D01*
G03X36080Y6053I0J7843*
G01X36416Y6497D02*
G03X36080Y6053I-266J-147D01*
G01X36575Y12100D02*
G03X36575Y12100I-325D01*
G01X35793Y15646D02*
G03X35793Y15646I-439D01*
G01X35106Y16353D02*
G03X35106Y16353I-459D01*
G01X29600Y12000D02*
G03X29600Y12000I-600D01*
G01X30980Y15800D02*
G03X30980Y15800I-980D01*
G01X22625Y6200D02*
G03X22625Y6200I-325D01*
G01X21855Y6250D02*
G03X21855Y6250I-305D01*
G01X21767Y7302D02*
G03X21732Y7647I233J198D01*
G01X21732Y7647D02*
G03X21767Y7302I-232J-197D01*
G01X22555Y11300D02*
G03X22555Y11300I-305D01*
G01X22052Y12489D02*
G03X21978Y12651I248J211D01*
G01X21978Y12651D02*
G03X22052Y12489I-228J-201D01*
G01X22555Y14250D02*
G03X22555Y14250I-305D01*
G01X20855Y6250D02*
G03X20855Y6250I-305D01*
G01X20453Y7731D02*
G03X20546Y7884I297J-73D01*
G01X19989Y8117D02*
G03X20453Y7731I261J-159D01*
G01X20416Y8213D02*
G03X19989Y8117I-266J187D01*
G01X20546Y7884D02*
G03X20416Y8213I-296J73D01*
G01X21305Y9650D02*
G03X21305Y9650I-305D01*
G01X19125Y8400D02*
G03X19125Y8400I-325D01*
G01X20884Y12050D02*
G03X20884Y12050I-324D01*
G01X22305Y16150D02*
G03X22305Y16150I-305D01*
G01X21625Y18050D02*
G03X21625Y18050I-325D01*
G01X18501Y14771D02*
G03X18574Y15133I299J129D01*
G01X18574Y15133D02*
G03X18501Y14771I-274J-133D01*
G01X18355Y15650D02*
G03X18355Y15650I-305D01*
G01X16083Y4083D02*
G03X16416Y4416I417J-83D01*
G01X15895Y4088D02*
G03X16083Y4083I105J412D01*
G01X15110Y4110D02*
G03X15895Y4088I390J-110D01*
G01X14889Y4110D02*
G03X15110Y4110I111J390D01*
G01X14110Y4110D02*
G03X14889Y4110I390J-110D01*
G01X13889Y4110D02*
G03X14110Y4110I111J390D01*
G01X13110Y4110D02*
G03X13889Y4110I390J-110D01*
G01X12889Y4110D02*
G03X13110Y4110I111J390D01*
G01X12110Y4110D02*
G03X12889Y4110I390J-110D01*
G01X11889Y4110D02*
G03X12110Y4110I111J390D01*
G01X11110Y4110D02*
G03X11889Y4110I390J-110D01*
G01X10889Y4110D02*
G03X11110Y4110I111J390D01*
G01X10110Y4110D02*
G03X10889Y4110I390J-110D01*
G01X9889Y4110D02*
G03X10110Y4110I111J390D01*
G01X9110Y4110D02*
G03X9889Y4110I390J-110D01*
G01X8889Y4110D02*
G03X9110Y4110I111J390D01*
G01X8110Y4110D02*
G03X8889Y4110I390J-110D01*
G01X7889Y4110D02*
G03X8110Y4110I111J390D01*
G01X7110Y4110D02*
G03X7889Y4110I390J-110D01*
G01X6889Y4110D02*
G03X7110Y4110I111J390D01*
G01X6110Y4110D02*
G03X6889Y4110I390J-110D01*
G01X5889Y4110D02*
G03X6110Y4110I111J390D01*
G01X5110Y4110D02*
G03X5889Y4110I390J-110D01*
G01X4889Y4110D02*
G03X5110Y4110I111J390D01*
G01X4104Y4088D02*
G03X4889Y4110I396J-88D01*
G01X4411Y4395D02*
G03X4104Y4088I-411J105D01*
G01X4610Y4389D02*
G03X4411Y4395I-110J-389D01*
G01X5389Y4389D02*
G03X4610Y4389I-389J111D01*
G01X5610Y4389D02*
G03X5389Y4389I-110J-389D01*
G01X6389Y4389D02*
G03X5610Y4389I-389J111D01*
G01X6610Y4389D02*
G03X6389Y4389I-110J-389D01*
G01X7389Y4389D02*
G03X6610Y4389I-389J111D01*
G01X7610Y4389D02*
G03X7389Y4389I-110J-389D01*
G01X8389Y4389D02*
G03X7610Y4389I-389J111D01*
G01X8610Y4389D02*
G03X8389Y4389I-110J-389D01*
G01X9389Y4389D02*
G03X8610Y4389I-389J111D01*
G01X9610Y4389D02*
G03X9389Y4389I-110J-389D01*
G01X10389Y4389D02*
G03X9610Y4389I-389J111D01*
G01X10610Y4389D02*
G03X10389Y4389I-110J-389D01*
G01X11389Y4389D02*
G03X10610Y4389I-389J111D01*
G01X11610Y4389D02*
G03X11389Y4389I-110J-389D01*
G01X12389Y4389D02*
G03X11610Y4389I-389J111D01*
G01X12610Y4389D02*
G03X12389Y4389I-110J-389D01*
G01X13389Y4389D02*
G03X12610Y4389I-389J111D01*
G01X13610Y4389D02*
G03X13389Y4389I-110J-389D01*
G01X14389Y4389D02*
G03X13610Y4389I-389J111D01*
G01X14610Y4389D02*
G03X14389Y4389I-110J-389D01*
G01X15389Y4389D02*
G03X14610Y4389I-389J111D01*
G01X15588Y4395D02*
G03X15389Y4389I-88J-395D01*
G01X16416Y4416D02*
G03X15588Y4395I-416J84D01*
G01X9075Y5400D02*
G03X9075Y5400I-325D01*
G01X16555Y15950D02*
G03X16555Y15950I-305D01*
G01X16055Y17500D02*
G03X16055Y17500I-305D01*
G01X11825Y16100D02*
G03X11825Y16100I-325D01*
G01X12055Y17850D02*
G03X12055Y17850I-305D01*
G01X10525Y16250D02*
G03X10525Y16250I-325D01*
G01X11075Y17500D02*
G03X11075Y17500I-325D01*
G01X9655Y9300D02*
G03X9655Y9300I-305D01*
G01X9325Y10700D02*
G03X9325Y10700I-325D01*
G01X7805Y8900D02*
G03X7805Y8900I-305D01*
G01X8216Y12335D02*
G03X7971Y12854I-216J215D01*
G01X7783Y12335D02*
G03X8216Y12335I217J-214D01*
G01X7696Y12578D02*
G03X7783Y12335I304J-27D01*
G01X7971Y12854D02*
G03X7696Y12578I-321J46D01*
G01X8805Y12900D02*
G03X8805Y12900I-305D01*
G01X8737Y15408D02*
G03X8737Y15791I263J192D01*
X8737Y15408I-237J-191*
G01X6711Y12247D02*
G03X7038Y12452I289J-97D01*
G01X7038Y12452D02*
G03X6711Y12247I-288J98D01*
G01X7526Y14171D02*
G03X7526Y14171I-304D01*
G01X7975Y16400D02*
G03X7975Y16400I-325D01*
G01X7055Y17850D02*
G03X7055Y17850I-305D01*
G01X5992Y7650D02*
G03X5992Y7650I-304D01*
G01X6355Y9300D02*
G03X6355Y9300I-305D01*
G01X6305Y12100D02*
G03X6305Y12100I-305D01*
G01X6325Y12900D02*
G03X6325Y12900I-325D01*
G01X6305Y15600D02*
G03X6305Y15600I-305D01*
G01X6325Y16400D02*
G03X6325Y16400I-325D01*
G01X5555Y8900D02*
G03X5555Y8900I-305D01*
G01X5325Y10500D02*
G03X5325Y10500I-325D01*
G01X5625Y15250D02*
G03X5625Y15250I-325D01*
G01X4555Y5400D02*
G03X4555Y5400I-305D01*
G01X4575Y9200D02*
G03X4575Y9200I-325D01*
G01X4775Y11700D02*
G03X4775Y11700I-325D01*
G01X3405Y5350D02*
G03X3405Y5350I-305D01*
G01X4025Y10050D02*
G03X4025Y10050I-325D01*
G01X3825Y16300D02*
G03X3825Y16300I-325D01*
G01X4375Y16750D02*
G03X4375Y16750I-325D01*
G01X3025Y15250D02*
G03X3025Y15250I-325D01*
G01X10525Y10050D02*
G03X10525Y10050I-325D01*
G01X36575Y9950D02*
G03X36575Y9950I-325D01*
G01X35086Y5646D02*
G03X35086Y5646I-439D01*
G01X35813Y6353D02*
G03X35813Y6353I-459D01*
G01X31000Y6200D02*
G03X31000Y6200I-1000D01*
G01X31600Y12000D02*
G03X31600Y12000I-600D01*
G01X21625Y4050D02*
G03X21625Y4050I-325D01*
G01X20834Y13970D02*
G03X20834Y13970I-304D01*
G01X17038Y6747D02*
G03X16711Y6952I-38J303D01*
G01X16569Y6404D02*
G03X17038Y6747I181J246D01*
G01X16500Y6825D02*
G03X16569Y6404I-179J-245D01*
G01X16711Y6952D02*
G03X16500Y6825I39J-302D01*
G01X17354Y11176D02*
G03X17061Y11504I32J324D01*
G01X17061Y11504D02*
G03X17354Y11176I-11J-304D01*
G01X18055Y12450D02*
G03X18055Y12450I-305D01*
G01X15745Y7356D02*
G03X16050Y7655I305J-6D01*
G01X16050Y7655D02*
G03X15745Y7356I-304J6D01*
G01X16555Y9450D02*
G03X16555Y9450I-305D01*
G01X16055Y13000D02*
G03X16055Y13000I-305D01*
G01X15355Y7957D02*
G03X15355Y7957I-305D01*
G01X14996Y10995D02*
G03X14695Y11304I4J305D01*
G01X14695Y11304D02*
G03X14996Y10995I-3J-304D01*
G01X15305Y13650D02*
G03X15194Y13650I-55J300D01*
G01X15194Y13649D02*
G03X15305Y13649I56J-299D01*
G01X14355Y6950D02*
G03X14355Y6950I-305D01*
G01X13555Y8250D02*
G03X13555Y8250I-305D01*
G01X14055Y11000D02*
G03X14055Y11000I-305D01*
G01X14615Y11500D02*
G03X14615Y11500I-304D01*
G01X14055Y13000D02*
G03X14055Y13000I-305D01*
G01X12909Y7750D02*
G03X12909Y7750I-304D01*
G01X12005Y6500D02*
G03X12005Y6500I-305D01*
G01X11573Y7453D02*
G03X11726Y7546I227J-203D01*
G01X11726Y7546D02*
G03X11573Y7453I-226J204D01*
G01X10492Y6680D02*
G03X10606Y6785I270J-180D01*
G01X10606Y6785D02*
G03X10492Y6680I-256J165D01*
G01X19225Y4050D02*
G03X19225Y4050I-325D01*
G01X19575Y9800D02*
G03X19575Y9800I-325D01*
G01X19575Y16300D02*
G03X19575Y16300I-325D01*
G54D16*
G01X31000Y12000D03*
X29000Y12000D03*
G54D20*
X21300Y4050D03*
X10762Y6500D03*
X20550Y5550D03*
X18800Y8400D03*
X3700Y10050D03*
X4250Y9200D03*
X10200Y10050D03*
X19250Y9800D03*
X36250Y9950D03*
X10451Y11000D03*
X10800Y11500D03*
X20559Y12050D03*
X36250Y12100D03*
X6000Y12900D03*
X3500Y16300D03*
X2700Y15250D03*
X6000Y16400D03*
X10200Y16250D03*
X18800Y14900D03*
X19250Y16300D03*
X10750Y17500D03*
X21300Y18050D03*
G54D21*
X4000Y4500D03*
G54D24*
X28575Y12424D02*
X28681Y12318D01*
X28575Y11575D02*
X28681Y11681D01*
X29424Y11575D02*
X29318Y11681D01*
X29424Y12424D02*
X29318Y12318D01*
X3699Y4800D02*
X3805Y4694D01*
X4300Y4800D02*
X4194Y4694D01*
X3699Y4199D02*
X3805Y4305D01*
X30575Y12424D02*
X30681Y12318D01*
X30575Y11575D02*
X30681Y11681D01*
X31424Y11575D02*
X31318Y11681D01*
X31424Y12424D02*
X31318Y12318D01*
X36479Y12329D02*
X36373Y12223D01*
X36020Y12329D02*
X36126Y12223D01*
X36020Y11870D02*
X36126Y11976D01*
X36479Y11870D02*
X36373Y11976D01*
X21529Y18279D02*
X21423Y18173D01*
X21070Y18279D02*
X21176Y18173D01*
X21070Y17820D02*
X21176Y17926D01*
X21529Y17820D02*
X21423Y17926D01*
X20789Y12279D02*
X20683Y12173D01*
X20330Y12279D02*
X20436Y12173D01*
X20330Y11820D02*
X20436Y11926D01*
X20789Y11820D02*
X20683Y11926D01*
X20779Y5779D02*
X20673Y5673D01*
X20320Y5779D02*
X20426Y5673D01*
X20320Y5320D02*
X20426Y5426D01*
X20779Y5320D02*
X20673Y5426D01*
X19029Y8629D02*
X18923Y8523D01*
X18570Y8629D02*
X18676Y8523D01*
X18570Y8170D02*
X18676Y8276D01*
X19029Y8170D02*
X18923Y8276D01*
X10429Y16479D02*
X10323Y16373D01*
X9970Y16479D02*
X10076Y16373D01*
X9970Y16020D02*
X10076Y16126D01*
X10429Y16020D02*
X10323Y16126D01*
X19029Y15129D02*
X18923Y15023D01*
X18570Y14670D02*
X18676Y14776D01*
X19029Y14670D02*
X18923Y14776D01*
X10429Y10279D02*
X10323Y10173D01*
X9970Y10279D02*
X10076Y10173D01*
X9970Y9820D02*
X10076Y9926D01*
X10429Y9820D02*
X10323Y9926D01*
X10979Y17729D02*
X10873Y17623D01*
X10520Y17729D02*
X10626Y17623D01*
X10520Y17270D02*
X10626Y17376D01*
X10979Y17270D02*
X10873Y17376D01*
X10221Y11229D02*
X10327Y11123D01*
X10221Y10770D02*
X10327Y10876D01*
X10681Y10770D02*
X10575Y10876D01*
X6229Y16629D02*
X6123Y16523D01*
X5770Y16629D02*
X5876Y16523D01*
X5770Y16170D02*
X5876Y16276D01*
X6229Y16170D02*
X6123Y16276D01*
X6229Y13129D02*
X6123Y13023D01*
X5770Y13129D02*
X5876Y13023D01*
X5770Y12670D02*
X5876Y12776D01*
X6229Y12670D02*
X6123Y12776D01*
X3929Y10279D02*
X3823Y10173D01*
X3470Y10279D02*
X3576Y10173D01*
X3470Y9820D02*
X3576Y9926D01*
X3929Y9820D02*
X3823Y9926D01*
X4479Y9429D02*
X4373Y9323D01*
X4020Y9429D02*
X4126Y9323D01*
X4020Y8970D02*
X4126Y9076D01*
X4479Y8970D02*
X4373Y9076D01*
X3729Y16529D02*
X3623Y16423D01*
X3270Y16529D02*
X3376Y16423D01*
X3270Y16070D02*
X3376Y16176D01*
X3729Y16070D02*
X3623Y16176D01*
X2929Y15479D02*
X2823Y15373D01*
X2470Y15479D02*
X2576Y15373D01*
X2470Y15020D02*
X2576Y15126D01*
X2929Y15020D02*
X2823Y15126D01*
X36479Y10179D02*
X36373Y10073D01*
X36020Y10179D02*
X36126Y10073D01*
X36020Y9720D02*
X36126Y9826D01*
X36479Y9720D02*
X36373Y9826D01*
X21529Y4279D02*
X21423Y4173D01*
X21070Y4279D02*
X21176Y4173D01*
X21070Y3820D02*
X21176Y3926D01*
X21529Y3820D02*
X21423Y3926D01*
X19479Y10029D02*
X19373Y9923D01*
X19020Y10029D02*
X19126Y9923D01*
X19020Y9570D02*
X19126Y9676D01*
X19479Y9570D02*
X19373Y9676D01*
X19479Y16529D02*
X19373Y16423D01*
X19020Y16529D02*
X19126Y16423D01*
X19020Y16070D02*
X19126Y16176D01*
X19479Y16070D02*
X19373Y16176D01*
X11029Y11729D02*
X10923Y11623D01*
X10570Y11729D02*
X10676Y11623D01*
X11029Y11270D02*
X10923Y11376D01*
X10992Y6729D02*
X10886Y6623D01*
X10532Y6270D02*
X10638Y6376D01*
X10992Y6270D02*
X10886Y6376D01*
G74*
X0Y0D02*
M02*
