*
*
G04 PowerPCB (Build Number [351.51 ]) generated Gerber (RS-274-X) file*
G04 PC Version=2.1*
*
%IN "previewascworking.pcb"*%
*
%MOIN*%
*
%FSLAX24Y24*%
*
*
*
*
G04 PC Standard Apertures*
*
*
G04 Thermal Relief Aperture macro.*
%AMTER*
1,1,$1,0,0*
1,0,$1-$2,0,0*
21,0,$3,$4,0,0,45*
21,0,$3,$4,0,0,135*
%
*
*
G04 Annular Aperture macro.*
%AMANN*
1,1,$1,0,0*
1,0,$2,0,0*
%
*
*
G04 Odd Aperture macro.*
%AMODD*
1,1,$1,0,0*
1,0,$1-0.005,0,0*
%
*
*
G04 PC Custom Aperture Macros*
*
*
*
*
*
*
G04 PC Aperture Table*
*
%ADD010C,0.01*%
%ADD016C,0.09*%
%ADD017C,0.17*%
%ADD018C,0.062*%
%ADD020C,0.035*%
%ADD021C,0.055*%
%ADD030TER,0.17X0.0425X0.02833X0.1803*%
%ADD031TER,0.055X0.01375X0.00917X0.05833*%
%ADD032TER,0.062X0.0155X0.01033X0.06576*%
%ADD033TER,0.035X0.00875X0.00583X0.03712*%
*
*
*
*
G04 PC Custom Flashes*
G04 Layer Name previewascworking.pcb - flashes*
%LPD*%
*
*
G04 PC Circuitry*
G04 Layer Name previewascworking.pcb - circuitry*
%LPD*%
*
G54D10*
G01X2000Y18650D02*
X2350Y19000D01*
X30000Y19000*
X30000Y3000D02*
G75*
G03X30000Y19000I0J8000D01*
G01X30000Y3000D02*
X2350Y3000D01*
X2000Y3350*
X2000Y18650*
X25000Y17000D02*
G03X24000Y17000I-500J0D01*
G01X25000Y17000D02*
X25000Y5000D01*
X24000Y5000D02*
G03X25000Y5000I500J0D01*
G01X24000Y5000D02*
X24000Y17000D01*
G54D16*
X31000Y12000D03*
X29000Y12000D03*
G54D17*
X30000Y15800D03*
G54D18*
X35353Y15646D03*
X34646Y5646D03*
G54D20*
X26000Y6000D03*
X26000Y16000D03*
X21300Y4050D03*
X3100Y5350D03*
X4250Y5400D03*
X10762Y6500D03*
X11700Y6500D03*
X20550Y6250D03*
X21550Y6250D03*
X20550Y5550D03*
X36150Y6350D03*
X5687Y7650D03*
X8750Y7650D03*
X9100Y7250D03*
X11800Y7250D03*
X10050Y8250D03*
X10350Y6950D03*
X11500Y7750D03*
X13250Y8250D03*
X12604Y7750D03*
X15050Y7957D03*
X15745Y7661D03*
X14050Y6950D03*
X16320Y6579D03*
X16750Y6650D03*
X17000Y7050D03*
X16050Y7350D03*
X18800Y8400D03*
X20250Y7957D03*
X21500Y7450D03*
X20750Y7657D03*
X22000Y7500D03*
X3700Y10050D03*
X4250Y9200D03*
X5250Y8900D03*
X6050Y9300D03*
X7500Y8900D03*
X9350Y9300D03*
X10200Y10050D03*
X16250Y9450D03*
X19250Y9800D03*
X21000Y9650D03*
X36250Y9950D03*
X7000Y12150D03*
X6000Y12100D03*
X8000Y12120D03*
X10451Y11000D03*
X10800Y11500D03*
X10300Y11650D03*
X13750Y11000D03*
X14691Y11000D03*
X14310Y11500D03*
X15000Y11300D03*
X17050Y11200D03*
X17750Y12450D03*
X19750Y11000D03*
X20250Y10700D03*
X20559Y12050D03*
X21750Y12450D03*
X22250Y11300D03*
X36250Y12100D03*
X6000Y12900D03*
X6750Y12550D03*
X7221Y14171D03*
X8000Y12550D03*
X8500Y12900D03*
X10300Y13350D03*
X13250Y14250D03*
X13750Y13000D03*
X15250Y13950D03*
X15750Y13000D03*
X15250Y13350D03*
X17250Y14130D03*
X20529Y13970D03*
X21294Y14300D03*
X21000Y12850D03*
X22250Y14250D03*
X3500Y16300D03*
X2700Y15250D03*
X6000Y16400D03*
X6000Y15600D03*
X8500Y15600D03*
X10200Y16250D03*
X16250Y15950D03*
X16750Y14750D03*
X16250Y14550D03*
X18050Y15650D03*
X18800Y14900D03*
X18300Y15000D03*
X19250Y16300D03*
X21550Y14750D03*
X22000Y16150D03*
X6750Y17850D03*
X10750Y17500D03*
X11750Y17850D03*
X15750Y17500D03*
X20750Y17450D03*
X21300Y18050D03*
G54D21*
X15500Y4000D03*
X15000Y4500D03*
X14500Y4000D03*
X14000Y4500D03*
X13500Y4000D03*
X13000Y4500D03*
X12500Y4000D03*
X12000Y4500D03*
X11500Y4000D03*
X11000Y4500D03*
X10500Y4000D03*
X10000Y4500D03*
X9500Y4000D03*
X9000Y4500D03*
X8500Y4000D03*
X8000Y4500D03*
X7500Y4000D03*
X7000Y4500D03*
X6500Y4000D03*
X6000Y4500D03*
X5500Y4000D03*
X5000Y4500D03*
X4500Y4000D03*
X4000Y4500D03*
G54D30*
X30000Y6200D03*
G54D31*
X16000Y4500D03*
X16500Y4000D03*
G54D32*
X35353Y6353D03*
X34646Y16353D03*
G54D33*
X18900Y4050D03*
X8750Y5400D03*
X22300Y6200D03*
X20150Y8400D03*
X5000Y10500D03*
X11607Y9492D03*
X4450Y11700D03*
X9000Y10700D03*
X17386Y11500D03*
X7650Y12900D03*
X22300Y12700D03*
X5300Y15250D03*
X7650Y16400D03*
X9000Y15600D03*
X11500Y16100D03*
X20035Y14900D03*
X4050Y16750D03*
X18900Y17750D03*
G74*
X0Y0D02*
M02*
