*
*
G04 PowerPCB (Build Number [351.51 ]) generated Gerber (RS-274-X) file*
G04 PC Version=2.1*
*
%IN "previewascworking.pcb"*%
*
%MOIN*%
*
%FSLAX24Y24*%
*
*
*
*
G04 PC Standard Apertures*
*
*
G04 Thermal Relief Aperture macro.*
%AMTER*
1,1,$1,0,0*
1,0,$1-$2,0,0*
21,0,$3,$4,0,0,45*
21,0,$3,$4,0,0,135*
%
*
*
G04 Annular Aperture macro.*
%AMANN*
1,1,$1,0,0*
1,0,$2,0,0*
%
*
*
G04 Odd Aperture macro.*
%AMODD*
1,1,$1,0,0*
1,0,$1-0.005,0,0*
%
*
*
G04 PC Custom Aperture Macros*
*
*
*
*
*
*
G04 PC Aperture Table*
*
%ADD010C,0.01*%
%ADD011C,0.005*%
*
*
*
*
G04 PC Custom Flashes*
G04 Layer Name previewascworking.pcb - flashes*
%LPD*%
*
*
G04 PC Circuitry*
G04 Layer Name previewascworking.pcb - circuitry*
%LPD*%
*
G54D10*
G01X2000Y18650D02*
X2350Y19000D01*
X30000Y19000*
X30000Y3000D02*
G75*
G03X30000Y19000I0J8000D01*
G01X30000Y3000D02*
X2350Y3000D01*
X2000Y3350*
X2000Y18650*
X25000Y17000D02*
G03X24000Y17000I-500J0D01*
G01X25000Y17000D02*
X25000Y5000D01*
X24000Y5000D02*
G03X25000Y5000I500J0D01*
G01X24000Y5000D02*
X24000Y17000D01*
X4625Y9500D02*
X3820Y9500D01*
X3820Y10500*
X4625Y10500*
X5375Y9500D02*
X6180Y9500D01*
X6180Y10500*
X5375Y10500*
X19125Y15000D02*
X18320Y15000D01*
X18320Y16000*
X19125Y16000*
X19875Y15000D02*
X20680Y15000D01*
X20680Y16000*
X19875Y16000*
X6625Y16500D02*
X5820Y16500D01*
X5820Y17500*
X6625Y17500*
X7375Y16500D02*
X8180Y16500D01*
X8180Y17500*
X7375Y17500*
X6625Y13000D02*
X5820Y13000D01*
X5820Y14000*
X6625Y14000*
X7375Y13000D02*
X8180Y13000D01*
X8180Y14000*
X7375Y14000*
X3625Y15000D02*
X2820Y15000D01*
X2820Y16000*
X3625Y16000*
X4375Y15000D02*
X5180Y15000D01*
X5180Y16000*
X4375Y16000*
X11125Y9500D02*
X10320Y9500D01*
X10320Y10500*
X11125Y10500*
X11875Y9500D02*
X12680Y9500D01*
X12680Y10500*
X11875Y10500*
X19125Y8500D02*
X18320Y8500D01*
X18320Y9500*
X19125Y9500*
X19875Y8500D02*
X20680Y8500D01*
X20680Y9500*
X19875Y9500*
X11125Y16000D02*
X10320Y16000D01*
X10320Y17000*
X11125Y17000*
X11875Y16000D02*
X12680Y16000D01*
X12680Y17000*
X11875Y17000*
X4640Y8000D02*
X4618Y7937D01*
X4618Y7937D02*
X4572Y7875D01*
X4572Y7875D02*
X4527Y7843D01*
X4527Y7843D02*
X4436Y7843D01*
X4436Y7843D02*
X4390Y7875D01*
X4390Y7875D02*
X4345Y7937D01*
X4345Y7937D02*
X4322Y8000D01*
X4322Y8000D02*
X4300Y8093D01*
X4300Y8093D02*
X4300Y8250D01*
X4322Y8343*
X4322Y8343D02*
X4345Y8406D01*
X4390Y8468*
X4390Y8468D02*
X4436Y8500D01*
X4527Y8500*
X4572Y8468*
X4572Y8468D02*
X4618Y8406D01*
X4640Y8343*
X4868Y8000D02*
X4868Y7968D01*
X4868Y7968D02*
X4890Y7906D01*
X4890Y7906D02*
X4913Y7875D01*
X4913Y7875D02*
X4959Y7843D01*
X4959Y7843D02*
X5050Y7843D01*
X5050Y7843D02*
X5095Y7875D01*
X5118Y7906*
X5140Y7968*
X5140Y7968D02*
X5140Y8031D01*
X5140Y8031D02*
X5118Y8093D01*
X5118Y8093D02*
X5072Y8187D01*
X5072Y8187D02*
X4845Y8500D01*
X5163Y8500*
X19140Y13500D02*
X19118Y13437D01*
X19118Y13437D02*
X19072Y13375D01*
X19072Y13375D02*
X19027Y13343D01*
X19027Y13343D02*
X18936Y13343D01*
X18936Y13343D02*
X18890Y13375D01*
X18890Y13375D02*
X18845Y13437D01*
X18845Y13437D02*
X18822Y13500D01*
X18822Y13500D02*
X18800Y13593D01*
X18800Y13593D02*
X18800Y13750D01*
X18822Y13843*
X18822Y13843D02*
X18845Y13906D01*
X18890Y13968*
X18890Y13968D02*
X18936Y14000D01*
X19027Y14000*
X19072Y13968*
X19072Y13968D02*
X19118Y13906D01*
X19140Y13843*
X19390Y13343D02*
X19640Y13343D01*
X19640Y13343D02*
X19504Y13593D01*
X19504Y13593D02*
X19572Y13593D01*
X19572Y13593D02*
X19618Y13625D01*
X19640Y13656*
X19640Y13656D02*
X19663Y13750D01*
X19663Y13750D02*
X19663Y13812D01*
X19663Y13812D02*
X19640Y13906D01*
X19640Y13906D02*
X19595Y13968D01*
X19595Y13968D02*
X19527Y14000D01*
X19459Y14000*
X19390Y13968*
X19390Y13968D02*
X19368Y13937D01*
X19368Y13937D02*
X19345Y13875D01*
X6640Y15000D02*
X6618Y14937D01*
X6618Y14937D02*
X6572Y14875D01*
X6572Y14875D02*
X6527Y14843D01*
X6527Y14843D02*
X6436Y14843D01*
X6436Y14843D02*
X6390Y14875D01*
X6390Y14875D02*
X6345Y14937D01*
X6345Y14937D02*
X6322Y15000D01*
X6322Y15000D02*
X6300Y15093D01*
X6300Y15093D02*
X6300Y15250D01*
X6322Y15343*
X6322Y15343D02*
X6345Y15406D01*
X6390Y15468*
X6390Y15468D02*
X6436Y15500D01*
X6527Y15500*
X6572Y15468*
X6572Y15468D02*
X6618Y15406D01*
X6640Y15343*
X7072Y14843D02*
X6845Y15281D01*
X7186Y15281*
X7072Y14843D02*
X7072Y15500D01*
X6640Y11500D02*
X6618Y11437D01*
X6618Y11437D02*
X6572Y11375D01*
X6572Y11375D02*
X6527Y11343D01*
X6527Y11343D02*
X6436Y11343D01*
X6436Y11343D02*
X6390Y11375D01*
X6390Y11375D02*
X6345Y11437D01*
X6345Y11437D02*
X6322Y11500D01*
X6322Y11500D02*
X6300Y11593D01*
X6300Y11593D02*
X6300Y11750D01*
X6322Y11843*
X6322Y11843D02*
X6345Y11906D01*
X6390Y11968*
X6390Y11968D02*
X6436Y12000D01*
X6527Y12000*
X6572Y11968*
X6572Y11968D02*
X6618Y11906D01*
X6640Y11843*
X7140Y11343D02*
X6913Y11343D01*
X6913Y11343D02*
X6890Y11625D01*
X6890Y11625D02*
X6913Y11593D01*
X6913Y11593D02*
X6981Y11562D01*
X6981Y11562D02*
X7050Y11562D01*
X7050Y11562D02*
X7118Y11593D01*
X7118Y11593D02*
X7163Y11656D01*
X7163Y11656D02*
X7186Y11750D01*
X7163Y11812*
X7163Y11812D02*
X7140Y11906D01*
X7140Y11906D02*
X7095Y11968D01*
X7095Y11968D02*
X7027Y12000D01*
X6959Y12000*
X6890Y11968*
X6890Y11968D02*
X6868Y11937D01*
X6868Y11937D02*
X6845Y11875D01*
X3640Y13500D02*
X3618Y13437D01*
X3618Y13437D02*
X3572Y13375D01*
X3572Y13375D02*
X3527Y13343D01*
X3527Y13343D02*
X3436Y13343D01*
X3436Y13343D02*
X3390Y13375D01*
X3390Y13375D02*
X3345Y13437D01*
X3345Y13437D02*
X3322Y13500D01*
X3322Y13500D02*
X3300Y13593D01*
X3300Y13593D02*
X3300Y13750D01*
X3322Y13843*
X3322Y13843D02*
X3345Y13906D01*
X3390Y13968*
X3390Y13968D02*
X3436Y14000D01*
X3527Y14000*
X3572Y13968*
X3572Y13968D02*
X3618Y13906D01*
X3640Y13843*
X4163Y13343D02*
X3936Y14000D01*
X3845Y13343D02*
X4163Y13343D01*
X11140Y8000D02*
X11118Y7937D01*
X11118Y7937D02*
X11072Y7875D01*
X11072Y7875D02*
X11027Y7843D01*
X11027Y7843D02*
X10936Y7843D01*
X10936Y7843D02*
X10890Y7875D01*
X10890Y7875D02*
X10845Y7937D01*
X10845Y7937D02*
X10822Y8000D01*
X10822Y8000D02*
X10800Y8093D01*
X10800Y8093D02*
X10800Y8250D01*
X10822Y8343*
X10822Y8343D02*
X10845Y8406D01*
X10890Y8468*
X10890Y8468D02*
X10936Y8500D01*
X11027Y8500*
X11072Y8468*
X11072Y8468D02*
X11118Y8406D01*
X11140Y8343*
X11345Y7968D02*
X11390Y7937D01*
X11390Y7937D02*
X11459Y7843D01*
X11459Y7843D02*
X11459Y8500D01*
X19140Y7000D02*
X19118Y6937D01*
X19118Y6937D02*
X19072Y6875D01*
X19072Y6875D02*
X19027Y6843D01*
X19027Y6843D02*
X18936Y6843D01*
X18936Y6843D02*
X18890Y6875D01*
X18890Y6875D02*
X18845Y6937D01*
X18845Y6937D02*
X18822Y7000D01*
X18822Y7000D02*
X18800Y7093D01*
X18800Y7093D02*
X18800Y7250D01*
X18822Y7343*
X18822Y7343D02*
X18845Y7406D01*
X18890Y7468*
X18890Y7468D02*
X18936Y7500D01*
X19027Y7500*
X19072Y7468*
X19072Y7468D02*
X19118Y7406D01*
X19140Y7343*
X19618Y6937D02*
X19595Y6875D01*
X19527Y6843*
X19527Y6843D02*
X19481Y6843D01*
X19481Y6843D02*
X19413Y6875D01*
X19413Y6875D02*
X19368Y6968D01*
X19368Y6968D02*
X19345Y7125D01*
X19345Y7281*
X19368Y7406*
X19413Y7468*
X19413Y7468D02*
X19481Y7500D01*
X19481Y7500D02*
X19504Y7500D01*
X19504Y7500D02*
X19572Y7468D01*
X19572Y7468D02*
X19618Y7406D01*
X19640Y7312*
X19640Y7312D02*
X19640Y7281D01*
X19640Y7281D02*
X19618Y7187D01*
X19618Y7187D02*
X19572Y7125D01*
X19572Y7125D02*
X19504Y7093D01*
X19504Y7093D02*
X19481Y7093D01*
X19481Y7093D02*
X19413Y7125D01*
X19413Y7125D02*
X19368Y7187D01*
X19368Y7187D02*
X19345Y7281D01*
X11140Y14500D02*
X11118Y14437D01*
X11118Y14437D02*
X11072Y14375D01*
X11072Y14375D02*
X11027Y14343D01*
X11027Y14343D02*
X10936Y14343D01*
X10936Y14343D02*
X10890Y14375D01*
X10890Y14375D02*
X10845Y14437D01*
X10845Y14437D02*
X10822Y14500D01*
X10822Y14500D02*
X10800Y14593D01*
X10800Y14593D02*
X10800Y14750D01*
X10822Y14843*
X10822Y14843D02*
X10845Y14906D01*
X10890Y14968*
X10890Y14968D02*
X10936Y15000D01*
X11027Y15000*
X11072Y14968*
X11072Y14968D02*
X11118Y14906D01*
X11140Y14843*
X11345Y14468D02*
X11390Y14437D01*
X11390Y14437D02*
X11459Y14343D01*
X11459Y14343D02*
X11459Y15000D01*
X11800Y14343D02*
X11731Y14375D01*
X11731Y14375D02*
X11686Y14468D01*
X11686Y14468D02*
X11663Y14625D01*
X11663Y14625D02*
X11663Y14718D01*
X11663Y14718D02*
X11686Y14875D01*
X11731Y14968*
X11731Y14968D02*
X11800Y15000D01*
X11845Y15000*
X11913Y14968*
X11913Y14968D02*
X11959Y14875D01*
X11981Y14718*
X11981Y14718D02*
X11981Y14625D01*
X11981Y14625D02*
X11959Y14468D01*
X11959Y14468D02*
X11913Y14375D01*
X11913Y14375D02*
X11845Y14343D01*
X11845Y14343D02*
X11800Y14343D01*
X4640Y8781D02*
X4618Y8718D01*
X4618Y8718D02*
X4572Y8656D01*
X4572Y8656D02*
X4527Y8625D01*
X4436Y8625*
X4390Y8656*
X4390Y8656D02*
X4345Y8718D01*
X4345Y8718D02*
X4322Y8781D01*
X4322Y8781D02*
X4300Y8875D01*
X4300Y9031*
X4322Y9125*
X4322Y9125D02*
X4345Y9187D01*
X4345Y9187D02*
X4390Y9250D01*
X4390Y9250D02*
X4436Y9281D01*
X4527Y9281*
X4572Y9250*
X4572Y9250D02*
X4618Y9187D01*
X4618Y9187D02*
X4640Y9125D01*
X5027Y8625D02*
X4845Y9281D01*
X5027Y8625D02*
X5209Y9281D01*
X4913Y9062D02*
X5140Y9062D01*
X5413Y8625D02*
X5413Y9281D01*
X5413Y8625D02*
X5618Y8625D01*
X5686Y8656*
X5709Y8687*
X5709Y8687D02*
X5731Y8750D01*
X5731Y8750D02*
X5731Y8843D01*
X5731Y8843D02*
X5709Y8906D01*
X5686Y8937*
X5686Y8937D02*
X5618Y8968D01*
X5618Y8968D02*
X5413Y8968D01*
X5936Y8750D02*
X5981Y8718D01*
X5981Y8718D02*
X6050Y8625D01*
X6050Y9281*
X6277Y8781D02*
X6277Y8750D01*
X6300Y8687*
X6300Y8687D02*
X6322Y8656D01*
X6322Y8656D02*
X6368Y8625D01*
X6459Y8625*
X6504Y8656*
X6504Y8656D02*
X6527Y8687D01*
X6527Y8687D02*
X6550Y8750D01*
X6550Y8812*
X6550Y8812D02*
X6527Y8875D01*
X6481Y8968*
X6481Y8968D02*
X6254Y9281D01*
X6254Y9281D02*
X6572Y9281D01*
X6913Y8625D02*
X6845Y8656D01*
X6800Y8750*
X6777Y8906*
X6777Y9000*
X6800Y9156*
X6845Y9250*
X6913Y9281*
X6913Y9281D02*
X6959Y9281D01*
X7027Y9250*
X7072Y9156*
X7072Y9156D02*
X7095Y9000D01*
X7095Y8906*
X7072Y8750*
X7072Y8750D02*
X7027Y8656D01*
X6959Y8625*
X6913Y8625*
X7572Y8718D02*
X7550Y8656D01*
X7481Y8625*
X7481Y8625D02*
X7436Y8625D01*
X7368Y8656*
X7322Y8750*
X7322Y8750D02*
X7300Y8906D01*
X7300Y9062*
X7300Y9062D02*
X7322Y9187D01*
X7322Y9187D02*
X7368Y9250D01*
X7436Y9281*
X7459Y9281*
X7527Y9250*
X7572Y9187*
X7572Y9187D02*
X7595Y9093D01*
X7595Y9093D02*
X7595Y9062D01*
X7595Y9062D02*
X7572Y8968D01*
X7572Y8968D02*
X7527Y8906D01*
X7459Y8875*
X7436Y8875*
X7368Y8906*
X7322Y8968*
X7322Y8968D02*
X7300Y9062D01*
X19140Y14281D02*
X19118Y14218D01*
X19118Y14218D02*
X19072Y14156D01*
X19072Y14156D02*
X19027Y14125D01*
X18936Y14125*
X18890Y14156*
X18890Y14156D02*
X18845Y14218D01*
X18845Y14218D02*
X18822Y14281D01*
X18822Y14281D02*
X18800Y14375D01*
X18800Y14531*
X18822Y14625*
X18822Y14625D02*
X18845Y14687D01*
X18845Y14687D02*
X18890Y14750D01*
X18890Y14750D02*
X18936Y14781D01*
X19027Y14781*
X19072Y14750*
X19072Y14750D02*
X19118Y14687D01*
X19118Y14687D02*
X19140Y14625D01*
X19527Y14125D02*
X19345Y14781D01*
X19527Y14125D02*
X19709Y14781D01*
X19413Y14562D02*
X19640Y14562D01*
X19913Y14125D02*
X19913Y14781D01*
X19913Y14125D02*
X20118Y14125D01*
X20186Y14156*
X20209Y14187*
X20209Y14187D02*
X20231Y14250D01*
X20231Y14250D02*
X20231Y14343D01*
X20231Y14343D02*
X20209Y14406D01*
X20186Y14437*
X20186Y14437D02*
X20118Y14468D01*
X20118Y14468D02*
X19913Y14468D01*
X20436Y14250D02*
X20481Y14218D01*
X20481Y14218D02*
X20550Y14125D01*
X20550Y14781*
X20777Y14281D02*
X20777Y14250D01*
X20800Y14187*
X20800Y14187D02*
X20822Y14156D01*
X20822Y14156D02*
X20868Y14125D01*
X20959Y14125*
X21004Y14156*
X21004Y14156D02*
X21027Y14187D01*
X21027Y14187D02*
X21050Y14250D01*
X21050Y14312*
X21050Y14312D02*
X21027Y14375D01*
X20981Y14468*
X20981Y14468D02*
X20754Y14781D01*
X20754Y14781D02*
X21072Y14781D01*
X21413Y14125D02*
X21345Y14156D01*
X21300Y14250*
X21277Y14406*
X21277Y14500*
X21300Y14656*
X21345Y14750*
X21413Y14781*
X21413Y14781D02*
X21459Y14781D01*
X21527Y14750*
X21572Y14656*
X21572Y14656D02*
X21595Y14500D01*
X21595Y14406*
X21572Y14250*
X21572Y14250D02*
X21527Y14156D01*
X21459Y14125*
X21413Y14125*
X22072Y14218D02*
X22050Y14156D01*
X21981Y14125*
X21981Y14125D02*
X21936Y14125D01*
X21868Y14156*
X21822Y14250*
X21822Y14250D02*
X21800Y14406D01*
X21800Y14562*
X21800Y14562D02*
X21822Y14687D01*
X21822Y14687D02*
X21868Y14750D01*
X21936Y14781*
X21959Y14781*
X22027Y14750*
X22072Y14687*
X22072Y14687D02*
X22095Y14593D01*
X22095Y14593D02*
X22095Y14562D01*
X22095Y14562D02*
X22072Y14468D01*
X22072Y14468D02*
X22027Y14406D01*
X21959Y14375*
X21936Y14375*
X21868Y14406*
X21822Y14468*
X21822Y14468D02*
X21800Y14562D01*
X6640Y15781D02*
X6618Y15718D01*
X6618Y15718D02*
X6572Y15656D01*
X6572Y15656D02*
X6527Y15625D01*
X6436Y15625*
X6390Y15656*
X6390Y15656D02*
X6345Y15718D01*
X6345Y15718D02*
X6322Y15781D01*
X6322Y15781D02*
X6300Y15875D01*
X6300Y16031*
X6322Y16125*
X6322Y16125D02*
X6345Y16187D01*
X6345Y16187D02*
X6390Y16250D01*
X6390Y16250D02*
X6436Y16281D01*
X6527Y16281*
X6572Y16250*
X6572Y16250D02*
X6618Y16187D01*
X6618Y16187D02*
X6640Y16125D01*
X7027Y15625D02*
X6845Y16281D01*
X7027Y15625D02*
X7209Y16281D01*
X6913Y16062D02*
X7140Y16062D01*
X7413Y15625D02*
X7413Y16281D01*
X7413Y15625D02*
X7618Y15625D01*
X7686Y15656*
X7709Y15687*
X7709Y15687D02*
X7731Y15750D01*
X7731Y15750D02*
X7731Y15843D01*
X7731Y15843D02*
X7709Y15906D01*
X7686Y15937*
X7686Y15937D02*
X7618Y15968D01*
X7618Y15968D02*
X7413Y15968D01*
X7936Y15750D02*
X7981Y15718D01*
X7981Y15718D02*
X8050Y15625D01*
X8050Y16281*
X8277Y15781D02*
X8277Y15750D01*
X8300Y15687*
X8300Y15687D02*
X8322Y15656D01*
X8322Y15656D02*
X8368Y15625D01*
X8459Y15625*
X8504Y15656*
X8504Y15656D02*
X8527Y15687D01*
X8527Y15687D02*
X8550Y15750D01*
X8550Y15812*
X8550Y15812D02*
X8527Y15875D01*
X8481Y15968*
X8481Y15968D02*
X8254Y16281D01*
X8254Y16281D02*
X8572Y16281D01*
X8913Y15625D02*
X8845Y15656D01*
X8800Y15750*
X8777Y15906*
X8777Y16000*
X8800Y16156*
X8845Y16250*
X8913Y16281*
X8913Y16281D02*
X8959Y16281D01*
X9027Y16250*
X9072Y16156*
X9072Y16156D02*
X9095Y16000D01*
X9095Y15906*
X9072Y15750*
X9072Y15750D02*
X9027Y15656D01*
X8959Y15625*
X8913Y15625*
X9572Y15718D02*
X9550Y15656D01*
X9481Y15625*
X9481Y15625D02*
X9436Y15625D01*
X9368Y15656*
X9322Y15750*
X9322Y15750D02*
X9300Y15906D01*
X9300Y16062*
X9300Y16062D02*
X9322Y16187D01*
X9322Y16187D02*
X9368Y16250D01*
X9436Y16281*
X9459Y16281*
X9527Y16250*
X9572Y16187*
X9572Y16187D02*
X9595Y16093D01*
X9595Y16093D02*
X9595Y16062D01*
X9595Y16062D02*
X9572Y15968D01*
X9572Y15968D02*
X9527Y15906D01*
X9459Y15875*
X9436Y15875*
X9368Y15906*
X9322Y15968*
X9322Y15968D02*
X9300Y16062D01*
X6640Y12281D02*
X6618Y12218D01*
X6618Y12218D02*
X6572Y12156D01*
X6572Y12156D02*
X6527Y12125D01*
X6436Y12125*
X6390Y12156*
X6390Y12156D02*
X6345Y12218D01*
X6345Y12218D02*
X6322Y12281D01*
X6322Y12281D02*
X6300Y12375D01*
X6300Y12531*
X6322Y12625*
X6322Y12625D02*
X6345Y12687D01*
X6345Y12687D02*
X6390Y12750D01*
X6390Y12750D02*
X6436Y12781D01*
X6527Y12781*
X6572Y12750*
X6572Y12750D02*
X6618Y12687D01*
X6618Y12687D02*
X6640Y12625D01*
X7027Y12125D02*
X6845Y12781D01*
X7027Y12125D02*
X7209Y12781D01*
X6913Y12562D02*
X7140Y12562D01*
X7413Y12125D02*
X7413Y12781D01*
X7413Y12125D02*
X7618Y12125D01*
X7686Y12156*
X7709Y12187*
X7709Y12187D02*
X7731Y12250D01*
X7731Y12250D02*
X7731Y12343D01*
X7731Y12343D02*
X7709Y12406D01*
X7686Y12437*
X7686Y12437D02*
X7618Y12468D01*
X7618Y12468D02*
X7413Y12468D01*
X7936Y12250D02*
X7981Y12218D01*
X7981Y12218D02*
X8050Y12125D01*
X8050Y12781*
X8277Y12281D02*
X8277Y12250D01*
X8300Y12187*
X8300Y12187D02*
X8322Y12156D01*
X8322Y12156D02*
X8368Y12125D01*
X8459Y12125*
X8504Y12156*
X8504Y12156D02*
X8527Y12187D01*
X8527Y12187D02*
X8550Y12250D01*
X8550Y12312*
X8550Y12312D02*
X8527Y12375D01*
X8481Y12468*
X8481Y12468D02*
X8254Y12781D01*
X8254Y12781D02*
X8572Y12781D01*
X8913Y12125D02*
X8845Y12156D01*
X8800Y12250*
X8777Y12406*
X8777Y12500*
X8800Y12656*
X8845Y12750*
X8913Y12781*
X8913Y12781D02*
X8959Y12781D01*
X9027Y12750*
X9072Y12656*
X9072Y12656D02*
X9095Y12500D01*
X9095Y12406*
X9072Y12250*
X9072Y12250D02*
X9027Y12156D01*
X8959Y12125*
X8913Y12125*
X9572Y12218D02*
X9550Y12156D01*
X9481Y12125*
X9481Y12125D02*
X9436Y12125D01*
X9368Y12156*
X9322Y12250*
X9322Y12250D02*
X9300Y12406D01*
X9300Y12562*
X9300Y12562D02*
X9322Y12687D01*
X9322Y12687D02*
X9368Y12750D01*
X9436Y12781*
X9459Y12781*
X9527Y12750*
X9572Y12687*
X9572Y12687D02*
X9595Y12593D01*
X9595Y12593D02*
X9595Y12562D01*
X9595Y12562D02*
X9572Y12468D01*
X9572Y12468D02*
X9527Y12406D01*
X9459Y12375*
X9436Y12375*
X9368Y12406*
X9322Y12468*
X9322Y12468D02*
X9300Y12562D01*
X3640Y14281D02*
X3618Y14218D01*
X3618Y14218D02*
X3572Y14156D01*
X3572Y14156D02*
X3527Y14125D01*
X3436Y14125*
X3390Y14156*
X3390Y14156D02*
X3345Y14218D01*
X3345Y14218D02*
X3322Y14281D01*
X3322Y14281D02*
X3300Y14375D01*
X3300Y14531*
X3322Y14625*
X3322Y14625D02*
X3345Y14687D01*
X3345Y14687D02*
X3390Y14750D01*
X3390Y14750D02*
X3436Y14781D01*
X3527Y14781*
X3572Y14750*
X3572Y14750D02*
X3618Y14687D01*
X3618Y14687D02*
X3640Y14625D01*
X4027Y14125D02*
X3845Y14781D01*
X4027Y14125D02*
X4209Y14781D01*
X3913Y14562D02*
X4140Y14562D01*
X4413Y14125D02*
X4413Y14781D01*
X4413Y14125D02*
X4618Y14125D01*
X4686Y14156*
X4709Y14187*
X4709Y14187D02*
X4731Y14250D01*
X4731Y14250D02*
X4731Y14343D01*
X4731Y14343D02*
X4709Y14406D01*
X4686Y14437*
X4686Y14437D02*
X4618Y14468D01*
X4618Y14468D02*
X4413Y14468D01*
X4936Y14250D02*
X4981Y14218D01*
X4981Y14218D02*
X5050Y14125D01*
X5050Y14781*
X5277Y14281D02*
X5277Y14250D01*
X5300Y14187*
X5300Y14187D02*
X5322Y14156D01*
X5322Y14156D02*
X5368Y14125D01*
X5459Y14125*
X5504Y14156*
X5504Y14156D02*
X5527Y14187D01*
X5527Y14187D02*
X5550Y14250D01*
X5550Y14312*
X5550Y14312D02*
X5527Y14375D01*
X5481Y14468*
X5481Y14468D02*
X5254Y14781D01*
X5254Y14781D02*
X5572Y14781D01*
X5913Y14125D02*
X5845Y14156D01*
X5800Y14250*
X5777Y14406*
X5777Y14500*
X5800Y14656*
X5845Y14750*
X5913Y14781*
X5913Y14781D02*
X5959Y14781D01*
X6027Y14750*
X6072Y14656*
X6072Y14656D02*
X6095Y14500D01*
X6095Y14406*
X6072Y14250*
X6072Y14250D02*
X6027Y14156D01*
X5959Y14125*
X5913Y14125*
X6572Y14218D02*
X6550Y14156D01*
X6481Y14125*
X6481Y14125D02*
X6436Y14125D01*
X6368Y14156*
X6322Y14250*
X6322Y14250D02*
X6300Y14406D01*
X6300Y14562*
X6300Y14562D02*
X6322Y14687D01*
X6322Y14687D02*
X6368Y14750D01*
X6436Y14781*
X6459Y14781*
X6527Y14750*
X6572Y14687*
X6572Y14687D02*
X6595Y14593D01*
X6595Y14593D02*
X6595Y14562D01*
X6595Y14562D02*
X6572Y14468D01*
X6572Y14468D02*
X6527Y14406D01*
X6459Y14375*
X6436Y14375*
X6368Y14406*
X6322Y14468*
X6322Y14468D02*
X6300Y14562D01*
X11140Y8781D02*
X11118Y8718D01*
X11118Y8718D02*
X11072Y8656D01*
X11072Y8656D02*
X11027Y8625D01*
X10936Y8625*
X10890Y8656*
X10890Y8656D02*
X10845Y8718D01*
X10845Y8718D02*
X10822Y8781D01*
X10822Y8781D02*
X10800Y8875D01*
X10800Y9031*
X10822Y9125*
X10822Y9125D02*
X10845Y9187D01*
X10845Y9187D02*
X10890Y9250D01*
X10890Y9250D02*
X10936Y9281D01*
X11027Y9281*
X11072Y9250*
X11072Y9250D02*
X11118Y9187D01*
X11118Y9187D02*
X11140Y9125D01*
X11527Y8625D02*
X11345Y9281D01*
X11527Y8625D02*
X11709Y9281D01*
X11413Y9062D02*
X11640Y9062D01*
X11913Y8625D02*
X11913Y9281D01*
X11913Y8625D02*
X12118Y8625D01*
X12186Y8656*
X12209Y8687*
X12209Y8687D02*
X12231Y8750D01*
X12231Y8750D02*
X12231Y8843D01*
X12231Y8843D02*
X12209Y8906D01*
X12186Y8937*
X12186Y8937D02*
X12118Y8968D01*
X12118Y8968D02*
X11913Y8968D01*
X12436Y8750D02*
X12481Y8718D01*
X12481Y8718D02*
X12550Y8625D01*
X12550Y9281*
X12777Y8781D02*
X12777Y8750D01*
X12800Y8687*
X12800Y8687D02*
X12822Y8656D01*
X12822Y8656D02*
X12868Y8625D01*
X12959Y8625*
X13004Y8656*
X13004Y8656D02*
X13027Y8687D01*
X13027Y8687D02*
X13050Y8750D01*
X13050Y8812*
X13050Y8812D02*
X13027Y8875D01*
X12981Y8968*
X12981Y8968D02*
X12754Y9281D01*
X12754Y9281D02*
X13072Y9281D01*
X13413Y8625D02*
X13345Y8656D01*
X13300Y8750*
X13277Y8906*
X13277Y9000*
X13300Y9156*
X13345Y9250*
X13413Y9281*
X13413Y9281D02*
X13459Y9281D01*
X13527Y9250*
X13572Y9156*
X13572Y9156D02*
X13595Y9000D01*
X13595Y8906*
X13572Y8750*
X13572Y8750D02*
X13527Y8656D01*
X13459Y8625*
X13413Y8625*
X14072Y8718D02*
X14050Y8656D01*
X13981Y8625*
X13981Y8625D02*
X13936Y8625D01*
X13868Y8656*
X13822Y8750*
X13822Y8750D02*
X13800Y8906D01*
X13800Y9062*
X13800Y9062D02*
X13822Y9187D01*
X13822Y9187D02*
X13868Y9250D01*
X13936Y9281*
X13959Y9281*
X14027Y9250*
X14072Y9187*
X14072Y9187D02*
X14095Y9093D01*
X14095Y9093D02*
X14095Y9062D01*
X14095Y9062D02*
X14072Y8968D01*
X14072Y8968D02*
X14027Y8906D01*
X13959Y8875*
X13936Y8875*
X13868Y8906*
X13822Y8968*
X13822Y8968D02*
X13800Y9062D01*
X19140Y7781D02*
X19118Y7718D01*
X19118Y7718D02*
X19072Y7656D01*
X19072Y7656D02*
X19027Y7625D01*
X18936Y7625*
X18890Y7656*
X18890Y7656D02*
X18845Y7718D01*
X18845Y7718D02*
X18822Y7781D01*
X18822Y7781D02*
X18800Y7875D01*
X18800Y8031*
X18822Y8125*
X18822Y8125D02*
X18845Y8187D01*
X18845Y8187D02*
X18890Y8250D01*
X18890Y8250D02*
X18936Y8281D01*
X19027Y8281*
X19072Y8250*
X19072Y8250D02*
X19118Y8187D01*
X19118Y8187D02*
X19140Y8125D01*
X19527Y7625D02*
X19345Y8281D01*
X19527Y7625D02*
X19709Y8281D01*
X19413Y8062D02*
X19640Y8062D01*
X19913Y7625D02*
X19913Y8281D01*
X19913Y7625D02*
X20118Y7625D01*
X20186Y7656*
X20209Y7687*
X20209Y7687D02*
X20231Y7750D01*
X20231Y7750D02*
X20231Y7843D01*
X20231Y7843D02*
X20209Y7906D01*
X20186Y7937*
X20186Y7937D02*
X20118Y7968D01*
X20118Y7968D02*
X19913Y7968D01*
X20436Y7750D02*
X20481Y7718D01*
X20481Y7718D02*
X20550Y7625D01*
X20550Y8281*
X20777Y7781D02*
X20777Y7750D01*
X20800Y7687*
X20800Y7687D02*
X20822Y7656D01*
X20822Y7656D02*
X20868Y7625D01*
X20959Y7625*
X21004Y7656*
X21004Y7656D02*
X21027Y7687D01*
X21027Y7687D02*
X21050Y7750D01*
X21050Y7812*
X21050Y7812D02*
X21027Y7875D01*
X20981Y7968*
X20981Y7968D02*
X20754Y8281D01*
X20754Y8281D02*
X21072Y8281D01*
X21413Y7625D02*
X21345Y7656D01*
X21300Y7750*
X21277Y7906*
X21277Y8000*
X21300Y8156*
X21345Y8250*
X21413Y8281*
X21413Y8281D02*
X21459Y8281D01*
X21527Y8250*
X21572Y8156*
X21572Y8156D02*
X21595Y8000D01*
X21595Y7906*
X21572Y7750*
X21572Y7750D02*
X21527Y7656D01*
X21459Y7625*
X21413Y7625*
X22072Y7718D02*
X22050Y7656D01*
X21981Y7625*
X21981Y7625D02*
X21936Y7625D01*
X21868Y7656*
X21822Y7750*
X21822Y7750D02*
X21800Y7906D01*
X21800Y8062*
X21800Y8062D02*
X21822Y8187D01*
X21822Y8187D02*
X21868Y8250D01*
X21936Y8281*
X21959Y8281*
X22027Y8250*
X22072Y8187*
X22072Y8187D02*
X22095Y8093D01*
X22095Y8093D02*
X22095Y8062D01*
X22095Y8062D02*
X22072Y7968D01*
X22072Y7968D02*
X22027Y7906D01*
X21959Y7875*
X21936Y7875*
X21868Y7906*
X21822Y7968*
X21822Y7968D02*
X21800Y8062D01*
X11140Y15281D02*
X11118Y15218D01*
X11118Y15218D02*
X11072Y15156D01*
X11072Y15156D02*
X11027Y15125D01*
X10936Y15125*
X10890Y15156*
X10890Y15156D02*
X10845Y15218D01*
X10845Y15218D02*
X10822Y15281D01*
X10822Y15281D02*
X10800Y15375D01*
X10800Y15531*
X10822Y15625*
X10822Y15625D02*
X10845Y15687D01*
X10845Y15687D02*
X10890Y15750D01*
X10890Y15750D02*
X10936Y15781D01*
X11027Y15781*
X11072Y15750*
X11072Y15750D02*
X11118Y15687D01*
X11118Y15687D02*
X11140Y15625D01*
X11527Y15125D02*
X11345Y15781D01*
X11527Y15125D02*
X11709Y15781D01*
X11413Y15562D02*
X11640Y15562D01*
X11913Y15125D02*
X11913Y15781D01*
X11913Y15125D02*
X12118Y15125D01*
X12186Y15156*
X12209Y15187*
X12209Y15187D02*
X12231Y15250D01*
X12231Y15250D02*
X12231Y15343D01*
X12231Y15343D02*
X12209Y15406D01*
X12186Y15437*
X12186Y15437D02*
X12118Y15468D01*
X12118Y15468D02*
X11913Y15468D01*
X12436Y15250D02*
X12481Y15218D01*
X12481Y15218D02*
X12550Y15125D01*
X12550Y15781*
X12777Y15281D02*
X12777Y15250D01*
X12800Y15187*
X12800Y15187D02*
X12822Y15156D01*
X12822Y15156D02*
X12868Y15125D01*
X12959Y15125*
X13004Y15156*
X13004Y15156D02*
X13027Y15187D01*
X13027Y15187D02*
X13050Y15250D01*
X13050Y15312*
X13050Y15312D02*
X13027Y15375D01*
X12981Y15468*
X12981Y15468D02*
X12754Y15781D01*
X12754Y15781D02*
X13072Y15781D01*
X13413Y15125D02*
X13345Y15156D01*
X13300Y15250*
X13277Y15406*
X13277Y15500*
X13300Y15656*
X13345Y15750*
X13413Y15781*
X13413Y15781D02*
X13459Y15781D01*
X13527Y15750*
X13572Y15656*
X13572Y15656D02*
X13595Y15500D01*
X13595Y15406*
X13572Y15250*
X13572Y15250D02*
X13527Y15156D01*
X13459Y15125*
X13413Y15125*
X14072Y15218D02*
X14050Y15156D01*
X13981Y15125*
X13981Y15125D02*
X13936Y15125D01*
X13868Y15156*
X13822Y15250*
X13822Y15250D02*
X13800Y15406D01*
X13800Y15562*
X13800Y15562D02*
X13822Y15687D01*
X13822Y15687D02*
X13868Y15750D01*
X13936Y15781*
X13959Y15781*
X14027Y15750*
X14072Y15687*
X14072Y15687D02*
X14095Y15593D01*
X14095Y15593D02*
X14095Y15562D01*
X14095Y15562D02*
X14072Y15468D01*
X14072Y15468D02*
X14027Y15406D01*
X13959Y15375*
X13936Y15375*
X13868Y15406*
X13822Y15468*
X13822Y15468D02*
X13800Y15562D01*
G54D11*
X16886Y3328D02*
X16886Y3078D01*
X16897Y3031*
X16897Y3031D02*
X16909Y3015D01*
X16909Y3015D02*
X16931Y3000D01*
X16931Y3000D02*
X16954Y3000D01*
X16954Y3000D02*
X16977Y3015D01*
X16977Y3015D02*
X16988Y3031D01*
X16988Y3031D02*
X17000Y3078D01*
X17000Y3109*
X16784Y3265D02*
X16761Y3281D01*
X16727Y3328*
X16727Y3000*
X16988Y5859D02*
X16988Y5875D01*
X16988Y5875D02*
X16977Y5906D01*
X16965Y5921*
X16965Y5921D02*
X16943Y5937D01*
X16943Y5937D02*
X16897Y5937D01*
X16897Y5937D02*
X16875Y5921D01*
X16875Y5921D02*
X16863Y5906D01*
X16863Y5906D02*
X16852Y5875D01*
X16852Y5843*
X16852Y5843D02*
X16863Y5812D01*
X16863Y5812D02*
X16886Y5765D01*
X16886Y5765D02*
X17000Y5609D01*
X16840Y5609*
X16602Y5890D02*
X16613Y5921D01*
X16613Y5921D02*
X16647Y5937D01*
X16647Y5937D02*
X16670Y5937D01*
X16670Y5937D02*
X16704Y5921D01*
X16704Y5921D02*
X16727Y5875D01*
X16738Y5796*
X16738Y5796D02*
X16738Y5718D01*
X16738Y5718D02*
X16727Y5656D01*
X16704Y5625*
X16704Y5625D02*
X16670Y5609D01*
X16659Y5609*
X16625Y5625*
X16602Y5656*
X16590Y5703*
X16590Y5703D02*
X16590Y5718D01*
X16590Y5718D02*
X16602Y5765D01*
X16602Y5765D02*
X16625Y5796D01*
X16625Y5796D02*
X16659Y5812D01*
X16659Y5812D02*
X16670Y5812D01*
X16670Y5812D02*
X16704Y5796D01*
X16704Y5796D02*
X16727Y5765D01*
X16727Y5765D02*
X16738Y5718D01*
X16488Y5937D02*
X16488Y5609D01*
X16488Y5937D02*
X16386Y5937D01*
X16386Y5937D02*
X16352Y5921D01*
X16352Y5921D02*
X16340Y5906D01*
X16340Y5906D02*
X16329Y5875D01*
X16329Y5875D02*
X16329Y5828D01*
X16329Y5828D02*
X16340Y5796D01*
X16340Y5796D02*
X16352Y5781D01*
X16386Y5765*
X16386Y5765D02*
X16488Y5765D01*
X16227Y5937D02*
X16227Y5609D01*
X16125Y5937D02*
X16125Y5609D01*
X16125Y5937D02*
X15965Y5609D01*
X15965Y5937D02*
X15965Y5609D01*
X15693Y5859D02*
X15704Y5890D01*
X15704Y5890D02*
X15727Y5921D01*
X15727Y5921D02*
X15750Y5937D01*
X15750Y5937D02*
X15795Y5937D01*
X15795Y5937D02*
X15818Y5921D01*
X15818Y5921D02*
X15840Y5890D01*
X15840Y5890D02*
X15852Y5859D01*
X15863Y5812*
X15863Y5812D02*
X15863Y5734D01*
X15863Y5734D02*
X15852Y5687D01*
X15852Y5687D02*
X15840Y5656D01*
X15840Y5656D02*
X15818Y5625D01*
X15795Y5609*
X15750Y5609*
X15727Y5625*
X15704Y5656*
X15704Y5656D02*
X15693Y5687D01*
X15522Y5937D02*
X15545Y5921D01*
X15545Y5921D02*
X15568Y5890D01*
X15568Y5890D02*
X15579Y5859D01*
X15579Y5859D02*
X15590Y5812D01*
X15590Y5812D02*
X15590Y5734D01*
X15590Y5734D02*
X15579Y5687D01*
X15579Y5687D02*
X15568Y5656D01*
X15545Y5625*
X15522Y5609*
X15522Y5609D02*
X15477Y5609D01*
X15454Y5625*
X15454Y5625D02*
X15431Y5656D01*
X15431Y5656D02*
X15420Y5687D01*
X15420Y5687D02*
X15409Y5734D01*
X15409Y5812*
X15409Y5812D02*
X15420Y5859D01*
X15431Y5890*
X15431Y5890D02*
X15454Y5921D01*
X15454Y5921D02*
X15477Y5937D01*
X15477Y5937D02*
X15522Y5937D01*
X15306Y5937D02*
X15306Y5609D01*
X15306Y5937D02*
X15147Y5609D01*
X15147Y5937D02*
X15147Y5609D01*
X15045Y5937D02*
X15045Y5609D01*
X15045Y5937D02*
X14886Y5609D01*
X14886Y5937D02*
X14886Y5609D01*
G74*
X0Y0D02*
M02*
