%
T1C.01575F095S3
X079264Y112454
X079676Y11252
X080018Y11252
X079264Y112872
X080018Y112881
X079676Y112881
X079676Y113208
X079264Y113241
X080018Y113241
X079264Y113585
X079676Y113604
X080013Y113612
X08998Y117528
X093297Y116823
X090047Y11682
X093229Y110934
X093844Y110812
X092852Y110546
X093229Y110546
X093844Y110299
X093194Y110045
X092326Y110032
X092804Y110032
X093809Y109741
X092804Y109725
X092421Y109699
X092661Y109403
X093194Y109403
X096059Y108412
X096346Y108412
X09676Y108412
X096715Y108847
X095971Y108878
X096346Y108878
X096715Y109292
X094376Y109741
X094777Y109741
X095431Y109741
X095859Y109741
X096715Y109763
X096715Y110136
X094777Y110299
X095405Y110299
X094367Y110299
X095859Y110299
X096715Y110548
X094768Y110812
X096451Y110812
X095841Y110812
X094324Y110812
X095353Y110812
X09432Y116598
X09918Y114786
X10329Y100079
X104981Y096906
X107531Y096207
X109811Y097218
X110777Y098166
X110524Y098166
X110445Y107964
X110901Y107964
X111345Y107964
X111756Y107964
X111417Y108497
X110989Y108497
X110467Y108497
X110467Y108925
X110945Y108925
X111312Y108925
X111712Y108925
X111339Y10938
X110928Y10938
X110412Y10938
X110412Y109769
X110884Y109769
X111307Y109769
X111307Y110604
X110879Y110604
X110401Y110604
X110401Y110904
X110718Y110987
X111518Y110987
X110401Y111209
X110401Y111541
X110401Y111832
X111292Y115161
X1117Y11548
X110208Y116441
X11042Y117733
X11011Y117733
X11042Y118032
X110052Y118032
X110052Y118364
X11042Y118368
X110448Y119031
X11008Y119031
X110448Y119475
X114444Y119189
X114862Y119091
X115268Y119091
X114444Y118656
X115268Y118615
X114862Y118591
X114444Y11814
X114862Y118132
X115268Y118116
X115268Y117665
X114444Y117591
X114862Y117591
X115268Y117042
X114457Y117042
X114889Y116983
X115268Y116649
X114889Y116614
X114889Y116256
X115268Y116256
X114889Y115952
X115268Y115952
X111807Y110987
X11219Y110604
X111779Y110604
X111767Y109819
X112212Y109819
X111767Y10938
X112212Y109347
X112212Y108925
X112223Y108497
X111845Y108497
X112223Y107964
X115943Y106495
X114508Y100693
X114294Y097995
X113871Y097995
X122415Y097735
X117143Y097822
X122415Y098867
X121906Y1083
X121906Y108621
X121906Y108873
X121906Y109152
X122686Y10957
X122236Y10957
X121906Y1096
X122236Y109938
X121906Y109947
X122686Y109948
X122236Y110377
X122686Y11038
X121906Y110394
X122686Y110748
X122236Y110748
X121906Y110757
X121906Y111119
X122686Y11112
X122236Y111127
X122686Y111438
X122236Y11158
X121906Y11158
X117538Y111585
X117167Y111585
X124649Y106701
X125019Y106203
X124649Y106203
X124733Y104028
X124733Y103663
X124733Y102982
X124575Y100187
X129005Y096802
X12832Y096464
X127889Y096443
X126178Y096121
X127551Y095852
X125535Y094975
X128302Y094197
X128833Y094197
X129254Y094197
X129254Y093703
X128833Y093703
X128302Y093703
X128297Y093235
X128838Y093235
X129254Y093235
X124595Y093073
X125672Y092868
X128833Y092819
X128297Y092819
X129249Y092819
X128271Y092426
X128822Y092398
X129249Y092398
X12625Y092184
X127506Y091476
X126819Y090819
X126447Y088937
X126819Y088937
X127105Y088937
X126701Y087264
X128654Y08685
X128217Y08569
X129151Y08569
X128619Y08569
X131743Y083957
X129709Y086248
X130291Y086766
X129709Y08685
X131456Y088685
X130237Y089159
X130237Y089568
X129358Y090474
X12948Y090862
X130893Y091013
X129677Y092398
X13019Y092398
X129691Y092819
X13019Y092819
X130195Y093235
X129696Y093235
X129701Y093703
X130195Y093703
X129717Y094197
X130226Y094197
X129288Y096536
X130699Y097924
X130691Y098267
X132408Y092735
X135615Y09224
X134348Y091474
X136416Y09127
X135897Y090441
X132273Y089666
X132653Y0848
X132653Y084541
X133208Y083957
X134709Y083957
X139362Y085413
X137928Y08633
X140998Y086722
X13852Y08958
X136948Y091584
X138661Y093443
X137617Y094797
X137899Y095028
X13915Y095363
X139598Y095582
X13915Y095673
X139598Y096079
X138796Y096079
X13915Y096132
X139598Y096474
X13915Y096474
X138796Y096474
X139598Y096875
X144071Y08782
X142643Y087252
X141819Y086077
X144979Y084312
T2C.0315F197S55
X128869Y088699
X129657Y088699
X09992Y09522G85X100983Y09522
X104842Y09522G85X105905Y09522
T3C.03937F197S55
X124398Y096444
X125398Y096444
X14539Y095191
X14539Y094191
X14539Y093191
X14539Y092191
X14539Y091191
T4C.03937F197S55
X088426Y107955
X088421Y107969
X088421Y109969
X088426Y110908
X093632Y118825
X093632Y11784
X09221Y106491
X090818Y105099
X094085Y092782
X094085Y087882
X097085Y086882
X101215Y086882
X098215Y087882
X10233Y087882
X097085Y092782
X101215Y092782
X098215Y092782
X10233Y092782
X103651Y098037
X102667Y098037
X106445Y092782
X10533Y092782
X110571Y092782
X109445Y092782
X110571Y087882
X106445Y087882
X10533Y086882
X109445Y086882
X113571Y086882
X117675Y086882
X114675Y087882
X114675Y092782
X117675Y092782
X113571Y092782
X117662Y099474
X118646Y099474
X11444Y099853
X113456Y099853
X118214Y113787
X118214Y114771
X128702Y116577
X128702Y115592
X124408Y11018
X123424Y11018
X128015Y106338
X128015Y105353
X127111Y10248
X127111Y101496
X119631Y099474
X127093Y098773
X126109Y098773
X125124Y098773
X128349Y083989
X127364Y083989
X130401Y08081
X131385Y08081
X133679Y08081
X130544Y084172
X130544Y085156
X133945Y095028
X133945Y096013
X132854Y098781
X13187Y098781
X14155Y099521
X140566Y099521
X136925Y08081
X134664Y08081
X13791Y08081
X144841Y085482
X144841Y086466
X144841Y08745
X144841Y088435
X144841Y089419
X14491Y09698
X14491Y097964
X144921Y100124
X144921Y101109
T5C.04724F139S55
X084267Y092218
X081385Y093158
X081417Y09543
X082906Y098232
X082906Y102169
X085523Y104891
X079618Y104891
X082303Y114276
X085226Y115528
X088025Y102169
X092108Y101102
X09Y100186
X094201Y099009
X088025Y098232
X092093Y098093
X087323Y09543
X09914Y103306
X09914Y106298
X09914Y108298
X09914Y109794
X099741Y113022
X102701Y113022
X110873Y113541
X107361Y113053
X104401Y113053
X110873Y111572
X107132Y110306
X107132Y108338
X107132Y106369
X107132Y104401
X11036Y103323
X119158Y087656
X119158Y092459
X11853Y102542
X112329Y103323
X11467Y103625
X116367Y105322
X115528Y107372
X113831Y109069
X114979Y11111
X114979Y113079
X125811Y118697
X1231Y117502
X1207Y117502
X121817Y113695
X124217Y113695
X126018Y113053
X120498Y102542
X12152Y093246
X123882Y092459
X135713Y100133
X137682Y100133
X12779Y113053
X127582Y118697
T6C.06299F089S55
X090984Y087919
X090984Y091856
X140708Y080477
X142268Y080477
X143828Y080477
X090984Y085379G85X090984Y085734
X090984Y094139G85X090984Y094297
T7C.07087F081S55
X08277Y086386
X085723Y086386
X093728Y097291
X095918Y083268
X09887Y083268
X100839Y083268
X102807Y083268
X107695Y080354
X11231Y080354
X107695Y083307
X11231Y083307
X108544Y09899
X108544Y10055
X117043Y083307
X121838Y083307
X117043Y080354
X121838Y080354
X131577Y099495
X133137Y099495
X140245Y100133
X141805Y100133
X095918Y08437G85X095918Y084173
X095918Y08237G85X095918Y082173
X102805Y084367G85X102805Y08417
X102805Y082367G85X102805Y08217
X100837Y084363G85X100837Y084166
X100837Y082363G85X100837Y082166
X098869Y084374G85X098869Y084177
X098869Y082374G85X098869Y082177
X106585Y083492G85X106782Y083492
X108585Y083492G85X108782Y083492
X111204Y080541G85X111401Y080541
X113204Y080541G85X113401Y080541
X111209Y0835G85X111406Y0835
X113209Y0835G85X113406Y0835
X106599Y080542G85X106796Y080542
X108599Y080542G85X108796Y080542
X115942Y083542G85X116139Y083542
X117942Y083542G85X118139Y083542
X085721Y085295G85X085721Y085492
X085721Y087295G85X085721Y087492
X08277Y085283G85X08277Y08548
X08277Y087283G85X08277Y08748
X115947Y080589G85X116144Y080589
X117947Y080589G85X118144Y080589
X120758Y083547G85X120955Y083547
X122758Y083547G85X122955Y083547
X120729Y080586G85X120926Y080586
X122729Y080586G85X122926Y080586
X142127Y101252G85X142127Y101055
X142127Y099252G85X142127Y099055
X139964Y099115G85X139964Y099312
X139964Y101115G85X139964Y101312
X125994Y103206G85X12619Y103206
X127994Y103206G85X12819Y103206
X126008Y100931G85X126205Y100931
X128008Y100931G85X128205Y100931
M30
