*
*
G04 PADS 9.5 Build Number: 522968 generated Gerber (RS-274-X) file*
G04 PC Version=2.1*
*
%IN "FLT_V10_20190423_longA."*%
*
%MOIN*%
*
%FSLAX35Y35*%
*
*
*
*
G04 PC Standard Apertures*
*
*
G04 Thermal Relief Aperture macro.*
%AMTER*
1,1,$1,0,0*
1,0,$1-$2,0,0*
21,0,$3,$4,0,0,45*
21,0,$3,$4,0,0,135*
%
*
*
G04 Annular Aperture macro.*
%AMANN*
1,1,$1,0,0*
1,0,$2,0,0*
%
*
*
G04 Odd Aperture macro.*
%AMODD*
1,1,$1,0,0*
1,0,$1-0.005,0,0*
%
*
*
G04 PC Custom Aperture Macros*
*
*
*
*
*
*
G04 PC Aperture Table*
*
%ADD010C,0.00394*%
%ADD014C,0.07874*%
%ADD040C,0.01969*%
%ADD046C,0.001*%
%ADD113C,0.09646*%
%ADD118C,0.08071*%
%ADD132C,0.10039*%
%ADD252O,0.08858X0.07283*%
%ADD422O,0.07283X0.08858*%
%ADD426C,0.12008*%
%ADD428O,0.15945X0.12008*%
%ADD445O,0.12008X0.15945*%
%ADD498R,0.23819X0.08071*%
%ADD499C,0.08697*%
%ADD500C,0.08465*%
%ADD502O,0.15945X0.12008*%
%ADD503O,0.08071X0.06997*%
%ADD504O,0.06997X0.08071*%
%ADD505O,0.12008X0.15945*%
%ADD509R,0.08071X0.08071*%
%ADD511O,0.12017X0.15945*%
%ADD513C,0.15197*%
%ADD514C,0.1004*%
%ADD515C,0.10039*%
%ADD519C,0.08197*%
%ADD525O,0.05197X0.06197*%
%ADD532O,0.07284X0.05709*%
%ADD533O,0.07283X0.05709*%
%ADD534O,0.05709X0.07284*%
%ADD535O,0.05709X0.07283*%
%ADD536O,0.12017X0.10039*%
%ADD548O,0.13976X0.15945*%
%ADD549O,0.15945X0.13976*%
%ADD550R,0.07283X0.08858*%
%ADD551R,0.08858X0.07283*%
%ADD553C,0.08465*%
%ADD554O,0.12795X0.12795*%
*
*
*
*
G04 PC Circuitry*
G04 Layer Name FLT_V10_20190423_longA. - circuitry*
%LPD*%
*
*
G04 PC Custom Flashes*
G04 Layer Name FLT_V10_20190423_longA. - flashes*
%LPD*%
*
*
G04 PC Circuitry*
G04 Layer Name FLT_V10_20190423_longA. - circuitry*
%LPD*%
*
G54D10*
G01X1660433Y1396260D02*
Y1803740D01*
X1663386Y1806693D02*
G75*
G03X1660433Y1803740I-0J-2953D01*
G01X1663386Y1806693D02*
X2169291D01*
X2172244Y1803740D02*
G03X2169291Y1806693I-2953J0D01*
G01X2172244Y1803740D02*
Y1643307D01*
G03X2186024Y1629528I13780J0*
G01X2336614*
X2339567Y1626575D02*
G03X2336614Y1629528I-2953J-0D01*
G01X2339567Y1626575D02*
Y1396260D01*
X2336614Y1393307D02*
G03X2339567Y1396260I0J2953D01*
G01X2336614Y1393307D02*
X1663386D01*
X1660433Y1396260D02*
G03X1663386Y1393307I2953J-0D01*
G01X1682087Y1416929D02*
G03X1682087I-7874J0D01*
G01X1717520D02*
G03X1717520I-7874J0D01*
G01X2154528D02*
G03X2154528I-7874J0D01*
G01X1878937Y1787008D02*
G03X1878937I-7874J0D01*
G01X1922244Y1790945D02*
G03X1922244I-7874J0D01*
G01X2063976Y1787008D02*
G03X2063976I-7874J0D01*
G01X1682087Y1595669D02*
G03X1682087I-7874J0D01*
G01Y1783071D02*
G03X1682087I-7874J0D01*
G01X2154528Y1698425D02*
G03X2154528I-7874J0D01*
G01X1842689Y1456836D02*
X1850629D01*
Y1415164*
X1842689*
Y1456836*
X1806606Y1545692D02*
Y1524888D01*
X1817754Y1513741*
X1812099Y1508086*
X1799533Y1520652*
Y1545736*
X1806606Y1545692*
X1737866Y1602677D02*
X1766130D01*
Y1597638*
X1737866*
Y1602677*
X1736625Y1619830D02*
X1780368D01*
X1792510Y1607689*
X1788090Y1603268*
X1776901Y1614457*
X1736625*
Y1619830*
X1768160Y1657751D02*
X1793242Y1632669D01*
X1825305*
Y1625970*
X1790975*
X1763482Y1653462*
X1768160Y1657751*
X1707670Y1704287D02*
X1733524Y1678433D01*
X1727170Y1672079*
X1701097Y1698152*
X1707670Y1704287*
X1679400Y1697063D02*
X1685973D01*
Y1669895*
X1679400*
Y1697063*
X2071700Y1521370D02*
Y1548895D01*
X2077533Y1554728*
X2098817*
X2105117Y1548427*
Y1521459*
X2097419*
Y1543236*
X2093864Y1546792*
X2081686*
X2078664Y1543770*
Y1521370*
X2071700*
X1776139Y1584109D02*
X1800897Y1559350D01*
X1795429Y1553545*
X1770452Y1578523*
X1776139Y1584109*
X1854726Y1680894D02*
X1878677D01*
Y1676995*
X1854726*
Y1680894*
X1882808Y1770835D02*
X1890971D01*
Y1718809*
X1882808*
Y1770835*
X1919238Y1709559D02*
G03X1919238I-11811J0D01*
G01X1917303Y1680751D02*
G03X1917303I-11811J0D01*
G01X1920313Y1651082D02*
G03X1920313I-11811J0D01*
G01X1711545Y1492902D02*
Y1451810D01*
X1730160Y1433196*
X1735533Y1438569*
X1719606Y1454497*
Y1492902*
X1711545*
G54D14*
X1838806Y1399891D02*
X1854581D01*
X1871452Y1399770D02*
X1887227D01*
X1904500Y1400725D02*
X1920275D01*
X1933008Y1400244D02*
X1948783D01*
X1964545Y1400028D02*
X1980321D01*
X1996035Y1399489D02*
X2011811D01*
X2025522Y1399381D02*
X2041297D01*
X2056192Y1400244D02*
X2071967D01*
X2090935Y1399764D02*
X2100083D01*
X1826443Y1492229D02*
X1842218D01*
X1858650D02*
X1874426D01*
X1889324D02*
X1905100D01*
X1920875Y1492448D02*
X1936650D01*
X1958341Y1492887D02*
X1974116D01*
X1992740Y1492229D02*
X2008515D01*
X2028672Y1492448D02*
X2044447D01*
X1785239Y1517545D02*
X1799318Y1503466D01*
X1807892Y1496792D02*
X1813396Y1491288D01*
X2089089Y1527279D02*
Y1513731D01*
X2090623Y1501644D02*
Y1488097D01*
X2091061Y1474695D02*
Y1461147D01*
X2004091Y1727468D02*
Y1713920D01*
X1992726Y1727605D02*
Y1714057D01*
X1995053Y1705148D02*
Y1691600D01*
X1982045Y1705695D02*
Y1692148D01*
X1801362Y1715515D02*
Y1701967D01*
X1813401Y1715300D02*
Y1701752D01*
X1824580Y1715300D02*
Y1701752D01*
X1836405Y1714225D02*
Y1700677D01*
X1837695Y1689501D02*
Y1675954D01*
X1826515Y1686922D02*
Y1673374D01*
X1814476Y1654244D02*
Y1640696D01*
X1824795Y1656178D02*
Y1642631D01*
X1836405Y1663918D02*
Y1650370D01*
X1987631Y1684119D02*
Y1670571D01*
X1771355Y1420133D02*
X1787130D01*
X1802528Y1419488D02*
X1818303D01*
X1803395Y1406350D02*
X1819170D01*
X1771577Y1405705D02*
X1787352D01*
X1988028Y1791721D02*
Y1778173D01*
X2000147Y1791317D02*
Y1777769D01*
X2012266Y1792730D02*
Y1779183D01*
X2030917Y1793942D02*
Y1780395D01*
X1755485Y1460052D02*
X1771261D01*
X1754883Y1471491D02*
X1770659D01*
X1753980Y1481726D02*
X1769755D01*
X1743367Y1405419D02*
X1759143D01*
X1699964Y1446952D02*
X1705839Y1441077D01*
X1714730Y1436644D02*
X1720605Y1430770D01*
X1728897Y1423577D02*
X1734771Y1417702D01*
X1746850Y1419779D02*
X1762625D01*
X1851583Y1467596D02*
X1857457Y1461722D01*
X1880938Y1467665D02*
Y1457802D01*
X1917413Y1469730D02*
X1905851Y1458168D01*
X1957434Y1466751D02*
X1945872Y1455190D01*
X2002684Y1465601D02*
X1991122Y1454039D01*
X2049085Y1465025D02*
X2037523Y1453464D01*
G54D40*
X2129442Y1720035D02*
X2115535D01*
X2151663Y1719924D02*
X2137756D01*
X2166445Y1703475D02*
Y1689568D01*
Y1679922D02*
Y1666015D01*
X2166171Y1657876D02*
Y1643969D01*
X2156997Y1715503D02*
X2162529Y1709971D01*
X2167127Y1636368D02*
X2172659Y1630836D01*
X2175849Y1628082D02*
X2181381Y1622551D01*
X2199252Y1617594D02*
X2204784Y1612063D01*
X2185987Y1621675D02*
X2192416D01*
G54D46*
G54D113*
X2064612Y1530496D03*
X2111856D03*
X2064612Y1482465D03*
X2088234Y1538370D03*
G54D118*
X1896333Y1533723D03*
X1926333D03*
X1896333Y1484723D03*
X1926333Y1474723D03*
X1855184Y1533723D03*
X1885184D03*
X1855184Y1484723D03*
X1885184Y1474723D03*
X1813884Y1533723D03*
X1843884D03*
X1813884Y1484723D03*
X1843884Y1474723D03*
X1937482Y1533723D03*
X1967482D03*
X1937482Y1484723D03*
X1967482Y1474723D03*
X1978741Y1533723D03*
X2008741D03*
X1978741Y1484723D03*
X2008741Y1474723D03*
X2019781Y1533723D03*
X2049781D03*
X2019781Y1484723D03*
X2049781Y1474723D03*
X1864429Y1703849D03*
Y1688888D03*
Y1668888D03*
Y1638967D03*
X1944350Y1649912D03*
Y1669597D03*
Y1689282D03*
Y1708967D03*
X1757290Y1714981D03*
X1757242Y1705599D03*
G54D132*
X2019728Y1642160D03*
X2036698Y1659130D03*
X2011346Y1696595D03*
X2028316Y1679624D03*
X2091200Y1742858D03*
X2115200D03*
X2080031Y1780927D03*
X2104031D03*
G54D252*
X2322244Y1616991D03*
X2322134Y1585550D03*
X2160056Y1761830D03*
X2153180Y1659440D03*
X2321446Y1470566D03*
Y1480408D03*
Y1490251D03*
Y1500093D03*
X2144138Y1620864D03*
G54D422*
X2219668Y1414007D03*
X2252127D03*
X2156517Y1445799D03*
X2186884Y1414007D03*
X2278687Y1601117D03*
X2134118Y1593631D03*
X2124276D03*
X2117109Y1707707D03*
X2191733Y1593715D03*
X2059495Y1600648D03*
X2069337D03*
G54D426*
X1696062Y1748661D03*
X1725292Y1761189D03*
G54D428*
X1958472Y1595804D03*
Y1611404D03*
G54D445*
X2275481Y1607238D03*
X2291081D03*
X2188800Y1600852D03*
X2204400D03*
X2311307Y1410675D03*
X2295707D03*
X2280107D03*
G54D498*
X1877550Y1558106D03*
X1926763D03*
G54D499*
X1746259Y1560206D03*
X1687204D03*
X1728265Y1654815D03*
X1669210D03*
G54D500*
X1870442Y1736125D03*
X1900042D03*
X1917042Y1736438D03*
X1946642D03*
X1815039Y1596000D03*
X1794109Y1616930D03*
X1773028Y1607766D03*
X1793959Y1586836D03*
X1996321Y1639133D03*
X1976635D03*
X1981761Y1721630D03*
Y1741316D03*
X2022822Y1717007D03*
Y1736693D03*
X2078014Y1631329D03*
X2058328D03*
X2230166Y1607240D03*
X2249852D03*
G54D502*
X2043463Y1438976D03*
Y1409449D03*
X1996135Y1438976D03*
Y1409449D03*
X1949986Y1438976D03*
Y1409449D03*
X2091407Y1438976D03*
Y1409449D03*
G54D503*
X2326932Y1557813D03*
Y1547813D03*
Y1537813D03*
Y1527813D03*
Y1517813D03*
G54D504*
X2117009Y1570348D03*
X2127009D03*
G54D505*
X1901106Y1438587D03*
X1881421D03*
X1861736D03*
X1832209D03*
X1730260Y1469770D03*
X1700732D03*
G54D509*
X1757290Y1685453D03*
X1757242Y1685599D03*
G54D511*
X1782869Y1461470D03*
Y1548084D03*
G54D513*
X1810313Y1578814D03*
G54D514*
X1753277Y1588230D03*
G54D515*
Y1627600D03*
X1702096D03*
Y1588230D03*
G54D519*
X1715697Y1528083D03*
X1686880Y1537485D03*
G54D525*
X2169599Y1492895D03*
X2161725D03*
G54D532*
X1809349Y1784309D03*
X2212483Y1556188D03*
X2178476Y1447628D03*
X2055167Y1743777D03*
G54D533*
X1809349Y1794152D03*
X2212483Y1566031D03*
X2178476Y1457470D03*
X2055167Y1753620D03*
G54D534*
X2017432Y1604436D03*
X1899698Y1586275D03*
G54D535*
X2007590Y1604436D03*
X1909541Y1586275D03*
G54D536*
X1782869Y1485092D03*
Y1524462D03*
G54D548*
X1832216Y1448622D03*
Y1428622D03*
X1901082Y1448590D03*
Y1428590D03*
X1881398Y1448549D03*
Y1428549D03*
X1861721Y1448661D03*
Y1428661D03*
X1730244Y1459838D03*
Y1479838D03*
X1700730Y1459721D03*
Y1479721D03*
X2294306Y1617440D03*
Y1597440D03*
X2272675Y1598042D03*
Y1618042D03*
G54D549*
X1939863Y1440823D03*
X1959863D03*
X1986057Y1411319D03*
X2006057D03*
X1986103Y1440904D03*
X2006103D03*
X1940007Y1411324D03*
X1960007D03*
X2033435Y1441324D03*
X2053435D03*
X2033488Y1411795D03*
X2053488D03*
X2081600Y1441375D03*
X2101600D03*
X2081306Y1411766D03*
X2101306D03*
X2133951Y1637967D03*
X2153951D03*
X2134094Y1615216D03*
X2154094D03*
G54D550*
X2209825Y1414007D03*
X2242284D03*
X2146675Y1445799D03*
X2177041Y1414007D03*
X2288530Y1601117D03*
X2143961Y1593631D03*
X2107267Y1707707D03*
X2201575Y1593715D03*
X2049652Y1600648D03*
G54D551*
X2322244Y1607148D03*
X2322134Y1575707D03*
X2160056Y1771672D03*
X2153180Y1669282D03*
X2321446Y1460723D03*
X2144138Y1630707D03*
G54D553*
X1795127Y1670811D03*
X1781208Y1656892D03*
G54D554*
X2133213Y1736434D03*
X2150930D03*
X2131137Y1792881D03*
X2148853D03*
G74*
X0Y0D02*
M02*
