*
*
G04 PADS 9.5 Build Number: 522968 generated Gerber (RS-274-X) file*
G04 PC Version=2.1*
*
%IN "FLT_V10_20190423_longA."*%
*
%MOIN*%
*
%FSLAX35Y35*%
*
*
*
*
G04 PC Standard Apertures*
*
*
G04 Thermal Relief Aperture macro.*
%AMTER*
1,1,$1,0,0*
1,0,$1-$2,0,0*
21,0,$3,$4,0,0,45*
21,0,$3,$4,0,0,135*
%
*
*
G04 Annular Aperture macro.*
%AMANN*
1,1,$1,0,0*
1,0,$2,0,0*
%
*
*
G04 Odd Aperture macro.*
%AMODD*
1,1,$1,0,0*
1,0,$1-0.005,0,0*
%
*
*
G04 PC Custom Aperture Macros*
*
*
*
*
*
*
G04 PC Aperture Table*
*
%ADD010C,0.00394*%
%ADD046C,0.001*%
%ADD142C,0.01*%
%ADD163R,0.0315X0.03543*%
%ADD167R,0.03543X0.0315*%
%ADD214R,0.04134X0.03346*%
%ADD215R,0.03346X0.04134*%
%ADD239R,0.04134X0.0374*%
%ADD253C,0.04134*%
%ADD382O,0.06102X0.01772*%
%ADD432R,0.23819X0.23819*%
%ADD434R,0.12008X0.04921*%
%ADD435R,0.13976X0.19882*%
%ADD438R,0.04134X0.15157*%
%ADD439R,0.37598X0.4252*%
%ADD444R,0.06197X0.10197*%
%ADD452R,0.06496X0.13583*%
%ADD501R,0.05709X0.04134*%
%ADD506R,0.08858X0.08071*%
%ADD507R,0.08071X0.08858*%
%ADD508R,0.05715X0.05715*%
%ADD516R,0.0374X0.04134*%
%ADD517R,0.04134X0.06693*%
%ADD518R,0.06693X0.04134*%
%ADD520R,0.08071X0.05709*%
%ADD521O,0.08071X0.05709*%
%ADD522O,0.08071X0.05709*%
%ADD523R,0.08071X0.02559*%
%ADD524O,0.08071X0.02559*%
%ADD526R,0.09646X0.08858*%
%ADD527R,0.04134X0.05315*%
%ADD528R,0.05315X0.04134*%
%ADD529R,0.0122X0.06102*%
%ADD530R,0.06102X0.0122*%
%ADD547R,0.04134X0.05709*%
%ADD552R,0.12795X0.1122*%
*
*
*
*
G04 PC Circuitry*
G04 Layer Name FLT_V10_20190423_longA. - circuitry*
%LPD*%
*
*
G04 PC Custom Flashes*
G04 Layer Name FLT_V10_20190423_longA. - flashes*
%LPD*%
*
*
G04 PC Circuitry*
G04 Layer Name FLT_V10_20190423_longA. - circuitry*
%LPD*%
*
G54D10*
G01X1660433Y1396260D02*
Y1803740D01*
X1663386Y1806693D02*
G75*
G03X1660433Y1803740I-0J-2953D01*
G01X1663386Y1806693D02*
X2169291D01*
X2172244Y1803740D02*
G03X2169291Y1806693I-2953J0D01*
G01X2172244Y1803740D02*
Y1643307D01*
G03X2186024Y1629528I13780J0*
G01X2336614*
X2339567Y1626575D02*
G03X2336614Y1629528I-2953J-0D01*
G01X2339567Y1626575D02*
Y1396260D01*
X2336614Y1393307D02*
G03X2339567Y1396260I0J2953D01*
G01X2336614Y1393307D02*
X1663386D01*
X1660433Y1396260D02*
G03X1663386Y1393307I2953J-0D01*
G01X1682087Y1416929D02*
G03X1682087I-7874J0D01*
G01X1717520D02*
G03X1717520I-7874J0D01*
G01X2154528D02*
G03X2154528I-7874J0D01*
G01X1878937Y1787008D02*
G03X1878937I-7874J0D01*
G01X1922244Y1790945D02*
G03X1922244I-7874J0D01*
G01X2063976Y1787008D02*
G03X2063976I-7874J0D01*
G01X1682087Y1595669D02*
G03X1682087I-7874J0D01*
G01Y1783071D02*
G03X1682087I-7874J0D01*
G01X2154528Y1698425D02*
G03X2154528I-7874J0D01*
G01X1842689Y1456836D02*
X1850629D01*
Y1415164*
X1842689*
Y1456836*
X1806606Y1545692D02*
Y1524888D01*
X1817754Y1513741*
X1812099Y1508086*
X1799533Y1520652*
Y1545736*
X1806606Y1545692*
X1737866Y1602677D02*
X1766130D01*
Y1597638*
X1737866*
Y1602677*
X1736625Y1619830D02*
X1780368D01*
X1792510Y1607689*
X1788090Y1603268*
X1776901Y1614457*
X1736625*
Y1619830*
X1768160Y1657751D02*
X1793242Y1632669D01*
X1825305*
Y1625970*
X1790975*
X1763482Y1653462*
X1768160Y1657751*
X1707670Y1704287D02*
X1733524Y1678433D01*
X1727170Y1672079*
X1701097Y1698152*
X1707670Y1704287*
X1679400Y1697063D02*
X1685973D01*
Y1669895*
X1679400*
Y1697063*
X2071700Y1521370D02*
Y1548895D01*
X2077533Y1554728*
X2098817*
X2105117Y1548427*
Y1521459*
X2097419*
Y1543236*
X2093864Y1546792*
X2081686*
X2078664Y1543770*
Y1521370*
X2071700*
X1776139Y1584109D02*
X1800897Y1559350D01*
X1795429Y1553545*
X1770452Y1578523*
X1776139Y1584109*
X1854726Y1680894D02*
X1878677D01*
Y1676995*
X1854726*
Y1680894*
X1882808Y1770835D02*
X1890971D01*
Y1718809*
X1882808*
Y1770835*
X1919238Y1709559D02*
G03X1919238I-11811J0D01*
G01X1917303Y1680751D02*
G03X1917303I-11811J0D01*
G01X1920313Y1651082D02*
G03X1920313I-11811J0D01*
G01X1711545Y1492902D02*
Y1451810D01*
X1730160Y1433196*
X1735533Y1438569*
X1719606Y1454497*
Y1492902*
X1711545*
G54D46*
G54D142*
X2038731Y1710287D02*
X2040529Y1708489D01*
X2042049Y1710009*
X2040251Y1711807*
X2038731Y1710287*
X2039711Y1709307D02*
X2041348D01*
X2038751Y1710307D02*
X2041751D01*
X2039751Y1711307D02*
X2040751D01*
X2039433Y1709585D02*
Y1710989D01*
X2040433Y1708585D02*
Y1711625D01*
X2041433Y1709392D02*
Y1710625D01*
X2043046Y1714602D02*
X2044844Y1712804D01*
X2046364Y1714324*
X2044566Y1716122*
X2043046Y1714602*
X2044341Y1713307D02*
X2045348D01*
X2043341Y1714307D02*
X2046348D01*
X2043751Y1715307D02*
X2045381D01*
X2043433Y1714215D02*
Y1714989D01*
X2044433Y1713215D02*
Y1715989D01*
X2045433Y1713392D02*
Y1715255D01*
X1990327Y1787378D02*
X2015524D01*
Y1790574*
X1990327*
Y1787378*
X1990426D02*
Y1790574D01*
X1990926Y1787378D02*
Y1790574D01*
X1991426Y1787378D02*
Y1790574D01*
X1991926Y1787378D02*
Y1790574D01*
X1992426Y1787378D02*
Y1790574D01*
X1992926Y1787378D02*
Y1790574D01*
X1993426Y1787378D02*
Y1790574D01*
X1993926Y1787378D02*
Y1790574D01*
X1994426Y1787378D02*
Y1790574D01*
X1994926Y1787378D02*
Y1790574D01*
X1995426Y1787378D02*
Y1790574D01*
X1995926Y1787378D02*
Y1790574D01*
X1996426Y1787378D02*
Y1790574D01*
X1996926Y1787378D02*
Y1790574D01*
X1997426Y1787378D02*
Y1790574D01*
X1997926Y1787378D02*
Y1790574D01*
X1998426Y1787378D02*
Y1790574D01*
X1998926Y1787378D02*
Y1790574D01*
X1999426Y1787378D02*
Y1790574D01*
X1999926Y1787378D02*
Y1790574D01*
X2000426Y1787378D02*
Y1790574D01*
X2000926Y1787378D02*
Y1790574D01*
X2001426Y1787378D02*
Y1790574D01*
X2001926Y1787378D02*
Y1790574D01*
X2002426Y1787378D02*
Y1790574D01*
X2002926Y1787378D02*
Y1790574D01*
X2003426Y1787378D02*
Y1790574D01*
X2003926Y1787378D02*
Y1790574D01*
X2004426Y1787378D02*
Y1790574D01*
X2004926Y1787378D02*
Y1790574D01*
X2005426Y1787378D02*
Y1790574D01*
X2005926Y1787378D02*
Y1790574D01*
X2006426Y1787378D02*
Y1790574D01*
X2006926Y1787378D02*
Y1790574D01*
X2007426Y1787378D02*
Y1790574D01*
X2007926Y1787378D02*
Y1790574D01*
X2008426Y1787378D02*
Y1790574D01*
X2008926Y1787378D02*
Y1790574D01*
X2009426Y1787378D02*
Y1790574D01*
X2009926Y1787378D02*
Y1790574D01*
X2010426Y1787378D02*
Y1790574D01*
X2010926Y1787378D02*
Y1790574D01*
X2011426Y1787378D02*
Y1790574D01*
X2011926Y1787378D02*
Y1790574D01*
X2012426Y1787378D02*
Y1790574D01*
X2012926Y1787378D02*
Y1790574D01*
X2013426Y1787378D02*
Y1790574D01*
X2013926Y1787378D02*
Y1790574D01*
X2014426Y1787378D02*
Y1790574D01*
X2014926Y1787378D02*
Y1790574D01*
X2015426Y1787378D02*
Y1790574D01*
X2084981Y1655064D02*
Y1681328D01*
X2081355*
Y1655064*
X2084981*
X2081634D02*
Y1681328D01*
X2082134Y1655064D02*
Y1681328D01*
X2082634Y1655064D02*
Y1681328D01*
X2083134Y1655064D02*
Y1681328D01*
X2083634Y1655064D02*
Y1681328D01*
X2084134Y1655064D02*
Y1681328D01*
X2084634Y1655064D02*
Y1681328D01*
G54D163*
X2270418Y1455791D03*
X2276520D03*
X2276293Y1467569D03*
X2270190D03*
X2237188Y1513360D03*
X2243290D03*
X2196312Y1571889D03*
X2190210D03*
X2108447Y1673107D03*
X2114550D03*
X2241329Y1542095D03*
X2247431D03*
X2247483Y1533901D03*
X2241381D03*
X2112704Y1612400D03*
X2118806D03*
X2168993Y1500200D03*
X2162891D03*
X1884365Y1579242D03*
X1878262D03*
X1887051Y1590851D03*
X1880948D03*
X1919713Y1600495D03*
X1925815D03*
X2059424Y1584226D03*
X2065526D03*
X1801193Y1764759D03*
X1795091D03*
X1931819Y1757895D03*
X1925717D03*
X1931819Y1770037D03*
X1925717D03*
X1959349Y1770316D03*
X1965452D03*
X1953450Y1757895D03*
X1947348D03*
X1967405D03*
X1961303D03*
X2169664Y1583437D03*
X2175766D03*
X1987771Y1597352D03*
X1993873D03*
X2124884Y1561123D03*
X2130986D03*
X1768723Y1765386D03*
X1774826D03*
X1955486Y1567975D03*
X1961589D03*
X2109264Y1642539D03*
X2115366D03*
X2249543Y1521168D03*
X2255646D03*
X2125078Y1522639D03*
X2131180D03*
G54D167*
X2290141Y1484943D03*
Y1478840D03*
X2267717Y1478618D03*
Y1484720D03*
X2299992Y1497434D03*
Y1503536D03*
X2308047Y1497445D03*
Y1503547D03*
X2276997Y1494310D03*
Y1500412D03*
X2269376Y1494064D03*
Y1500167D03*
X2233461Y1548831D03*
Y1542728D03*
X2224485Y1548643D03*
Y1542541D03*
X2202481Y1526571D03*
Y1532674D03*
X2101092Y1679061D03*
Y1672959D03*
X2190461Y1438417D03*
Y1432315D03*
X2197708D03*
Y1438417D03*
X2205264D03*
Y1432315D03*
X2212642D03*
Y1438417D03*
X2309506Y1546254D03*
Y1552356D03*
X2104691Y1618925D03*
Y1612822D03*
X1961595Y1554393D03*
Y1560495D03*
X1910991Y1600598D03*
Y1606700D03*
X2085304Y1607745D03*
Y1601642D03*
X2161285Y1598858D03*
Y1592755D03*
X1987603Y1611174D03*
Y1605072D03*
X2141512Y1473029D03*
Y1466927D03*
X2148643Y1466777D03*
Y1472879D03*
X2175062Y1438673D03*
Y1432570D03*
X2183066Y1432581D03*
Y1438683D03*
X2224060Y1525304D03*
Y1531407D03*
X2139602Y1561017D03*
Y1567119D03*
X2306439Y1455081D03*
Y1461184D03*
X2284285Y1455935D03*
Y1462037D03*
X1922839Y1586282D03*
Y1580180D03*
X1937447Y1579929D03*
Y1586031D03*
X1930017Y1580133D03*
Y1586235D03*
X2100401Y1648701D03*
Y1642599D03*
X2216513Y1531518D03*
Y1525415D03*
X2209594Y1532844D03*
Y1526741D03*
X2315943Y1519945D03*
Y1526047D03*
X2255700Y1513552D03*
Y1507450D03*
G54D214*
X2037959Y1670857D03*
X2045045D03*
X1948518Y1770486D03*
X1941431D03*
X2141217Y1509605D03*
X2148304D03*
X2179051Y1510647D03*
X2171964D03*
X2299463Y1472547D03*
X2306549D03*
X2252307Y1478614D03*
X2259394D03*
X2299443Y1484101D03*
X2306529D03*
X2264536Y1553189D03*
X2257449D03*
X2188672Y1509494D03*
X2195758D03*
X2180508Y1497218D03*
X2187594D03*
X2148304Y1501395D03*
X2141217D03*
X2031301Y1612837D03*
X2024214D03*
X2140032Y1552858D03*
X2132945D03*
X1971146Y1583197D03*
X1978232D03*
G54D215*
X1995865Y1604782D03*
Y1611869D03*
X2082606Y1752876D03*
Y1759963D03*
X1811577Y1765000D03*
Y1772087D03*
X1779229Y1774106D03*
Y1781193D03*
X1982637Y1795994D03*
Y1788908D03*
X2197106Y1560297D03*
Y1553211D03*
X2261954Y1460035D03*
Y1467121D03*
X2287525Y1565323D03*
Y1572410D03*
X2194731Y1528235D03*
Y1521149D03*
X2220238Y1439072D03*
Y1431986D03*
X2233644Y1528305D03*
Y1535392D03*
X2154698Y1480039D03*
Y1487126D03*
X2175942Y1480039D03*
Y1487126D03*
X2140571Y1520668D03*
Y1527755D03*
X2085219Y1586186D03*
Y1593273D03*
X2117865Y1772022D03*
Y1779108D03*
X2254765Y1540339D03*
Y1533253D03*
G54D239*
X2284302Y1495701D03*
Y1503575D03*
X2292963Y1499638D03*
X2252000Y1485944D03*
Y1493818D03*
X2260662Y1489881D03*
X1901355Y1607895D03*
Y1600021D03*
X1892693Y1603958D03*
X1954412Y1561597D03*
Y1553723D03*
X1945751Y1557660D03*
X1943835Y1791418D03*
Y1783544D03*
X1952497Y1787481D03*
X1953358Y1574229D03*
Y1582103D03*
X1962019Y1578166D03*
X2167914Y1591243D03*
Y1599117D03*
X2176576Y1595180D03*
G54D253*
X1691828Y1421901D03*
X1707714Y1782369D03*
X2321358Y1439952D03*
G54D382*
X1789973Y1778006D03*
Y1774069D03*
Y1770132D03*
X1801194D03*
Y1774069D03*
Y1778006D03*
G54D432*
X1822230Y1711386D03*
X1985886Y1694745D03*
G54D434*
X1995926Y1779976D03*
Y1798086D03*
G54D435*
X2021926Y1788976D03*
G54D438*
X2056248Y1662536D03*
X2062941D03*
X2069634D03*
X2076327D03*
G54D439*
X2069634Y1701906D03*
G54D444*
X1673158Y1722864D03*
X1693158D03*
Y1683364D03*
X1673158D03*
G54D452*
X1832230Y1737328D03*
X1812230D03*
X1975886Y1668802D03*
X1995886D03*
G54D501*
X1964841Y1675066D03*
Y1687665D03*
G54D506*
X1835909Y1679467D03*
X1818193D03*
X1935272Y1626296D03*
X1952989D03*
X2013266Y1767750D03*
X1995549D03*
X2141011Y1760384D03*
X2123295D03*
X2037363Y1623159D03*
X2019646D03*
G54D507*
X1845520Y1752582D03*
Y1770298D03*
X2199561Y1460130D03*
Y1477847D03*
X2131896Y1655503D03*
Y1673220D03*
G54D508*
X1822755Y1764556D03*
Y1777942D03*
G54D516*
X2291219Y1461577D03*
X2299093D03*
X2295156Y1452916D03*
X2283014Y1478719D03*
X2275140D03*
X2279077Y1487380D03*
X2217629Y1514215D03*
X2225503D03*
X2221566Y1505553D03*
X2203814Y1514494D03*
X2211688D03*
X2207751Y1505832D03*
X2119525Y1679803D03*
X2111651D03*
X2115588Y1688465D03*
X2118920Y1619905D03*
X2111046D03*
X2114983Y1628566D03*
X2115316Y1649526D03*
X2107442D03*
X2111379Y1658187D03*
X2035174Y1595848D03*
X2027300D03*
X2031237Y1604510D03*
G54D517*
X2275981Y1582200D03*
X2288580D03*
X1766080Y1785880D03*
X1753482D03*
X1934270Y1612966D03*
X1921672D03*
X1680902Y1512331D03*
X1668303D03*
X1701593D03*
X1688995D03*
X1722127Y1512218D03*
X1709529D03*
X1668381Y1496306D03*
X1680979D03*
X1786419Y1742549D03*
X1799017D03*
X1786486Y1724227D03*
X1799084D03*
X1786208Y1751676D03*
X1798807D03*
X1786451Y1733530D03*
X1799049D03*
G54D518*
X1744618Y1785370D03*
Y1772772D03*
X1804760Y1655432D03*
Y1642834D03*
X1823244Y1655432D03*
Y1642834D03*
X1813892Y1655432D03*
Y1642834D03*
X1856758Y1752539D03*
Y1739941D03*
X1958588Y1653767D03*
Y1641169D03*
X1964841Y1708548D03*
Y1695950D03*
G54D520*
X2301422Y1535329D03*
X1910023Y1753898D03*
X2301818Y1513605D03*
G54D521*
X2301422Y1545329D03*
X1910023Y1763898D03*
X2301818Y1523605D03*
G54D522*
X2263627Y1545329D03*
Y1535329D03*
X1872228Y1763898D03*
Y1753898D03*
X2264023Y1523605D03*
Y1513605D03*
G54D523*
X2011153Y1548157D03*
X2252527Y1574931D03*
G54D524*
X2011153Y1553157D03*
Y1558157D03*
Y1563157D03*
Y1568157D03*
Y1573157D03*
Y1578157D03*
Y1583157D03*
X1987531D03*
Y1578157D03*
Y1573157D03*
Y1568157D03*
Y1563157D03*
Y1558157D03*
Y1553157D03*
Y1548157D03*
X2252527Y1569931D03*
Y1564931D03*
Y1559931D03*
X2276149D03*
Y1564931D03*
Y1569931D03*
Y1574931D03*
G54D526*
X1836227Y1639991D03*
Y1658495D03*
G54D527*
X1823891Y1755140D03*
X1832159D03*
G54D528*
X1832160Y1772851D03*
Y1764583D03*
G54D529*
X2156022Y1520321D03*
X2157990D03*
X2159959D03*
X2161927D03*
X2163896D03*
X2165864D03*
X2167833D03*
X2169801D03*
X2171770D03*
X2173738D03*
X2175707D03*
X2177675D03*
Y1557329D03*
X2175707D03*
X2173738D03*
X2171770D03*
X2169801D03*
X2167833D03*
X2165864D03*
X2163896D03*
X2161927D03*
X2159959D03*
X2157990D03*
X2156022D03*
G54D530*
X2185156Y1527802D03*
Y1529770D03*
Y1531739D03*
Y1533707D03*
Y1535676D03*
Y1537644D03*
Y1539613D03*
Y1541581D03*
Y1543550D03*
Y1545518D03*
Y1547487D03*
Y1549455D03*
X2148542Y1549849D03*
Y1547880D03*
Y1545912D03*
Y1543943D03*
Y1541975D03*
Y1540006D03*
Y1538038D03*
Y1536069D03*
Y1534101D03*
Y1532132D03*
Y1530164D03*
Y1528195D03*
G54D547*
X1923225Y1627109D03*
X1910627D03*
G54D552*
X2236501Y1559450D03*
Y1579135D03*
X2231804Y1488130D03*
Y1468445D03*
X2214851Y1488130D03*
Y1468445D03*
G74*
X0Y0D02*
M02*
