*
*
G04 PADS 9.5 Build Number: 522968 generated Gerber (RS-274-X) file*
G04 PC Version=2.1*
*
%IN "FLT_V10_20190423_longA."*%
*
%MOIN*%
*
%FSLAX35Y35*%
*
*
*
*
G04 PC Standard Apertures*
*
*
G04 Thermal Relief Aperture macro.*
%AMTER*
1,1,$1,0,0*
1,0,$1-$2,0,0*
21,0,$3,$4,0,0,45*
21,0,$3,$4,0,0,135*
%
*
*
G04 Annular Aperture macro.*
%AMANN*
1,1,$1,0,0*
1,0,$2,0,0*
%
*
*
G04 Odd Aperture macro.*
%AMODD*
1,1,$1,0,0*
1,0,$1-0.005,0,0*
%
*
*
G04 PC Custom Aperture Macros*
*
*
*
*
*
*
G04 PC Aperture Table*
*
%ADD010C,0.00394*%
%ADD014C,0.07874*%
%ADD032C,0.03937*%
%ADD040C,0.01969*%
%ADD046C,0.001*%
%ADD142C,0.01*%
*
*
*
*
G04 PC Circuitry*
G04 Layer Name FLT_V10_20190423_longA. - circuitry*
%LPD*%
*
G54D46*
G01X1909600Y1570429D02*
X1908494Y1572364D01*
X1908493Y1572366*
X1907087Y1575179*
X1907084Y1575185*
X1906803Y1576029*
X1906802Y1576032*
X1906662Y1576593*
X1906542Y1576953*
X1905524Y1576317*
X1905901Y1575939*
X1905906Y1575934*
X1906328Y1575372*
X1906333Y1575364*
X1906754Y1574520*
X1906756Y1574518*
X1907178Y1573533*
X1907154Y1573469*
X1906669Y1573226*
X1907019Y1572993*
X1907041Y1572951*
Y1566483*
X1907040Y1566475*
X1906900Y1565636*
Y1564551*
X1907644Y1564303*
Y1572670*
X1907736Y1572698*
X1908577Y1571435*
X1909524Y1570353*
X1909600Y1570429*
X1902983Y1566202D02*
X1902902Y1566283D01*
X1901954Y1565877*
X1901409Y1565468*
X1901276Y1565069*
Y1564536*
X1901507Y1564304*
X1901747Y1564544*
X1902166Y1565381*
X1902175Y1565394*
X1902983Y1566202*
X1905104Y1565787D02*
X1904978Y1566039D01*
X1904974Y1566049*
X1904833Y1566612*
X1904832Y1566624*
Y1572529*
Y1572536*
X1904972Y1573657*
Y1574979*
X1904201Y1574594*
X1904169Y1574590*
X1902763Y1574871*
X1902758Y1574872*
X1901352Y1575294*
X1901346Y1575296*
X1900081Y1575858*
X1900076Y1575861*
X1899128Y1576403*
X1898371Y1575519*
X1899265Y1575391*
X1899267*
X1899970Y1575250*
X1899974Y1575249*
X1900959Y1574968*
X1900995Y1574920*
Y1571264*
X1900945Y1571214*
X1898836*
X1898800Y1571229*
X1898133Y1571896*
X1897269Y1571033*
X1900804*
X1900854Y1570983*
Y1570976*
X1900573Y1569007*
X1900568Y1568992*
X1899865Y1567586*
X1899858Y1567575*
X1898873Y1566450*
X1898868Y1566445*
X1898024Y1565742*
X1897944Y1565767*
X1897397Y1567817*
X1897202Y1567720*
X1897339Y1566630*
Y1566624*
Y1565780*
Y1565773*
X1897198Y1564792*
Y1564686*
X1897430Y1564571*
X1898248Y1564980*
X1899503Y1565817*
X1900479Y1567211*
X1901177Y1568887*
X1901458Y1570989*
X1901507Y1571033*
X1904179*
X1904229Y1570983*
Y1566343*
X1904156Y1566298*
X1901698Y1567527*
Y1567493*
X1902661Y1566805*
X1902664Y1566803*
X1903508Y1566100*
X1903511Y1566097*
X1904074Y1565534*
X1904078Y1565529*
X1904462Y1565017*
X1905104Y1565787*
X1904229Y1574357D02*
Y1571264D01*
X1904179Y1571214*
X1901648*
X1901598Y1571264*
Y1571266*
X1901739Y1574781*
X1901796Y1574829*
X1902780Y1574688*
X1902783*
X1904189Y1574406*
X1904229Y1574357*
X1893653Y1565590D02*
X1888853D01*
X1888803Y1565640*
Y1570702*
X1888853Y1570752*
X1890259*
X1890264Y1570751*
X1891642Y1570613*
X1891987Y1571073*
X1888853*
X1888803Y1571123*
Y1573514*
Y1573518*
X1888935Y1574971*
X1887810Y1574346*
X1888185Y1573971*
X1888200Y1573936*
X1888200D02*
Y1571123D01*
X1888150Y1571073*
X1885759*
X1885724Y1571088*
X1885056Y1571756*
X1884052Y1570752*
X1888150*
X1888200Y1570702*
Y1565640*
X1888150Y1565590*
X1884634*
X1884602Y1565601*
X1883796Y1566273*
X1882917Y1565268*
X1891946*
X1891951*
X1893193Y1565130*
X1893653Y1565590*
X1895536Y1564519D02*
X1894718Y1565610D01*
X1894712Y1565621*
X1894149Y1567027*
X1894147Y1567034*
X1893725Y1568721*
X1893724Y1568730*
X1893583Y1570839*
Y1570842*
Y1576362*
X1892961Y1575865*
X1892930Y1575854*
X1885197*
X1885161Y1575869*
X1884355Y1576675*
X1883340Y1575532*
X1892930*
X1892980Y1575482*
Y1568882*
X1893539Y1567205*
X1894237Y1565669*
X1895461Y1564445*
X1895536Y1564519*
X1887090Y1569558D02*
X1886889Y1569659D01*
X1885792Y1568836*
X1885094Y1568138*
X1884688Y1567596*
X1884821Y1566930*
X1885077Y1566674*
X1885176*
X1885296Y1566794*
X1885433Y1567068*
X1885435Y1567071*
X1885997Y1568055*
X1886000Y1568059*
X1887090Y1569558*
X1846409Y1614743D02*
X1845782Y1614367D01*
X1845756Y1614360*
X1837038*
X1837003Y1614374*
X1836479Y1614898*
X1835847Y1614139*
X1836222Y1613889*
X1836245Y1613847*
Y1609633*
X1836382Y1608668*
X1836642Y1608409*
X1837152Y1608281*
X1837275Y1608527*
X1837284Y1608540*
X1837706Y1608961*
X1837729Y1608975*
X1838288Y1609114*
X1838957Y1609382*
Y1609573*
X1837891Y1609439*
X1837332Y1609299*
X1837297Y1609303*
X1837016Y1609444*
X1836988Y1609489*
Y1614129*
X1837038Y1614179*
X1845756*
X1845806Y1614129*
Y1608814*
X1846409Y1608452*
Y1614743*
X1843878Y1613356D02*
X1843100Y1613097D01*
X1843084Y1613094*
X1839991*
X1839961Y1613104*
X1839433Y1613500*
X1838804Y1612871*
X1839175Y1612624*
X1839197Y1612582*
Y1610225*
X1839800Y1609984*
Y1610613*
X1839850Y1610663*
X1843084*
X1843134Y1610613*
Y1610087*
X1843878Y1609839*
Y1613356*
X1843134Y1612723D02*
Y1610895D01*
X1843084Y1610845*
X1839850*
X1839800Y1610895*
Y1612723*
X1839850Y1612773*
X1843084*
X1843134Y1612723*
X1844581Y1618266D02*
X1843810Y1617880D01*
X1843787Y1617875*
X1839147*
X1839112Y1617890*
X1838726Y1618276*
X1838101Y1617652*
X1838472Y1617404*
X1838494Y1617363*
Y1617356*
X1838354Y1616235*
Y1615430*
X1839097Y1615182*
Y1615675*
X1839147Y1615725*
X1843928*
X1843978Y1615675*
Y1615287*
X1844581Y1615046*
Y1618266*
X1843978Y1617503D02*
Y1615956D01*
X1843928Y1615906*
X1839147*
X1839097Y1615956*
Y1617503*
X1839147Y1617553*
X1843928*
X1843978Y1617503*
X1847323Y1619140D02*
X1836616D01*
X1836581Y1619155*
X1835913Y1619823*
X1835050Y1618959*
X1845615*
X1845620*
X1847003Y1618821*
X1847323Y1619140*
X1842613Y1621090D02*
X1841841Y1620832D01*
X1841429Y1620558*
X1841157Y1620286*
X1841031Y1620034*
X1841294Y1619509*
X1841521Y1619396*
X1841774Y1619776*
X1842054Y1620475*
X1842065Y1620491*
X1842613Y1621039*
Y1621090*
X1831856Y1609720D02*
X1827055D01*
X1827005Y1609770*
Y1614832*
X1827055Y1614882*
X1828461*
X1828466Y1614881*
X1829844Y1614744*
X1830189Y1615203*
X1827055*
X1827005Y1615253*
Y1617644*
Y1617648*
X1827137Y1619101*
X1826013Y1618476*
X1826387Y1618101*
X1826402Y1618066*
Y1615253*
X1826352Y1615203*
X1823962*
X1823926Y1615218*
X1823259Y1615886*
X1822255Y1614882*
X1826352*
X1826402Y1614832*
Y1609770*
X1826352Y1609720*
X1822837*
X1822805Y1609731*
X1821999Y1610403*
X1821119Y1609398*
X1830149*
X1830154*
X1831396Y1609260*
X1831856Y1609720*
X1833738Y1608650D02*
X1832921Y1609740D01*
X1832914Y1609751*
X1832352Y1611157*
X1832350Y1611164*
X1831928Y1612851*
X1831927Y1612860*
X1831786Y1614969*
Y1614972*
Y1620493*
X1831164Y1619995*
X1831133Y1619984*
X1823399*
X1823364Y1619999*
X1822558Y1620805*
X1821542Y1619662*
X1831133*
X1831183Y1619612*
Y1613012*
X1831742Y1611335*
X1832440Y1609799*
X1833664Y1608575*
X1833738Y1608650*
X1825293Y1613688D02*
X1825092Y1613789D01*
X1823995Y1612966*
X1823297Y1612268*
X1822890Y1611726*
X1823024Y1611060*
X1823279Y1610804*
X1823379*
X1823499Y1610924*
X1823636Y1611198*
X1823637Y1611201*
X1824200Y1612185*
X1824203Y1612190*
X1825293Y1613688*
X1733657Y1579552D02*
X1733197Y1579897D01*
Y1574794*
X1733165Y1574747*
X1731618Y1574185*
X1731614Y1574183*
X1730067Y1573762*
X1730065Y1573761*
X1728800Y1573480*
X1727739Y1573215*
X1728378Y1572064*
X1728894Y1572580*
X1728907Y1572589*
X1729469Y1572870*
X1729473Y1572872*
X1730176Y1573153*
X1733128Y1574418*
X1733197Y1574372*
Y1573247*
X1733188Y1573218*
X1732511Y1572271*
X1733519Y1571389*
Y1578169*
X1733520Y1578174*
X1733657Y1579552*
X1731681Y1575648D02*
X1731570Y1575869D01*
X1731320*
X1731304Y1575872*
X1730887Y1576011*
X1729627Y1576151*
X1729615Y1576153*
X1728098Y1576705*
X1728023Y1576630*
X1728023D02*
X1728816Y1576101D01*
X1728820Y1576099*
X1729519Y1575540*
X1730073Y1575262*
X1730478Y1575127*
X1731021Y1575263*
X1731571Y1575538*
X1731681Y1575648*
X1732093Y1577606D02*
X1731861Y1577838D01*
X1731460*
X1731448Y1577839*
X1730323Y1578120*
X1730320Y1578121*
X1728662Y1578674*
X1728583Y1578595*
X1729801Y1577648*
X1730770Y1577094*
X1731445*
X1731850Y1577364*
X1732093Y1577606*
X1727035Y1579711D02*
X1726961Y1579785D01*
X1725871Y1578696*
X1725869Y1578694*
X1724604Y1577569*
X1724594Y1577562*
X1723048Y1576719*
X1723043Y1576716*
X1723043D02*
X1721414Y1576038D01*
X1722038Y1575163*
X1722279Y1575525*
X1722348Y1575539*
X1723614Y1574695*
X1723622Y1574689*
X1724606Y1573705*
X1724608Y1573702*
X1725592Y1572577*
X1725602Y1572560*
X1726153Y1570907*
X1726224*
X1726493Y1571579*
X1726504Y1571596*
X1726896Y1571988*
X1726079Y1573214*
X1724962Y1574191*
X1723842Y1574892*
X1722578Y1575594*
X1722575Y1575680*
X1724120Y1576663*
X1725379Y1577643*
X1726219Y1578622*
X1727035Y1579711*
X1727049Y1578014D02*
X1726730Y1578441D01*
Y1574372*
X1726711Y1574333*
X1726051Y1573806*
X1726911Y1572946*
Y1576763*
Y1576768*
X1727049Y1578014*
X1734185Y1583027D02*
X1733295Y1582900D01*
X1733288Y1582899*
X1722883*
X1722875Y1582900*
X1722128Y1583025*
X1722506Y1582269*
X1722511Y1582246*
Y1580278*
X1722491Y1580238*
X1721972Y1579848*
X1722731Y1578961*
X1722731D02*
X1722979Y1579457D01*
X1723003Y1579480*
X1726096Y1580886*
X1726148Y1580879*
X1727552Y1579757*
X1728244Y1579341*
X1729069Y1579204*
X1729762Y1579342*
X1730310Y1579479*
X1730854Y1580024*
X1731118Y1580815*
X1730594Y1581077*
X1730575Y1581094*
X1730027Y1581915*
X1729964*
Y1581270*
X1730102Y1580856*
Y1580824*
X1729961Y1580403*
X1729958Y1580396*
X1729818Y1580115*
X1729785Y1580089*
X1729223Y1579948*
X1729202Y1579947*
X1728359Y1580088*
X1728355Y1580089*
X1727230Y1580370*
X1727215Y1580376*
X1726109Y1581068*
X1722896Y1580229*
X1722833Y1580278*
Y1582246*
X1722883Y1582296*
X1733820*
X1734185Y1583027*
X1733660Y1591380D02*
X1733523Y1591928D01*
X1733252Y1592334*
X1732846Y1592605*
X1732298Y1592742*
X1726768*
X1727144Y1592115*
X1727151Y1592089*
Y1588714*
X1727129Y1588673*
X1726746Y1588417*
X1727253Y1587530*
X1727628Y1587906*
X1727664Y1587921*
X1730187*
X1730597Y1588058*
X1730864Y1588191*
X1731136Y1588599*
X1731393Y1589114*
X1731157Y1589232*
X1731144Y1589241*
X1730862Y1589523*
X1730856Y1589530*
X1730575Y1589952*
X1730570Y1589961*
X1730301Y1590633*
X1730254*
X1730385Y1589847*
Y1589839*
Y1589136*
X1730383Y1589120*
X1730242Y1588698*
X1730211Y1588667*
X1729789Y1588526*
X1729773Y1588524*
X1727523*
X1727473Y1588574*
Y1592089*
X1727523Y1592139*
X1732163*
X1732186Y1592134*
X1732748Y1591852*
X1732767Y1591835*
X1733048Y1591414*
X1733057Y1591386*
Y1586886*
X1733048Y1586859*
X1732767Y1586437*
X1732744Y1586418*
X1732041Y1586137*
X1732026Y1586133*
X1732026D02*
X1730245Y1585996D01*
Y1585812*
X1731179*
X1731187Y1585811*
X1732031Y1585670*
X1732035Y1585669*
X1732597Y1585529*
X1732627Y1585508*
X1732874Y1585137*
X1733384Y1585646*
X1733660Y1586752*
Y1591380*
X1734206Y1597568D02*
X1734132Y1597642D01*
X1733042Y1596553*
X1733033Y1596546*
X1731909Y1595843*
X1731898Y1595838*
X1730632Y1595416*
X1730621Y1595414*
X1728933Y1595273*
X1728929*
X1725133*
X1725092Y1595352*
X1725793Y1596333*
X1726317Y1597382*
X1726282*
X1725313Y1596136*
X1725307Y1596129*
X1724041Y1595004*
X1724036Y1595000*
X1722770Y1594156*
X1722765Y1594153*
X1721408Y1593475*
X1722035Y1592472*
X1722276Y1592955*
X1722291Y1592973*
X1722853Y1593394*
X1722933Y1593354*
Y1589839*
X1722913Y1589799*
X1722397Y1589412*
X1723283Y1588526*
X1723398Y1588871*
X1723406Y1588885*
X1723827Y1589447*
X1723832Y1589453*
X1724535Y1590156*
X1724538Y1590159*
X1725382Y1590862*
X1725464Y1590823*
Y1587308*
X1725446Y1587270*
X1724645Y1586602*
X1725645Y1585601*
Y1594620*
X1725695Y1594670*
X1729910*
X1730885Y1594809*
X1732276Y1595365*
X1733251Y1596340*
X1734206Y1597568*
X1725464Y1594620D02*
Y1591105D01*
X1725436Y1591060*
X1724595Y1590639*
X1723190Y1589796*
X1723114Y1589839*
Y1593636*
X1723132Y1593674*
X1724115Y1594516*
X1724957Y1595358*
X1725035Y1595349*
X1725457Y1594646*
X1725464Y1594620*
X1733236Y1609506D02*
X1732776Y1609966D01*
Y1605165*
X1732726Y1605115*
X1727664*
X1727614Y1605165*
Y1606571*
Y1606576*
X1727752Y1607954*
X1727292Y1608299*
Y1605165*
X1727242Y1605115*
X1724852*
X1724847Y1605116*
X1723395Y1605248*
X1724020Y1604123*
X1724394Y1604498*
X1724430Y1604512*
X1727242*
X1727292Y1604462*
Y1602072*
X1727277Y1602037*
X1726610Y1601369*
X1727614Y1600365*
Y1604462*
X1727664Y1604512*
X1732726*
X1732776Y1604462*
Y1600947*
X1732764Y1600915*
X1732092Y1600109*
X1733097Y1599229*
Y1608259*
X1733098Y1608264*
X1733236Y1609506*
X1731691Y1601489D02*
X1731571Y1601609D01*
X1731297Y1601746*
X1731295Y1601747*
X1730311Y1602310*
X1730306Y1602313*
X1728807Y1603403*
X1728707Y1603202*
X1729530Y1602105*
X1730228Y1601407*
X1730769Y1601001*
X1731436Y1601134*
X1731691Y1601390*
Y1601489*
X1733920Y1611774D02*
X1733846Y1611848D01*
X1732756Y1611031*
X1732744Y1611024*
X1731338Y1610462*
X1731332Y1610460*
X1729644Y1610038*
X1729636Y1610037*
X1727527Y1609896*
X1727523*
X1722003*
X1722500Y1609274*
X1722511Y1609243*
Y1601510*
X1722497Y1601474*
X1721691Y1600668*
X1722833Y1599652*
Y1609243*
X1722883Y1609293*
X1729484*
X1731161Y1609852*
X1732697Y1610550*
X1733920Y1611774*
X1734214Y1615262D02*
X1733969Y1615385D01*
X1733956Y1615394*
X1733534Y1615816*
X1733521Y1615839*
X1733381Y1616399*
X1733114Y1617067*
X1732923*
X1733056Y1616001*
X1733196Y1615442*
X1733192Y1615407*
X1733052Y1615126*
X1733007Y1615098*
X1728367*
X1728317Y1615148*
Y1623866*
X1728367Y1623916*
X1733682*
X1734043Y1624519*
X1727752*
X1728128Y1623892*
X1728128D02*
X1728136Y1623866D01*
Y1615148*
X1728121Y1615113*
X1727597Y1614589*
X1728356Y1613957*
X1728606Y1614333*
X1728648Y1614355*
X1732863*
X1733827Y1614493*
X1734087Y1614752*
X1734214Y1615262*
X1732656Y1621988D02*
X1729139D01*
X1729399Y1621210*
X1729401Y1621195*
Y1618101*
X1729391Y1618071*
X1728995Y1617543*
X1728995D02*
X1729625Y1616914D01*
X1729872Y1617285*
X1729914Y1617308*
X1732270*
X1732511Y1617911*
X1731882*
X1731832Y1617961*
Y1621195*
X1731882Y1621245*
X1732408*
X1732656Y1621988*
X1731651Y1621195D02*
Y1617961D01*
X1731601Y1617911*
X1729773*
X1729723Y1617961*
Y1621195*
X1729773Y1621245*
X1731601*
X1731651Y1621195*
X1727449Y1622691D02*
X1724230D01*
X1724615Y1621920*
X1724620Y1621898*
Y1617258*
X1724606Y1617222*
X1724219Y1616836*
X1724844Y1616211*
X1725091Y1616582*
X1725139Y1616604*
X1726261Y1616464*
X1727065*
X1727313Y1617208*
X1726820*
X1726770Y1617258*
Y1622038*
X1726820Y1622088*
X1727208*
X1727449Y1622691*
X1726589Y1622038D02*
Y1617258D01*
X1726539Y1617208*
X1724992*
X1724942Y1617258*
Y1622038*
X1724992Y1622088*
X1726539*
X1726589Y1622038*
X1723675Y1625113D02*
X1723355Y1625433D01*
Y1614727*
X1723340Y1614691*
X1722673Y1614024*
X1723536Y1613160*
Y1623726*
Y1623731*
X1723675Y1625113*
X1723100Y1619631D02*
X1722719Y1619885D01*
X1722021Y1620164*
X1722004Y1620175*
X1721456Y1620723*
X1721406*
X1721663Y1619951*
X1721938Y1619539*
X1722210Y1619267*
X1722461Y1619141*
X1722986Y1619404*
X1723100Y1619631*
X1721500Y1575917D02*
Y1576074D01*
Y1593328D02*
Y1593521D01*
Y1620440D02*
Y1620679D01*
X1721600Y1575777D02*
Y1576115D01*
Y1593168D02*
Y1593571D01*
Y1620140D02*
Y1620579D01*
X1721700Y1575637D02*
Y1576157D01*
Y1593008D02*
Y1593621D01*
Y1600660D02*
Y1600678D01*
Y1619896D02*
Y1620479D01*
X1721800Y1575497D02*
Y1576199D01*
Y1592848D02*
Y1593671D01*
Y1600571D02*
Y1600778D01*
Y1619746D02*
Y1620379D01*
X1721900Y1575357D02*
Y1576240D01*
Y1592688D02*
Y1593721D01*
Y1600482D02*
Y1600878D01*
Y1619596D02*
Y1620279D01*
X1722000Y1575217D02*
Y1576282D01*
Y1579815D02*
Y1579869D01*
Y1592528D02*
Y1593771D01*
Y1600393D02*
Y1600978D01*
Y1619477D02*
Y1620179D01*
X1722100Y1575256D02*
Y1576324D01*
Y1579698D02*
Y1579944D01*
Y1592603D02*
Y1593821D01*
Y1600304D02*
Y1601078D01*
Y1609775D02*
Y1609896D01*
Y1619377D02*
Y1620132D01*
X1722200Y1575406D02*
Y1576365D01*
Y1579582D02*
Y1580019D01*
Y1582881D02*
Y1583013D01*
Y1592803D02*
Y1593871D01*
Y1600215D02*
Y1601178D01*
Y1609650D02*
Y1609896D01*
Y1619277D02*
Y1620092D01*
X1722300Y1575543D02*
Y1576407D01*
Y1579465D02*
Y1580094D01*
Y1582681D02*
Y1582996D01*
Y1592979D02*
Y1593921D01*
Y1600126D02*
Y1601278D01*
Y1609525D02*
Y1609896D01*
Y1619222D02*
Y1620052D01*
X1722400Y1575504D02*
Y1576449D01*
Y1579348D02*
Y1580169D01*
Y1582481D02*
Y1582979D01*
Y1589409D02*
Y1589414D01*
Y1593054D02*
Y1593971D01*
Y1600037D02*
Y1601378D01*
Y1609400D02*
Y1609896D01*
Y1619172D02*
Y1620012D01*
X1722500Y1575438D02*
Y1576490D01*
Y1579232D02*
Y1580246D01*
Y1582281D02*
Y1582963D01*
Y1589309D02*
Y1589489D01*
Y1593129D02*
Y1594021D01*
Y1599949D02*
Y1601478D01*
Y1609275D02*
Y1609896D01*
Y1619161D02*
Y1619972D01*
X1722600Y1575371D02*
Y1575582D01*
Y1575696D02*
Y1576532D01*
Y1579115D02*
Y1582946D01*
Y1589209D02*
Y1589564D01*
Y1593204D02*
Y1594071D01*
Y1599860D02*
Y1609896D01*
Y1619211D02*
Y1619932D01*
X1722700Y1575304D02*
Y1575526D01*
Y1575759D02*
Y1576574D01*
Y1578998D02*
Y1582929D01*
Y1589109D02*
Y1589639D01*
Y1593279D02*
Y1594121D01*
Y1599771D02*
Y1609896D01*
Y1613996D02*
Y1614051D01*
Y1619261D02*
Y1619892D01*
X1722800Y1575238D02*
Y1575471D01*
Y1575823D02*
Y1576615D01*
Y1579098D02*
Y1582913D01*
Y1589009D02*
Y1589714D01*
Y1593354D02*
Y1594176D01*
Y1599682D02*
Y1609896D01*
Y1613896D02*
Y1614151D01*
Y1619311D02*
Y1619831D01*
X1722900Y1575171D02*
Y1575415D01*
Y1575887D02*
Y1576657D01*
Y1579298D02*
Y1580231D01*
Y1582296D02*
Y1582899D01*
Y1588909D02*
Y1589789D01*
Y1593401D02*
Y1594243D01*
Y1609293D02*
Y1609896D01*
Y1613796D02*
Y1614251D01*
Y1619361D02*
Y1619764D01*
X1723000Y1575104D02*
Y1575359D01*
Y1575950D02*
Y1576699D01*
Y1579478D02*
Y1580257D01*
Y1582296D02*
Y1582899D01*
Y1588809D02*
Y1594310D01*
Y1609293D02*
Y1609896D01*
Y1613696D02*
Y1614351D01*
Y1619431D02*
Y1619697D01*
X1723100Y1575038D02*
Y1575304D01*
Y1576014D02*
Y1576747D01*
Y1579524D02*
Y1580283D01*
Y1582296D02*
Y1582899D01*
Y1588709D02*
Y1594376D01*
Y1609293D02*
Y1609896D01*
Y1613596D02*
Y1614451D01*
X1723200Y1574971D02*
Y1575248D01*
Y1576078D02*
Y1576802D01*
Y1579569D02*
Y1580309D01*
Y1582296D02*
Y1582899D01*
Y1588609D02*
Y1589802D01*
Y1593732D02*
Y1594443D01*
Y1609293D02*
Y1609896D01*
Y1613496D02*
Y1614551D01*
X1723300Y1574904D02*
Y1575193D01*
Y1576141D02*
Y1576856D01*
Y1579615D02*
Y1580335D01*
Y1582296D02*
Y1582899D01*
Y1588576D02*
Y1589862D01*
Y1593818D02*
Y1594510D01*
Y1609293D02*
Y1609896D01*
Y1613396D02*
Y1614651D01*
X1723400Y1574838D02*
Y1575137D01*
Y1576205D02*
Y1576911D01*
Y1579660D02*
Y1580361D01*
Y1582296D02*
Y1582899D01*
Y1588875D02*
Y1589922D01*
Y1593903D02*
Y1594576D01*
Y1605238D02*
Y1605247D01*
Y1609293D02*
Y1609896D01*
Y1613296D02*
Y1625388D01*
X1723500Y1574771D02*
Y1575082D01*
Y1576269D02*
Y1576965D01*
Y1579706D02*
Y1580387D01*
Y1582296D02*
Y1582899D01*
Y1589011D02*
Y1589982D01*
Y1593989D02*
Y1594643D01*
Y1605058D02*
Y1605238D01*
Y1609293D02*
Y1609896D01*
Y1613196D02*
Y1625288D01*
X1723600Y1574704D02*
Y1575026D01*
Y1576332D02*
Y1577020D01*
Y1579751D02*
Y1580413D01*
Y1582296D02*
Y1582899D01*
Y1589144D02*
Y1590042D01*
Y1594075D02*
Y1594710D01*
Y1604878D02*
Y1605229D01*
Y1609293D02*
Y1609896D01*
Y1624366D02*
Y1625188D01*
X1723700Y1574610D02*
Y1574971D01*
Y1576396D02*
Y1577075D01*
Y1579796D02*
Y1580439D01*
Y1582296D02*
Y1582899D01*
Y1589277D02*
Y1590102D01*
Y1594161D02*
Y1594776D01*
Y1604698D02*
Y1605220D01*
Y1609293D02*
Y1609896D01*
X1723800Y1574510D02*
Y1574915D01*
Y1576459D02*
Y1577129D01*
Y1579842D02*
Y1580465D01*
Y1582296D02*
Y1582899D01*
Y1589411D02*
Y1590162D01*
Y1594246D02*
Y1594843D01*
Y1604518D02*
Y1605211D01*
Y1609293D02*
Y1609896D01*
X1723900Y1574410D02*
Y1574855D01*
Y1576523D02*
Y1577184D01*
Y1579887D02*
Y1580491D01*
Y1582296D02*
Y1582899D01*
Y1589521D02*
Y1590222D01*
Y1594332D02*
Y1594910D01*
Y1604338D02*
Y1605202D01*
Y1609293D02*
Y1609896D01*
X1724000Y1574310D02*
Y1574793D01*
Y1576587D02*
Y1577238D01*
Y1579933D02*
Y1580518D01*
Y1582296D02*
Y1582899D01*
Y1589621D02*
Y1590282D01*
Y1594418D02*
Y1594976D01*
Y1604158D02*
Y1605193D01*
Y1609293D02*
Y1609896D01*
X1724100Y1574210D02*
Y1574730D01*
Y1576650D02*
Y1577293D01*
Y1579978D02*
Y1580544D01*
Y1582296D02*
Y1582899D01*
Y1589721D02*
Y1590342D01*
Y1594503D02*
Y1595056D01*
Y1604203D02*
Y1605183D01*
Y1609293D02*
Y1609896D01*
X1724200Y1574110D02*
Y1574668D01*
Y1576725D02*
Y1577347D01*
Y1580024D02*
Y1580570D01*
Y1582296D02*
Y1582899D01*
Y1589821D02*
Y1590402D01*
Y1594601D02*
Y1595145D01*
Y1604303D02*
Y1605174D01*
Y1609293D02*
Y1609896D01*
X1724300Y1574010D02*
Y1574605D01*
Y1576803D02*
Y1577402D01*
Y1580069D02*
Y1580596D01*
Y1582296D02*
Y1582899D01*
Y1589921D02*
Y1590462D01*
Y1594701D02*
Y1595234D01*
Y1604403D02*
Y1605165D01*
Y1609293D02*
Y1609896D01*
Y1616755D02*
Y1616916D01*
Y1622550D02*
Y1622691D01*
X1724400Y1573910D02*
Y1574543D01*
Y1576881D02*
Y1577456D01*
Y1580115D02*
Y1580622D01*
Y1582296D02*
Y1582899D01*
Y1590021D02*
Y1590522D01*
Y1594801D02*
Y1595323D01*
Y1604502D02*
Y1605156D01*
Y1609293D02*
Y1609896D01*
Y1616655D02*
Y1617016D01*
Y1622350D02*
Y1622691D01*
X1724500Y1573810D02*
Y1574480D01*
Y1576959D02*
Y1577511D01*
Y1580160D02*
Y1580648D01*
Y1582296D02*
Y1582899D01*
Y1590121D02*
Y1590582D01*
Y1594901D02*
Y1595412D01*
Y1604512D02*
Y1605147D01*
Y1609293D02*
Y1609896D01*
Y1616555D02*
Y1617116D01*
Y1622150D02*
Y1622691D01*
X1724600Y1573710D02*
Y1574418D01*
Y1577036D02*
Y1577566D01*
Y1580206D02*
Y1580674D01*
Y1582296D02*
Y1582899D01*
Y1590210D02*
Y1590642D01*
Y1595001D02*
Y1595501D01*
Y1604512D02*
Y1605138D01*
Y1609293D02*
Y1609896D01*
Y1616455D02*
Y1617216D01*
Y1621950D02*
Y1622691D01*
X1724700Y1573597D02*
Y1574355D01*
Y1577114D02*
Y1577655D01*
Y1580251D02*
Y1580700D01*
Y1582296D02*
Y1582899D01*
Y1586546D02*
Y1586648D01*
Y1590293D02*
Y1590692D01*
Y1595101D02*
Y1595590D01*
Y1604512D02*
Y1605129D01*
Y1609293D02*
Y1609896D01*
Y1616355D02*
Y1622691D01*
X1724800Y1573483D02*
Y1574293D01*
Y1577192D02*
Y1577743D01*
Y1580296D02*
Y1580726D01*
Y1582296D02*
Y1582899D01*
Y1586446D02*
Y1586731D01*
Y1590377D02*
Y1590742D01*
Y1595201D02*
Y1595679D01*
Y1604512D02*
Y1605120D01*
Y1609293D02*
Y1609896D01*
Y1616255D02*
Y1622691D01*
X1724900Y1573369D02*
Y1574230D01*
Y1577270D02*
Y1577832D01*
Y1580342D02*
Y1580752D01*
Y1582296D02*
Y1582899D01*
Y1586346D02*
Y1586815D01*
Y1590460D02*
Y1590792D01*
Y1595301D02*
Y1595768D01*
Y1604512D02*
Y1605115D01*
Y1609293D02*
Y1609896D01*
Y1616295D02*
Y1622691D01*
X1725000Y1573254D02*
Y1574159D01*
Y1577348D02*
Y1577921D01*
Y1580387D02*
Y1580778D01*
Y1582296D02*
Y1582899D01*
Y1586246D02*
Y1586898D01*
Y1590543D02*
Y1590842D01*
Y1595372D02*
Y1595856D01*
Y1604512D02*
Y1605115D01*
Y1609293D02*
Y1609896D01*
Y1616445D02*
Y1617208D01*
Y1622088D02*
Y1622691D01*
X1725100Y1573140D02*
Y1574071D01*
Y1577425D02*
Y1578010D01*
Y1580433D02*
Y1580804D01*
Y1582296D02*
Y1582899D01*
Y1586146D02*
Y1586981D01*
Y1590627D02*
Y1590892D01*
Y1595240D02*
Y1595285D01*
Y1595363D02*
Y1595945D01*
Y1604512D02*
Y1605115D01*
Y1609293D02*
Y1609896D01*
Y1616592D02*
Y1617208D01*
Y1622088D02*
Y1622691D01*
X1725200Y1573026D02*
Y1573984D01*
Y1577503D02*
Y1578099D01*
Y1580478D02*
Y1580831D01*
Y1582296D02*
Y1582899D01*
Y1586046D02*
Y1587065D01*
Y1590710D02*
Y1590942D01*
Y1595074D02*
Y1595273D01*
Y1595503D02*
Y1596034D01*
Y1604512D02*
Y1605115D01*
Y1609293D02*
Y1609896D01*
Y1616597D02*
Y1617208D01*
Y1622088D02*
Y1622691D01*
X1725300Y1572911D02*
Y1573896D01*
Y1577581D02*
Y1578188D01*
Y1580524D02*
Y1580857D01*
Y1582296D02*
Y1582899D01*
Y1585946D02*
Y1587148D01*
Y1590793D02*
Y1590992D01*
Y1594907D02*
Y1595273D01*
Y1595643D02*
Y1596123D01*
Y1604512D02*
Y1605115D01*
Y1609293D02*
Y1609896D01*
Y1616584D02*
Y1617208D01*
Y1622088D02*
Y1622691D01*
X1725400Y1572797D02*
Y1573809D01*
Y1577667D02*
Y1578277D01*
Y1580569D02*
Y1580883D01*
Y1582296D02*
Y1582899D01*
Y1585846D02*
Y1587231D01*
Y1590871D02*
Y1591042D01*
Y1594740D02*
Y1595273D01*
Y1595783D02*
Y1596248D01*
Y1604512D02*
Y1605115D01*
Y1609293D02*
Y1609896D01*
Y1616572D02*
Y1617208D01*
Y1622088D02*
Y1622691D01*
X1725500Y1572683D02*
Y1573721D01*
Y1577783D02*
Y1578366D01*
Y1580615D02*
Y1580909D01*
Y1582296D02*
Y1582899D01*
Y1585746D02*
Y1595273D01*
Y1595923D02*
Y1596376D01*
Y1604512D02*
Y1605115D01*
Y1609293D02*
Y1609896D01*
Y1616559D02*
Y1617208D01*
Y1622088D02*
Y1622691D01*
X1725600Y1572566D02*
Y1573634D01*
Y1577900D02*
Y1578455D01*
Y1580660D02*
Y1580935D01*
Y1582296D02*
Y1582899D01*
Y1585646D02*
Y1595273D01*
Y1596063D02*
Y1596505D01*
Y1604512D02*
Y1605115D01*
Y1609293D02*
Y1609896D01*
Y1616547D02*
Y1617208D01*
Y1622088D02*
Y1622691D01*
X1725700Y1572267D02*
Y1573546D01*
Y1578017D02*
Y1578543D01*
Y1580706D02*
Y1580961D01*
Y1582296D02*
Y1582899D01*
Y1594670D02*
Y1595273D01*
Y1596203D02*
Y1596633D01*
Y1604512D02*
Y1605115D01*
Y1609293D02*
Y1609896D01*
Y1616534D02*
Y1617208D01*
Y1622088D02*
Y1622691D01*
X1725800Y1571967D02*
Y1573459D01*
Y1578133D02*
Y1578632D01*
Y1580751D02*
Y1580987D01*
Y1582296D02*
Y1582899D01*
Y1594670D02*
Y1595273D01*
Y1596347D02*
Y1596762D01*
Y1604512D02*
Y1605115D01*
Y1609293D02*
Y1609896D01*
Y1616522D02*
Y1617208D01*
Y1622088D02*
Y1622691D01*
X1725900Y1571667D02*
Y1573371D01*
Y1578250D02*
Y1578725D01*
Y1580797D02*
Y1581013D01*
Y1582296D02*
Y1582899D01*
Y1594670D02*
Y1595273D01*
Y1596547D02*
Y1596891D01*
Y1604512D02*
Y1605115D01*
Y1609293D02*
Y1609896D01*
Y1616509D02*
Y1617208D01*
Y1622088D02*
Y1622691D01*
X1726000Y1571367D02*
Y1573284D01*
Y1578367D02*
Y1578825D01*
Y1580842D02*
Y1581039D01*
Y1582296D02*
Y1582899D01*
Y1594670D02*
Y1595273D01*
Y1596747D02*
Y1597019D01*
Y1604512D02*
Y1605115D01*
Y1609293D02*
Y1609896D01*
Y1616497D02*
Y1617208D01*
Y1622088D02*
Y1622691D01*
X1726100Y1571067D02*
Y1573183D01*
Y1573757D02*
Y1573845D01*
Y1578483D02*
Y1578925D01*
Y1580887D02*
Y1581065D01*
Y1582296D02*
Y1582899D01*
Y1594670D02*
Y1595273D01*
Y1596947D02*
Y1597148D01*
Y1604512D02*
Y1605115D01*
Y1609293D02*
Y1609896D01*
Y1616484D02*
Y1617208D01*
Y1622088D02*
Y1622691D01*
X1726200Y1570907D02*
Y1573033D01*
Y1573657D02*
Y1573925D01*
Y1578600D02*
Y1579025D01*
Y1580838D02*
Y1581011D01*
Y1582296D02*
Y1582899D01*
Y1594670D02*
Y1595273D01*
Y1597147D02*
Y1597276D01*
Y1604512D02*
Y1605115D01*
Y1609293D02*
Y1609896D01*
Y1616472D02*
Y1617208D01*
Y1622088D02*
Y1622691D01*
X1726300Y1571097D02*
Y1572883D01*
Y1573557D02*
Y1574005D01*
Y1578730D02*
Y1579125D01*
Y1580758D02*
Y1580948D01*
Y1582296D02*
Y1582899D01*
Y1594670D02*
Y1595273D01*
Y1597347D02*
Y1597382D01*
Y1604512D02*
Y1605115D01*
Y1609293D02*
Y1609896D01*
Y1616464D02*
Y1617208D01*
Y1622088D02*
Y1622691D01*
X1726400Y1571347D02*
Y1572733D01*
Y1573457D02*
Y1574085D01*
Y1578864D02*
Y1579225D01*
Y1580678D02*
Y1580886D01*
Y1582296D02*
Y1582899D01*
Y1594670D02*
Y1595273D01*
Y1604512D02*
Y1605115D01*
Y1609293D02*
Y1609896D01*
Y1616464D02*
Y1617208D01*
Y1622088D02*
Y1622691D01*
X1726500Y1571592D02*
Y1572583D01*
Y1573357D02*
Y1574165D01*
Y1578997D02*
Y1579325D01*
Y1580598D02*
Y1580823D01*
Y1582296D02*
Y1582899D01*
Y1594670D02*
Y1595273D01*
Y1604512D02*
Y1605115D01*
Y1609293D02*
Y1609896D01*
Y1616464D02*
Y1617208D01*
Y1622088D02*
Y1622691D01*
X1726600Y1571692D02*
Y1572433D01*
Y1573257D02*
Y1574245D01*
Y1579130D02*
Y1579425D01*
Y1580518D02*
Y1580761D01*
Y1582296D02*
Y1582899D01*
Y1594670D02*
Y1595273D01*
Y1604512D02*
Y1605115D01*
Y1609293D02*
Y1609896D01*
Y1616464D02*
Y1622691D01*
X1726700Y1571792D02*
Y1572283D01*
Y1573157D02*
Y1574325D01*
Y1579264D02*
Y1579525D01*
Y1580438D02*
Y1580698D01*
Y1582296D02*
Y1582899D01*
Y1594670D02*
Y1595273D01*
Y1601279D02*
Y1601459D01*
Y1604512D02*
Y1605115D01*
Y1609293D02*
Y1609896D01*
Y1616464D02*
Y1622691D01*
X1726800Y1571892D02*
Y1572133D01*
Y1573057D02*
Y1578347D01*
Y1579397D02*
Y1579625D01*
Y1580358D02*
Y1580636D01*
Y1582296D02*
Y1582899D01*
Y1588323D02*
Y1588453D01*
Y1592688D02*
Y1592742D01*
Y1594670D02*
Y1595273D01*
Y1601179D02*
Y1601559D01*
Y1604512D02*
Y1605115D01*
Y1609293D02*
Y1609896D01*
Y1616464D02*
Y1617212D01*
Y1622084D02*
Y1622691D01*
X1726900Y1572957D02*
Y1578213D01*
Y1579530D02*
Y1579725D01*
Y1580278D02*
Y1580573D01*
Y1582296D02*
Y1582899D01*
Y1588148D02*
Y1588520D01*
Y1592522D02*
Y1592742D01*
Y1594670D02*
Y1595273D01*
Y1601079D02*
Y1601659D01*
Y1604512D02*
Y1605115D01*
Y1609293D02*
Y1609896D01*
Y1616464D02*
Y1617208D01*
Y1622088D02*
Y1622691D01*
X1727000Y1577569D02*
Y1578080D01*
Y1579664D02*
Y1579746D01*
Y1580198D02*
Y1580511D01*
Y1582296D02*
Y1582899D01*
Y1587973D02*
Y1588587D01*
Y1592355D02*
Y1592742D01*
Y1594670D02*
Y1595273D01*
Y1600979D02*
Y1601759D01*
Y1604512D02*
Y1605115D01*
Y1609293D02*
Y1609896D01*
Y1616464D02*
Y1617208D01*
Y1622088D02*
Y1622691D01*
X1727100Y1580118D02*
Y1580448D01*
Y1582296D02*
Y1582899D01*
Y1587798D02*
Y1588653D01*
Y1592188D02*
Y1592742D01*
Y1594670D02*
Y1595273D01*
Y1600879D02*
Y1601859D01*
Y1604512D02*
Y1605115D01*
Y1609293D02*
Y1609896D01*
Y1616568D02*
Y1617208D01*
Y1622088D02*
Y1622691D01*
X1727200Y1580038D02*
Y1580386D01*
Y1582296D02*
Y1582899D01*
Y1587623D02*
Y1592742D01*
Y1594670D02*
Y1595273D01*
Y1600779D02*
Y1601959D01*
Y1604512D02*
Y1605115D01*
Y1609293D02*
Y1609896D01*
Y1616868D02*
Y1617208D01*
Y1622088D02*
Y1622691D01*
X1727300Y1579958D02*
Y1580352D01*
Y1582296D02*
Y1582899D01*
Y1587578D02*
Y1592742D01*
Y1594670D02*
Y1595273D01*
Y1600679D02*
Y1608293D01*
Y1609293D02*
Y1609896D01*
Y1617168D02*
Y1617208D01*
Y1622318D02*
Y1622691D01*
X1727400Y1579878D02*
Y1580327D01*
Y1582296D02*
Y1582899D01*
Y1587678D02*
Y1592742D01*
Y1594670D02*
Y1595273D01*
Y1600579D02*
Y1608218D01*
Y1609293D02*
Y1609896D01*
Y1622568D02*
Y1622691D01*
X1727500Y1579798D02*
Y1580302D01*
Y1582296D02*
Y1582899D01*
Y1587778D02*
Y1588529D01*
Y1592133D02*
Y1592742D01*
Y1594670D02*
Y1595273D01*
Y1600479D02*
Y1608143D01*
Y1609293D02*
Y1609896D01*
X1727600Y1579728D02*
Y1580277D01*
Y1582296D02*
Y1582899D01*
Y1587878D02*
Y1588524D01*
Y1592139D02*
Y1592742D01*
Y1594670D02*
Y1595273D01*
Y1600379D02*
Y1608068D01*
Y1609293D02*
Y1609901D01*
Y1614587D02*
Y1614592D01*
X1727700Y1579668D02*
Y1580252D01*
Y1582296D02*
Y1582899D01*
Y1587921D02*
Y1588524D01*
Y1592139D02*
Y1592742D01*
Y1594670D02*
Y1595273D01*
Y1604512D02*
Y1605115D01*
Y1607436D02*
Y1607993D01*
Y1609293D02*
Y1609908D01*
Y1614504D02*
Y1614692D01*
X1727800Y1573105D02*
Y1573230D01*
Y1579608D02*
Y1580227D01*
Y1582296D02*
Y1582899D01*
Y1587921D02*
Y1588524D01*
Y1592139D02*
Y1592742D01*
Y1594670D02*
Y1595273D01*
Y1604512D02*
Y1605115D01*
Y1609293D02*
Y1609914D01*
Y1614420D02*
Y1614792D01*
Y1624439D02*
Y1624519D01*
X1727900Y1572925D02*
Y1573255D01*
Y1579548D02*
Y1580202D01*
Y1582296D02*
Y1582899D01*
Y1587921D02*
Y1588524D01*
Y1592139D02*
Y1592742D01*
Y1594670D02*
Y1595273D01*
Y1604512D02*
Y1605115D01*
Y1609293D02*
Y1609921D01*
Y1614337D02*
Y1614892D01*
Y1624273D02*
Y1624519D01*
X1728000Y1572745D02*
Y1573280D01*
Y1579488D02*
Y1580177D01*
Y1582296D02*
Y1582899D01*
Y1587921D02*
Y1588524D01*
Y1592139D02*
Y1592742D01*
Y1594670D02*
Y1595273D01*
Y1604512D02*
Y1605115D01*
Y1609293D02*
Y1609928D01*
Y1614254D02*
Y1614992D01*
Y1624106D02*
Y1624519D01*
X1728100Y1572565D02*
Y1573305D01*
Y1576579D02*
Y1576704D01*
Y1579428D02*
Y1580152D01*
Y1582296D02*
Y1582899D01*
Y1587921D02*
Y1588524D01*
Y1592139D02*
Y1592742D01*
Y1594670D02*
Y1595273D01*
Y1604512D02*
Y1605115D01*
Y1609293D02*
Y1609934D01*
Y1614170D02*
Y1615092D01*
Y1623939D02*
Y1624519D01*
X1728200Y1572385D02*
Y1573330D01*
Y1576512D02*
Y1576668D01*
Y1579368D02*
Y1580127D01*
Y1582296D02*
Y1582899D01*
Y1587921D02*
Y1588524D01*
Y1592139D02*
Y1592742D01*
Y1594670D02*
Y1595273D01*
Y1604512D02*
Y1605115D01*
Y1609293D02*
Y1609941D01*
Y1614087D02*
Y1624519D01*
X1728300Y1572205D02*
Y1573355D01*
Y1576445D02*
Y1576631D01*
Y1579332D02*
Y1580102D01*
Y1582296D02*
Y1582899D01*
Y1587921D02*
Y1588524D01*
Y1592139D02*
Y1592742D01*
Y1594670D02*
Y1595273D01*
Y1604512D02*
Y1605115D01*
Y1609293D02*
Y1609948D01*
Y1614004D02*
Y1624519D01*
X1728400Y1572086D02*
Y1573380D01*
Y1576379D02*
Y1576595D01*
Y1579315D02*
Y1580081D01*
Y1582296D02*
Y1582899D01*
Y1587921D02*
Y1588524D01*
Y1592139D02*
Y1592742D01*
Y1594670D02*
Y1595273D01*
Y1604512D02*
Y1605115D01*
Y1609293D02*
Y1609954D01*
Y1614023D02*
Y1615098D01*
Y1623916D02*
Y1624519D01*
X1728500Y1572186D02*
Y1573405D01*
Y1576312D02*
Y1576559D01*
Y1579299D02*
Y1580064D01*
Y1582296D02*
Y1582899D01*
Y1587921D02*
Y1588524D01*
Y1592139D02*
Y1592742D01*
Y1594670D02*
Y1595273D01*
Y1604512D02*
Y1605115D01*
Y1609293D02*
Y1609961D01*
Y1614173D02*
Y1615098D01*
Y1623916D02*
Y1624519D01*
X1728600Y1572286D02*
Y1573430D01*
Y1576245D02*
Y1576522D01*
Y1578582D02*
Y1578612D01*
Y1579282D02*
Y1580048D01*
Y1582296D02*
Y1582899D01*
Y1587921D02*
Y1588524D01*
Y1592139D02*
Y1592742D01*
Y1594670D02*
Y1595273D01*
Y1604512D02*
Y1605115D01*
Y1609293D02*
Y1609968D01*
Y1614323D02*
Y1615098D01*
Y1623916D02*
Y1624519D01*
X1728700Y1572386D02*
Y1573455D01*
Y1576179D02*
Y1576486D01*
Y1578504D02*
Y1578661D01*
Y1579265D02*
Y1580031D01*
Y1582296D02*
Y1582899D01*
Y1587921D02*
Y1588524D01*
Y1592139D02*
Y1592742D01*
Y1594670D02*
Y1595273D01*
Y1604512D02*
Y1605115D01*
Y1609293D02*
Y1609974D01*
Y1614355D02*
Y1615098D01*
Y1623916D02*
Y1624519D01*
X1728800Y1572486D02*
Y1573480D01*
Y1576112D02*
Y1576450D01*
Y1578426D02*
Y1578628D01*
Y1579249D02*
Y1580014D01*
Y1582296D02*
Y1582899D01*
Y1587921D02*
Y1588524D01*
Y1592139D02*
Y1592742D01*
Y1594670D02*
Y1595273D01*
Y1603078D02*
Y1603389D01*
Y1604512D02*
Y1605115D01*
Y1609293D02*
Y1609981D01*
Y1614355D02*
Y1615098D01*
Y1623916D02*
Y1624519D01*
X1728900Y1572585D02*
Y1573502D01*
Y1576035D02*
Y1576413D01*
Y1578349D02*
Y1578594D01*
Y1579232D02*
Y1579998D01*
Y1582296D02*
Y1582899D01*
Y1587921D02*
Y1588524D01*
Y1592139D02*
Y1592742D01*
Y1594670D02*
Y1595273D01*
Y1602944D02*
Y1603335D01*
Y1604512D02*
Y1605115D01*
Y1609293D02*
Y1609988D01*
Y1614355D02*
Y1615098D01*
Y1623916D02*
Y1624519D01*
X1729000Y1572636D02*
Y1573524D01*
Y1575955D02*
Y1576377D01*
Y1578271D02*
Y1578561D01*
Y1579215D02*
Y1579981D01*
Y1582296D02*
Y1582899D01*
Y1587921D02*
Y1588524D01*
Y1592139D02*
Y1592742D01*
Y1594670D02*
Y1595279D01*
Y1602811D02*
Y1603263D01*
Y1604512D02*
Y1605115D01*
Y1609293D02*
Y1609994D01*
Y1614355D02*
Y1615098D01*
Y1617539D02*
Y1617550D01*
Y1623916D02*
Y1624519D01*
X1729100Y1572686D02*
Y1573547D01*
Y1575875D02*
Y1576341D01*
Y1578193D02*
Y1578528D01*
Y1579210D02*
Y1579964D01*
Y1582296D02*
Y1582899D01*
Y1587921D02*
Y1588524D01*
Y1592139D02*
Y1592742D01*
Y1594670D02*
Y1595287D01*
Y1602678D02*
Y1603190D01*
Y1604512D02*
Y1605115D01*
Y1609293D02*
Y1610001D01*
Y1614355D02*
Y1615098D01*
Y1617439D02*
Y1617683D01*
Y1623916D02*
Y1624519D01*
X1729200Y1572736D02*
Y1573569D01*
Y1575795D02*
Y1576304D01*
Y1578115D02*
Y1578494D01*
Y1579230D02*
Y1579948D01*
Y1582296D02*
Y1582899D01*
Y1587921D02*
Y1588524D01*
Y1592139D02*
Y1592742D01*
Y1594670D02*
Y1595295D01*
Y1602544D02*
Y1603117D01*
Y1604512D02*
Y1605115D01*
Y1609293D02*
Y1610008D01*
Y1614355D02*
Y1615098D01*
Y1617339D02*
Y1617816D01*
Y1621806D02*
Y1621988D01*
Y1623916D02*
Y1624519D01*
X1729300Y1572786D02*
Y1573591D01*
Y1575715D02*
Y1576268D01*
Y1578037D02*
Y1578461D01*
Y1579250D02*
Y1579967D01*
Y1582296D02*
Y1582899D01*
Y1587921D02*
Y1588524D01*
Y1592139D02*
Y1592742D01*
Y1594670D02*
Y1595304D01*
Y1602411D02*
Y1603044D01*
Y1604512D02*
Y1605115D01*
Y1609293D02*
Y1610014D01*
Y1614355D02*
Y1615098D01*
Y1617239D02*
Y1617950D01*
Y1621506D02*
Y1621988D01*
Y1623916D02*
Y1624519D01*
X1729400Y1572836D02*
Y1573613D01*
Y1575635D02*
Y1576231D01*
Y1577960D02*
Y1578428D01*
Y1579270D02*
Y1579992D01*
Y1582296D02*
Y1582899D01*
Y1587921D02*
Y1588524D01*
Y1592139D02*
Y1592742D01*
Y1594670D02*
Y1595312D01*
Y1602278D02*
Y1602972D01*
Y1604512D02*
Y1605115D01*
Y1609293D02*
Y1610021D01*
Y1614355D02*
Y1615098D01*
Y1617139D02*
Y1618091D01*
Y1621205D02*
Y1621988D01*
Y1623916D02*
Y1624519D01*
X1729500Y1572883D02*
Y1573636D01*
Y1575555D02*
Y1576195D01*
Y1577882D02*
Y1578394D01*
Y1579290D02*
Y1580017D01*
Y1582296D02*
Y1582899D01*
Y1587921D02*
Y1588524D01*
Y1592139D02*
Y1592742D01*
Y1594670D02*
Y1595320D01*
Y1602144D02*
Y1602899D01*
Y1604512D02*
Y1605115D01*
Y1609298D02*
Y1610028D01*
Y1614355D02*
Y1615098D01*
Y1617039D02*
Y1621988D01*
Y1623916D02*
Y1624519D01*
X1729600Y1572923D02*
Y1573658D01*
Y1575499D02*
Y1576159D01*
Y1577804D02*
Y1578361D01*
Y1579310D02*
Y1580042D01*
Y1582296D02*
Y1582899D01*
Y1587921D02*
Y1588524D01*
Y1592139D02*
Y1592742D01*
Y1594670D02*
Y1595329D01*
Y1602034D02*
Y1602826D01*
Y1604512D02*
Y1605115D01*
Y1609332D02*
Y1610034D01*
Y1614355D02*
Y1615098D01*
Y1616939D02*
Y1621988D01*
Y1623916D02*
Y1624519D01*
X1729700Y1572963D02*
Y1573680D01*
Y1575449D02*
Y1576142D01*
Y1577726D02*
Y1578328D01*
Y1579330D02*
Y1580067D01*
Y1582296D02*
Y1582899D01*
Y1587921D02*
Y1588524D01*
Y1592139D02*
Y1592742D01*
Y1594670D02*
Y1595337D01*
Y1601934D02*
Y1602753D01*
Y1604512D02*
Y1605115D01*
Y1609365D02*
Y1610052D01*
Y1614355D02*
Y1615098D01*
Y1617027D02*
Y1621988D01*
Y1623916D02*
Y1624519D01*
X1729800Y1573003D02*
Y1573702D01*
Y1575399D02*
Y1576131D01*
Y1577649D02*
Y1578294D01*
Y1579352D02*
Y1580095D01*
Y1582296D02*
Y1582899D01*
Y1587921D02*
Y1588530D01*
Y1592139D02*
Y1592742D01*
Y1594670D02*
Y1595345D01*
Y1601834D02*
Y1602681D01*
Y1604512D02*
Y1605115D01*
Y1609398D02*
Y1610077D01*
Y1614355D02*
Y1615098D01*
Y1617177D02*
Y1617911D01*
Y1621245D02*
Y1621988D01*
Y1623916D02*
Y1624519D01*
X1729900Y1573043D02*
Y1573724D01*
Y1575349D02*
Y1576120D01*
Y1577591D02*
Y1578261D01*
Y1579377D02*
Y1580280D01*
Y1582296D02*
Y1582899D01*
Y1587921D02*
Y1588563D01*
Y1592139D02*
Y1592742D01*
Y1594670D02*
Y1595354D01*
Y1601734D02*
Y1602608D01*
Y1604512D02*
Y1605115D01*
Y1609432D02*
Y1610102D01*
Y1614355D02*
Y1615098D01*
Y1617306D02*
Y1617911D01*
Y1621245D02*
Y1621988D01*
Y1623916D02*
Y1624519D01*
X1730000Y1573083D02*
Y1573747D01*
Y1575299D02*
Y1576109D01*
Y1577534D02*
Y1578228D01*
Y1579402D02*
Y1580520D01*
Y1581161D02*
Y1581915D01*
Y1582296D02*
Y1582899D01*
Y1587921D02*
Y1588597D01*
Y1592139D02*
Y1592742D01*
Y1594683D02*
Y1595362D01*
Y1601634D02*
Y1602535D01*
Y1604512D02*
Y1605115D01*
Y1609465D02*
Y1610127D01*
Y1614355D02*
Y1615098D01*
Y1617308D02*
Y1617911D01*
Y1621245D02*
Y1621988D01*
Y1623916D02*
Y1624519D01*
X1730100Y1573123D02*
Y1573771D01*
Y1575253D02*
Y1576098D01*
Y1577477D02*
Y1578194D01*
Y1579427D02*
Y1580820D01*
Y1580861D02*
Y1581806D01*
Y1582296D02*
Y1582899D01*
Y1587921D02*
Y1588630D01*
Y1592139D02*
Y1592742D01*
Y1594697D02*
Y1595370D01*
Y1601534D02*
Y1602463D01*
Y1604512D02*
Y1605115D01*
Y1609498D02*
Y1610152D01*
Y1614355D02*
Y1615098D01*
Y1617308D02*
Y1617911D01*
Y1621245D02*
Y1621988D01*
Y1623916D02*
Y1624519D01*
X1730200Y1573164D02*
Y1573798D01*
Y1575220D02*
Y1576087D01*
Y1577420D02*
Y1578161D01*
Y1579452D02*
Y1581656D01*
Y1582296D02*
Y1582899D01*
Y1587925D02*
Y1588663D01*
Y1592139D02*
Y1592742D01*
Y1594711D02*
Y1595379D01*
Y1601434D02*
Y1602390D01*
Y1604512D02*
Y1605115D01*
Y1609532D02*
Y1610177D01*
Y1614355D02*
Y1615098D01*
Y1617308D02*
Y1617911D01*
Y1621245D02*
Y1621988D01*
Y1623916D02*
Y1624519D01*
X1730300Y1573206D02*
Y1573825D01*
Y1575187D02*
Y1576076D01*
Y1577363D02*
Y1578128D01*
Y1579477D02*
Y1581506D01*
Y1582296D02*
Y1582899D01*
Y1585812D02*
Y1586001D01*
Y1587958D02*
Y1588872D01*
Y1590355D02*
Y1590633D01*
Y1592139D02*
Y1592742D01*
Y1594726D02*
Y1595387D01*
Y1601353D02*
Y1602317D01*
Y1604512D02*
Y1605115D01*
Y1609565D02*
Y1610202D01*
Y1614355D02*
Y1615098D01*
Y1617308D02*
Y1617911D01*
Y1621245D02*
Y1621988D01*
Y1623916D02*
Y1624519D01*
X1730400Y1573249D02*
Y1573852D01*
Y1575153D02*
Y1576065D01*
Y1577306D02*
Y1578101D01*
Y1579570D02*
Y1581356D01*
Y1582296D02*
Y1582899D01*
Y1585812D02*
Y1586008D01*
Y1587992D02*
Y1590387D01*
Y1592139D02*
Y1592742D01*
Y1594740D02*
Y1595395D01*
Y1601278D02*
Y1602259D01*
Y1604512D02*
Y1605115D01*
Y1609598D02*
Y1610227D01*
Y1614355D02*
Y1615098D01*
Y1617308D02*
Y1617911D01*
Y1621245D02*
Y1621988D01*
Y1623916D02*
Y1624519D01*
X1730500Y1573292D02*
Y1573880D01*
Y1575133D02*
Y1576054D01*
Y1577248D02*
Y1578076D01*
Y1579670D02*
Y1581206D01*
Y1582296D02*
Y1582899D01*
Y1585812D02*
Y1586016D01*
Y1588025D02*
Y1590137D01*
Y1592139D02*
Y1592742D01*
Y1594754D02*
Y1595404D01*
Y1601203D02*
Y1602202D01*
Y1604512D02*
Y1605115D01*
Y1609632D02*
Y1610252D01*
Y1614355D02*
Y1615098D01*
Y1617308D02*
Y1617911D01*
Y1621245D02*
Y1621988D01*
Y1623916D02*
Y1624519D01*
X1730600Y1573335D02*
Y1573907D01*
Y1575158D02*
Y1576042D01*
Y1577191D02*
Y1578051D01*
Y1579770D02*
Y1581074D01*
Y1582296D02*
Y1582899D01*
Y1585812D02*
Y1586024D01*
Y1588059D02*
Y1589914D01*
Y1592139D02*
Y1592742D01*
Y1594768D02*
Y1595412D01*
Y1601128D02*
Y1602144D01*
Y1604512D02*
Y1605115D01*
Y1609665D02*
Y1610277D01*
Y1614355D02*
Y1615098D01*
Y1617308D02*
Y1617911D01*
Y1621245D02*
Y1621988D01*
Y1623916D02*
Y1624519D01*
X1730700Y1573378D02*
Y1573934D01*
Y1575183D02*
Y1576031D01*
Y1577134D02*
Y1578026D01*
Y1579870D02*
Y1581024D01*
Y1582296D02*
Y1582899D01*
Y1585812D02*
Y1586031D01*
Y1588109D02*
Y1589764D01*
Y1592139D02*
Y1592742D01*
Y1594783D02*
Y1595439D01*
Y1601053D02*
Y1602087D01*
Y1604512D02*
Y1605115D01*
Y1609698D02*
Y1610302D01*
Y1614355D02*
Y1615098D01*
Y1617308D02*
Y1617911D01*
Y1621245D02*
Y1621988D01*
Y1623916D02*
Y1624519D01*
X1730800Y1573421D02*
Y1573961D01*
Y1575208D02*
Y1576020D01*
Y1577094D02*
Y1578001D01*
Y1579970D02*
Y1580974D01*
Y1582296D02*
Y1582899D01*
Y1585812D02*
Y1586039D01*
Y1588159D02*
Y1589614D01*
Y1592139D02*
Y1592742D01*
Y1594797D02*
Y1595472D01*
Y1601007D02*
Y1602030D01*
Y1604512D02*
Y1605115D01*
Y1609732D02*
Y1610327D01*
Y1614355D02*
Y1615098D01*
Y1617308D02*
Y1617911D01*
Y1621245D02*
Y1621988D01*
Y1623916D02*
Y1624519D01*
X1730900Y1573464D02*
Y1573989D01*
Y1575233D02*
Y1576006D01*
Y1577094D02*
Y1577976D01*
Y1580161D02*
Y1580924D01*
Y1582296D02*
Y1582899D01*
Y1585812D02*
Y1586047D01*
Y1588245D02*
Y1589485D01*
Y1592139D02*
Y1592742D01*
Y1594815D02*
Y1595505D01*
Y1601027D02*
Y1601973D01*
Y1604512D02*
Y1605115D01*
Y1609765D02*
Y1610352D01*
Y1614355D02*
Y1615098D01*
Y1617308D02*
Y1617911D01*
Y1621245D02*
Y1621988D01*
Y1623916D02*
Y1624519D01*
X1731000Y1573506D02*
Y1574016D01*
Y1575258D02*
Y1575973D01*
Y1577094D02*
Y1577951D01*
Y1580461D02*
Y1580874D01*
Y1582296D02*
Y1582899D01*
Y1585812D02*
Y1586055D01*
Y1588395D02*
Y1589385D01*
Y1592139D02*
Y1592742D01*
Y1594855D02*
Y1595539D01*
Y1601047D02*
Y1601916D01*
Y1604512D02*
Y1605115D01*
Y1609798D02*
Y1610377D01*
Y1614355D02*
Y1615098D01*
Y1617308D02*
Y1617911D01*
Y1621245D02*
Y1621988D01*
Y1623916D02*
Y1624519D01*
X1731100Y1573549D02*
Y1574043D01*
Y1575303D02*
Y1575940D01*
Y1577094D02*
Y1577926D01*
Y1580761D02*
Y1580824D01*
Y1582296D02*
Y1582899D01*
Y1585812D02*
Y1586062D01*
Y1588545D02*
Y1589285D01*
Y1592139D02*
Y1592742D01*
Y1594895D02*
Y1595572D01*
Y1601067D02*
Y1601859D01*
Y1604512D02*
Y1605115D01*
Y1609832D02*
Y1610402D01*
Y1614355D02*
Y1615098D01*
Y1617308D02*
Y1617911D01*
Y1621245D02*
Y1621988D01*
Y1623916D02*
Y1624519D01*
X1731200Y1573592D02*
Y1574071D01*
Y1575353D02*
Y1575906D01*
Y1577094D02*
Y1577901D01*
Y1582296D02*
Y1582899D01*
Y1585809D02*
Y1586070D01*
Y1588728D02*
Y1589210D01*
Y1592139D02*
Y1592742D01*
Y1594935D02*
Y1595605D01*
Y1601087D02*
Y1601802D01*
Y1604512D02*
Y1605115D01*
Y1609870D02*
Y1610427D01*
Y1614355D02*
Y1615098D01*
Y1617308D02*
Y1617911D01*
Y1621245D02*
Y1621988D01*
Y1623916D02*
Y1624519D01*
X1731300Y1573635D02*
Y1574098D01*
Y1575403D02*
Y1575873D01*
Y1577094D02*
Y1577876D01*
Y1582296D02*
Y1582899D01*
Y1585792D02*
Y1586078D01*
Y1588928D02*
Y1589160D01*
Y1592139D02*
Y1592742D01*
Y1594975D02*
Y1595639D01*
Y1601107D02*
Y1601745D01*
Y1604512D02*
Y1605115D01*
Y1609915D02*
Y1610452D01*
Y1614355D02*
Y1615098D01*
Y1617308D02*
Y1617911D01*
Y1621245D02*
Y1621988D01*
Y1623916D02*
Y1624519D01*
X1731400Y1573678D02*
Y1574125D01*
Y1575453D02*
Y1575869D01*
Y1577094D02*
Y1577851D01*
Y1582296D02*
Y1582899D01*
Y1585775D02*
Y1586085D01*
Y1592139D02*
Y1592742D01*
Y1595015D02*
Y1595672D01*
Y1601127D02*
Y1601695D01*
Y1604512D02*
Y1605115D01*
Y1609961D02*
Y1610487D01*
Y1614355D02*
Y1615098D01*
Y1617308D02*
Y1617911D01*
Y1621245D02*
Y1621988D01*
Y1623916D02*
Y1624519D01*
X1731500Y1573721D02*
Y1574152D01*
Y1575503D02*
Y1575869D01*
Y1577130D02*
Y1577838D01*
Y1582296D02*
Y1582899D01*
Y1585759D02*
Y1586093D01*
Y1592139D02*
Y1592742D01*
Y1595055D02*
Y1595705D01*
Y1601198D02*
Y1601645D01*
Y1604512D02*
Y1605115D01*
Y1610006D02*
Y1610527D01*
Y1614355D02*
Y1615098D01*
Y1617308D02*
Y1617911D01*
Y1621245D02*
Y1621988D01*
Y1623916D02*
Y1624519D01*
X1731600Y1573764D02*
Y1574180D01*
Y1575567D02*
Y1575809D01*
Y1577197D02*
Y1577838D01*
Y1582296D02*
Y1582899D01*
Y1585742D02*
Y1586101D01*
Y1592139D02*
Y1592742D01*
Y1595095D02*
Y1595739D01*
Y1601298D02*
Y1601580D01*
Y1604512D02*
Y1605115D01*
Y1610052D02*
Y1610567D01*
Y1614355D02*
Y1615098D01*
Y1617308D02*
Y1617911D01*
Y1621245D02*
Y1621988D01*
Y1623916D02*
Y1624519D01*
X1731700Y1573806D02*
Y1574215D01*
Y1577264D02*
Y1577838D01*
Y1582296D02*
Y1582899D01*
Y1585725D02*
Y1586108D01*
Y1592139D02*
Y1592742D01*
Y1595135D02*
Y1595772D01*
Y1604512D02*
Y1605115D01*
Y1610097D02*
Y1610607D01*
Y1614355D02*
Y1615098D01*
Y1617308D02*
Y1621988D01*
Y1623916D02*
Y1624519D01*
X1731800Y1573849D02*
Y1574251D01*
Y1577330D02*
Y1577838D01*
Y1582296D02*
Y1582899D01*
Y1585709D02*
Y1586116D01*
Y1592139D02*
Y1592742D01*
Y1595175D02*
Y1595805D01*
Y1604512D02*
Y1605115D01*
Y1610143D02*
Y1610647D01*
Y1614355D02*
Y1615098D01*
Y1617308D02*
Y1621988D01*
Y1623916D02*
Y1624519D01*
X1731900Y1573892D02*
Y1574287D01*
Y1577414D02*
Y1577799D01*
Y1582296D02*
Y1582899D01*
Y1585692D02*
Y1586124D01*
Y1592139D02*
Y1592742D01*
Y1595215D02*
Y1595839D01*
Y1604512D02*
Y1605115D01*
Y1610188D02*
Y1610687D01*
Y1614355D02*
Y1615098D01*
Y1617308D02*
Y1617911D01*
Y1621245D02*
Y1621988D01*
Y1623916D02*
Y1624519D01*
X1732000Y1573935D02*
Y1574324D01*
Y1577514D02*
Y1577699D01*
Y1582296D02*
Y1582899D01*
Y1585675D02*
Y1586131D01*
Y1592139D02*
Y1592742D01*
Y1595255D02*
Y1595900D01*
Y1604512D02*
Y1605115D01*
Y1610234D02*
Y1610727D01*
Y1614355D02*
Y1615098D01*
Y1617308D02*
Y1617911D01*
Y1621245D02*
Y1621988D01*
Y1623916D02*
Y1624519D01*
X1732100Y1573978D02*
Y1574360D01*
Y1582296D02*
Y1582899D01*
Y1585653D02*
Y1586160D01*
Y1592139D02*
Y1592742D01*
Y1595295D02*
Y1595963D01*
Y1600102D02*
Y1600118D01*
Y1604512D02*
Y1605115D01*
Y1610279D02*
Y1610767D01*
Y1614355D02*
Y1615098D01*
Y1617308D02*
Y1617911D01*
Y1621245D02*
Y1621988D01*
Y1623916D02*
Y1624519D01*
X1732200Y1574021D02*
Y1574396D01*
Y1582296D02*
Y1582899D01*
Y1585628D02*
Y1586200D01*
Y1592126D02*
Y1592742D01*
Y1595335D02*
Y1596025D01*
Y1600015D02*
Y1600238D01*
Y1604512D02*
Y1605115D01*
Y1610324D02*
Y1610807D01*
Y1614355D02*
Y1615098D01*
Y1617308D02*
Y1617911D01*
Y1621245D02*
Y1621988D01*
Y1623916D02*
Y1624519D01*
X1732300Y1574064D02*
Y1574433D01*
Y1582296D02*
Y1582899D01*
Y1585603D02*
Y1586240D01*
Y1592076D02*
Y1592741D01*
Y1595390D02*
Y1596088D01*
Y1599927D02*
Y1600358D01*
Y1604512D02*
Y1605115D01*
Y1610370D02*
Y1610847D01*
Y1614355D02*
Y1615098D01*
Y1617383D02*
Y1617911D01*
Y1621245D02*
Y1621988D01*
Y1623916D02*
Y1624519D01*
X1732400Y1574106D02*
Y1574469D01*
Y1582296D02*
Y1582899D01*
Y1585578D02*
Y1586280D01*
Y1592026D02*
Y1592716D01*
Y1595490D02*
Y1596150D01*
Y1599840D02*
Y1600478D01*
Y1604512D02*
Y1605115D01*
Y1610415D02*
Y1610887D01*
Y1614355D02*
Y1615098D01*
Y1617633D02*
Y1617911D01*
Y1621245D02*
Y1621988D01*
Y1623916D02*
Y1624519D01*
X1732500Y1574149D02*
Y1574505D01*
Y1582296D02*
Y1582899D01*
Y1585553D02*
Y1586320D01*
Y1591976D02*
Y1592691D01*
Y1595590D02*
Y1596213D01*
Y1599752D02*
Y1600598D01*
Y1604512D02*
Y1605115D01*
Y1610461D02*
Y1610927D01*
Y1614355D02*
Y1615098D01*
Y1617883D02*
Y1617911D01*
Y1621519D02*
Y1621988D01*
Y1623916D02*
Y1624519D01*
X1732600Y1572194D02*
Y1572395D01*
Y1574192D02*
Y1574542D01*
Y1582296D02*
Y1582899D01*
Y1585528D02*
Y1586360D01*
Y1591926D02*
Y1592666D01*
Y1595690D02*
Y1596275D01*
Y1599665D02*
Y1600718D01*
Y1604512D02*
Y1605115D01*
Y1610506D02*
Y1610967D01*
Y1614355D02*
Y1615098D01*
Y1621819D02*
Y1621988D01*
Y1623916D02*
Y1624519D01*
X1732700Y1572106D02*
Y1572535D01*
Y1574235D02*
Y1574578D01*
Y1582296D02*
Y1582899D01*
Y1585398D02*
Y1586400D01*
Y1591876D02*
Y1592641D01*
Y1595790D02*
Y1596338D01*
Y1599577D02*
Y1600838D01*
Y1604512D02*
Y1605115D01*
Y1610553D02*
Y1611007D01*
Y1614355D02*
Y1615098D01*
Y1623916D02*
Y1624519D01*
X1732800Y1572019D02*
Y1572675D01*
Y1574278D02*
Y1574615D01*
Y1582296D02*
Y1582899D01*
Y1585248D02*
Y1586486D01*
Y1591786D02*
Y1592616D01*
Y1595890D02*
Y1596400D01*
Y1599490D02*
Y1609942D01*
Y1610653D02*
Y1611064D01*
Y1614355D02*
Y1615098D01*
Y1623916D02*
Y1624519D01*
X1732900Y1571931D02*
Y1572815D01*
Y1574321D02*
Y1574651D01*
Y1582296D02*
Y1582899D01*
Y1585163D02*
Y1586636D01*
Y1591636D02*
Y1592569D01*
Y1595990D02*
Y1596463D01*
Y1599402D02*
Y1609842D01*
Y1610753D02*
Y1611139D01*
Y1614360D02*
Y1615098D01*
Y1623916D02*
Y1624519D01*
X1733000Y1571844D02*
Y1572955D01*
Y1574364D02*
Y1574687D01*
Y1582296D02*
Y1582899D01*
Y1585263D02*
Y1586786D01*
Y1591486D02*
Y1592502D01*
Y1596090D02*
Y1596525D01*
Y1599315D02*
Y1609742D01*
Y1610853D02*
Y1611214D01*
Y1614374D02*
Y1615098D01*
Y1616450D02*
Y1617067D01*
Y1623916D02*
Y1624519D01*
X1733100Y1571756D02*
Y1573095D01*
Y1574406D02*
Y1574724D01*
Y1582296D02*
Y1582899D01*
Y1585363D02*
Y1592435D01*
Y1596190D02*
Y1596611D01*
Y1608284D02*
Y1609642D01*
Y1610953D02*
Y1611289D01*
Y1614389D02*
Y1615223D01*
Y1615826D02*
Y1617067D01*
Y1623916D02*
Y1624519D01*
X1733200Y1571669D02*
Y1579895D01*
Y1582296D02*
Y1582899D01*
Y1585463D02*
Y1592369D01*
Y1596290D02*
Y1596711D01*
Y1609184D02*
Y1609542D01*
Y1611053D02*
Y1611364D01*
Y1614403D02*
Y1616851D01*
Y1623916D02*
Y1624519D01*
X1733300Y1571581D02*
Y1579820D01*
Y1582296D02*
Y1582901D01*
Y1585563D02*
Y1592262D01*
Y1596404D02*
Y1596811D01*
Y1611153D02*
Y1611439D01*
Y1614417D02*
Y1616601D01*
Y1623916D02*
Y1624519D01*
X1733400Y1571494D02*
Y1579745D01*
Y1582296D02*
Y1582915D01*
Y1585712D02*
Y1592112D01*
Y1596532D02*
Y1596911D01*
Y1611253D02*
Y1611514D01*
Y1614432D02*
Y1616323D01*
Y1623916D02*
Y1624519D01*
X1733500Y1571406D02*
Y1579670D01*
Y1582296D02*
Y1582929D01*
Y1586112D02*
Y1591962D01*
Y1596661D02*
Y1597011D01*
Y1611353D02*
Y1611589D01*
Y1614446D02*
Y1615923D01*
Y1623916D02*
Y1624519D01*
X1733600Y1578978D02*
Y1579595D01*
Y1582296D02*
Y1582943D01*
Y1586512D02*
Y1591619D01*
Y1596790D02*
Y1597111D01*
Y1611453D02*
Y1611664D01*
Y1614460D02*
Y1615750D01*
Y1623916D02*
Y1624519D01*
X1733700Y1582296D02*
Y1582958D01*
Y1596918D02*
Y1597211D01*
Y1611553D02*
Y1611739D01*
Y1614474D02*
Y1615650D01*
Y1623947D02*
Y1624519D01*
X1733800Y1582296D02*
Y1582972D01*
Y1597047D02*
Y1597311D01*
Y1611653D02*
Y1611814D01*
Y1614489D02*
Y1615550D01*
Y1624113D02*
Y1624519D01*
X1733900Y1582457D02*
Y1582986D01*
Y1597175D02*
Y1597411D01*
Y1611753D02*
Y1611794D01*
Y1614566D02*
Y1615450D01*
Y1624280D02*
Y1624519D01*
X1734000Y1582657D02*
Y1583001D01*
Y1597304D02*
Y1597511D01*
Y1614666D02*
Y1615369D01*
Y1624447D02*
Y1624519D01*
X1734100Y1582857D02*
Y1583015D01*
Y1597432D02*
Y1597611D01*
Y1614806D02*
Y1615319D01*
X1734200Y1597561D02*
Y1597574D01*
Y1615206D02*
Y1615269D01*
X1821200Y1609398D02*
Y1609490D01*
X1821300Y1609398D02*
Y1609605D01*
X1821400Y1609398D02*
Y1609719D01*
X1821500Y1609398D02*
Y1609833D01*
X1821600Y1609398D02*
Y1609947D01*
Y1619662D02*
Y1619727D01*
X1821700Y1609398D02*
Y1610062D01*
Y1619662D02*
Y1619840D01*
X1821800Y1609398D02*
Y1610176D01*
Y1619662D02*
Y1619952D01*
X1821900Y1609398D02*
Y1610290D01*
Y1619662D02*
Y1620065D01*
X1822000Y1609398D02*
Y1610402D01*
Y1619662D02*
Y1620177D01*
X1822100Y1609398D02*
Y1610319D01*
Y1619662D02*
Y1620290D01*
X1822200Y1609398D02*
Y1610235D01*
Y1619662D02*
Y1620402D01*
X1822300Y1609398D02*
Y1610152D01*
Y1614882D02*
Y1614927D01*
Y1619662D02*
Y1620515D01*
X1822400Y1609398D02*
Y1610069D01*
Y1614882D02*
Y1615027D01*
Y1619662D02*
Y1620627D01*
X1822500Y1609398D02*
Y1609985D01*
Y1614882D02*
Y1615127D01*
Y1619662D02*
Y1620740D01*
X1822600Y1609398D02*
Y1609902D01*
Y1614882D02*
Y1615227D01*
Y1619662D02*
Y1620763D01*
X1822700Y1609398D02*
Y1609819D01*
Y1614882D02*
Y1615327D01*
Y1619662D02*
Y1620663D01*
X1822800Y1609398D02*
Y1609735D01*
Y1614882D02*
Y1615427D01*
Y1619662D02*
Y1620563D01*
X1822900Y1609398D02*
Y1609720D01*
Y1611678D02*
Y1611739D01*
Y1614882D02*
Y1615527D01*
Y1619662D02*
Y1620463D01*
X1823000Y1609398D02*
Y1609720D01*
Y1611178D02*
Y1611872D01*
Y1614882D02*
Y1615627D01*
Y1619662D02*
Y1620363D01*
X1823100Y1609398D02*
Y1609720D01*
Y1610983D02*
Y1612006D01*
Y1614882D02*
Y1615727D01*
Y1619662D02*
Y1620263D01*
X1823200Y1609398D02*
Y1609720D01*
Y1610883D02*
Y1612139D01*
Y1614882D02*
Y1615827D01*
Y1619662D02*
Y1620163D01*
X1823300Y1609398D02*
Y1609720D01*
Y1610804D02*
Y1612271D01*
Y1614882D02*
Y1615845D01*
Y1619662D02*
Y1620063D01*
X1823400Y1609398D02*
Y1609720D01*
Y1610825D02*
Y1612371D01*
Y1614882D02*
Y1615745D01*
Y1619662D02*
Y1619984D01*
X1823500Y1609398D02*
Y1609720D01*
Y1610926D02*
Y1612471D01*
Y1614882D02*
Y1615645D01*
Y1619662D02*
Y1619984D01*
X1823600Y1609398D02*
Y1609720D01*
Y1611126D02*
Y1612571D01*
Y1614882D02*
Y1615545D01*
Y1619662D02*
Y1619984D01*
X1823700Y1609398D02*
Y1609720D01*
Y1611311D02*
Y1612671D01*
Y1614882D02*
Y1615445D01*
Y1619662D02*
Y1619984D01*
X1823800Y1609398D02*
Y1609720D01*
Y1611486D02*
Y1612771D01*
Y1614882D02*
Y1615345D01*
Y1619662D02*
Y1619984D01*
X1823900Y1609398D02*
Y1609720D01*
Y1611661D02*
Y1612871D01*
Y1614882D02*
Y1615245D01*
Y1619662D02*
Y1619984D01*
X1824000Y1609398D02*
Y1609720D01*
Y1611836D02*
Y1612970D01*
Y1614882D02*
Y1615203D01*
Y1619662D02*
Y1619984D01*
X1824100Y1609398D02*
Y1609720D01*
Y1612011D02*
Y1613045D01*
Y1614882D02*
Y1615203D01*
Y1619662D02*
Y1619984D01*
X1824200Y1609398D02*
Y1609720D01*
Y1612186D02*
Y1613120D01*
Y1614882D02*
Y1615203D01*
Y1619662D02*
Y1619984D01*
X1824300Y1609398D02*
Y1609720D01*
Y1612323D02*
Y1613195D01*
Y1614882D02*
Y1615203D01*
Y1619662D02*
Y1619984D01*
X1824400Y1609398D02*
Y1609720D01*
Y1612461D02*
Y1613270D01*
Y1614882D02*
Y1615203D01*
Y1619662D02*
Y1619984D01*
X1824500Y1609398D02*
Y1609720D01*
Y1612598D02*
Y1613345D01*
Y1614882D02*
Y1615203D01*
Y1619662D02*
Y1619984D01*
X1824600Y1609398D02*
Y1609720D01*
Y1612736D02*
Y1613420D01*
Y1614882D02*
Y1615203D01*
Y1619662D02*
Y1619984D01*
X1824700Y1609398D02*
Y1609720D01*
Y1612873D02*
Y1613495D01*
Y1614882D02*
Y1615203D01*
Y1619662D02*
Y1619984D01*
X1824800Y1609398D02*
Y1609720D01*
Y1613011D02*
Y1613570D01*
Y1614882D02*
Y1615203D01*
Y1619662D02*
Y1619984D01*
X1824900Y1609398D02*
Y1609720D01*
Y1613148D02*
Y1613645D01*
Y1614882D02*
Y1615203D01*
Y1619662D02*
Y1619984D01*
X1825000Y1609398D02*
Y1609720D01*
Y1613286D02*
Y1613720D01*
Y1614882D02*
Y1615203D01*
Y1619662D02*
Y1619984D01*
X1825100Y1609398D02*
Y1609720D01*
Y1613423D02*
Y1613785D01*
Y1614882D02*
Y1615203D01*
Y1619662D02*
Y1619984D01*
X1825200Y1609398D02*
Y1609720D01*
Y1613561D02*
Y1613735D01*
Y1614882D02*
Y1615203D01*
Y1619662D02*
Y1619984D01*
X1825300Y1609398D02*
Y1609720D01*
Y1614882D02*
Y1615203D01*
Y1619662D02*
Y1619984D01*
X1825400Y1609398D02*
Y1609720D01*
Y1614882D02*
Y1615203D01*
Y1619662D02*
Y1619984D01*
X1825500Y1609398D02*
Y1609720D01*
Y1614882D02*
Y1615203D01*
Y1619662D02*
Y1619984D01*
X1825600Y1609398D02*
Y1609720D01*
Y1614882D02*
Y1615203D01*
Y1619662D02*
Y1619984D01*
X1825700Y1609398D02*
Y1609720D01*
Y1614882D02*
Y1615203D01*
Y1619662D02*
Y1619984D01*
X1825800Y1609398D02*
Y1609720D01*
Y1614882D02*
Y1615203D01*
Y1619662D02*
Y1619984D01*
X1825900Y1609398D02*
Y1609720D01*
Y1614882D02*
Y1615203D01*
Y1619662D02*
Y1619984D01*
X1826000Y1609398D02*
Y1609720D01*
Y1614882D02*
Y1615203D01*
Y1619662D02*
Y1619984D01*
X1826100Y1609398D02*
Y1609720D01*
Y1614882D02*
Y1615203D01*
Y1618388D02*
Y1618525D01*
Y1619662D02*
Y1619984D01*
X1826200Y1609398D02*
Y1609720D01*
Y1614882D02*
Y1615203D01*
Y1618288D02*
Y1618580D01*
Y1619662D02*
Y1619984D01*
X1826300Y1609398D02*
Y1609720D01*
Y1614882D02*
Y1615203D01*
Y1618188D02*
Y1618636D01*
Y1619662D02*
Y1619984D01*
X1826400Y1609398D02*
Y1609755D01*
Y1614846D02*
Y1615239D01*
Y1618080D02*
Y1618691D01*
Y1619662D02*
Y1619984D01*
X1826500Y1609398D02*
Y1618747D01*
Y1619662D02*
Y1619984D01*
X1826600Y1609398D02*
Y1618802D01*
Y1619662D02*
Y1619984D01*
X1826700Y1609398D02*
Y1618858D01*
Y1619662D02*
Y1619984D01*
X1826800Y1609398D02*
Y1618913D01*
Y1619662D02*
Y1619984D01*
X1826900Y1609398D02*
Y1618969D01*
Y1619662D02*
Y1619984D01*
X1827000Y1609398D02*
Y1619025D01*
Y1619662D02*
Y1619984D01*
X1827100Y1609398D02*
Y1609720D01*
Y1614882D02*
Y1615203D01*
Y1618689D02*
Y1619080D01*
Y1619662D02*
Y1619984D01*
X1827200Y1609398D02*
Y1609720D01*
Y1614882D02*
Y1615203D01*
Y1619662D02*
Y1619984D01*
X1827300Y1609398D02*
Y1609720D01*
Y1614882D02*
Y1615203D01*
Y1619662D02*
Y1619984D01*
X1827400Y1609398D02*
Y1609720D01*
Y1614882D02*
Y1615203D01*
Y1619662D02*
Y1619984D01*
X1827500Y1609398D02*
Y1609720D01*
Y1614882D02*
Y1615203D01*
Y1619662D02*
Y1619984D01*
X1827600Y1609398D02*
Y1609720D01*
Y1614882D02*
Y1615203D01*
Y1619662D02*
Y1619984D01*
X1827700Y1609398D02*
Y1609720D01*
Y1614882D02*
Y1615203D01*
Y1619662D02*
Y1619984D01*
X1827800Y1609398D02*
Y1609720D01*
Y1614882D02*
Y1615203D01*
Y1619662D02*
Y1619984D01*
X1827900Y1609398D02*
Y1609720D01*
Y1614882D02*
Y1615203D01*
Y1619662D02*
Y1619984D01*
X1828000Y1609398D02*
Y1609720D01*
Y1614882D02*
Y1615203D01*
Y1619662D02*
Y1619984D01*
X1828100Y1609398D02*
Y1609720D01*
Y1614882D02*
Y1615203D01*
Y1619662D02*
Y1619984D01*
X1828200Y1609398D02*
Y1609720D01*
Y1614882D02*
Y1615203D01*
Y1619662D02*
Y1619984D01*
X1828300Y1609398D02*
Y1609720D01*
Y1614882D02*
Y1615203D01*
Y1619662D02*
Y1619984D01*
X1828400Y1609398D02*
Y1609720D01*
Y1614882D02*
Y1615203D01*
Y1619662D02*
Y1619984D01*
X1828500Y1609398D02*
Y1609720D01*
Y1614878D02*
Y1615203D01*
Y1619662D02*
Y1619984D01*
X1828600Y1609398D02*
Y1609720D01*
Y1614868D02*
Y1615203D01*
Y1619662D02*
Y1619984D01*
X1828700Y1609398D02*
Y1609720D01*
Y1614858D02*
Y1615203D01*
Y1619662D02*
Y1619984D01*
X1828800Y1609398D02*
Y1609720D01*
Y1614848D02*
Y1615203D01*
Y1619662D02*
Y1619984D01*
X1828900Y1609398D02*
Y1609720D01*
Y1614838D02*
Y1615203D01*
Y1619662D02*
Y1619984D01*
X1829000Y1609398D02*
Y1609720D01*
Y1614828D02*
Y1615203D01*
Y1619662D02*
Y1619984D01*
X1829100Y1609398D02*
Y1609720D01*
Y1614818D02*
Y1615203D01*
Y1619662D02*
Y1619984D01*
X1829200Y1609398D02*
Y1609720D01*
Y1614808D02*
Y1615203D01*
Y1619662D02*
Y1619984D01*
X1829300Y1609398D02*
Y1609720D01*
Y1614798D02*
Y1615203D01*
Y1619662D02*
Y1619984D01*
X1829400Y1609398D02*
Y1609720D01*
Y1614788D02*
Y1615203D01*
Y1619662D02*
Y1619984D01*
X1829500Y1609398D02*
Y1609720D01*
Y1614778D02*
Y1615203D01*
Y1619662D02*
Y1619984D01*
X1829600Y1609398D02*
Y1609720D01*
Y1614768D02*
Y1615203D01*
Y1619662D02*
Y1619984D01*
X1829700Y1609398D02*
Y1609720D01*
Y1614758D02*
Y1615203D01*
Y1619662D02*
Y1619984D01*
X1829800Y1609398D02*
Y1609720D01*
Y1614748D02*
Y1615203D01*
Y1619662D02*
Y1619984D01*
X1829900Y1609398D02*
Y1609720D01*
Y1614818D02*
Y1615203D01*
Y1619662D02*
Y1619984D01*
X1830000Y1609398D02*
Y1609720D01*
Y1614951D02*
Y1615203D01*
Y1619662D02*
Y1619984D01*
X1830100Y1609398D02*
Y1609720D01*
Y1615085D02*
Y1615203D01*
Y1619662D02*
Y1619984D01*
X1830200Y1609393D02*
Y1609720D01*
Y1619662D02*
Y1619984D01*
X1830300Y1609381D02*
Y1609720D01*
Y1619662D02*
Y1619984D01*
X1830400Y1609370D02*
Y1609720D01*
Y1619662D02*
Y1619984D01*
X1830500Y1609359D02*
Y1609720D01*
Y1619662D02*
Y1619984D01*
X1830600Y1609348D02*
Y1609720D01*
Y1619662D02*
Y1619984D01*
X1830700Y1609337D02*
Y1609720D01*
Y1619662D02*
Y1619984D01*
X1830800Y1609326D02*
Y1609720D01*
Y1619662D02*
Y1619984D01*
X1830900Y1609315D02*
Y1609720D01*
Y1619662D02*
Y1619984D01*
X1831000Y1609304D02*
Y1609720D01*
Y1619662D02*
Y1619984D01*
X1831100Y1609293D02*
Y1609720D01*
Y1619662D02*
Y1619984D01*
X1831200Y1609281D02*
Y1609720D01*
Y1612960D02*
Y1620024D01*
X1831300Y1609270D02*
Y1609720D01*
Y1612660D02*
Y1620104D01*
X1831400Y1609264D02*
Y1609720D01*
Y1612360D02*
Y1620184D01*
X1831500Y1609364D02*
Y1609720D01*
Y1612060D02*
Y1620264D01*
X1831600Y1609464D02*
Y1609720D01*
Y1611760D02*
Y1620344D01*
X1831700Y1609564D02*
Y1609720D01*
Y1611460D02*
Y1620424D01*
X1831800Y1609664D02*
Y1609720D01*
Y1611207D02*
Y1614758D01*
X1831900Y1610987D02*
Y1613258D01*
X1832000Y1610767D02*
Y1612563D01*
X1832100Y1610547D02*
Y1612163D01*
X1832200Y1610327D02*
Y1611763D01*
X1832300Y1610107D02*
Y1611363D01*
X1832400Y1609887D02*
Y1611037D01*
X1832500Y1609739D02*
Y1610787D01*
X1832600Y1609639D02*
Y1610537D01*
X1832700Y1609539D02*
Y1610287D01*
X1832800Y1609439D02*
Y1610037D01*
X1832900Y1609339D02*
Y1609787D01*
X1833000Y1609239D02*
Y1609634D01*
X1833100Y1609139D02*
Y1609501D01*
X1833200Y1609039D02*
Y1609367D01*
X1833300Y1608939D02*
Y1609234D01*
X1833400Y1608839D02*
Y1609101D01*
X1833500Y1608739D02*
Y1608967D01*
X1833600Y1608639D02*
Y1608834D01*
X1833700Y1608611D02*
Y1608701D01*
X1835100Y1618959D02*
Y1619009D01*
X1835200Y1618959D02*
Y1619109D01*
X1835300Y1618959D02*
Y1619209D01*
X1835400Y1618959D02*
Y1619309D01*
X1835500Y1618959D02*
Y1619409D01*
X1835600Y1618959D02*
Y1619509D01*
X1835700Y1618959D02*
Y1619609D01*
X1835800Y1618959D02*
Y1619709D01*
X1835900Y1614104D02*
Y1614203D01*
Y1618959D02*
Y1619809D01*
X1836000Y1614037D02*
Y1614323D01*
Y1618959D02*
Y1619736D01*
X1836100Y1613971D02*
Y1614443D01*
Y1618959D02*
Y1619636D01*
X1836200Y1613904D02*
Y1614563D01*
Y1618959D02*
Y1619536D01*
X1836300Y1609245D02*
Y1614683D01*
Y1618959D02*
Y1619436D01*
X1836400Y1608651D02*
Y1614803D01*
Y1618959D02*
Y1619336D01*
X1836500Y1608551D02*
Y1614877D01*
Y1618959D02*
Y1619236D01*
X1836600Y1608451D02*
Y1614777D01*
Y1618959D02*
Y1619143D01*
X1836700Y1608394D02*
Y1614677D01*
Y1618959D02*
Y1619140D01*
X1836800Y1608369D02*
Y1614577D01*
Y1618959D02*
Y1619140D01*
X1836900Y1608344D02*
Y1614477D01*
Y1618959D02*
Y1619140D01*
X1837000Y1608319D02*
Y1609456D01*
Y1614161D02*
Y1614377D01*
Y1618959D02*
Y1619140D01*
X1837100Y1608294D02*
Y1609402D01*
Y1614179D02*
Y1614360D01*
Y1618959D02*
Y1619140D01*
X1837200Y1608377D02*
Y1609352D01*
Y1614179D02*
Y1614360D01*
Y1618959D02*
Y1619140D01*
X1837300Y1608556D02*
Y1609302D01*
Y1614179D02*
Y1614360D01*
Y1618959D02*
Y1619140D01*
X1837400Y1608656D02*
Y1609317D01*
Y1614179D02*
Y1614360D01*
Y1618959D02*
Y1619140D01*
X1837500Y1608756D02*
Y1609342D01*
Y1614179D02*
Y1614360D01*
Y1618959D02*
Y1619140D01*
X1837600Y1608856D02*
Y1609367D01*
Y1614179D02*
Y1614360D01*
Y1618959D02*
Y1619140D01*
X1837700Y1608956D02*
Y1609392D01*
Y1614179D02*
Y1614360D01*
Y1618959D02*
Y1619140D01*
X1837800Y1608992D02*
Y1609417D01*
Y1614179D02*
Y1614360D01*
Y1618959D02*
Y1619140D01*
X1837900Y1609017D02*
Y1609440D01*
Y1614179D02*
Y1614360D01*
Y1618959D02*
Y1619140D01*
X1838000Y1609042D02*
Y1609453D01*
Y1614179D02*
Y1614360D01*
Y1618959D02*
Y1619140D01*
X1838100Y1609067D02*
Y1609465D01*
Y1614179D02*
Y1614360D01*
Y1618959D02*
Y1619140D01*
X1838200Y1609092D02*
Y1609478D01*
Y1614179D02*
Y1614360D01*
Y1617586D02*
Y1617751D01*
Y1618959D02*
Y1619140D01*
X1838300Y1609119D02*
Y1609490D01*
Y1614179D02*
Y1614360D01*
Y1617519D02*
Y1617851D01*
Y1618959D02*
Y1619140D01*
X1838400Y1609159D02*
Y1609503D01*
Y1614179D02*
Y1614360D01*
Y1615415D02*
Y1616605D01*
Y1617452D02*
Y1617951D01*
Y1618959D02*
Y1619140D01*
X1838500Y1609199D02*
Y1609515D01*
Y1614179D02*
Y1614360D01*
Y1615381D02*
Y1618051D01*
Y1618959D02*
Y1619140D01*
X1838600Y1609239D02*
Y1609528D01*
Y1614179D02*
Y1614360D01*
Y1615348D02*
Y1618151D01*
Y1618959D02*
Y1619140D01*
X1838700Y1609279D02*
Y1609540D01*
Y1614179D02*
Y1614360D01*
Y1615315D02*
Y1618251D01*
Y1618959D02*
Y1619140D01*
X1838800Y1609319D02*
Y1609553D01*
Y1614179D02*
Y1614360D01*
Y1615281D02*
Y1618202D01*
Y1618959D02*
Y1619140D01*
X1838900Y1609359D02*
Y1609565D01*
Y1612807D02*
Y1612967D01*
Y1614179D02*
Y1614360D01*
Y1615248D02*
Y1618102D01*
Y1618959D02*
Y1619140D01*
X1839000Y1612740D02*
Y1613067D01*
Y1614179D02*
Y1614360D01*
Y1615215D02*
Y1618002D01*
Y1618959D02*
Y1619140D01*
X1839100Y1612674D02*
Y1613167D01*
Y1614179D02*
Y1614360D01*
Y1615691D02*
Y1615941D01*
Y1617519D02*
Y1617902D01*
Y1618959D02*
Y1619140D01*
X1839200Y1610224D02*
Y1613267D01*
Y1614179D02*
Y1614360D01*
Y1615725D02*
Y1615906D01*
Y1617553D02*
Y1617875D01*
Y1618959D02*
Y1619140D01*
X1839300Y1610184D02*
Y1613367D01*
Y1614179D02*
Y1614360D01*
Y1615725D02*
Y1615906D01*
Y1617553D02*
Y1617875D01*
Y1618959D02*
Y1619140D01*
X1839400Y1610144D02*
Y1613467D01*
Y1614179D02*
Y1614360D01*
Y1615725D02*
Y1615906D01*
Y1617553D02*
Y1617875D01*
Y1618959D02*
Y1619140D01*
X1839500Y1610104D02*
Y1613450D01*
Y1614179D02*
Y1614360D01*
Y1615725D02*
Y1615906D01*
Y1617553D02*
Y1617875D01*
Y1618959D02*
Y1619140D01*
X1839600Y1610064D02*
Y1613375D01*
Y1614179D02*
Y1614360D01*
Y1615725D02*
Y1615906D01*
Y1617553D02*
Y1617875D01*
Y1618959D02*
Y1619140D01*
X1839700Y1610024D02*
Y1613300D01*
Y1614179D02*
Y1614360D01*
Y1615725D02*
Y1615906D01*
Y1617553D02*
Y1617875D01*
Y1618959D02*
Y1619140D01*
X1839800Y1609984D02*
Y1613225D01*
Y1614179D02*
Y1614360D01*
Y1615725D02*
Y1615906D01*
Y1617553D02*
Y1617875D01*
Y1618959D02*
Y1619140D01*
X1839900Y1610663D02*
Y1610845D01*
Y1612773D02*
Y1613150D01*
Y1614179D02*
Y1614360D01*
Y1615725D02*
Y1615906D01*
Y1617553D02*
Y1617875D01*
Y1618959D02*
Y1619140D01*
X1840000Y1610663D02*
Y1610845D01*
Y1612773D02*
Y1613094D01*
Y1614179D02*
Y1614360D01*
Y1615725D02*
Y1615906D01*
Y1617553D02*
Y1617875D01*
Y1618959D02*
Y1619140D01*
X1840100Y1610663D02*
Y1610845D01*
Y1612773D02*
Y1613094D01*
Y1614179D02*
Y1614360D01*
Y1615725D02*
Y1615906D01*
Y1617553D02*
Y1617875D01*
Y1618959D02*
Y1619140D01*
X1840200Y1610663D02*
Y1610845D01*
Y1612773D02*
Y1613094D01*
Y1614179D02*
Y1614360D01*
Y1615725D02*
Y1615906D01*
Y1617553D02*
Y1617875D01*
Y1618959D02*
Y1619140D01*
X1840300Y1610663D02*
Y1610845D01*
Y1612773D02*
Y1613094D01*
Y1614179D02*
Y1614360D01*
Y1615725D02*
Y1615906D01*
Y1617553D02*
Y1617875D01*
Y1618959D02*
Y1619140D01*
X1840400Y1610663D02*
Y1610845D01*
Y1612773D02*
Y1613094D01*
Y1614179D02*
Y1614360D01*
Y1615725D02*
Y1615906D01*
Y1617553D02*
Y1617875D01*
Y1618959D02*
Y1619140D01*
X1840500Y1610663D02*
Y1610845D01*
Y1612773D02*
Y1613094D01*
Y1614179D02*
Y1614360D01*
Y1615725D02*
Y1615906D01*
Y1617553D02*
Y1617875D01*
Y1618959D02*
Y1619140D01*
X1840600Y1610663D02*
Y1610845D01*
Y1612773D02*
Y1613094D01*
Y1614179D02*
Y1614360D01*
Y1615725D02*
Y1615906D01*
Y1617553D02*
Y1617875D01*
Y1618959D02*
Y1619140D01*
X1840700Y1610663D02*
Y1610845D01*
Y1612773D02*
Y1613094D01*
Y1614179D02*
Y1614360D01*
Y1615725D02*
Y1615906D01*
Y1617553D02*
Y1617875D01*
Y1618959D02*
Y1619140D01*
X1840800Y1610663D02*
Y1610845D01*
Y1612773D02*
Y1613094D01*
Y1614179D02*
Y1614360D01*
Y1615725D02*
Y1615906D01*
Y1617553D02*
Y1617875D01*
Y1618959D02*
Y1619140D01*
X1840900Y1610663D02*
Y1610845D01*
Y1612773D02*
Y1613094D01*
Y1614179D02*
Y1614360D01*
Y1615725D02*
Y1615906D01*
Y1617553D02*
Y1617875D01*
Y1618959D02*
Y1619140D01*
X1841000Y1610663D02*
Y1610845D01*
Y1612773D02*
Y1613094D01*
Y1614179D02*
Y1614360D01*
Y1615725D02*
Y1615906D01*
Y1617553D02*
Y1617875D01*
Y1618959D02*
Y1619140D01*
X1841100Y1610663D02*
Y1610845D01*
Y1612773D02*
Y1613094D01*
Y1614179D02*
Y1614360D01*
Y1615725D02*
Y1615906D01*
Y1617553D02*
Y1617875D01*
Y1618959D02*
Y1619140D01*
Y1619896D02*
Y1620172D01*
X1841200Y1610663D02*
Y1610845D01*
Y1612773D02*
Y1613094D01*
Y1614179D02*
Y1614360D01*
Y1615725D02*
Y1615906D01*
Y1617553D02*
Y1617875D01*
Y1618959D02*
Y1619140D01*
Y1619696D02*
Y1620329D01*
X1841300Y1610663D02*
Y1610845D01*
Y1612773D02*
Y1613094D01*
Y1614179D02*
Y1614360D01*
Y1615725D02*
Y1615906D01*
Y1617553D02*
Y1617875D01*
Y1618959D02*
Y1619140D01*
Y1619506D02*
Y1620429D01*
X1841400Y1610663D02*
Y1610845D01*
Y1612773D02*
Y1613094D01*
Y1614179D02*
Y1614360D01*
Y1615725D02*
Y1615906D01*
Y1617553D02*
Y1617875D01*
Y1618959D02*
Y1619140D01*
Y1619456D02*
Y1620529D01*
X1841500Y1610663D02*
Y1610845D01*
Y1612773D02*
Y1613094D01*
Y1614179D02*
Y1614360D01*
Y1615725D02*
Y1615906D01*
Y1617553D02*
Y1617875D01*
Y1618959D02*
Y1619140D01*
Y1619406D02*
Y1620605D01*
X1841600Y1610663D02*
Y1610845D01*
Y1612773D02*
Y1613094D01*
Y1614179D02*
Y1614360D01*
Y1615725D02*
Y1615906D01*
Y1617553D02*
Y1617875D01*
Y1618959D02*
Y1619140D01*
Y1619515D02*
Y1620672D01*
X1841700Y1610663D02*
Y1610845D01*
Y1612773D02*
Y1613094D01*
Y1614179D02*
Y1614360D01*
Y1615725D02*
Y1615906D01*
Y1617553D02*
Y1617875D01*
Y1618959D02*
Y1619140D01*
Y1619665D02*
Y1620738D01*
X1841800Y1610663D02*
Y1610845D01*
Y1612773D02*
Y1613094D01*
Y1614179D02*
Y1614360D01*
Y1615725D02*
Y1615906D01*
Y1617553D02*
Y1617875D01*
Y1618959D02*
Y1619140D01*
Y1619840D02*
Y1620805D01*
X1841900Y1610663D02*
Y1610845D01*
Y1612773D02*
Y1613094D01*
Y1614179D02*
Y1614360D01*
Y1615725D02*
Y1615906D01*
Y1617553D02*
Y1617875D01*
Y1618959D02*
Y1619140D01*
Y1620090D02*
Y1620852D01*
X1842000Y1610663D02*
Y1610845D01*
Y1612773D02*
Y1613094D01*
Y1614179D02*
Y1614360D01*
Y1615725D02*
Y1615906D01*
Y1617553D02*
Y1617875D01*
Y1618959D02*
Y1619140D01*
Y1620340D02*
Y1620885D01*
X1842100Y1610663D02*
Y1610845D01*
Y1612773D02*
Y1613094D01*
Y1614179D02*
Y1614360D01*
Y1615725D02*
Y1615906D01*
Y1617553D02*
Y1617875D01*
Y1618959D02*
Y1619140D01*
Y1620526D02*
Y1620919D01*
X1842200Y1610663D02*
Y1610845D01*
Y1612773D02*
Y1613094D01*
Y1614179D02*
Y1614360D01*
Y1615725D02*
Y1615906D01*
Y1617553D02*
Y1617875D01*
Y1618959D02*
Y1619140D01*
Y1620626D02*
Y1620952D01*
X1842300Y1610663D02*
Y1610845D01*
Y1612773D02*
Y1613094D01*
Y1614179D02*
Y1614360D01*
Y1615725D02*
Y1615906D01*
Y1617553D02*
Y1617875D01*
Y1618959D02*
Y1619140D01*
Y1620726D02*
Y1620985D01*
X1842400Y1610663D02*
Y1610845D01*
Y1612773D02*
Y1613094D01*
Y1614179D02*
Y1614360D01*
Y1615725D02*
Y1615906D01*
Y1617553D02*
Y1617875D01*
Y1618959D02*
Y1619140D01*
Y1620826D02*
Y1621019D01*
X1842500Y1610663D02*
Y1610845D01*
Y1612773D02*
Y1613094D01*
Y1614179D02*
Y1614360D01*
Y1615725D02*
Y1615906D01*
Y1617553D02*
Y1617875D01*
Y1618959D02*
Y1619140D01*
Y1620926D02*
Y1621052D01*
X1842600Y1610663D02*
Y1610845D01*
Y1612773D02*
Y1613094D01*
Y1614179D02*
Y1614360D01*
Y1615725D02*
Y1615906D01*
Y1617553D02*
Y1617875D01*
Y1618959D02*
Y1619140D01*
Y1621026D02*
Y1621085D01*
X1842700Y1610663D02*
Y1610845D01*
Y1612773D02*
Y1613094D01*
Y1614179D02*
Y1614360D01*
Y1615725D02*
Y1615906D01*
Y1617553D02*
Y1617875D01*
Y1618959D02*
Y1619140D01*
X1842800Y1610663D02*
Y1610845D01*
Y1612773D02*
Y1613094D01*
Y1614179D02*
Y1614360D01*
Y1615725D02*
Y1615906D01*
Y1617553D02*
Y1617875D01*
Y1618959D02*
Y1619140D01*
X1842900Y1610663D02*
Y1610845D01*
Y1612773D02*
Y1613094D01*
Y1614179D02*
Y1614360D01*
Y1615725D02*
Y1615906D01*
Y1617553D02*
Y1617875D01*
Y1618959D02*
Y1619140D01*
X1843000Y1610663D02*
Y1610845D01*
Y1612773D02*
Y1613094D01*
Y1614179D02*
Y1614360D01*
Y1615725D02*
Y1615906D01*
Y1617553D02*
Y1617875D01*
Y1618959D02*
Y1619140D01*
X1843100Y1610661D02*
Y1610847D01*
Y1612770D02*
Y1613097D01*
Y1614179D02*
Y1614360D01*
Y1615725D02*
Y1615906D01*
Y1617553D02*
Y1617875D01*
Y1618959D02*
Y1619140D01*
X1843200Y1610065D02*
Y1613130D01*
Y1614179D02*
Y1614360D01*
Y1615725D02*
Y1615906D01*
Y1617553D02*
Y1617875D01*
Y1618959D02*
Y1619140D01*
X1843300Y1610032D02*
Y1613164D01*
Y1614179D02*
Y1614360D01*
Y1615725D02*
Y1615906D01*
Y1617553D02*
Y1617875D01*
Y1618959D02*
Y1619140D01*
X1843400Y1609998D02*
Y1613197D01*
Y1614179D02*
Y1614360D01*
Y1615725D02*
Y1615906D01*
Y1617553D02*
Y1617875D01*
Y1618959D02*
Y1619140D01*
X1843500Y1609965D02*
Y1613230D01*
Y1614179D02*
Y1614360D01*
Y1615725D02*
Y1615906D01*
Y1617553D02*
Y1617875D01*
Y1618959D02*
Y1619140D01*
X1843600Y1609932D02*
Y1613264D01*
Y1614179D02*
Y1614360D01*
Y1615725D02*
Y1615906D01*
Y1617553D02*
Y1617875D01*
Y1618959D02*
Y1619140D01*
X1843700Y1609898D02*
Y1613297D01*
Y1614179D02*
Y1614360D01*
Y1615725D02*
Y1615906D01*
Y1617553D02*
Y1617875D01*
Y1618959D02*
Y1619140D01*
X1843800Y1609865D02*
Y1613330D01*
Y1614179D02*
Y1614360D01*
Y1615725D02*
Y1615906D01*
Y1617553D02*
Y1617877D01*
Y1618959D02*
Y1619140D01*
X1843900Y1614179D02*
Y1614360D01*
Y1615725D02*
Y1615906D01*
Y1617553D02*
Y1617925D01*
Y1618959D02*
Y1619140D01*
X1844000Y1614179D02*
Y1614360D01*
Y1615279D02*
Y1617975D01*
Y1618959D02*
Y1619140D01*
X1844100Y1614179D02*
Y1614360D01*
Y1615239D02*
Y1618025D01*
Y1618959D02*
Y1619140D01*
X1844200Y1614179D02*
Y1614360D01*
Y1615199D02*
Y1618075D01*
Y1618959D02*
Y1619140D01*
X1844300Y1614179D02*
Y1614360D01*
Y1615159D02*
Y1618125D01*
Y1618959D02*
Y1619140D01*
X1844400Y1614179D02*
Y1614360D01*
Y1615119D02*
Y1618175D01*
Y1618959D02*
Y1619140D01*
X1844500Y1614179D02*
Y1614360D01*
Y1615079D02*
Y1618225D01*
Y1618959D02*
Y1619140D01*
X1844600Y1614179D02*
Y1614360D01*
Y1618959D02*
Y1619140D01*
X1844700Y1614179D02*
Y1614360D01*
Y1618959D02*
Y1619140D01*
X1844800Y1614179D02*
Y1614360D01*
Y1618959D02*
Y1619140D01*
X1844900Y1614179D02*
Y1614360D01*
Y1618959D02*
Y1619140D01*
X1845000Y1614179D02*
Y1614360D01*
Y1618959D02*
Y1619140D01*
X1845100Y1614179D02*
Y1614360D01*
Y1618959D02*
Y1619140D01*
X1845200Y1614179D02*
Y1614360D01*
Y1618959D02*
Y1619140D01*
X1845300Y1614179D02*
Y1614360D01*
Y1618959D02*
Y1619140D01*
X1845400Y1614179D02*
Y1614360D01*
Y1618959D02*
Y1619140D01*
X1845500Y1614179D02*
Y1614360D01*
Y1618959D02*
Y1619140D01*
X1845600Y1614179D02*
Y1614360D01*
Y1618959D02*
Y1619140D01*
X1845700Y1614179D02*
Y1614360D01*
Y1618951D02*
Y1619140D01*
X1845800Y1614152D02*
Y1614378D01*
Y1618941D02*
Y1619140D01*
X1845900Y1608757D02*
Y1614438D01*
Y1618931D02*
Y1619140D01*
X1846000Y1608697D02*
Y1614498D01*
Y1618921D02*
Y1619140D01*
X1846100Y1608637D02*
Y1614558D01*
Y1618911D02*
Y1619140D01*
X1846200Y1608577D02*
Y1614618D01*
Y1618901D02*
Y1619140D01*
X1846300Y1608517D02*
Y1614678D01*
Y1618891D02*
Y1619140D01*
X1846400Y1608457D02*
Y1614738D01*
Y1618881D02*
Y1619140D01*
X1846500Y1618871D02*
Y1619140D01*
X1846600Y1618861D02*
Y1619140D01*
X1846700Y1618851D02*
Y1619140D01*
X1846800Y1618841D02*
Y1619140D01*
X1846900Y1618831D02*
Y1619140D01*
X1847000Y1618821D02*
Y1619140D01*
X1847100Y1618918D02*
Y1619140D01*
X1847200Y1619018D02*
Y1619140D01*
X1847300Y1619118D02*
Y1619140D01*
X1883000Y1565268D02*
Y1565363D01*
X1883100Y1565268D02*
Y1565477D01*
X1883200Y1565268D02*
Y1565592D01*
X1883300Y1565268D02*
Y1565706D01*
X1883400Y1565268D02*
Y1565820D01*
Y1575532D02*
Y1575600D01*
X1883500Y1565268D02*
Y1565934D01*
Y1575532D02*
Y1575713D01*
X1883600Y1565268D02*
Y1566049D01*
Y1575532D02*
Y1575825D01*
X1883700Y1565268D02*
Y1566163D01*
Y1575532D02*
Y1575938D01*
X1883800Y1565268D02*
Y1566270D01*
Y1575532D02*
Y1576050D01*
X1883900Y1565268D02*
Y1566187D01*
Y1575532D02*
Y1576163D01*
X1884000Y1565268D02*
Y1566103D01*
Y1575532D02*
Y1576275D01*
X1884100Y1565268D02*
Y1566020D01*
Y1570752D02*
Y1570799D01*
Y1575532D02*
Y1576388D01*
X1884200Y1565268D02*
Y1565937D01*
Y1570752D02*
Y1570899D01*
Y1575532D02*
Y1576500D01*
X1884300Y1565268D02*
Y1565853D01*
Y1570752D02*
Y1570999D01*
Y1575532D02*
Y1576613D01*
X1884400Y1565268D02*
Y1565770D01*
Y1570752D02*
Y1571099D01*
Y1575532D02*
Y1576630D01*
X1884500Y1565268D02*
Y1565687D01*
Y1570752D02*
Y1571199D01*
Y1575532D02*
Y1576530D01*
X1884600Y1565268D02*
Y1565603D01*
Y1570752D02*
Y1571299D01*
Y1575532D02*
Y1576430D01*
X1884700Y1565268D02*
Y1565590D01*
Y1567535D02*
Y1567612D01*
Y1570752D02*
Y1571399D01*
Y1575532D02*
Y1576330D01*
X1884800Y1565268D02*
Y1565590D01*
Y1567035D02*
Y1567746D01*
Y1570752D02*
Y1571499D01*
Y1575532D02*
Y1576230D01*
X1884900Y1565268D02*
Y1565590D01*
Y1566851D02*
Y1567879D01*
Y1570752D02*
Y1571599D01*
Y1575532D02*
Y1576130D01*
X1885000Y1565268D02*
Y1565590D01*
Y1566751D02*
Y1568012D01*
Y1570752D02*
Y1571699D01*
Y1575532D02*
Y1576030D01*
X1885100Y1565268D02*
Y1565590D01*
Y1566674D02*
Y1568144D01*
Y1570752D02*
Y1571712D01*
Y1575532D02*
Y1575930D01*
X1885200Y1565268D02*
Y1565590D01*
Y1566698D02*
Y1568244D01*
Y1570752D02*
Y1571612D01*
Y1575532D02*
Y1575854D01*
X1885300Y1565268D02*
Y1565590D01*
Y1566801D02*
Y1568344D01*
Y1570752D02*
Y1571512D01*
Y1575532D02*
Y1575854D01*
X1885400Y1565268D02*
Y1565590D01*
Y1567001D02*
Y1568444D01*
Y1570752D02*
Y1571412D01*
Y1575532D02*
Y1575854D01*
X1885500Y1565268D02*
Y1565590D01*
Y1567185D02*
Y1568544D01*
Y1570752D02*
Y1571312D01*
Y1575532D02*
Y1575854D01*
X1885600Y1565268D02*
Y1565590D01*
Y1567360D02*
Y1568644D01*
Y1570752D02*
Y1571212D01*
Y1575532D02*
Y1575854D01*
X1885700Y1565268D02*
Y1565590D01*
Y1567535D02*
Y1568744D01*
Y1570752D02*
Y1571112D01*
Y1575532D02*
Y1575854D01*
X1885800Y1565268D02*
Y1565590D01*
Y1567710D02*
Y1568842D01*
Y1570752D02*
Y1571073D01*
Y1575532D02*
Y1575854D01*
X1885900Y1565268D02*
Y1565590D01*
Y1567885D02*
Y1568917D01*
Y1570752D02*
Y1571073D01*
Y1575532D02*
Y1575854D01*
X1886000Y1565268D02*
Y1565590D01*
Y1568059D02*
Y1568992D01*
Y1570752D02*
Y1571073D01*
Y1575532D02*
Y1575854D01*
X1886100Y1565268D02*
Y1565590D01*
Y1568197D02*
Y1569067D01*
Y1570752D02*
Y1571073D01*
Y1575532D02*
Y1575854D01*
X1886200Y1565268D02*
Y1565590D01*
Y1568334D02*
Y1569142D01*
Y1570752D02*
Y1571073D01*
Y1575532D02*
Y1575854D01*
X1886300Y1565268D02*
Y1565590D01*
Y1568472D02*
Y1569217D01*
Y1570752D02*
Y1571073D01*
Y1575532D02*
Y1575854D01*
X1886400Y1565268D02*
Y1565590D01*
Y1568609D02*
Y1569292D01*
Y1570752D02*
Y1571073D01*
Y1575532D02*
Y1575854D01*
X1886500Y1565268D02*
Y1565590D01*
Y1568747D02*
Y1569367D01*
Y1570752D02*
Y1571073D01*
Y1575532D02*
Y1575854D01*
X1886600Y1565268D02*
Y1565590D01*
Y1568884D02*
Y1569442D01*
Y1570752D02*
Y1571073D01*
Y1575532D02*
Y1575854D01*
X1886700Y1565268D02*
Y1565590D01*
Y1569022D02*
Y1569517D01*
Y1570752D02*
Y1571073D01*
Y1575532D02*
Y1575854D01*
X1886800Y1565268D02*
Y1565590D01*
Y1569159D02*
Y1569592D01*
Y1570752D02*
Y1571073D01*
Y1575532D02*
Y1575854D01*
X1886900Y1565268D02*
Y1565590D01*
Y1569297D02*
Y1569653D01*
Y1570752D02*
Y1571073D01*
Y1575532D02*
Y1575854D01*
X1887000Y1565268D02*
Y1565590D01*
Y1569434D02*
Y1569603D01*
Y1570752D02*
Y1571073D01*
Y1575532D02*
Y1575854D01*
X1887100Y1565268D02*
Y1565590D01*
Y1570752D02*
Y1571073D01*
Y1575532D02*
Y1575854D01*
X1887200Y1565268D02*
Y1565590D01*
Y1570752D02*
Y1571073D01*
Y1575532D02*
Y1575854D01*
X1887300Y1565268D02*
Y1565590D01*
Y1570752D02*
Y1571073D01*
Y1575532D02*
Y1575854D01*
X1887400Y1565268D02*
Y1565590D01*
Y1570752D02*
Y1571073D01*
Y1575532D02*
Y1575854D01*
X1887500Y1565268D02*
Y1565590D01*
Y1570752D02*
Y1571073D01*
Y1575532D02*
Y1575854D01*
X1887600Y1565268D02*
Y1565590D01*
Y1570752D02*
Y1571073D01*
Y1575532D02*
Y1575854D01*
X1887700Y1565268D02*
Y1565590D01*
Y1570752D02*
Y1571073D01*
Y1575532D02*
Y1575854D01*
X1887800Y1565268D02*
Y1565590D01*
Y1570752D02*
Y1571073D01*
Y1575532D02*
Y1575854D01*
X1887900Y1565268D02*
Y1565590D01*
Y1570752D02*
Y1571073D01*
Y1574256D02*
Y1574396D01*
Y1575532D02*
Y1575854D01*
X1888000Y1565268D02*
Y1565590D01*
Y1570752D02*
Y1571073D01*
Y1574156D02*
Y1574451D01*
Y1575532D02*
Y1575854D01*
X1888100Y1565268D02*
Y1565590D01*
Y1570752D02*
Y1571073D01*
Y1574056D02*
Y1574507D01*
Y1575532D02*
Y1575854D01*
X1888200Y1565268D02*
Y1574562D01*
Y1575532D02*
Y1575854D01*
X1888300Y1565268D02*
Y1574618D01*
Y1575532D02*
Y1575854D01*
X1888400Y1565268D02*
Y1574674D01*
Y1575532D02*
Y1575854D01*
X1888500Y1565268D02*
Y1574729D01*
Y1575532D02*
Y1575854D01*
X1888600Y1565268D02*
Y1574785D01*
Y1575532D02*
Y1575854D01*
X1888700Y1565268D02*
Y1574840D01*
Y1575532D02*
Y1575854D01*
X1888800Y1565268D02*
Y1574896D01*
Y1575532D02*
Y1575854D01*
X1888900Y1565268D02*
Y1565590D01*
Y1570752D02*
Y1571073D01*
Y1574587D02*
Y1574951D01*
Y1575532D02*
Y1575854D01*
X1889000Y1565268D02*
Y1565590D01*
Y1570752D02*
Y1571073D01*
Y1575532D02*
Y1575854D01*
X1889100Y1565268D02*
Y1565590D01*
Y1570752D02*
Y1571073D01*
Y1575532D02*
Y1575854D01*
X1889200Y1565268D02*
Y1565590D01*
Y1570752D02*
Y1571073D01*
Y1575532D02*
Y1575854D01*
X1889300Y1565268D02*
Y1565590D01*
Y1570752D02*
Y1571073D01*
Y1575532D02*
Y1575854D01*
X1889400Y1565268D02*
Y1565590D01*
Y1570752D02*
Y1571073D01*
Y1575532D02*
Y1575854D01*
X1889500Y1565268D02*
Y1565590D01*
Y1570752D02*
Y1571073D01*
Y1575532D02*
Y1575854D01*
X1889600Y1565268D02*
Y1565590D01*
Y1570752D02*
Y1571073D01*
Y1575532D02*
Y1575854D01*
X1889700Y1565268D02*
Y1565590D01*
Y1570752D02*
Y1571073D01*
Y1575532D02*
Y1575854D01*
X1889800Y1565268D02*
Y1565590D01*
Y1570752D02*
Y1571073D01*
Y1575532D02*
Y1575854D01*
X1889900Y1565268D02*
Y1565590D01*
Y1570752D02*
Y1571073D01*
Y1575532D02*
Y1575854D01*
X1890000Y1565268D02*
Y1565590D01*
Y1570752D02*
Y1571073D01*
Y1575532D02*
Y1575854D01*
X1890100Y1565268D02*
Y1565590D01*
Y1570752D02*
Y1571073D01*
Y1575532D02*
Y1575854D01*
X1890200Y1565268D02*
Y1565590D01*
Y1570752D02*
Y1571073D01*
Y1575532D02*
Y1575854D01*
X1890300Y1565268D02*
Y1565590D01*
Y1570748D02*
Y1571073D01*
Y1575532D02*
Y1575854D01*
X1890400Y1565268D02*
Y1565590D01*
Y1570738D02*
Y1571073D01*
Y1575532D02*
Y1575854D01*
X1890500Y1565268D02*
Y1565590D01*
Y1570728D02*
Y1571073D01*
Y1575532D02*
Y1575854D01*
X1890600Y1565268D02*
Y1565590D01*
Y1570718D02*
Y1571073D01*
Y1575532D02*
Y1575854D01*
X1890700Y1565268D02*
Y1565590D01*
Y1570708D02*
Y1571073D01*
Y1575532D02*
Y1575854D01*
X1890800Y1565268D02*
Y1565590D01*
Y1570698D02*
Y1571073D01*
Y1575532D02*
Y1575854D01*
X1890900Y1565268D02*
Y1565590D01*
Y1570688D02*
Y1571073D01*
Y1575532D02*
Y1575854D01*
X1891000Y1565268D02*
Y1565590D01*
Y1570678D02*
Y1571073D01*
Y1575532D02*
Y1575854D01*
X1891100Y1565268D02*
Y1565590D01*
Y1570668D02*
Y1571073D01*
Y1575532D02*
Y1575854D01*
X1891200Y1565268D02*
Y1565590D01*
Y1570658D02*
Y1571073D01*
Y1575532D02*
Y1575854D01*
X1891300Y1565268D02*
Y1565590D01*
Y1570648D02*
Y1571073D01*
Y1575532D02*
Y1575854D01*
X1891400Y1565268D02*
Y1565590D01*
Y1570638D02*
Y1571073D01*
Y1575532D02*
Y1575854D01*
X1891500Y1565268D02*
Y1565590D01*
Y1570628D02*
Y1571073D01*
Y1575532D02*
Y1575854D01*
X1891600Y1565268D02*
Y1565590D01*
Y1570618D02*
Y1571073D01*
Y1575532D02*
Y1575854D01*
X1891700Y1565268D02*
Y1565590D01*
Y1570691D02*
Y1571073D01*
Y1575532D02*
Y1575854D01*
X1891800Y1565268D02*
Y1565590D01*
Y1570825D02*
Y1571073D01*
Y1575532D02*
Y1575854D01*
X1891900Y1565268D02*
Y1565590D01*
Y1570958D02*
Y1571073D01*
Y1575532D02*
Y1575854D01*
X1892000Y1565262D02*
Y1565590D01*
Y1575532D02*
Y1575854D01*
X1892100Y1565251D02*
Y1565590D01*
Y1575532D02*
Y1575854D01*
X1892200Y1565240D02*
Y1565590D01*
Y1575532D02*
Y1575854D01*
X1892300Y1565229D02*
Y1565590D01*
Y1575532D02*
Y1575854D01*
X1892400Y1565218D02*
Y1565590D01*
Y1575532D02*
Y1575854D01*
X1892500Y1565207D02*
Y1565590D01*
Y1575532D02*
Y1575854D01*
X1892600Y1565195D02*
Y1565590D01*
Y1575532D02*
Y1575854D01*
X1892700Y1565184D02*
Y1565590D01*
Y1575532D02*
Y1575854D01*
X1892800Y1565173D02*
Y1565590D01*
Y1575532D02*
Y1575854D01*
X1892900Y1565162D02*
Y1565590D01*
Y1575532D02*
Y1575854D01*
X1893000Y1565151D02*
Y1565590D01*
Y1568822D02*
Y1575896D01*
X1893100Y1565140D02*
Y1565590D01*
Y1568522D02*
Y1575976D01*
X1893200Y1565137D02*
Y1565590D01*
Y1568222D02*
Y1576056D01*
X1893300Y1565237D02*
Y1565590D01*
Y1567922D02*
Y1576136D01*
X1893400Y1565337D02*
Y1565590D01*
Y1567622D02*
Y1576216D01*
X1893500Y1565437D02*
Y1565590D01*
Y1567322D02*
Y1576296D01*
X1893600Y1565537D02*
Y1565590D01*
Y1567071D02*
Y1570589D01*
X1893700Y1566851D02*
Y1569089D01*
X1893800Y1566631D02*
Y1568422D01*
X1893900Y1566411D02*
Y1568022D01*
X1894000Y1566191D02*
Y1567622D01*
X1894100Y1565971D02*
Y1567222D01*
X1894200Y1565751D02*
Y1566900D01*
X1894300Y1565606D02*
Y1566650D01*
X1894400Y1565506D02*
Y1566400D01*
X1894500Y1565406D02*
Y1566150D01*
X1894600Y1565306D02*
Y1565900D01*
X1894700Y1565206D02*
Y1565650D01*
X1894800Y1565106D02*
Y1565500D01*
X1894900Y1565006D02*
Y1565367D01*
X1895000Y1564906D02*
Y1565234D01*
X1895100Y1564806D02*
Y1565100D01*
X1895200Y1564706D02*
Y1564967D01*
X1895300Y1564606D02*
Y1564834D01*
X1895400Y1564506D02*
Y1564700D01*
X1895500Y1564484D02*
Y1564567D01*
X1897200Y1564686D02*
Y1564803D01*
X1897300Y1564636D02*
Y1565503D01*
Y1566939D02*
Y1567769D01*
Y1571033D02*
Y1571064D01*
X1897400Y1564586D02*
Y1567807D01*
Y1571033D02*
Y1571164D01*
X1897500Y1564606D02*
Y1567432D01*
Y1571033D02*
Y1571264D01*
X1897600Y1564656D02*
Y1567057D01*
Y1571033D02*
Y1571364D01*
X1897700Y1564706D02*
Y1566682D01*
Y1571033D02*
Y1571464D01*
X1897800Y1564756D02*
Y1566307D01*
Y1571033D02*
Y1571564D01*
X1897900Y1564806D02*
Y1565932D01*
Y1571033D02*
Y1571664D01*
X1898000Y1564856D02*
Y1565731D01*
Y1571033D02*
Y1571764D01*
X1898100Y1564906D02*
Y1565805D01*
Y1571033D02*
Y1571864D01*
X1898200Y1564956D02*
Y1565888D01*
Y1571033D02*
Y1571829D01*
X1898300Y1565015D02*
Y1565972D01*
Y1571033D02*
Y1571729D01*
X1898400Y1565081D02*
Y1566055D01*
Y1571033D02*
Y1571629D01*
Y1575515D02*
Y1575553D01*
X1898500Y1565148D02*
Y1566138D01*
Y1571033D02*
Y1571529D01*
Y1575500D02*
Y1575670D01*
X1898600Y1565215D02*
Y1566222D01*
Y1571033D02*
Y1571429D01*
Y1575486D02*
Y1575786D01*
X1898700Y1565281D02*
Y1566305D01*
Y1571033D02*
Y1571329D01*
Y1575472D02*
Y1575903D01*
X1898800Y1565348D02*
Y1566388D01*
Y1571033D02*
Y1571229D01*
Y1575457D02*
Y1576020D01*
X1898900Y1565415D02*
Y1566481D01*
Y1571033D02*
Y1571214D01*
Y1575443D02*
Y1576137D01*
X1899000Y1565481D02*
Y1566595D01*
Y1571033D02*
Y1571214D01*
Y1575429D02*
Y1576253D01*
X1899100Y1565548D02*
Y1566709D01*
Y1571033D02*
Y1571214D01*
Y1575415D02*
Y1576370D01*
X1899200Y1565615D02*
Y1566824D01*
Y1571033D02*
Y1571214D01*
Y1575400D02*
Y1576361D01*
X1899300Y1565681D02*
Y1566938D01*
Y1571033D02*
Y1571214D01*
Y1575384D02*
Y1576304D01*
X1899400Y1565748D02*
Y1567052D01*
Y1571033D02*
Y1571214D01*
Y1575364D02*
Y1576247D01*
X1899500Y1565815D02*
Y1567167D01*
Y1571033D02*
Y1571214D01*
Y1575344D02*
Y1576190D01*
X1899600Y1565955D02*
Y1567281D01*
Y1571033D02*
Y1571214D01*
Y1575324D02*
Y1576133D01*
X1899700Y1566098D02*
Y1567395D01*
Y1571033D02*
Y1571214D01*
Y1575304D02*
Y1576076D01*
X1899800Y1566241D02*
Y1567509D01*
Y1571033D02*
Y1571214D01*
Y1575284D02*
Y1576019D01*
X1899900Y1566384D02*
Y1567656D01*
Y1571033D02*
Y1571214D01*
Y1575264D02*
Y1575961D01*
X1900000Y1566526D02*
Y1567856D01*
Y1571033D02*
Y1571214D01*
Y1575242D02*
Y1575904D01*
X1900100Y1566669D02*
Y1568056D01*
Y1571033D02*
Y1571214D01*
Y1575213D02*
Y1575850D01*
X1900200Y1566812D02*
Y1568256D01*
Y1571033D02*
Y1571214D01*
Y1575185D02*
Y1575805D01*
X1900300Y1566955D02*
Y1568456D01*
Y1571033D02*
Y1571214D01*
Y1575156D02*
Y1575761D01*
X1900400Y1567098D02*
Y1568656D01*
Y1571033D02*
Y1571214D01*
Y1575127D02*
Y1575716D01*
X1900500Y1567261D02*
Y1568856D01*
Y1571033D02*
Y1571214D01*
Y1575099D02*
Y1575672D01*
X1900600Y1567501D02*
Y1569200D01*
Y1571033D02*
Y1571214D01*
Y1575070D02*
Y1575628D01*
X1900700Y1567741D02*
Y1569900D01*
Y1571033D02*
Y1571214D01*
Y1575042D02*
Y1575583D01*
X1900800Y1567981D02*
Y1570600D01*
Y1571033D02*
Y1571214D01*
Y1575013D02*
Y1575539D01*
X1900900Y1568221D02*
Y1571214D01*
Y1574985D02*
Y1575494D01*
X1901000Y1568461D02*
Y1575450D01*
X1901100Y1568701D02*
Y1575405D01*
X1901200Y1569057D02*
Y1575361D01*
X1901300Y1564512D02*
Y1565141D01*
Y1569807D02*
Y1575316D01*
X1901400Y1564412D02*
Y1565441D01*
Y1570557D02*
Y1575279D01*
X1901500Y1564312D02*
Y1565537D01*
Y1571032D02*
Y1575249D01*
X1901600Y1564397D02*
Y1565612D01*
Y1571033D02*
Y1571250D01*
Y1571318D02*
Y1575219D01*
X1901700Y1564497D02*
Y1565687D01*
Y1567492D02*
Y1567526D01*
Y1571033D02*
Y1571214D01*
Y1573818D02*
Y1575189D01*
X1901800Y1564650D02*
Y1565762D01*
Y1567420D02*
Y1567476D01*
Y1571033D02*
Y1571214D01*
Y1574828D02*
Y1575159D01*
X1901900Y1564850D02*
Y1565837D01*
Y1567349D02*
Y1567426D01*
Y1571033D02*
Y1571214D01*
Y1574814D02*
Y1575129D01*
X1902000Y1565050D02*
Y1565897D01*
Y1567277D02*
Y1567376D01*
Y1571033D02*
Y1571214D01*
Y1574799D02*
Y1575099D01*
X1902100Y1565250D02*
Y1565940D01*
Y1567206D02*
Y1567326D01*
Y1571033D02*
Y1571214D01*
Y1574785D02*
Y1575069D01*
X1902200Y1565419D02*
Y1565983D01*
Y1567135D02*
Y1567276D01*
Y1571033D02*
Y1571214D01*
Y1574771D02*
Y1575039D01*
X1902300Y1565519D02*
Y1566025D01*
Y1567063D02*
Y1567226D01*
Y1571033D02*
Y1571214D01*
Y1574757D02*
Y1575009D01*
X1902400Y1565619D02*
Y1566068D01*
Y1566992D02*
Y1567176D01*
Y1571033D02*
Y1571214D01*
Y1574742D02*
Y1574979D01*
X1902500Y1565719D02*
Y1566111D01*
Y1566920D02*
Y1567126D01*
Y1571033D02*
Y1571214D01*
Y1574728D02*
Y1574949D01*
X1902600Y1565819D02*
Y1566154D01*
Y1566849D02*
Y1567076D01*
Y1571033D02*
Y1571214D01*
Y1574714D02*
Y1574919D01*
X1902700Y1565919D02*
Y1566197D01*
Y1566773D02*
Y1567026D01*
Y1571033D02*
Y1571214D01*
Y1574699D02*
Y1574889D01*
X1902800Y1566019D02*
Y1566240D01*
Y1566690D02*
Y1566976D01*
Y1571033D02*
Y1571214D01*
Y1574684D02*
Y1574863D01*
X1902900Y1566119D02*
Y1566283D01*
Y1566606D02*
Y1566926D01*
Y1571033D02*
Y1571214D01*
Y1574664D02*
Y1574843D01*
X1903000Y1566523D02*
Y1566876D01*
Y1571033D02*
Y1571214D01*
Y1574644D02*
Y1574823D01*
X1903100Y1566440D02*
Y1566826D01*
Y1571033D02*
Y1571214D01*
Y1574624D02*
Y1574803D01*
X1903200Y1566356D02*
Y1566776D01*
Y1571033D02*
Y1571214D01*
Y1574604D02*
Y1574783D01*
X1903300Y1566273D02*
Y1566726D01*
Y1571033D02*
Y1571214D01*
Y1574584D02*
Y1574763D01*
X1903400Y1566190D02*
Y1566676D01*
Y1571033D02*
Y1571214D01*
Y1574564D02*
Y1574743D01*
X1903500Y1566106D02*
Y1566626D01*
Y1571033D02*
Y1571214D01*
Y1574544D02*
Y1574723D01*
X1903600Y1566008D02*
Y1566576D01*
Y1571033D02*
Y1571214D01*
Y1574524D02*
Y1574703D01*
X1903700Y1565908D02*
Y1566526D01*
Y1571033D02*
Y1571214D01*
Y1574504D02*
Y1574683D01*
X1903800Y1565808D02*
Y1566476D01*
Y1571033D02*
Y1571214D01*
Y1574484D02*
Y1574663D01*
X1903900Y1565708D02*
Y1566426D01*
Y1571033D02*
Y1571214D01*
Y1574464D02*
Y1574643D01*
X1904000Y1565608D02*
Y1566376D01*
Y1571033D02*
Y1571214D01*
Y1574444D02*
Y1574623D01*
X1904100Y1565500D02*
Y1566326D01*
Y1571033D02*
Y1571214D01*
Y1574424D02*
Y1574603D01*
X1904200Y1565367D02*
Y1566297D01*
Y1571028D02*
Y1571219D01*
Y1574403D02*
Y1574593D01*
X1904300Y1565233D02*
Y1574643D01*
X1904400Y1565100D02*
Y1574693D01*
X1904500Y1565063D02*
Y1574743D01*
X1904600Y1565183D02*
Y1574793D01*
X1904700Y1565303D02*
Y1574843D01*
X1904800Y1565423D02*
Y1574893D01*
X1904900Y1565543D02*
Y1566345D01*
Y1573078D02*
Y1574943D01*
X1905000Y1565663D02*
Y1565995D01*
X1905100Y1565783D02*
Y1565795D01*
X1905600Y1576241D02*
Y1576364D01*
X1905700Y1576141D02*
Y1576427D01*
X1905800Y1576041D02*
Y1576489D01*
X1905900Y1575941D02*
Y1576552D01*
X1906000Y1575809D02*
Y1576614D01*
X1906100Y1575675D02*
Y1576677D01*
X1906200Y1575542D02*
Y1576739D01*
X1906300Y1575409D02*
Y1576802D01*
X1906400Y1575229D02*
Y1576864D01*
X1906500Y1575029D02*
Y1576927D01*
X1906600Y1574829D02*
Y1576778D01*
X1906700Y1573205D02*
Y1573242D01*
Y1574629D02*
Y1576440D01*
X1906800Y1573139D02*
Y1573292D01*
Y1574414D02*
Y1576040D01*
X1906900Y1573072D02*
Y1573342D01*
Y1574181D02*
Y1575738D01*
X1907000Y1564518D02*
Y1566233D01*
Y1573005D02*
Y1573392D01*
Y1573948D02*
Y1575438D01*
X1907100Y1564484D02*
Y1573442D01*
Y1573714D02*
Y1575152D01*
X1907200Y1564451D02*
Y1574952D01*
X1907300Y1564418D02*
Y1574752D01*
X1907400Y1564384D02*
Y1574552D01*
X1907500Y1564351D02*
Y1574352D01*
X1907600Y1564318D02*
Y1574152D01*
X1907700Y1572720D02*
Y1573952D01*
X1907800Y1572601D02*
Y1573752D01*
X1907900Y1572451D02*
Y1573552D01*
X1908000Y1572301D02*
Y1573352D01*
X1908100Y1572151D02*
Y1573152D01*
X1908200Y1572001D02*
Y1572952D01*
X1908300Y1571851D02*
Y1572752D01*
X1908400Y1571701D02*
Y1572552D01*
X1908500Y1571551D02*
Y1572354D01*
X1908600Y1571409D02*
Y1572179D01*
X1908700Y1571295D02*
Y1572004D01*
X1908800Y1571181D02*
Y1571829D01*
X1908900Y1571066D02*
Y1571654D01*
X1909000Y1570952D02*
Y1571479D01*
X1909100Y1570838D02*
Y1571304D01*
X1909200Y1570724D02*
Y1571129D01*
X1909300Y1570609D02*
Y1570954D01*
X1909400Y1570495D02*
Y1570779D01*
X1909500Y1570381D02*
Y1570604D01*
X1909600Y1570429D02*
X1909600D01*
*
G04 PC Custom Flashes*
G04 Layer Name FLT_V10_20190423_longA. - flashes*
%LPD*%
*
*
G04 PC Circuitry*
G04 Layer Name FLT_V10_20190423_longA. - circuitry*
%LPD*%
*
G54D10*
X1660433Y1396319D02*
Y1803800D01*
X1663386Y1806752D02*
G75*
G03X1660433Y1803800I-0J-2952D01*
G01X1663386Y1806752D02*
X2169291D01*
X2172244Y1803800D02*
G03X2169291Y1806752I-2953J-0D01*
G01X2172244Y1803800D02*
Y1643367D01*
G03X2186024Y1629587I13780J-0*
G01X2336614*
X2339567Y1626634D02*
G03X2336614Y1629587I-2953J0D01*
G01X2339567Y1626634D02*
Y1396319D01*
X2336614Y1393367D02*
G03X2339567Y1396319I0J2952D01*
G01X2336614Y1393367D02*
X1663386D01*
X1660433Y1396319D02*
G03X1663386Y1393367I2953J0D01*
G01X1682087Y1416989D02*
G03X1682087I-7874J0D01*
G01X1717520D02*
G03X1717520I-7874J0D01*
G01X2154528D02*
G03X2154528I-7874J0D01*
G01X1878937Y1787067D02*
G03X1878937I-7874J0D01*
G01X1922244Y1791004D02*
G03X1922244I-7874J0D01*
G01X2063976Y1787067D02*
G03X2063976I-7874J0D01*
G01X1682087Y1595729D02*
G03X1682087I-7874J0D01*
G01Y1783130D02*
G03X1682087I-7874J0D01*
G01X2154528Y1698485D02*
G03X2154528I-7874J0D01*
G01X1842689Y1456896D02*
X1850629D01*
Y1415223*
X1842689*
Y1456896*
X1806606Y1545752D02*
Y1524948D01*
X1817754Y1513800*
X1812099Y1508145*
X1799533Y1520711*
Y1545795*
X1806606Y1545752*
X1737866Y1602737D02*
X1766130D01*
Y1597697*
X1737866*
Y1602737*
X1736625Y1619889D02*
X1780368D01*
X1792510Y1607748*
X1788090Y1603328*
X1776901Y1614516*
X1736625*
Y1619889*
X1768160Y1657810D02*
X1793242Y1632728D01*
X1825305*
Y1626030*
X1790975*
X1763482Y1653522*
X1768160Y1657810*
X1707670Y1704346D02*
X1733524Y1678493D01*
X1727170Y1672139*
X1701097Y1698212*
X1707670Y1704346*
X1679400Y1697123D02*
X1685973D01*
Y1669954*
X1679400*
Y1697123*
X2071700Y1521429D02*
Y1548954D01*
X2077533Y1554787*
X2098817*
X2105117Y1548487*
Y1521518*
X2097419*
Y1543296*
X2093864Y1546851*
X2081686*
X2078664Y1543829*
Y1521429*
X2071700*
X1776139Y1584168D02*
X1800897Y1559410D01*
X1795429Y1553605*
X1770452Y1578582*
X1776139Y1584168*
X1854726Y1680954D02*
X1878677D01*
Y1677054*
X1854726*
Y1680954*
X1882808Y1770895D02*
X1890971D01*
Y1718868*
X1882808*
Y1770895*
X1919238Y1709618D02*
G03X1919238I-11811J0D01*
G01X1917303Y1680810D02*
G03X1917303I-11811J0D01*
G01X1920313Y1651142D02*
G03X1920313I-11811J0D01*
G01X1711545Y1492962D02*
Y1451870D01*
X1730160Y1433255*
X1735533Y1438629*
X1719606Y1454557*
Y1492962*
X1711545*
G54D14*
X1804767Y1547450D02*
X1888528Y1631211D01*
X1817167Y1510360D02*
X2068521D01*
X2076322Y1518161*
X1886880Y1635374D02*
Y1803842D01*
X2101568Y1520976D02*
Y1482928D01*
X2119497Y1464999*
Y1396158*
G54D32*
X1808317Y1783258D02*
Y1795321D01*
X1810380*
Y1783258*
X1808317*
X2211452Y1555137D02*
Y1567200D01*
X2213515*
Y1555137*
X2211452*
X2177444Y1446577D02*
Y1458640D01*
X2179507*
Y1446577*
X2177444*
X2018543Y1603464D02*
X2006480D01*
Y1605527*
X2018543*
Y1603464*
X1898588Y1587366D02*
X1910651D01*
Y1585303*
X1898588*
Y1587366*
X2054135Y1742727D02*
Y1754790D01*
X2056198*
Y1742727*
X2054135*
X1808317Y1793887D02*
X1810380D01*
X1808317Y1790344D02*
X1810380D01*
X1808317Y1786800D02*
X1810380D01*
X2211452Y1565766D02*
X2213515D01*
X2211452Y1562223D02*
X2213515D01*
X2211452Y1558679D02*
X2213515D01*
X2177444Y1457206D02*
X2179507D01*
X2177444Y1453663D02*
X2179507D01*
X2177444Y1450119D02*
X2179507D01*
X2054135Y1753355D02*
X2056198D01*
X2054135Y1749812D02*
X2056198D01*
X2054135Y1746269D02*
X2056198D01*
G54D40*
X2314430Y1449767D02*
Y1508799D01*
X2332462*
Y1449767*
X2314430*
Y1508230D02*
X2332462D01*
X2314430Y1506459D02*
X2332462D01*
X2314430Y1504687D02*
X2332462D01*
X2314430Y1502915D02*
X2332462D01*
X2314430Y1501144D02*
X2332462D01*
X2314430Y1499372D02*
X2332462D01*
X2314430Y1497600D02*
X2332462D01*
X2314430Y1495829D02*
X2332462D01*
X2314430Y1494057D02*
X2332462D01*
X2314430Y1492285D02*
X2332462D01*
X2314430Y1490514D02*
X2332462D01*
X2314430Y1488742D02*
X2332462D01*
X2314430Y1486971D02*
X2332462D01*
X2314430Y1485199D02*
X2332462D01*
X2314430Y1483427D02*
X2332462D01*
X2314430Y1481656D02*
X2332462D01*
X2314430Y1479884D02*
X2332462D01*
X2314430Y1478112D02*
X2332462D01*
X2314430Y1476341D02*
X2332462D01*
X2314430Y1474569D02*
X2332462D01*
X2314430Y1472797D02*
X2332462D01*
X2314430Y1471026D02*
X2332462D01*
X2314430Y1469254D02*
X2332462D01*
X2314430Y1467482D02*
X2332462D01*
X2314430Y1465711D02*
X2332462D01*
X2314430Y1463939D02*
X2332462D01*
X2314430Y1462167D02*
X2332462D01*
X2314430Y1460396D02*
X2332462D01*
X2314430Y1458624D02*
X2332462D01*
X2314430Y1456852D02*
X2332462D01*
X2314430Y1455081D02*
X2332462D01*
X2314430Y1453309D02*
X2332462D01*
X2314430Y1451537D02*
X2332462D01*
G54D46*
G54D142*
X2052412Y1455536D02*
Y1393536D01*
X2034121*
Y1455536*
X2052412*
X1911606Y1429146D02*
X1821606D01*
Y1448146*
X1911606*
Y1429146*
X2005084Y1455536D02*
Y1393536D01*
X1986793*
Y1455536*
X2005084*
X1958935D02*
Y1393536D01*
X1940644*
Y1455536*
X1958935*
X1746760Y1460881D02*
X1684760D01*
Y1479172*
X1746760*
Y1460881*
X2267981Y1622797D02*
X2298981D01*
Y1588797*
X2267981*
Y1622797*
X2200325Y1421567D02*
X2229325D01*
Y1402567*
X2200325*
Y1421567*
X2232784D02*
X2261784D01*
Y1402567*
X2232784*
Y1421567*
X2314744Y1597708D02*
Y1626708D01*
X2333744*
Y1597708*
X2314744*
X2100356Y1455536D02*
Y1393536D01*
X2082064*
Y1455536*
X2100356*
X2137175Y1453359D02*
X2166175D01*
Y1434359*
X2137175*
Y1453359*
X2167541Y1421567D02*
X2196541D01*
Y1402567*
X2167541*
Y1421567*
X2181300Y1616412D02*
X2212300D01*
Y1582412*
X2181300*
Y1616412*
X1942972Y1588363D02*
Y1619363D01*
X1976972*
Y1588363*
X1942972*
X2314634Y1566267D02*
Y1595267D01*
X2333634*
Y1566267*
X2314634*
X2298030Y1593677D02*
X2269030D01*
Y1612677*
X2298030*
Y1593677*
X2153461Y1586190D02*
X2114461D01*
Y1605190*
X2153461*
Y1586190*
X2167556Y1781232D02*
Y1752232D01*
X2148556*
Y1781232*
X2167556*
X2160680Y1678842D02*
Y1649842D01*
X2141680*
Y1678842*
X2160680*
X2097767Y1715267D02*
X2126767D01*
Y1696267*
X2097767*
Y1715267*
X2151638Y1640267D02*
Y1611267D01*
X2132638*
Y1640267*
X2151638*
X2211075Y1586275D02*
X2182075D01*
Y1605275*
X2211075*
Y1586275*
X2040152Y1608208D02*
X2079152D01*
Y1589208*
X2040152*
Y1608208*
X2034121Y1454735D02*
X2052412D01*
X2034121Y1453835D02*
X2052412D01*
X2034121Y1452935D02*
X2052412D01*
X2034121Y1452035D02*
X2052412D01*
X2034121Y1451135D02*
X2052412D01*
X2034121Y1450235D02*
X2052412D01*
X2034121Y1449335D02*
X2052412D01*
X2034121Y1448435D02*
X2052412D01*
X2034121Y1447535D02*
X2052412D01*
X2034121Y1446635D02*
X2052412D01*
X2034121Y1445735D02*
X2052412D01*
X2034121Y1444835D02*
X2052412D01*
X2034121Y1443935D02*
X2052412D01*
X2034121Y1443035D02*
X2052412D01*
X2034121Y1442135D02*
X2052412D01*
X2034121Y1441235D02*
X2052412D01*
X2034121Y1440335D02*
X2052412D01*
X2034121Y1439435D02*
X2052412D01*
X2034121Y1438535D02*
X2052412D01*
X2034121Y1437635D02*
X2052412D01*
X2034121Y1436735D02*
X2052412D01*
X2034121Y1435835D02*
X2052412D01*
X2034121Y1434935D02*
X2052412D01*
X2034121Y1434035D02*
X2052412D01*
X2034121Y1433135D02*
X2052412D01*
X2034121Y1432235D02*
X2052412D01*
X2034121Y1431335D02*
X2052412D01*
X2034121Y1430435D02*
X2052412D01*
X2034121Y1429535D02*
X2052412D01*
X2034121Y1428635D02*
X2052412D01*
X2034121Y1427735D02*
X2052412D01*
X2034121Y1426835D02*
X2052412D01*
X2034121Y1425935D02*
X2052412D01*
X2034121Y1425035D02*
X2052412D01*
X2034121Y1424135D02*
X2052412D01*
X2034121Y1423235D02*
X2052412D01*
X2034121Y1422335D02*
X2052412D01*
X2034121Y1421435D02*
X2052412D01*
X2034121Y1420535D02*
X2052412D01*
X2034121Y1419635D02*
X2052412D01*
X2034121Y1418735D02*
X2052412D01*
X2034121Y1417835D02*
X2052412D01*
X2034121Y1416935D02*
X2052412D01*
X2034121Y1416035D02*
X2052412D01*
X2034121Y1415135D02*
X2052412D01*
X2034121Y1414235D02*
X2052412D01*
X2034121Y1413335D02*
X2052412D01*
X2034121Y1412435D02*
X2052412D01*
X2034121Y1411535D02*
X2052412D01*
X2034121Y1410635D02*
X2052412D01*
X2034121Y1409735D02*
X2052412D01*
X2034121Y1408835D02*
X2052412D01*
X2034121Y1407935D02*
X2052412D01*
X2034121Y1407035D02*
X2052412D01*
X2034121Y1406135D02*
X2052412D01*
X2034121Y1405235D02*
X2052412D01*
X2034121Y1404335D02*
X2052412D01*
X2034121Y1403435D02*
X2052412D01*
X2034121Y1402535D02*
X2052412D01*
X2034121Y1401635D02*
X2052412D01*
X2034121Y1400735D02*
X2052412D01*
X2034121Y1399835D02*
X2052412D01*
X2034121Y1398935D02*
X2052412D01*
X2034121Y1398035D02*
X2052412D01*
X2034121Y1397135D02*
X2052412D01*
X2034121Y1396235D02*
X2052412D01*
X2034121Y1395335D02*
X2052412D01*
X2034121Y1394435D02*
X2052412D01*
X1821606Y1448045D02*
X1911606D01*
X1821606Y1447145D02*
X1911606D01*
X1821606Y1446245D02*
X1911606D01*
X1821606Y1445345D02*
X1911606D01*
X1821606Y1444445D02*
X1911606D01*
X1821606Y1443545D02*
X1911606D01*
X1821606Y1442645D02*
X1911606D01*
X1821606Y1441745D02*
X1911606D01*
X1821606Y1440845D02*
X1911606D01*
X1821606Y1439945D02*
X1911606D01*
X1821606Y1439045D02*
X1911606D01*
X1821606Y1438145D02*
X1911606D01*
X1821606Y1437245D02*
X1911606D01*
X1821606Y1436345D02*
X1911606D01*
X1821606Y1435445D02*
X1911606D01*
X1821606Y1434545D02*
X1911606D01*
X1821606Y1433645D02*
X1911606D01*
X1821606Y1432745D02*
X1911606D01*
X1821606Y1431845D02*
X1911606D01*
X1821606Y1430945D02*
X1911606D01*
X1821606Y1430045D02*
X1911606D01*
X1986793Y1454735D02*
X2005084D01*
X1986793Y1453835D02*
X2005084D01*
X1986793Y1452935D02*
X2005084D01*
X1986793Y1452035D02*
X2005084D01*
X1986793Y1451135D02*
X2005084D01*
X1986793Y1450235D02*
X2005084D01*
X1986793Y1449335D02*
X2005084D01*
X1986793Y1448435D02*
X2005084D01*
X1986793Y1447535D02*
X2005084D01*
X1986793Y1446635D02*
X2005084D01*
X1986793Y1445735D02*
X2005084D01*
X1986793Y1444835D02*
X2005084D01*
X1986793Y1443935D02*
X2005084D01*
X1986793Y1443035D02*
X2005084D01*
X1986793Y1442135D02*
X2005084D01*
X1986793Y1441235D02*
X2005084D01*
X1986793Y1440335D02*
X2005084D01*
X1986793Y1439435D02*
X2005084D01*
X1986793Y1438535D02*
X2005084D01*
X1986793Y1437635D02*
X2005084D01*
X1986793Y1436735D02*
X2005084D01*
X1986793Y1435835D02*
X2005084D01*
X1986793Y1434935D02*
X2005084D01*
X1986793Y1434035D02*
X2005084D01*
X1986793Y1433135D02*
X2005084D01*
X1986793Y1432235D02*
X2005084D01*
X1986793Y1431335D02*
X2005084D01*
X1986793Y1430435D02*
X2005084D01*
X1986793Y1429535D02*
X2005084D01*
X1986793Y1428635D02*
X2005084D01*
X1986793Y1427735D02*
X2005084D01*
X1986793Y1426835D02*
X2005084D01*
X1986793Y1425935D02*
X2005084D01*
X1986793Y1425035D02*
X2005084D01*
X1986793Y1424135D02*
X2005084D01*
X1986793Y1423235D02*
X2005084D01*
X1986793Y1422335D02*
X2005084D01*
X1986793Y1421435D02*
X2005084D01*
X1986793Y1420535D02*
X2005084D01*
X1986793Y1419635D02*
X2005084D01*
X1986793Y1418735D02*
X2005084D01*
X1986793Y1417835D02*
X2005084D01*
X1986793Y1416935D02*
X2005084D01*
X1986793Y1416035D02*
X2005084D01*
X1986793Y1415135D02*
X2005084D01*
X1986793Y1414235D02*
X2005084D01*
X1986793Y1413335D02*
X2005084D01*
X1986793Y1412435D02*
X2005084D01*
X1986793Y1411535D02*
X2005084D01*
X1986793Y1410635D02*
X2005084D01*
X1986793Y1409735D02*
X2005084D01*
X1986793Y1408835D02*
X2005084D01*
X1986793Y1407935D02*
X2005084D01*
X1986793Y1407035D02*
X2005084D01*
X1986793Y1406135D02*
X2005084D01*
X1986793Y1405235D02*
X2005084D01*
X1986793Y1404335D02*
X2005084D01*
X1986793Y1403435D02*
X2005084D01*
X1986793Y1402535D02*
X2005084D01*
X1986793Y1401635D02*
X2005084D01*
X1986793Y1400735D02*
X2005084D01*
X1986793Y1399835D02*
X2005084D01*
X1986793Y1398935D02*
X2005084D01*
X1986793Y1398035D02*
X2005084D01*
X1986793Y1397135D02*
X2005084D01*
X1986793Y1396235D02*
X2005084D01*
X1986793Y1395335D02*
X2005084D01*
X1986793Y1394435D02*
X2005084D01*
X1940644Y1454735D02*
X1958935D01*
X1940644Y1453835D02*
X1958935D01*
X1940644Y1452935D02*
X1958935D01*
X1940644Y1452035D02*
X1958935D01*
X1940644Y1451135D02*
X1958935D01*
X1940644Y1450235D02*
X1958935D01*
X1940644Y1449335D02*
X1958935D01*
X1940644Y1448435D02*
X1958935D01*
X1940644Y1447535D02*
X1958935D01*
X1940644Y1446635D02*
X1958935D01*
X1940644Y1445735D02*
X1958935D01*
X1940644Y1444835D02*
X1958935D01*
X1940644Y1443935D02*
X1958935D01*
X1940644Y1443035D02*
X1958935D01*
X1940644Y1442135D02*
X1958935D01*
X1940644Y1441235D02*
X1958935D01*
X1940644Y1440335D02*
X1958935D01*
X1940644Y1439435D02*
X1958935D01*
X1940644Y1438535D02*
X1958935D01*
X1940644Y1437635D02*
X1958935D01*
X1940644Y1436735D02*
X1958935D01*
X1940644Y1435835D02*
X1958935D01*
X1940644Y1434935D02*
X1958935D01*
X1940644Y1434035D02*
X1958935D01*
X1940644Y1433135D02*
X1958935D01*
X1940644Y1432235D02*
X1958935D01*
X1940644Y1431335D02*
X1958935D01*
X1940644Y1430435D02*
X1958935D01*
X1940644Y1429535D02*
X1958935D01*
X1940644Y1428635D02*
X1958935D01*
X1940644Y1427735D02*
X1958935D01*
X1940644Y1426835D02*
X1958935D01*
X1940644Y1425935D02*
X1958935D01*
X1940644Y1425035D02*
X1958935D01*
X1940644Y1424135D02*
X1958935D01*
X1940644Y1423235D02*
X1958935D01*
X1940644Y1422335D02*
X1958935D01*
X1940644Y1421435D02*
X1958935D01*
X1940644Y1420535D02*
X1958935D01*
X1940644Y1419635D02*
X1958935D01*
X1940644Y1418735D02*
X1958935D01*
X1940644Y1417835D02*
X1958935D01*
X1940644Y1416935D02*
X1958935D01*
X1940644Y1416035D02*
X1958935D01*
X1940644Y1415135D02*
X1958935D01*
X1940644Y1414235D02*
X1958935D01*
X1940644Y1413335D02*
X1958935D01*
X1940644Y1412435D02*
X1958935D01*
X1940644Y1411535D02*
X1958935D01*
X1940644Y1410635D02*
X1958935D01*
X1940644Y1409735D02*
X1958935D01*
X1940644Y1408835D02*
X1958935D01*
X1940644Y1407935D02*
X1958935D01*
X1940644Y1407035D02*
X1958935D01*
X1940644Y1406135D02*
X1958935D01*
X1940644Y1405235D02*
X1958935D01*
X1940644Y1404335D02*
X1958935D01*
X1940644Y1403435D02*
X1958935D01*
X1940644Y1402535D02*
X1958935D01*
X1940644Y1401635D02*
X1958935D01*
X1940644Y1400735D02*
X1958935D01*
X1940644Y1399835D02*
X1958935D01*
X1940644Y1398935D02*
X1958935D01*
X1940644Y1398035D02*
X1958935D01*
X1940644Y1397135D02*
X1958935D01*
X1940644Y1396235D02*
X1958935D01*
X1940644Y1395335D02*
X1958935D01*
X1940644Y1394435D02*
X1958935D01*
X1684760Y1478879D02*
X1746760D01*
X1684760Y1477979D02*
X1746760D01*
X1684760Y1477079D02*
X1746760D01*
X1684760Y1476179D02*
X1746760D01*
X1684760Y1475279D02*
X1746760D01*
X1684760Y1474379D02*
X1746760D01*
X1684760Y1473479D02*
X1746760D01*
X1684760Y1472579D02*
X1746760D01*
X1684760Y1471679D02*
X1746760D01*
X1684760Y1470779D02*
X1746760D01*
X1684760Y1469879D02*
X1746760D01*
X1684760Y1468979D02*
X1746760D01*
X1684760Y1468079D02*
X1746760D01*
X1684760Y1467179D02*
X1746760D01*
X1684760Y1466279D02*
X1746760D01*
X1684760Y1465379D02*
X1746760D01*
X1684760Y1464479D02*
X1746760D01*
X1684760Y1463579D02*
X1746760D01*
X1684760Y1462679D02*
X1746760D01*
X1684760Y1461779D02*
X1746760D01*
X2267981Y1622096D02*
X2298981D01*
X2267981Y1621196D02*
X2298981D01*
X2267981Y1620296D02*
X2298981D01*
X2267981Y1619396D02*
X2298981D01*
X2267981Y1618496D02*
X2298981D01*
X2267981Y1617596D02*
X2298981D01*
X2267981Y1616696D02*
X2298981D01*
X2267981Y1615796D02*
X2298981D01*
X2267981Y1614896D02*
X2298981D01*
X2267981Y1613996D02*
X2298981D01*
X2267981Y1613096D02*
X2298981D01*
X2267981Y1612196D02*
X2298981D01*
X2267981Y1611296D02*
X2298981D01*
X2267981Y1610396D02*
X2298981D01*
X2267981Y1609496D02*
X2298981D01*
X2267981Y1608596D02*
X2298981D01*
X2267981Y1607696D02*
X2298981D01*
X2267981Y1606796D02*
X2298981D01*
X2267981Y1605896D02*
X2298981D01*
X2267981Y1604996D02*
X2298981D01*
X2267981Y1604096D02*
X2298981D01*
X2267981Y1603196D02*
X2298981D01*
X2267981Y1602296D02*
X2298981D01*
X2267981Y1601396D02*
X2298981D01*
X2267981Y1600496D02*
X2298981D01*
X2267981Y1599596D02*
X2298981D01*
X2267981Y1598696D02*
X2298981D01*
X2267981Y1597796D02*
X2298981D01*
X2267981Y1596896D02*
X2298981D01*
X2267981Y1595996D02*
X2298981D01*
X2267981Y1595096D02*
X2298981D01*
X2267981Y1594196D02*
X2298981D01*
X2267981Y1593296D02*
X2298981D01*
X2267981Y1592396D02*
X2298981D01*
X2267981Y1591496D02*
X2298981D01*
X2267981Y1590596D02*
X2298981D01*
X2267981Y1589696D02*
X2298981D01*
X2200325Y1421465D02*
X2229325D01*
X2200325Y1420565D02*
X2229325D01*
X2200325Y1419665D02*
X2229325D01*
X2200325Y1418765D02*
X2229325D01*
X2200325Y1417865D02*
X2229325D01*
X2200325Y1416965D02*
X2229325D01*
X2200325Y1416065D02*
X2229325D01*
X2200325Y1415165D02*
X2229325D01*
X2200325Y1414265D02*
X2229325D01*
X2200325Y1413365D02*
X2229325D01*
X2200325Y1412465D02*
X2229325D01*
X2200325Y1411565D02*
X2229325D01*
X2200325Y1410665D02*
X2229325D01*
X2200325Y1409765D02*
X2229325D01*
X2200325Y1408865D02*
X2229325D01*
X2200325Y1407965D02*
X2229325D01*
X2200325Y1407065D02*
X2229325D01*
X2200325Y1406165D02*
X2229325D01*
X2200325Y1405265D02*
X2229325D01*
X2200325Y1404365D02*
X2229325D01*
X2200325Y1403465D02*
X2229325D01*
X2232784Y1421465D02*
X2261784D01*
X2232784Y1420565D02*
X2261784D01*
X2232784Y1419665D02*
X2261784D01*
X2232784Y1418765D02*
X2261784D01*
X2232784Y1417865D02*
X2261784D01*
X2232784Y1416965D02*
X2261784D01*
X2232784Y1416065D02*
X2261784D01*
X2232784Y1415165D02*
X2261784D01*
X2232784Y1414265D02*
X2261784D01*
X2232784Y1413365D02*
X2261784D01*
X2232784Y1412465D02*
X2261784D01*
X2232784Y1411565D02*
X2261784D01*
X2232784Y1410665D02*
X2261784D01*
X2232784Y1409765D02*
X2261784D01*
X2232784Y1408865D02*
X2261784D01*
X2232784Y1407965D02*
X2261784D01*
X2232784Y1407065D02*
X2261784D01*
X2232784Y1406165D02*
X2261784D01*
X2232784Y1405265D02*
X2261784D01*
X2232784Y1404365D02*
X2261784D01*
X2232784Y1403465D02*
X2261784D01*
X2314744Y1626507D02*
X2333744D01*
X2314744Y1625607D02*
X2333744D01*
X2314744Y1624707D02*
X2333744D01*
X2314744Y1623807D02*
X2333744D01*
X2314744Y1622907D02*
X2333744D01*
X2314744Y1622007D02*
X2333744D01*
X2314744Y1621107D02*
X2333744D01*
X2314744Y1620207D02*
X2333744D01*
X2314744Y1619307D02*
X2333744D01*
X2314744Y1618407D02*
X2333744D01*
X2314744Y1617507D02*
X2333744D01*
X2314744Y1616607D02*
X2333744D01*
X2314744Y1615707D02*
X2333744D01*
X2314744Y1614807D02*
X2333744D01*
X2314744Y1613907D02*
X2333744D01*
X2314744Y1613007D02*
X2333744D01*
X2314744Y1612107D02*
X2333744D01*
X2314744Y1611207D02*
X2333744D01*
X2314744Y1610307D02*
X2333744D01*
X2314744Y1609407D02*
X2333744D01*
X2314744Y1608507D02*
X2333744D01*
X2314744Y1607607D02*
X2333744D01*
X2314744Y1606707D02*
X2333744D01*
X2314744Y1605807D02*
X2333744D01*
X2314744Y1604907D02*
X2333744D01*
X2314744Y1604007D02*
X2333744D01*
X2314744Y1603107D02*
X2333744D01*
X2314744Y1602207D02*
X2333744D01*
X2314744Y1601307D02*
X2333744D01*
X2314744Y1600407D02*
X2333744D01*
X2314744Y1599507D02*
X2333744D01*
X2314744Y1598607D02*
X2333744D01*
X2082064Y1454735D02*
X2100356D01*
X2082064Y1453835D02*
X2100356D01*
X2082064Y1452935D02*
X2100356D01*
X2082064Y1452035D02*
X2100356D01*
X2082064Y1451135D02*
X2100356D01*
X2082064Y1450235D02*
X2100356D01*
X2082064Y1449335D02*
X2100356D01*
X2082064Y1448435D02*
X2100356D01*
X2082064Y1447535D02*
X2100356D01*
X2082064Y1446635D02*
X2100356D01*
X2082064Y1445735D02*
X2100356D01*
X2082064Y1444835D02*
X2100356D01*
X2082064Y1443935D02*
X2100356D01*
X2082064Y1443035D02*
X2100356D01*
X2082064Y1442135D02*
X2100356D01*
X2082064Y1441235D02*
X2100356D01*
X2082064Y1440335D02*
X2100356D01*
X2082064Y1439435D02*
X2100356D01*
X2082064Y1438535D02*
X2100356D01*
X2082064Y1437635D02*
X2100356D01*
X2082064Y1436735D02*
X2100356D01*
X2082064Y1435835D02*
X2100356D01*
X2082064Y1434935D02*
X2100356D01*
X2082064Y1434035D02*
X2100356D01*
X2082064Y1433135D02*
X2100356D01*
X2082064Y1432235D02*
X2100356D01*
X2082064Y1431335D02*
X2100356D01*
X2082064Y1430435D02*
X2100356D01*
X2082064Y1429535D02*
X2100356D01*
X2082064Y1428635D02*
X2100356D01*
X2082064Y1427735D02*
X2100356D01*
X2082064Y1426835D02*
X2100356D01*
X2082064Y1425935D02*
X2100356D01*
X2082064Y1425035D02*
X2100356D01*
X2082064Y1424135D02*
X2100356D01*
X2082064Y1423235D02*
X2100356D01*
X2082064Y1422335D02*
X2100356D01*
X2082064Y1421435D02*
X2100356D01*
X2082064Y1420535D02*
X2100356D01*
X2082064Y1419635D02*
X2100356D01*
X2082064Y1418735D02*
X2100356D01*
X2082064Y1417835D02*
X2100356D01*
X2082064Y1416935D02*
X2100356D01*
X2082064Y1416035D02*
X2100356D01*
X2082064Y1415135D02*
X2100356D01*
X2082064Y1414235D02*
X2100356D01*
X2082064Y1413335D02*
X2100356D01*
X2082064Y1412435D02*
X2100356D01*
X2082064Y1411535D02*
X2100356D01*
X2082064Y1410635D02*
X2100356D01*
X2082064Y1409735D02*
X2100356D01*
X2082064Y1408835D02*
X2100356D01*
X2082064Y1407935D02*
X2100356D01*
X2082064Y1407035D02*
X2100356D01*
X2082064Y1406135D02*
X2100356D01*
X2082064Y1405235D02*
X2100356D01*
X2082064Y1404335D02*
X2100356D01*
X2082064Y1403435D02*
X2100356D01*
X2082064Y1402535D02*
X2100356D01*
X2082064Y1401635D02*
X2100356D01*
X2082064Y1400735D02*
X2100356D01*
X2082064Y1399835D02*
X2100356D01*
X2082064Y1398935D02*
X2100356D01*
X2082064Y1398035D02*
X2100356D01*
X2082064Y1397135D02*
X2100356D01*
X2082064Y1396235D02*
X2100356D01*
X2082064Y1395335D02*
X2100356D01*
X2082064Y1394435D02*
X2100356D01*
X2137175Y1453257D02*
X2166175D01*
X2137175Y1452357D02*
X2166175D01*
X2137175Y1451457D02*
X2166175D01*
X2137175Y1450557D02*
X2166175D01*
X2137175Y1449657D02*
X2166175D01*
X2137175Y1448757D02*
X2166175D01*
X2137175Y1447857D02*
X2166175D01*
X2137175Y1446957D02*
X2166175D01*
X2137175Y1446057D02*
X2166175D01*
X2137175Y1445157D02*
X2166175D01*
X2137175Y1444257D02*
X2166175D01*
X2137175Y1443357D02*
X2166175D01*
X2137175Y1442457D02*
X2166175D01*
X2137175Y1441557D02*
X2166175D01*
X2137175Y1440657D02*
X2166175D01*
X2137175Y1439757D02*
X2166175D01*
X2137175Y1438857D02*
X2166175D01*
X2137175Y1437957D02*
X2166175D01*
X2137175Y1437057D02*
X2166175D01*
X2137175Y1436157D02*
X2166175D01*
X2137175Y1435257D02*
X2166175D01*
X2167541Y1421465D02*
X2196541D01*
X2167541Y1420565D02*
X2196541D01*
X2167541Y1419665D02*
X2196541D01*
X2167541Y1418765D02*
X2196541D01*
X2167541Y1417865D02*
X2196541D01*
X2167541Y1416965D02*
X2196541D01*
X2167541Y1416065D02*
X2196541D01*
X2167541Y1415165D02*
X2196541D01*
X2167541Y1414265D02*
X2196541D01*
X2167541Y1413365D02*
X2196541D01*
X2167541Y1412465D02*
X2196541D01*
X2167541Y1411565D02*
X2196541D01*
X2167541Y1410665D02*
X2196541D01*
X2167541Y1409765D02*
X2196541D01*
X2167541Y1408865D02*
X2196541D01*
X2167541Y1407965D02*
X2196541D01*
X2167541Y1407065D02*
X2196541D01*
X2167541Y1406165D02*
X2196541D01*
X2167541Y1405265D02*
X2196541D01*
X2167541Y1404365D02*
X2196541D01*
X2167541Y1403465D02*
X2196541D01*
X2181300Y1615710D02*
X2212300D01*
X2181300Y1614810D02*
X2212300D01*
X2181300Y1613910D02*
X2212300D01*
X2181300Y1613010D02*
X2212300D01*
X2181300Y1612110D02*
X2212300D01*
X2181300Y1611210D02*
X2212300D01*
X2181300Y1610310D02*
X2212300D01*
X2181300Y1609410D02*
X2212300D01*
X2181300Y1608510D02*
X2212300D01*
X2181300Y1607610D02*
X2212300D01*
X2181300Y1606710D02*
X2212300D01*
X2181300Y1605810D02*
X2212300D01*
X2181300Y1604910D02*
X2212300D01*
X2181300Y1604010D02*
X2212300D01*
X2181300Y1603110D02*
X2212300D01*
X2181300Y1602210D02*
X2212300D01*
X2181300Y1601310D02*
X2212300D01*
X2181300Y1600410D02*
X2212300D01*
X2181300Y1599510D02*
X2212300D01*
X2181300Y1598610D02*
X2212300D01*
X2181300Y1597710D02*
X2212300D01*
X2181300Y1596810D02*
X2212300D01*
X2181300Y1595910D02*
X2212300D01*
X2181300Y1595010D02*
X2212300D01*
X2181300Y1594110D02*
X2212300D01*
X2181300Y1593210D02*
X2212300D01*
X2181300Y1592310D02*
X2212300D01*
X2181300Y1591410D02*
X2212300D01*
X2181300Y1590510D02*
X2212300D01*
X2181300Y1589610D02*
X2212300D01*
X2181300Y1588710D02*
X2212300D01*
X2181300Y1587810D02*
X2212300D01*
X2181300Y1586910D02*
X2212300D01*
X2181300Y1586010D02*
X2212300D01*
X2181300Y1585110D02*
X2212300D01*
X2181300Y1584210D02*
X2212300D01*
X2181300Y1583310D02*
X2212300D01*
X1942972Y1618962D02*
X1976972D01*
X1942972Y1618062D02*
X1976972D01*
X1942972Y1617162D02*
X1976972D01*
X1942972Y1616262D02*
X1976972D01*
X1942972Y1615362D02*
X1976972D01*
X1942972Y1614462D02*
X1976972D01*
X1942972Y1613562D02*
X1976972D01*
X1942972Y1612662D02*
X1976972D01*
X1942972Y1611762D02*
X1976972D01*
X1942972Y1610862D02*
X1976972D01*
X1942972Y1609962D02*
X1976972D01*
X1942972Y1609062D02*
X1976972D01*
X1942972Y1608162D02*
X1976972D01*
X1942972Y1607262D02*
X1976972D01*
X1942972Y1606362D02*
X1976972D01*
X1942972Y1605462D02*
X1976972D01*
X1942972Y1604562D02*
X1976972D01*
X1942972Y1603662D02*
X1976972D01*
X1942972Y1602762D02*
X1976972D01*
X1942972Y1601862D02*
X1976972D01*
X1942972Y1600962D02*
X1976972D01*
X1942972Y1600062D02*
X1976972D01*
X1942972Y1599162D02*
X1976972D01*
X1942972Y1598262D02*
X1976972D01*
X1942972Y1597362D02*
X1976972D01*
X1942972Y1596462D02*
X1976972D01*
X1942972Y1595562D02*
X1976972D01*
X1942972Y1594662D02*
X1976972D01*
X1942972Y1593762D02*
X1976972D01*
X1942972Y1592862D02*
X1976972D01*
X1942972Y1591962D02*
X1976972D01*
X1942972Y1591062D02*
X1976972D01*
X1942972Y1590162D02*
X1976972D01*
X1942972Y1589262D02*
X1976972D01*
X2314634Y1595066D02*
X2333634D01*
X2314634Y1594166D02*
X2333634D01*
X2314634Y1593266D02*
X2333634D01*
X2314634Y1592366D02*
X2333634D01*
X2314634Y1591466D02*
X2333634D01*
X2314634Y1590566D02*
X2333634D01*
X2314634Y1589666D02*
X2333634D01*
X2314634Y1588766D02*
X2333634D01*
X2314634Y1587866D02*
X2333634D01*
X2314634Y1586966D02*
X2333634D01*
X2314634Y1586066D02*
X2333634D01*
X2314634Y1585166D02*
X2333634D01*
X2314634Y1584266D02*
X2333634D01*
X2314634Y1583366D02*
X2333634D01*
X2314634Y1582466D02*
X2333634D01*
X2314634Y1581566D02*
X2333634D01*
X2314634Y1580666D02*
X2333634D01*
X2314634Y1579766D02*
X2333634D01*
X2314634Y1578866D02*
X2333634D01*
X2314634Y1577966D02*
X2333634D01*
X2314634Y1577066D02*
X2333634D01*
X2314634Y1576166D02*
X2333634D01*
X2314634Y1575266D02*
X2333634D01*
X2314634Y1574366D02*
X2333634D01*
X2314634Y1573466D02*
X2333634D01*
X2314634Y1572566D02*
X2333634D01*
X2314634Y1571666D02*
X2333634D01*
X2314634Y1570766D02*
X2333634D01*
X2314634Y1569866D02*
X2333634D01*
X2314634Y1568966D02*
X2333634D01*
X2314634Y1568066D02*
X2333634D01*
X2314634Y1567166D02*
X2333634D01*
X2269030Y1612575D02*
X2298030D01*
X2269030Y1611675D02*
X2298030D01*
X2269030Y1610775D02*
X2298030D01*
X2269030Y1609875D02*
X2298030D01*
X2269030Y1608975D02*
X2298030D01*
X2269030Y1608075D02*
X2298030D01*
X2269030Y1607175D02*
X2298030D01*
X2269030Y1606275D02*
X2298030D01*
X2269030Y1605375D02*
X2298030D01*
X2269030Y1604475D02*
X2298030D01*
X2269030Y1603575D02*
X2298030D01*
X2269030Y1602675D02*
X2298030D01*
X2269030Y1601775D02*
X2298030D01*
X2269030Y1600875D02*
X2298030D01*
X2269030Y1599975D02*
X2298030D01*
X2269030Y1599075D02*
X2298030D01*
X2269030Y1598175D02*
X2298030D01*
X2269030Y1597275D02*
X2298030D01*
X2269030Y1596375D02*
X2298030D01*
X2269030Y1595475D02*
X2298030D01*
X2269030Y1594575D02*
X2298030D01*
X2114461Y1605089D02*
X2153461D01*
X2114461Y1604189D02*
X2153461D01*
X2114461Y1603289D02*
X2153461D01*
X2114461Y1602389D02*
X2153461D01*
X2114461Y1601489D02*
X2153461D01*
X2114461Y1600589D02*
X2153461D01*
X2114461Y1599689D02*
X2153461D01*
X2114461Y1598789D02*
X2153461D01*
X2114461Y1597889D02*
X2153461D01*
X2114461Y1596989D02*
X2153461D01*
X2114461Y1596089D02*
X2153461D01*
X2114461Y1595189D02*
X2153461D01*
X2114461Y1594289D02*
X2153461D01*
X2114461Y1593389D02*
X2153461D01*
X2114461Y1592489D02*
X2153461D01*
X2114461Y1591589D02*
X2153461D01*
X2114461Y1590689D02*
X2153461D01*
X2114461Y1589789D02*
X2153461D01*
X2114461Y1588889D02*
X2153461D01*
X2114461Y1587989D02*
X2153461D01*
X2114461Y1587089D02*
X2153461D01*
X2148556Y1781031D02*
X2167556D01*
X2148556Y1780131D02*
X2167556D01*
X2148556Y1779231D02*
X2167556D01*
X2148556Y1778331D02*
X2167556D01*
X2148556Y1777431D02*
X2167556D01*
X2148556Y1776531D02*
X2167556D01*
X2148556Y1775631D02*
X2167556D01*
X2148556Y1774731D02*
X2167556D01*
X2148556Y1773831D02*
X2167556D01*
X2148556Y1772931D02*
X2167556D01*
X2148556Y1772031D02*
X2167556D01*
X2148556Y1771131D02*
X2167556D01*
X2148556Y1770231D02*
X2167556D01*
X2148556Y1769331D02*
X2167556D01*
X2148556Y1768431D02*
X2167556D01*
X2148556Y1767531D02*
X2167556D01*
X2148556Y1766631D02*
X2167556D01*
X2148556Y1765731D02*
X2167556D01*
X2148556Y1764831D02*
X2167556D01*
X2148556Y1763931D02*
X2167556D01*
X2148556Y1763031D02*
X2167556D01*
X2148556Y1762131D02*
X2167556D01*
X2148556Y1761231D02*
X2167556D01*
X2148556Y1760331D02*
X2167556D01*
X2148556Y1759431D02*
X2167556D01*
X2148556Y1758531D02*
X2167556D01*
X2148556Y1757631D02*
X2167556D01*
X2148556Y1756731D02*
X2167556D01*
X2148556Y1755831D02*
X2167556D01*
X2148556Y1754931D02*
X2167556D01*
X2148556Y1754031D02*
X2167556D01*
X2148556Y1753131D02*
X2167556D01*
X2141680Y1678640D02*
X2160680D01*
X2141680Y1677740D02*
X2160680D01*
X2141680Y1676840D02*
X2160680D01*
X2141680Y1675940D02*
X2160680D01*
X2141680Y1675040D02*
X2160680D01*
X2141680Y1674140D02*
X2160680D01*
X2141680Y1673240D02*
X2160680D01*
X2141680Y1672340D02*
X2160680D01*
X2141680Y1671440D02*
X2160680D01*
X2141680Y1670540D02*
X2160680D01*
X2141680Y1669640D02*
X2160680D01*
X2141680Y1668740D02*
X2160680D01*
X2141680Y1667840D02*
X2160680D01*
X2141680Y1666940D02*
X2160680D01*
X2141680Y1666040D02*
X2160680D01*
X2141680Y1665140D02*
X2160680D01*
X2141680Y1664240D02*
X2160680D01*
X2141680Y1663340D02*
X2160680D01*
X2141680Y1662440D02*
X2160680D01*
X2141680Y1661540D02*
X2160680D01*
X2141680Y1660640D02*
X2160680D01*
X2141680Y1659740D02*
X2160680D01*
X2141680Y1658840D02*
X2160680D01*
X2141680Y1657940D02*
X2160680D01*
X2141680Y1657040D02*
X2160680D01*
X2141680Y1656140D02*
X2160680D01*
X2141680Y1655240D02*
X2160680D01*
X2141680Y1654340D02*
X2160680D01*
X2141680Y1653440D02*
X2160680D01*
X2141680Y1652540D02*
X2160680D01*
X2141680Y1651640D02*
X2160680D01*
X2141680Y1650740D02*
X2160680D01*
X2097767Y1715166D02*
X2126767D01*
X2097767Y1714266D02*
X2126767D01*
X2097767Y1713366D02*
X2126767D01*
X2097767Y1712466D02*
X2126767D01*
X2097767Y1711566D02*
X2126767D01*
X2097767Y1710666D02*
X2126767D01*
X2097767Y1709766D02*
X2126767D01*
X2097767Y1708866D02*
X2126767D01*
X2097767Y1707966D02*
X2126767D01*
X2097767Y1707066D02*
X2126767D01*
X2097767Y1706166D02*
X2126767D01*
X2097767Y1705266D02*
X2126767D01*
X2097767Y1704366D02*
X2126767D01*
X2097767Y1703466D02*
X2126767D01*
X2097767Y1702566D02*
X2126767D01*
X2097767Y1701666D02*
X2126767D01*
X2097767Y1700766D02*
X2126767D01*
X2097767Y1699866D02*
X2126767D01*
X2097767Y1698966D02*
X2126767D01*
X2097767Y1698066D02*
X2126767D01*
X2097767Y1697166D02*
X2126767D01*
X2132638Y1640065D02*
X2151638D01*
X2132638Y1639165D02*
X2151638D01*
X2132638Y1638265D02*
X2151638D01*
X2132638Y1637365D02*
X2151638D01*
X2132638Y1636465D02*
X2151638D01*
X2132638Y1635565D02*
X2151638D01*
X2132638Y1634665D02*
X2151638D01*
X2132638Y1633765D02*
X2151638D01*
X2132638Y1632865D02*
X2151638D01*
X2132638Y1631965D02*
X2151638D01*
X2132638Y1631065D02*
X2151638D01*
X2132638Y1630165D02*
X2151638D01*
X2132638Y1629265D02*
X2151638D01*
X2132638Y1628365D02*
X2151638D01*
X2132638Y1627465D02*
X2151638D01*
X2132638Y1626565D02*
X2151638D01*
X2132638Y1625665D02*
X2151638D01*
X2132638Y1624765D02*
X2151638D01*
X2132638Y1623865D02*
X2151638D01*
X2132638Y1622965D02*
X2151638D01*
X2132638Y1622065D02*
X2151638D01*
X2132638Y1621165D02*
X2151638D01*
X2132638Y1620265D02*
X2151638D01*
X2132638Y1619365D02*
X2151638D01*
X2132638Y1618465D02*
X2151638D01*
X2132638Y1617565D02*
X2151638D01*
X2132638Y1616665D02*
X2151638D01*
X2132638Y1615765D02*
X2151638D01*
X2132638Y1614865D02*
X2151638D01*
X2132638Y1613965D02*
X2151638D01*
X2132638Y1613065D02*
X2151638D01*
X2132638Y1612165D02*
X2151638D01*
X2182075Y1605173D02*
X2211075D01*
X2182075Y1604273D02*
X2211075D01*
X2182075Y1603373D02*
X2211075D01*
X2182075Y1602473D02*
X2211075D01*
X2182075Y1601573D02*
X2211075D01*
X2182075Y1600673D02*
X2211075D01*
X2182075Y1599773D02*
X2211075D01*
X2182075Y1598873D02*
X2211075D01*
X2182075Y1597973D02*
X2211075D01*
X2182075Y1597073D02*
X2211075D01*
X2182075Y1596173D02*
X2211075D01*
X2182075Y1595273D02*
X2211075D01*
X2182075Y1594373D02*
X2211075D01*
X2182075Y1593473D02*
X2211075D01*
X2182075Y1592573D02*
X2211075D01*
X2182075Y1591673D02*
X2211075D01*
X2182075Y1590773D02*
X2211075D01*
X2182075Y1589873D02*
X2211075D01*
X2182075Y1588973D02*
X2211075D01*
X2182075Y1588073D02*
X2211075D01*
X2182075Y1587173D02*
X2211075D01*
X2040152Y1608107D02*
X2079152D01*
X2040152Y1607207D02*
X2079152D01*
X2040152Y1606307D02*
X2079152D01*
X2040152Y1605407D02*
X2079152D01*
X2040152Y1604507D02*
X2079152D01*
X2040152Y1603607D02*
X2079152D01*
X2040152Y1602707D02*
X2079152D01*
X2040152Y1601807D02*
X2079152D01*
X2040152Y1600907D02*
X2079152D01*
X2040152Y1600007D02*
X2079152D01*
X2040152Y1599107D02*
X2079152D01*
X2040152Y1598207D02*
X2079152D01*
X2040152Y1597307D02*
X2079152D01*
X2040152Y1596407D02*
X2079152D01*
X2040152Y1595507D02*
X2079152D01*
X2040152Y1594607D02*
X2079152D01*
X2040152Y1593707D02*
X2079152D01*
X2040152Y1592807D02*
X2079152D01*
X2040152Y1591907D02*
X2079152D01*
X2040152Y1591007D02*
X2079152D01*
X2040152Y1590107D02*
X2079152D01*
G74*
X0Y0D02*
M02*
